<svg width="374" height="214" viewBox="0 0 374 214" fill="none" xmlns="http://www.w3.org/2000/svg">
<path d="M186.667 6.5C172.33 6.5 160.667 18.1637 160.667 32.5C160.667 46.8363 172.33 58.5 186.667 58.5C201.003 58.5 212.667 46.8363 212.667 32.5C212.667 18.1637 201.003 6.5 186.667 6.5ZM196.003 38.1025C194.94 39.3975 191.042 42.9125 186.667 46.0413C182.292 42.9163 178.393 39.3975 177.33 38.1025C174.83 35.0563 173.633 31.9275 173.668 28.54C173.707 24.6575 176.82 21.4988 180.609 21.4988C183.359 21.4988 185.272 23.05 186.383 24.3438L186.667 24.6875L186.95 24.3438C188.042 23.0363 189.969 21.5 192.724 21.5C196.513 21.5 199.627 24.6588 199.665 28.5413C199.7 31.9275 198.502 35.0563 196.003 38.1025Z" fill="#FACC15"/>
<path d="M197.163 39.0538L197.163 39.054C195.974 40.5024 191.948 44.1084 187.539 47.2614L186.667 47.885L185.795 47.2619C181.385 44.1118 177.359 40.5022 176.171 39.054C173.486 35.7821 172.129 32.3205 172.168 28.5251L197.163 39.0538ZM197.163 39.0538C199.846 35.7824 201.204 32.3209 201.165 28.5263M197.163 39.0538L201.165 28.5263M186.66 22.4707C188.001 21.2139 190.024 20 192.724 20C197.37 20 201.119 23.8557 201.165 28.5263M186.66 22.4707L201.165 28.5263M186.66 22.4707C185.323 21.2286 183.312 19.9988 180.609 19.9988C175.964 19.9988 172.215 23.8541 172.168 28.5245L186.66 22.4707Z" fill="#FB923C" stroke="#0F172A" stroke-width="3"/>
<path d="M153.128 93.2773V144.5H142.124V105.793L130.241 109.414V100.906L152.038 93.2773H153.128ZM176.542 136.238H177.245C179.823 136.238 182.085 135.945 184.03 135.359C185.975 134.75 187.604 133.848 188.917 132.652C190.253 131.434 191.26 129.922 191.94 128.117C192.62 126.289 192.96 124.133 192.96 121.648V111.523C192.96 109.766 192.796 108.242 192.467 106.953C192.163 105.641 191.706 104.551 191.096 103.684C190.487 102.816 189.772 102.172 188.952 101.75C188.132 101.328 187.229 101.117 186.245 101.117C185.214 101.117 184.299 101.387 183.503 101.926C182.729 102.465 182.061 103.191 181.499 104.105C180.936 105.02 180.514 106.051 180.233 107.199C179.952 108.348 179.811 109.52 179.811 110.715C179.811 112.004 179.952 113.211 180.233 114.336C180.538 115.461 180.971 116.445 181.534 117.289C182.096 118.133 182.811 118.801 183.678 119.293C184.546 119.762 185.553 119.996 186.702 119.996C187.85 119.996 188.846 119.785 189.69 119.363C190.557 118.941 191.284 118.379 191.87 117.676C192.479 116.973 192.936 116.211 193.241 115.391C193.546 114.547 193.698 113.715 193.698 112.895L197.073 115.145C197.073 116.715 196.721 118.262 196.018 119.785C195.339 121.309 194.389 122.691 193.171 123.934C191.952 125.176 190.534 126.172 188.917 126.922C187.323 127.648 185.624 128.012 183.819 128.012C181.475 128.012 179.366 127.59 177.491 126.746C175.639 125.902 174.069 124.719 172.78 123.195C171.491 121.648 170.507 119.82 169.827 117.711C169.147 115.602 168.807 113.281 168.807 110.75C168.807 108.266 169.229 105.934 170.073 103.754C170.917 101.551 172.112 99.6172 173.659 97.9531C175.206 96.2891 177.046 94.9766 179.178 94.0156C181.335 93.0547 183.714 92.5742 186.315 92.5742C188.87 92.5742 191.214 93.0664 193.346 94.0508C195.479 95.0117 197.342 96.3945 198.936 98.1992C200.53 100.004 201.76 102.195 202.628 104.773C203.518 107.352 203.964 110.258 203.964 113.492V117.289C203.964 120.758 203.565 123.945 202.768 126.852C201.971 129.758 200.799 132.336 199.253 134.586C197.729 136.836 195.878 138.746 193.698 140.316C191.542 141.887 189.092 143.082 186.35 143.902C183.632 144.699 180.655 145.098 177.421 145.098H176.542V136.238ZM220.592 121.438L211.874 119.363L214.862 93.3125H244.182V101.996H223.862L222.632 112.789C223.264 112.414 224.26 112.004 225.62 111.559C226.979 111.09 228.503 110.855 230.19 110.855C232.698 110.855 234.924 111.242 236.87 112.016C238.815 112.789 240.456 113.914 241.792 115.391C243.151 116.844 244.171 118.637 244.85 120.77C245.553 122.902 245.905 125.328 245.905 128.047C245.905 130.297 245.553 132.453 244.85 134.516C244.147 136.555 243.069 138.383 241.616 140C240.186 141.594 238.37 142.859 236.167 143.797C233.964 144.734 231.374 145.203 228.397 145.203C226.147 145.203 223.967 144.863 221.858 144.184C219.749 143.504 217.85 142.52 216.163 141.23C214.499 139.918 213.174 138.324 212.19 136.449C211.229 134.574 210.737 132.465 210.714 130.121H221.682C221.799 131.48 222.139 132.652 222.702 133.637C223.264 134.598 224.026 135.348 224.987 135.887C225.948 136.402 227.061 136.66 228.327 136.66C229.546 136.66 230.577 136.426 231.421 135.957C232.264 135.465 232.932 134.797 233.424 133.953C233.94 133.109 234.315 132.125 234.549 131C234.784 129.875 234.901 128.668 234.901 127.379C234.901 126.043 234.749 124.848 234.444 123.793C234.139 122.715 233.671 121.801 233.038 121.051C232.405 120.277 231.596 119.691 230.612 119.293C229.651 118.871 228.491 118.66 227.132 118.66C225.35 118.66 223.956 118.953 222.948 119.539C221.94 120.125 221.155 120.758 220.592 121.438Z" fill="#FACC15"/>
<path d="M119.999 199.57V189.82H122.178V202.5H120.104L119.999 199.57ZM120.409 196.898L121.311 196.875C121.311 197.719 121.221 198.5 121.042 199.219C120.87 199.93 120.589 200.547 120.198 201.07C119.807 201.594 119.296 202.004 118.663 202.301C118.03 202.59 117.26 202.734 116.354 202.734C115.737 202.734 115.171 202.645 114.655 202.465C114.147 202.285 113.71 202.008 113.342 201.633C112.975 201.258 112.69 200.77 112.487 200.168C112.292 199.566 112.194 198.844 112.194 198V189.82H114.362V198.023C114.362 198.594 114.424 199.066 114.549 199.441C114.682 199.809 114.858 200.102 115.077 200.32C115.303 200.531 115.553 200.68 115.827 200.766C116.108 200.852 116.397 200.895 116.694 200.895C117.616 200.895 118.346 200.719 118.885 200.367C119.424 200.008 119.811 199.527 120.046 198.926C120.288 198.316 120.409 197.641 120.409 196.898ZM132.866 199.137C132.866 198.824 132.796 198.535 132.655 198.27C132.522 197.996 132.245 197.75 131.823 197.531C131.409 197.305 130.784 197.109 129.948 196.945C129.245 196.797 128.608 196.621 128.038 196.418C127.475 196.215 126.995 195.969 126.596 195.68C126.206 195.391 125.905 195.051 125.694 194.66C125.483 194.27 125.378 193.812 125.378 193.289C125.378 192.789 125.487 192.316 125.706 191.871C125.932 191.426 126.249 191.031 126.655 190.688C127.069 190.344 127.565 190.074 128.143 189.879C128.721 189.684 129.366 189.586 130.077 189.586C131.092 189.586 131.96 189.766 132.678 190.125C133.397 190.484 133.948 190.965 134.331 191.566C134.714 192.16 134.905 192.82 134.905 193.547H132.737C132.737 193.195 132.632 192.855 132.421 192.527C132.217 192.191 131.917 191.914 131.518 191.695C131.128 191.477 130.647 191.367 130.077 191.367C129.475 191.367 128.987 191.461 128.612 191.648C128.245 191.828 127.975 192.059 127.803 192.34C127.639 192.621 127.557 192.918 127.557 193.23C127.557 193.465 127.596 193.676 127.674 193.863C127.76 194.043 127.909 194.211 128.12 194.367C128.331 194.516 128.628 194.656 129.01 194.789C129.393 194.922 129.882 195.055 130.475 195.188C131.514 195.422 132.37 195.703 133.042 196.031C133.714 196.359 134.214 196.762 134.542 197.238C134.87 197.715 135.034 198.293 135.034 198.973C135.034 199.527 134.917 200.035 134.682 200.496C134.456 200.957 134.124 201.355 133.686 201.691C133.257 202.02 132.741 202.277 132.139 202.465C131.546 202.645 130.878 202.734 130.135 202.734C129.018 202.734 128.073 202.535 127.299 202.137C126.526 201.738 125.94 201.223 125.542 200.59C125.143 199.957 124.944 199.289 124.944 198.586H127.124C127.155 199.18 127.327 199.652 127.639 200.004C127.952 200.348 128.335 200.594 128.788 200.742C129.241 200.883 129.69 200.953 130.135 200.953C130.729 200.953 131.225 200.875 131.624 200.719C132.03 200.562 132.339 200.348 132.549 200.074C132.76 199.801 132.866 199.488 132.866 199.137ZM143.143 202.734C142.26 202.734 141.46 202.586 140.741 202.289C140.03 201.984 139.417 201.559 138.901 201.012C138.393 200.465 138.003 199.816 137.729 199.066C137.456 198.316 137.319 197.496 137.319 196.605V196.113C137.319 195.082 137.471 194.164 137.776 193.359C138.081 192.547 138.495 191.859 139.018 191.297C139.542 190.734 140.135 190.309 140.799 190.02C141.464 189.73 142.151 189.586 142.862 189.586C143.768 189.586 144.549 189.742 145.206 190.055C145.87 190.367 146.413 190.805 146.835 191.367C147.257 191.922 147.569 192.578 147.772 193.336C147.975 194.086 148.077 194.906 148.077 195.797V196.77H138.608V195H145.909V194.836C145.878 194.273 145.76 193.727 145.557 193.195C145.362 192.664 145.049 192.227 144.62 191.883C144.19 191.539 143.604 191.367 142.862 191.367C142.37 191.367 141.917 191.473 141.503 191.684C141.089 191.887 140.733 192.191 140.436 192.598C140.139 193.004 139.909 193.5 139.745 194.086C139.581 194.672 139.499 195.348 139.499 196.113V196.605C139.499 197.207 139.581 197.773 139.745 198.305C139.917 198.828 140.163 199.289 140.483 199.688C140.811 200.086 141.206 200.398 141.667 200.625C142.135 200.852 142.667 200.965 143.26 200.965C144.026 200.965 144.674 200.809 145.206 200.496C145.737 200.184 146.202 199.766 146.6 199.242L147.913 200.285C147.639 200.699 147.292 201.094 146.87 201.469C146.448 201.844 145.928 202.148 145.311 202.383C144.702 202.617 143.979 202.734 143.143 202.734ZM152.776 191.812V202.5H150.608V189.82H152.717L152.776 191.812ZM156.737 189.75L156.725 191.766C156.546 191.727 156.374 191.703 156.21 191.695C156.053 191.68 155.874 191.672 155.671 191.672C155.171 191.672 154.729 191.75 154.346 191.906C153.964 192.062 153.639 192.281 153.374 192.562C153.108 192.844 152.897 193.18 152.741 193.57C152.592 193.953 152.495 194.375 152.448 194.836L151.839 195.188C151.839 194.422 151.913 193.703 152.061 193.031C152.217 192.359 152.456 191.766 152.776 191.25C153.096 190.727 153.503 190.32 153.995 190.031C154.495 189.734 155.089 189.586 155.776 189.586C155.932 189.586 156.112 189.605 156.315 189.645C156.518 189.676 156.659 189.711 156.737 189.75ZM169.768 200.953C170.284 200.953 170.76 200.848 171.198 200.637C171.635 200.426 171.995 200.137 172.276 199.77C172.557 199.395 172.717 198.969 172.757 198.492H174.819C174.78 199.242 174.526 199.941 174.057 200.59C173.596 201.23 172.991 201.75 172.241 202.148C171.491 202.539 170.667 202.734 169.768 202.734C168.815 202.734 167.983 202.566 167.272 202.23C166.569 201.895 165.983 201.434 165.514 200.848C165.053 200.262 164.706 199.59 164.471 198.832C164.245 198.066 164.132 197.258 164.132 196.406V195.914C164.132 195.062 164.245 194.258 164.471 193.5C164.706 192.734 165.053 192.059 165.514 191.473C165.983 190.887 166.569 190.426 167.272 190.09C167.983 189.754 168.815 189.586 169.768 189.586C170.76 189.586 171.628 189.789 172.37 190.195C173.112 190.594 173.694 191.141 174.116 191.836C174.546 192.523 174.78 193.305 174.819 194.18H172.757C172.717 193.656 172.569 193.184 172.311 192.762C172.061 192.34 171.717 192.004 171.28 191.754C170.85 191.496 170.346 191.367 169.768 191.367C169.104 191.367 168.546 191.5 168.092 191.766C167.647 192.023 167.292 192.375 167.026 192.82C166.768 193.258 166.581 193.746 166.464 194.285C166.354 194.816 166.299 195.359 166.299 195.914V196.406C166.299 196.961 166.354 197.508 166.464 198.047C166.573 198.586 166.757 199.074 167.014 199.512C167.28 199.949 167.635 200.301 168.081 200.566C168.534 200.824 169.096 200.953 169.768 200.953ZM176.682 196.301V196.031C176.682 195.117 176.815 194.27 177.081 193.488C177.346 192.699 177.729 192.016 178.229 191.438C178.729 190.852 179.335 190.398 180.046 190.078C180.757 189.75 181.553 189.586 182.436 189.586C183.327 189.586 184.128 189.75 184.839 190.078C185.557 190.398 186.167 190.852 186.667 191.438C187.174 192.016 187.561 192.699 187.827 193.488C188.092 194.27 188.225 195.117 188.225 196.031V196.301C188.225 197.215 188.092 198.062 187.827 198.844C187.561 199.625 187.174 200.309 186.667 200.895C186.167 201.473 185.561 201.926 184.85 202.254C184.147 202.574 183.35 202.734 182.46 202.734C181.569 202.734 180.768 202.574 180.057 202.254C179.346 201.926 178.737 201.473 178.229 200.895C177.729 200.309 177.346 199.625 177.081 198.844C176.815 198.062 176.682 197.215 176.682 196.301ZM178.85 196.031V196.301C178.85 196.934 178.924 197.531 179.073 198.094C179.221 198.648 179.444 199.141 179.741 199.57C180.046 200 180.424 200.34 180.878 200.59C181.331 200.832 181.858 200.953 182.46 200.953C183.053 200.953 183.573 200.832 184.018 200.59C184.471 200.34 184.846 200 185.143 199.57C185.44 199.141 185.663 198.648 185.811 198.094C185.967 197.531 186.046 196.934 186.046 196.301V196.031C186.046 195.406 185.967 194.816 185.811 194.262C185.663 193.699 185.436 193.203 185.132 192.773C184.835 192.336 184.46 191.992 184.007 191.742C183.561 191.492 183.038 191.367 182.436 191.367C181.842 191.367 181.319 191.492 180.866 191.742C180.421 191.992 180.046 192.336 179.741 192.773C179.444 193.203 179.221 193.699 179.073 194.262C178.924 194.816 178.85 195.406 178.85 196.031ZM198.702 199.57V189.82H200.882V202.5H198.807L198.702 199.57ZM199.112 196.898L200.014 196.875C200.014 197.719 199.924 198.5 199.745 199.219C199.573 199.93 199.292 200.547 198.901 201.07C198.51 201.594 197.999 202.004 197.366 202.301C196.733 202.59 195.964 202.734 195.057 202.734C194.44 202.734 193.874 202.645 193.358 202.465C192.85 202.285 192.413 202.008 192.046 201.633C191.678 201.258 191.393 200.77 191.19 200.168C190.995 199.566 190.897 198.844 190.897 198V189.82H193.065V198.023C193.065 198.594 193.128 199.066 193.253 199.441C193.385 199.809 193.561 200.102 193.78 200.32C194.007 200.531 194.257 200.68 194.53 200.766C194.811 200.852 195.1 200.895 195.397 200.895C196.319 200.895 197.049 200.719 197.589 200.367C198.128 200.008 198.514 199.527 198.749 198.926C198.991 198.316 199.112 197.641 199.112 196.898ZM206.354 192.527V202.5H204.186V189.82H206.237L206.354 192.527ZM205.839 195.68L204.936 195.645C204.944 194.777 205.073 193.977 205.323 193.242C205.573 192.5 205.924 191.855 206.378 191.309C206.831 190.762 207.37 190.34 207.995 190.043C208.628 189.738 209.327 189.586 210.092 189.586C210.717 189.586 211.28 189.672 211.78 189.844C212.28 190.008 212.706 190.273 213.057 190.641C213.417 191.008 213.69 191.484 213.878 192.07C214.065 192.648 214.159 193.355 214.159 194.191V202.5H211.979V194.168C211.979 193.504 211.882 192.973 211.686 192.574C211.491 192.168 211.206 191.875 210.831 191.695C210.456 191.508 209.995 191.414 209.448 191.414C208.909 191.414 208.417 191.527 207.971 191.754C207.534 191.98 207.155 192.293 206.835 192.691C206.522 193.09 206.276 193.547 206.096 194.062C205.924 194.57 205.839 195.109 205.839 195.68ZM222.76 189.82V191.484H215.905V189.82H222.76ZM218.225 186.738H220.393V199.359C220.393 199.789 220.46 200.113 220.592 200.332C220.725 200.551 220.897 200.695 221.108 200.766C221.319 200.836 221.546 200.871 221.788 200.871C221.967 200.871 222.155 200.855 222.35 200.824C222.553 200.785 222.706 200.754 222.807 200.73L222.819 202.5C222.647 202.555 222.421 202.605 222.139 202.652C221.866 202.707 221.534 202.734 221.143 202.734C220.612 202.734 220.124 202.629 219.678 202.418C219.233 202.207 218.878 201.855 218.612 201.363C218.354 200.863 218.225 200.191 218.225 199.348V186.738ZM227.471 191.812V202.5H225.303V189.82H227.413L227.471 191.812ZM231.432 189.75L231.421 191.766C231.241 191.727 231.069 191.703 230.905 191.695C230.749 191.68 230.569 191.672 230.366 191.672C229.866 191.672 229.424 191.75 229.042 191.906C228.659 192.062 228.335 192.281 228.069 192.562C227.803 192.844 227.592 193.18 227.436 193.57C227.288 193.953 227.19 194.375 227.143 194.836L226.534 195.188C226.534 194.422 226.608 193.703 226.757 193.031C226.913 192.359 227.151 191.766 227.471 191.25C227.792 190.727 228.198 190.32 228.69 190.031C229.19 189.734 229.784 189.586 230.471 189.586C230.628 189.586 230.807 189.605 231.01 189.645C231.214 189.676 231.354 189.711 231.432 189.75ZM235.792 189.82V202.5H233.612V189.82H235.792ZM233.448 186.457C233.448 186.105 233.553 185.809 233.764 185.566C233.983 185.324 234.303 185.203 234.725 185.203C235.139 185.203 235.456 185.324 235.674 185.566C235.901 185.809 236.014 186.105 236.014 186.457C236.014 186.793 235.901 187.082 235.674 187.324C235.456 187.559 235.139 187.676 234.725 187.676C234.303 187.676 233.983 187.559 233.764 187.324C233.553 187.082 233.448 186.793 233.448 186.457ZM244.534 202.734C243.651 202.734 242.85 202.586 242.132 202.289C241.421 201.984 240.807 201.559 240.292 201.012C239.784 200.465 239.393 199.816 239.12 199.066C238.846 198.316 238.71 197.496 238.71 196.605V196.113C238.71 195.082 238.862 194.164 239.167 193.359C239.471 192.547 239.885 191.859 240.409 191.297C240.932 190.734 241.526 190.309 242.19 190.02C242.854 189.73 243.542 189.586 244.253 189.586C245.159 189.586 245.94 189.742 246.596 190.055C247.26 190.367 247.803 190.805 248.225 191.367C248.647 191.922 248.96 192.578 249.163 193.336C249.366 194.086 249.467 194.906 249.467 195.797V196.77H239.999V195H247.299V194.836C247.268 194.273 247.151 193.727 246.948 193.195C246.753 192.664 246.44 192.227 246.01 191.883C245.581 191.539 244.995 191.367 244.253 191.367C243.76 191.367 243.307 191.473 242.893 191.684C242.479 191.887 242.124 192.191 241.827 192.598C241.53 193.004 241.299 193.5 241.135 194.086C240.971 194.672 240.889 195.348 240.889 196.113V196.605C240.889 197.207 240.971 197.773 241.135 198.305C241.307 198.828 241.553 199.289 241.874 199.688C242.202 200.086 242.596 200.398 243.057 200.625C243.526 200.852 244.057 200.965 244.651 200.965C245.417 200.965 246.065 200.809 246.596 200.496C247.128 200.184 247.592 199.766 247.991 199.242L249.303 200.285C249.03 200.699 248.682 201.094 248.26 201.469C247.839 201.844 247.319 202.148 246.702 202.383C246.092 202.617 245.37 202.734 244.534 202.734ZM259.382 199.137C259.382 198.824 259.311 198.535 259.171 198.27C259.038 197.996 258.76 197.75 258.339 197.531C257.924 197.305 257.299 197.109 256.464 196.945C255.76 196.797 255.124 196.621 254.553 196.418C253.991 196.215 253.51 195.969 253.112 195.68C252.721 195.391 252.421 195.051 252.21 194.66C251.999 194.27 251.893 193.812 251.893 193.289C251.893 192.789 252.003 192.316 252.221 191.871C252.448 191.426 252.764 191.031 253.171 190.688C253.585 190.344 254.081 190.074 254.659 189.879C255.237 189.684 255.882 189.586 256.592 189.586C257.608 189.586 258.475 189.766 259.194 190.125C259.913 190.484 260.464 190.965 260.846 191.566C261.229 192.16 261.421 192.82 261.421 193.547H259.253C259.253 193.195 259.147 192.855 258.936 192.527C258.733 192.191 258.432 191.914 258.034 191.695C257.643 191.477 257.163 191.367 256.592 191.367C255.991 191.367 255.503 191.461 255.128 191.648C254.76 191.828 254.491 192.059 254.319 192.34C254.155 192.621 254.073 192.918 254.073 193.23C254.073 193.465 254.112 193.676 254.19 193.863C254.276 194.043 254.424 194.211 254.635 194.367C254.846 194.516 255.143 194.656 255.526 194.789C255.909 194.922 256.397 195.055 256.991 195.188C258.03 195.422 258.885 195.703 259.557 196.031C260.229 196.359 260.729 196.762 261.057 197.238C261.385 197.715 261.549 198.293 261.549 198.973C261.549 199.527 261.432 200.035 261.198 200.496C260.971 200.957 260.639 201.355 260.202 201.691C259.772 202.02 259.257 202.277 258.655 202.465C258.061 202.645 257.393 202.734 256.651 202.734C255.534 202.734 254.589 202.535 253.815 202.137C253.042 201.738 252.456 201.223 252.057 200.59C251.659 199.957 251.46 199.289 251.46 198.586H253.639C253.671 199.18 253.842 199.652 254.155 200.004C254.467 200.348 254.85 200.594 255.303 200.742C255.757 200.883 256.206 200.953 256.651 200.953C257.245 200.953 257.741 200.875 258.139 200.719C258.546 200.562 258.854 200.348 259.065 200.074C259.276 199.801 259.382 199.488 259.382 199.137Z" fill="#FACC15"/>
</svg>
