<svg width="174" height="227" viewBox="0 0 174 227" fill="none" xmlns="http://www.w3.org/2000/svg">
<path d="M7.47388 23.5703C7.47388 23.3359 7.43742 23.1276 7.3645 22.9453C7.29679 22.763 7.1744 22.5964 6.99731 22.4453C6.82023 22.2943 6.57023 22.1484 6.24731 22.0078C5.92961 21.862 5.52336 21.7135 5.02856 21.5625C4.4869 21.3958 3.9869 21.2109 3.52856 21.0078C3.07544 20.7995 2.67961 20.5599 2.34106 20.2891C2.00252 20.013 1.7395 19.6979 1.552 19.3438C1.3645 18.9844 1.27075 18.5703 1.27075 18.1016C1.27075 17.638 1.36711 17.2161 1.55981 16.8359C1.75773 16.4557 2.03638 16.1276 2.39575 15.8516C2.76034 15.5703 3.19002 15.3542 3.68481 15.2031C4.17961 15.0469 4.72648 14.9688 5.32544 14.9688C6.16919 14.9688 6.89575 15.125 7.50513 15.4375C8.11971 15.75 8.59106 16.1693 8.91919 16.6953C9.25252 17.2214 9.41919 17.8021 9.41919 18.4375H7.47388C7.47388 18.0625 7.39315 17.7318 7.23169 17.4453C7.07544 17.1536 6.83586 16.9245 6.51294 16.7578C6.19523 16.5911 5.79159 16.5078 5.302 16.5078C4.83846 16.5078 4.45304 16.5781 4.14575 16.7188C3.83846 16.8594 3.60929 17.0495 3.45825 17.2891C3.30721 17.5286 3.23169 17.7995 3.23169 18.1016C3.23169 18.3151 3.28117 18.5104 3.38013 18.6875C3.47909 18.8594 3.63013 19.0208 3.83325 19.1719C4.03638 19.3177 4.29159 19.4557 4.59888 19.5859C4.90617 19.7161 5.26815 19.8411 5.68481 19.9609C6.31502 20.1484 6.8645 20.3568 7.33325 20.5859C7.802 20.8099 8.19263 21.0651 8.50513 21.3516C8.81763 21.638 9.052 21.9635 9.20825 22.3281C9.3645 22.6875 9.44263 23.0964 9.44263 23.5547C9.44263 24.0339 9.34627 24.4661 9.15356 24.8516C8.96086 25.2318 8.68481 25.5573 8.32544 25.8281C7.97127 26.0938 7.54419 26.2995 7.04419 26.4453C6.5494 26.5859 5.99731 26.6562 5.38794 26.6562C4.84106 26.6562 4.302 26.5833 3.77075 26.4375C3.24471 26.2917 2.76554 26.0703 2.33325 25.7734C1.90096 25.4714 1.55721 25.0964 1.302 24.6484C1.04679 24.1953 0.919189 23.6667 0.919189 23.0625H2.88013C2.88013 23.4323 2.94263 23.7474 3.06763 24.0078C3.19784 24.2682 3.37752 24.4818 3.60669 24.6484C3.83586 24.8099 4.10148 24.9297 4.40356 25.0078C4.71086 25.0859 5.03898 25.125 5.38794 25.125C5.84627 25.125 6.22909 25.0599 6.53638 24.9297C6.84888 24.7995 7.08325 24.6172 7.2395 24.3828C7.39575 24.1484 7.47388 23.8776 7.47388 23.5703ZM16.0754 24.5078V18.0469H17.9661V26.5H16.1848L16.0754 24.5078ZM16.3411 22.75L16.9739 22.7344C16.9739 23.3021 16.9114 23.8255 16.7864 24.3047C16.6614 24.7786 16.4687 25.1927 16.2083 25.5469C15.9478 25.8958 15.6145 26.1693 15.2083 26.3672C14.802 26.5599 14.315 26.6562 13.7473 26.6562C13.3359 26.6562 12.9583 26.5964 12.6145 26.4766C12.2708 26.3568 11.9739 26.1719 11.7239 25.9219C11.4791 25.6719 11.289 25.3464 11.1536 24.9453C11.0181 24.5443 10.9504 24.0651 10.9504 23.5078V18.0469H12.8333V23.5234C12.8333 23.8307 12.8697 24.0885 12.9426 24.2969C13.0155 24.5 13.1145 24.6641 13.2395 24.7891C13.3645 24.9141 13.5103 25.0026 13.677 25.0547C13.8437 25.1068 14.0208 25.1328 14.2083 25.1328C14.7447 25.1328 15.1666 25.0286 15.4739 24.8203C15.7864 24.6068 16.0077 24.3203 16.1379 23.9609C16.2734 23.6016 16.3411 23.1979 16.3411 22.75ZM21.7864 19.6719V29.75H19.9036V18.0469H21.6379L21.7864 19.6719ZM27.2942 22.1953V22.3594C27.2942 22.974 27.2213 23.5443 27.0754 24.0703C26.9348 24.5911 26.7239 25.0469 26.4426 25.4375C26.1666 25.8229 25.8254 26.1224 25.4192 26.3359C25.0129 26.5495 24.5442 26.6562 24.0129 26.6562C23.4869 26.6562 23.026 26.5599 22.6301 26.3672C22.2395 26.1693 21.9088 25.8906 21.6379 25.5312C21.3671 25.1719 21.1484 24.75 20.9817 24.2656C20.8202 23.776 20.7056 23.2396 20.6379 22.6562V22.0234C20.7056 21.4036 20.8202 20.8411 20.9817 20.3359C21.1484 19.8307 21.3671 19.3958 21.6379 19.0312C21.9088 18.6667 22.2395 18.3854 22.6301 18.1875C23.0208 17.9896 23.4765 17.8906 23.9973 17.8906C24.5286 17.8906 24.9999 17.9948 25.4114 18.2031C25.8228 18.4062 26.1692 18.6979 26.4504 19.0781C26.7317 19.4531 26.9426 19.9062 27.0833 20.4375C27.2239 20.9635 27.2942 21.5495 27.2942 22.1953ZM25.4114 22.3594V22.1953C25.4114 21.8047 25.3749 21.4427 25.302 21.1094C25.2291 20.7708 25.1145 20.474 24.9583 20.2188C24.802 19.9635 24.6015 19.7656 24.3567 19.625C24.1171 19.4792 23.828 19.4062 23.4895 19.4062C23.1562 19.4062 22.8697 19.4635 22.6301 19.5781C22.3905 19.6875 22.19 19.8411 22.0286 20.0391C21.8671 20.237 21.7421 20.4688 21.6536 20.7344C21.565 20.9948 21.5025 21.2786 21.4661 21.5859V23.1016C21.5286 23.4766 21.6353 23.8203 21.7864 24.1328C21.9374 24.4453 22.151 24.6953 22.427 24.8828C22.7083 25.0651 23.0676 25.1562 23.5051 25.1562C23.8437 25.1562 24.1327 25.0833 24.3723 24.9375C24.6119 24.7917 24.8072 24.5911 24.9583 24.3359C25.1145 24.0755 25.2291 23.776 25.302 23.4375C25.3749 23.099 25.4114 22.7396 25.4114 22.3594ZM30.7864 19.6719V29.75H28.9036V18.0469H30.6379L30.7864 19.6719ZM36.2942 22.1953V22.3594C36.2942 22.974 36.2213 23.5443 36.0754 24.0703C35.9348 24.5911 35.7239 25.0469 35.4426 25.4375C35.1666 25.8229 34.8254 26.1224 34.4192 26.3359C34.0129 26.5495 33.5442 26.6562 33.0129 26.6562C32.4869 26.6562 32.026 26.5599 31.6301 26.3672C31.2395 26.1693 30.9088 25.8906 30.6379 25.5312C30.3671 25.1719 30.1484 24.75 29.9817 24.2656C29.8202 23.776 29.7056 23.2396 29.6379 22.6562V22.0234C29.7056 21.4036 29.8202 20.8411 29.9817 20.3359C30.1484 19.8307 30.3671 19.3958 30.6379 19.0312C30.9088 18.6667 31.2395 18.3854 31.6301 18.1875C32.0208 17.9896 32.4765 17.8906 32.9973 17.8906C33.5286 17.8906 33.9999 17.9948 34.4114 18.2031C34.8228 18.4062 35.1692 18.6979 35.4504 19.0781C35.7317 19.4531 35.9426 19.9062 36.0833 20.4375C36.2239 20.9635 36.2942 21.5495 36.2942 22.1953ZM34.4114 22.3594V22.1953C34.4114 21.8047 34.3749 21.4427 34.302 21.1094C34.2291 20.7708 34.1145 20.474 33.9583 20.2188C33.802 19.9635 33.6015 19.7656 33.3567 19.625C33.1171 19.4792 32.828 19.4062 32.4895 19.4062C32.1562 19.4062 31.8697 19.4635 31.6301 19.5781C31.3905 19.6875 31.19 19.8411 31.0286 20.0391C30.8671 20.237 30.7421 20.4688 30.6536 20.7344C30.565 20.9948 30.5025 21.2786 30.4661 21.5859V23.1016C30.5286 23.4766 30.6353 23.8203 30.7864 24.1328C30.9374 24.4453 31.151 24.6953 31.427 24.8828C31.7083 25.0651 32.0676 25.1562 32.5051 25.1562C32.8437 25.1562 33.1327 25.0833 33.3723 24.9375C33.6119 24.7917 33.8072 24.5911 33.9583 24.3359C34.1145 24.0755 34.2291 23.776 34.302 23.4375C34.3749 23.099 34.4114 22.7396 34.4114 22.3594ZM37.5364 22.3672V22.1875C37.5364 21.5781 37.6249 21.013 37.802 20.4922C37.9791 19.9661 38.2343 19.5104 38.5676 19.125C38.9062 18.7344 39.3176 18.4323 39.802 18.2188C40.2916 18 40.8437 17.8906 41.4583 17.8906C42.078 17.8906 42.6301 18 43.1145 18.2188C43.6041 18.4323 44.0181 18.7344 44.3567 19.125C44.6952 19.5104 44.953 19.9661 45.1301 20.4922C45.3072 21.013 45.3958 21.5781 45.3958 22.1875V22.3672C45.3958 22.9766 45.3072 23.5417 45.1301 24.0625C44.953 24.5833 44.6952 25.0391 44.3567 25.4297C44.0181 25.8151 43.6067 26.1172 43.1223 26.3359C42.6379 26.5495 42.0885 26.6562 41.4739 26.6562C40.8541 26.6562 40.2994 26.5495 39.8098 26.3359C39.3254 26.1172 38.914 25.8151 38.5754 25.4297C38.2369 25.0391 37.9791 24.5833 37.802 24.0625C37.6249 23.5417 37.5364 22.9766 37.5364 22.3672ZM39.4192 22.1875V22.3672C39.4192 22.7474 39.4583 23.1068 39.5364 23.4453C39.6145 23.7839 39.7369 24.0807 39.9036 24.3359C40.0702 24.5911 40.2838 24.7917 40.5442 24.9375C40.8046 25.0833 41.1145 25.1562 41.4739 25.1562C41.8228 25.1562 42.1249 25.0833 42.3801 24.9375C42.6405 24.7917 42.8541 24.5911 43.0208 24.3359C43.1874 24.0807 43.3098 23.7839 43.3879 23.4453C43.4713 23.1068 43.5129 22.7474 43.5129 22.3672V22.1875C43.5129 21.8125 43.4713 21.4583 43.3879 21.125C43.3098 20.7865 43.1848 20.487 43.0129 20.2266C42.8463 19.9661 42.6327 19.763 42.3723 19.6172C42.1171 19.4661 41.8124 19.3906 41.4583 19.3906C41.1041 19.3906 40.7968 19.4661 40.5364 19.6172C40.2812 19.763 40.0702 19.9661 39.9036 20.2266C39.7369 20.487 39.6145 20.7865 39.5364 21.125C39.4583 21.4583 39.4192 21.8125 39.4192 22.1875ZM48.8645 19.6562V26.5H46.9817V18.0469H48.7786L48.8645 19.6562ZM51.4504 17.9922L51.4348 19.7422C51.3202 19.7214 51.1952 19.7057 51.0598 19.6953C50.9296 19.6849 50.7994 19.6797 50.6692 19.6797C50.3463 19.6797 50.0624 19.7266 49.8176 19.8203C49.5728 19.9089 49.3671 20.0391 49.2004 20.2109C49.039 20.3776 48.914 20.5807 48.8254 20.8203C48.7369 21.0599 48.6848 21.3281 48.6692 21.625L48.2395 21.6562C48.2395 21.125 48.2916 20.6328 48.3958 20.1797C48.4999 19.7266 48.6562 19.3281 48.8645 18.9844C49.078 18.6406 49.3437 18.3724 49.6614 18.1797C49.9843 17.987 50.3567 17.8906 50.7786 17.8906C50.8931 17.8906 51.0155 17.901 51.1458 17.9219C51.2812 17.9427 51.3827 17.9661 51.4504 17.9922ZM56.8958 18.0469V19.4219H52.1301V18.0469H56.8958ZM53.5051 15.9766H55.3879V24.1641C55.3879 24.4245 55.4244 24.625 55.4973 24.7656C55.5754 24.901 55.6822 24.9922 55.8176 25.0391C55.953 25.0859 56.1119 25.1094 56.2942 25.1094C56.4244 25.1094 56.5494 25.1016 56.6692 25.0859C56.789 25.0703 56.8853 25.0547 56.9583 25.0391L56.9661 26.4766C56.8098 26.5234 56.6275 26.5651 56.4192 26.6016C56.2161 26.638 55.9817 26.6562 55.7161 26.6562C55.2838 26.6562 54.901 26.5807 54.5676 26.4297C54.2343 26.2734 53.9739 26.0208 53.7864 25.6719C53.5989 25.3229 53.5051 24.8594 53.5051 24.2812V15.9766Z" fill="white"/>
<path d="M8.52075 66.8828H10.0208C9.94263 67.6016 9.7369 68.2448 9.40356 68.8125C9.07023 69.3802 8.59888 69.8307 7.9895 70.1641C7.38013 70.4922 6.61971 70.6562 5.70825 70.6562C5.04159 70.6562 4.43481 70.5312 3.88794 70.2812C3.34627 70.0312 2.88013 69.6771 2.4895 69.2188C2.09888 68.7552 1.79679 68.2005 1.58325 67.5547C1.37492 66.9036 1.27075 66.1797 1.27075 65.3828V64.25C1.27075 63.4531 1.37492 62.7318 1.58325 62.0859C1.79679 61.4349 2.10148 60.8776 2.49731 60.4141C2.89836 59.9505 3.38013 59.5938 3.94263 59.3438C4.50513 59.0938 5.13794 58.9688 5.84106 58.9688C6.70044 58.9688 7.427 59.1302 8.02075 59.4531C8.6145 59.776 9.07544 60.224 9.40356 60.7969C9.7369 61.3646 9.94263 62.0234 10.0208 62.7734H8.52075C8.44784 62.2422 8.31242 61.7865 8.1145 61.4062C7.91659 61.0208 7.63534 60.724 7.27075 60.5156C6.90617 60.3073 6.42961 60.2031 5.84106 60.2031C5.33586 60.2031 4.89054 60.2995 4.50513 60.4922C4.12492 60.6849 3.80461 60.9583 3.54419 61.3125C3.28898 61.6667 3.09627 62.0911 2.96606 62.5859C2.83586 63.0807 2.77075 63.6302 2.77075 64.2344V65.3828C2.77075 65.9401 2.82804 66.4635 2.94263 66.9531C3.06242 67.4427 3.24211 67.8724 3.48169 68.2422C3.72127 68.612 4.02596 68.9036 4.39575 69.1172C4.76554 69.3255 5.20304 69.4297 5.70825 69.4297C6.34888 69.4297 6.85929 69.3281 7.2395 69.125C7.61971 68.9219 7.90617 68.6302 8.09888 68.25C8.29679 67.8698 8.43742 67.4141 8.52075 66.8828ZM11.4739 66.3672V66.1875C11.4739 65.5781 11.5624 65.013 11.7395 64.4922C11.9166 63.9661 12.1718 63.5104 12.5051 63.125C12.8385 62.7344 13.2421 62.4323 13.7161 62.2188C14.19 62 14.7213 61.8906 15.3098 61.8906C15.9036 61.8906 16.4374 62 16.9114 62.2188C17.3905 62.4323 17.7968 62.7344 18.1301 63.125C18.4687 63.5104 18.7265 63.9661 18.9036 64.4922C19.0806 65.013 19.1692 65.5781 19.1692 66.1875V66.3672C19.1692 66.9766 19.0806 67.5417 18.9036 68.0625C18.7265 68.5833 18.4687 69.0391 18.1301 69.4297C17.7968 69.8151 17.3931 70.1172 16.9192 70.3359C16.4504 70.5495 15.9192 70.6562 15.3254 70.6562C14.7317 70.6562 14.1978 70.5495 13.7239 70.3359C13.2499 70.1172 12.8437 69.8151 12.5051 69.4297C12.1718 69.0391 11.9166 68.5833 11.7395 68.0625C11.5624 67.5417 11.4739 66.9766 11.4739 66.3672ZM12.9192 66.1875V66.3672C12.9192 66.7891 12.9687 67.1875 13.0676 67.5625C13.1666 67.9323 13.315 68.2604 13.5129 68.5469C13.7161 68.8333 13.9687 69.0599 14.2708 69.2266C14.5728 69.388 14.9244 69.4688 15.3254 69.4688C15.7213 69.4688 16.0676 69.388 16.3645 69.2266C16.6666 69.0599 16.9166 68.8333 17.1145 68.5469C17.3124 68.2604 17.4609 67.9323 17.5598 67.5625C17.664 67.1875 17.7161 66.7891 17.7161 66.3672V66.1875C17.7161 65.7708 17.664 65.3776 17.5598 65.0078C17.4609 64.6328 17.3098 64.3021 17.1067 64.0156C16.9088 63.724 16.6588 63.4948 16.3567 63.3281C16.0598 63.1615 15.7109 63.0781 15.3098 63.0781C14.914 63.0781 14.565 63.1615 14.2629 63.3281C13.9661 63.4948 13.7161 63.724 13.5129 64.0156C13.315 64.3021 13.1666 64.6328 13.0676 65.0078C12.9687 65.3776 12.9192 65.7708 12.9192 66.1875ZM22.427 63.8516V70.5H20.9817V62.0469H22.3489L22.427 63.8516ZM22.0833 65.9531L21.4817 65.9297C21.4869 65.3516 21.5728 64.8177 21.7395 64.3281C21.9062 63.8333 22.1405 63.4036 22.4426 63.0391C22.7447 62.6745 23.1041 62.3932 23.5208 62.1953C23.9426 61.9922 24.4088 61.8906 24.9192 61.8906C25.3359 61.8906 25.7109 61.9479 26.0442 62.0625C26.3775 62.1719 26.6614 62.349 26.8958 62.5938C27.1353 62.8385 27.3176 63.1562 27.4426 63.5469C27.5676 63.9323 27.6301 64.4036 27.6301 64.9609V70.5H26.177V64.9453C26.177 64.5026 26.1119 64.1484 25.9817 63.8828C25.8515 63.612 25.6614 63.4167 25.4114 63.2969C25.1614 63.1719 24.8541 63.1094 24.4895 63.1094C24.1301 63.1094 23.802 63.1849 23.5051 63.3359C23.2135 63.487 22.9609 63.6953 22.7473 63.9609C22.539 64.2266 22.3749 64.5312 22.2551 64.875C22.1405 65.2135 22.0833 65.5729 22.0833 65.9531ZM33.3645 62.0469V63.1562H28.7942V62.0469H33.3645ZM30.3411 59.9922H31.7864V68.4062C31.7864 68.6927 31.8306 68.9089 31.9192 69.0547C32.0077 69.2005 32.1223 69.2969 32.2629 69.3438C32.4036 69.3906 32.5546 69.4141 32.7161 69.4141C32.8359 69.4141 32.9609 69.4036 33.0911 69.3828C33.2265 69.3568 33.328 69.3359 33.3958 69.3203L33.4036 70.5C33.289 70.5365 33.1379 70.5703 32.9504 70.6016C32.7681 70.638 32.5468 70.6562 32.2864 70.6562C31.9322 70.6562 31.6067 70.5859 31.3098 70.4453C31.0129 70.3047 30.776 70.0703 30.5989 69.7422C30.427 69.4089 30.3411 68.9609 30.3411 68.3984V59.9922ZM40.0442 69.0547V64.7031C40.0442 64.3698 39.9765 64.0807 39.8411 63.8359C39.7109 63.5859 39.5129 63.3932 39.2473 63.2578C38.9817 63.1224 38.6536 63.0547 38.2629 63.0547C37.8984 63.0547 37.578 63.1172 37.302 63.2422C37.0312 63.3672 36.8176 63.5312 36.6614 63.7344C36.5103 63.9375 36.4348 64.1562 36.4348 64.3906H34.9895C34.9895 64.0885 35.0676 63.7891 35.2239 63.4922C35.3801 63.1953 35.6041 62.9271 35.8958 62.6875C36.1926 62.4427 36.5468 62.25 36.9583 62.1094C37.3749 61.9635 37.8385 61.8906 38.3489 61.8906C38.9635 61.8906 39.5051 61.9948 39.9739 62.2031C40.4478 62.4115 40.8176 62.7266 41.0833 63.1484C41.3541 63.5651 41.4895 64.0885 41.4895 64.7188V68.6562C41.4895 68.9375 41.5129 69.237 41.5598 69.5547C41.6119 69.8724 41.6874 70.1458 41.7864 70.375V70.5H40.2786C40.2056 70.3333 40.1484 70.112 40.1067 69.8359C40.065 69.5547 40.0442 69.2943 40.0442 69.0547ZM40.2942 65.375L40.3098 66.3906H38.8489C38.4374 66.3906 38.0702 66.4245 37.7473 66.4922C37.4244 66.5547 37.1536 66.651 36.9348 66.7812C36.7161 66.9115 36.5494 67.0755 36.4348 67.2734C36.3202 67.4661 36.2629 67.6927 36.2629 67.9531C36.2629 68.2188 36.3228 68.4609 36.4426 68.6797C36.5624 68.8984 36.7421 69.0729 36.9817 69.2031C37.2265 69.3281 37.526 69.3906 37.8801 69.3906C38.3228 69.3906 38.7135 69.2969 39.052 69.1094C39.3905 68.9219 39.6588 68.6927 39.8567 68.4219C40.0598 68.151 40.1692 67.888 40.1848 67.6328L40.802 68.3281C40.7655 68.5469 40.6666 68.7891 40.5051 69.0547C40.3437 69.3203 40.1275 69.5755 39.8567 69.8203C39.5911 70.0599 39.2734 70.2604 38.9036 70.4219C38.539 70.5781 38.1275 70.6562 37.6692 70.6562C37.0963 70.6562 36.5937 70.5443 36.1614 70.3203C35.7343 70.0964 35.401 69.7969 35.1614 69.4219C34.927 69.0417 34.8098 68.6172 34.8098 68.1484C34.8098 67.6953 34.8984 67.2969 35.0754 66.9531C35.2525 66.6042 35.5077 66.3151 35.8411 66.0859C36.1744 65.8516 36.5754 65.6745 37.0442 65.5547C37.5129 65.4349 38.0364 65.375 38.6145 65.375H40.2942ZM47.1458 69.4688C47.4895 69.4688 47.8072 69.3984 48.0989 69.2578C48.3905 69.1172 48.6301 68.9245 48.8176 68.6797C49.0051 68.4297 49.1119 68.1458 49.1379 67.8281H50.5129C50.4869 68.3281 50.3176 68.7943 50.0051 69.2266C49.6978 69.6536 49.2942 70 48.7942 70.2656C48.2942 70.526 47.7447 70.6562 47.1458 70.6562C46.5103 70.6562 45.9556 70.5443 45.4817 70.3203C45.0129 70.0964 44.6223 69.7891 44.3098 69.3984C44.0025 69.0078 43.7708 68.5599 43.6145 68.0547C43.4635 67.5443 43.3879 67.0052 43.3879 66.4375V66.1094C43.3879 65.5417 43.4635 65.0052 43.6145 64.5C43.7708 63.9896 44.0025 63.5391 44.3098 63.1484C44.6223 62.7578 45.0129 62.4505 45.4817 62.2266C45.9556 62.0026 46.5103 61.8906 47.1458 61.8906C47.8072 61.8906 48.3853 62.026 48.8801 62.2969C49.3749 62.5625 49.7629 62.9271 50.0442 63.3906C50.3306 63.849 50.4869 64.3698 50.5129 64.9531H49.1379C49.1119 64.6042 49.0129 64.2891 48.8411 64.0078C48.6744 63.7266 48.4452 63.5026 48.1536 63.3359C47.8671 63.1641 47.5312 63.0781 47.1458 63.0781C46.703 63.0781 46.3306 63.1667 46.0286 63.3438C45.7317 63.5156 45.4947 63.75 45.3176 64.0469C45.1458 64.3385 45.0208 64.6641 44.9426 65.0234C44.8697 65.3776 44.8333 65.7396 44.8333 66.1094V66.4375C44.8333 66.8073 44.8697 67.1719 44.9426 67.5312C45.0155 67.8906 45.1379 68.2161 45.3098 68.5078C45.4869 68.7995 45.7239 69.0339 46.0208 69.2109C46.3228 69.3828 46.6978 69.4688 47.1458 69.4688ZM55.677 62.0469V63.1562H51.1067V62.0469H55.677ZM52.6536 59.9922H54.0989V68.4062C54.0989 68.6927 54.1431 68.9089 54.2317 69.0547C54.3202 69.2005 54.4348 69.2969 54.5754 69.3438C54.7161 69.3906 54.8671 69.4141 55.0286 69.4141C55.1484 69.4141 55.2734 69.4036 55.4036 69.3828C55.539 69.3568 55.6405 69.3359 55.7083 69.3203L55.7161 70.5C55.6015 70.5365 55.4504 70.5703 55.2629 70.6016C55.0806 70.638 54.8593 70.6562 54.5989 70.6562C54.2447 70.6562 53.9192 70.5859 53.6223 70.4453C53.3254 70.3047 53.0885 70.0703 52.9114 69.7422C52.7395 69.4089 52.6536 68.9609 52.6536 68.3984V59.9922ZM68.0676 59.125H69.5676V66.8203C69.5676 67.6745 69.3775 68.3854 68.9973 68.9531C68.6171 69.5208 68.1119 69.9479 67.4817 70.2344C66.8567 70.5156 66.177 70.6562 65.4426 70.6562C64.6718 70.6562 63.9739 70.5156 63.3489 70.2344C62.7291 69.9479 62.2369 69.5208 61.8723 68.9531C61.5129 68.3854 61.3333 67.6745 61.3333 66.8203V59.125H62.8254V66.8203C62.8254 67.4141 62.9348 67.9036 63.1536 68.2891C63.3723 68.6745 63.677 68.9609 64.0676 69.1484C64.4635 69.3359 64.9218 69.4297 65.4426 69.4297C65.9687 69.4297 66.427 69.3359 66.8176 69.1484C67.2135 68.9609 67.5208 68.6745 67.7395 68.2891C67.9583 67.9036 68.0676 67.4141 68.0676 66.8203V59.125ZM76.6379 68.2578C76.6379 68.0495 76.5911 67.8568 76.4973 67.6797C76.4088 67.4974 76.2239 67.3333 75.9426 67.1875C75.6666 67.0365 75.2499 66.9062 74.6926 66.7969C74.2239 66.6979 73.7994 66.5807 73.4192 66.4453C73.0442 66.3099 72.7239 66.1458 72.4583 65.9531C72.1978 65.7604 71.9973 65.5339 71.8567 65.2734C71.7161 65.013 71.6458 64.7083 71.6458 64.3594C71.6458 64.026 71.7187 63.7109 71.8645 63.4141C72.0155 63.1172 72.2265 62.8542 72.4973 62.625C72.7734 62.3958 73.1041 62.2161 73.4895 62.0859C73.8749 61.9557 74.3046 61.8906 74.7786 61.8906C75.4556 61.8906 76.0338 62.0104 76.5129 62.25C76.9921 62.4896 77.3593 62.8099 77.6145 63.2109C77.8697 63.6068 77.9973 64.0469 77.9973 64.5312H76.552C76.552 64.2969 76.4817 64.0703 76.3411 63.8516C76.2056 63.6276 76.0051 63.4427 75.7395 63.2969C75.4791 63.151 75.1588 63.0781 74.7786 63.0781C74.3775 63.0781 74.052 63.1406 73.802 63.2656C73.5572 63.3854 73.3775 63.5391 73.2629 63.7266C73.1536 63.9141 73.0989 64.112 73.0989 64.3203C73.0989 64.4766 73.1249 64.6172 73.177 64.7422C73.2343 64.862 73.3333 64.974 73.4739 65.0781C73.6145 65.1771 73.8124 65.2708 74.0676 65.3594C74.3228 65.4479 74.6484 65.5365 75.0442 65.625C75.7369 65.7812 76.3072 65.9688 76.7551 66.1875C77.203 66.4062 77.5364 66.6745 77.7551 66.9922C77.9739 67.3099 78.0833 67.6953 78.0833 68.1484C78.0833 68.5182 78.0051 68.8568 77.8489 69.1641C77.6978 69.4714 77.4765 69.737 77.1848 69.9609C76.8984 70.1797 76.5546 70.3516 76.1536 70.4766C75.7577 70.5964 75.3124 70.6562 74.8176 70.6562C74.0728 70.6562 73.4426 70.5234 72.927 70.2578C72.4114 69.9922 72.0208 69.6484 71.7551 69.2266C71.4895 68.8047 71.3567 68.3594 71.3567 67.8906H72.8098C72.8306 68.2865 72.9452 68.6016 73.1536 68.8359C73.3619 69.0651 73.6171 69.2292 73.9192 69.3281C74.2213 69.4219 74.5208 69.4688 74.8176 69.4688C75.2135 69.4688 75.5442 69.4167 75.8098 69.3125C76.0806 69.2083 76.2864 69.0651 76.427 68.8828C76.5676 68.7005 76.6379 68.4922 76.6379 68.2578Z" fill="#E2E8F0"/>
<path d="M4.73169 116.5H2.35669L2.37231 115.273H4.73169C5.54419 115.273 6.22127 115.104 6.76294 114.766C7.30461 114.422 7.71086 113.943 7.98169 113.328C8.25773 112.708 8.39575 111.984 8.39575 111.156V110.461C8.39575 109.81 8.31763 109.232 8.16138 108.727C8.00513 108.216 7.77596 107.786 7.47388 107.438C7.17179 107.083 6.802 106.815 6.3645 106.633C5.93221 106.451 5.43481 106.359 4.87231 106.359H2.30981V105.125H4.87231C5.61711 105.125 6.29679 105.25 6.91138 105.5C7.52596 105.745 8.05461 106.102 8.49731 106.57C8.94523 107.034 9.28898 107.596 9.52856 108.258C9.76815 108.914 9.88794 109.654 9.88794 110.477V111.156C9.88794 111.979 9.76815 112.721 9.52856 113.383C9.28898 114.039 8.94263 114.599 8.4895 115.062C8.04159 115.526 7.49992 115.883 6.8645 116.133C6.23429 116.378 5.52336 116.5 4.73169 116.5ZM3.16138 105.125V116.5H1.65356V105.125H3.16138ZM15.4426 116.656C14.8541 116.656 14.3202 116.557 13.8411 116.359C13.3671 116.156 12.9583 115.872 12.6145 115.508C12.276 115.143 12.0155 114.711 11.8333 114.211C11.651 113.711 11.5598 113.164 11.5598 112.57V112.242C11.5598 111.555 11.6614 110.943 11.8645 110.406C12.0676 109.865 12.3437 109.406 12.6926 109.031C13.0416 108.656 13.4374 108.372 13.8801 108.18C14.3228 107.987 14.7812 107.891 15.2551 107.891C15.8593 107.891 16.3801 107.995 16.8176 108.203C17.2603 108.411 17.6223 108.703 17.9036 109.078C18.1848 109.448 18.3931 109.885 18.5286 110.391C18.664 110.891 18.7317 111.438 18.7317 112.031V112.68H12.4192V111.5H17.2864V111.391C17.2655 111.016 17.1874 110.651 17.052 110.297C16.9218 109.943 16.7135 109.651 16.427 109.422C16.1405 109.193 15.7499 109.078 15.2551 109.078C14.927 109.078 14.6249 109.148 14.3489 109.289C14.0728 109.424 13.8359 109.628 13.6379 109.898C13.44 110.169 13.2864 110.5 13.177 110.891C13.0676 111.281 13.0129 111.732 13.0129 112.242V112.57C13.0129 112.971 13.0676 113.349 13.177 113.703C13.2916 114.052 13.4556 114.359 13.6692 114.625C13.8879 114.891 14.151 115.099 14.4583 115.25C14.7708 115.401 15.1249 115.477 15.5208 115.477C16.0312 115.477 16.4635 115.372 16.8176 115.164C17.1718 114.956 17.4817 114.677 17.7473 114.328L18.6223 115.023C18.44 115.299 18.2083 115.562 17.927 115.812C17.6458 116.062 17.2994 116.266 16.8879 116.422C16.4817 116.578 15.9999 116.656 15.4426 116.656ZM22.8801 115.195L25.1926 108.047H26.6692L23.6301 116.5H22.6614L22.8801 115.195ZM20.9504 108.047L23.3333 115.234L23.4973 116.5H22.5286L19.4661 108.047H20.9504ZM31.4583 116.656C30.8697 116.656 30.3359 116.557 29.8567 116.359C29.3827 116.156 28.9739 115.872 28.6301 115.508C28.2916 115.143 28.0312 114.711 27.8489 114.211C27.6666 113.711 27.5754 113.164 27.5754 112.57V112.242C27.5754 111.555 27.677 110.943 27.8801 110.406C28.0833 109.865 28.3593 109.406 28.7083 109.031C29.0572 108.656 29.453 108.372 29.8958 108.18C30.3385 107.987 30.7968 107.891 31.2708 107.891C31.8749 107.891 32.3958 107.995 32.8333 108.203C33.276 108.411 33.6379 108.703 33.9192 109.078C34.2004 109.448 34.4088 109.885 34.5442 110.391C34.6796 110.891 34.7473 111.438 34.7473 112.031V112.68H28.4348V111.5H33.302V111.391C33.2812 111.016 33.203 110.651 33.0676 110.297C32.9374 109.943 32.7291 109.651 32.4426 109.422C32.1562 109.193 31.7655 109.078 31.2708 109.078C30.9426 109.078 30.6405 109.148 30.3645 109.289C30.0885 109.424 29.8515 109.628 29.6536 109.898C29.4556 110.169 29.302 110.5 29.1926 110.891C29.0833 111.281 29.0286 111.732 29.0286 112.242V112.57C29.0286 112.971 29.0833 113.349 29.1926 113.703C29.3072 114.052 29.4713 114.359 29.6848 114.625C29.9036 114.891 30.1666 115.099 30.4739 115.25C30.7864 115.401 31.1405 115.477 31.5364 115.477C32.0468 115.477 32.4791 115.372 32.8333 115.164C33.1874 114.956 33.4973 114.677 33.7629 114.328L34.6379 115.023C34.4556 115.299 34.2239 115.562 33.9426 115.812C33.6614 116.062 33.315 116.266 32.9036 116.422C32.4973 116.578 32.0155 116.656 31.4583 116.656ZM38.0051 104.5V116.5H36.552V104.5H38.0051ZM39.9426 112.367V112.188C39.9426 111.578 40.0312 111.013 40.2083 110.492C40.3853 109.966 40.6405 109.51 40.9739 109.125C41.3072 108.734 41.7109 108.432 42.1848 108.219C42.6588 108 43.19 107.891 43.7786 107.891C44.3723 107.891 44.9062 108 45.3801 108.219C45.8593 108.432 46.2655 108.734 46.5989 109.125C46.9374 109.51 47.1952 109.966 47.3723 110.492C47.5494 111.013 47.6379 111.578 47.6379 112.188V112.367C47.6379 112.977 47.5494 113.542 47.3723 114.062C47.1952 114.583 46.9374 115.039 46.5989 115.43C46.2655 115.815 45.8619 116.117 45.3879 116.336C44.9192 116.549 44.3879 116.656 43.7942 116.656C43.2004 116.656 42.6666 116.549 42.1926 116.336C41.7187 116.117 41.3124 115.815 40.9739 115.43C40.6405 115.039 40.3853 114.583 40.2083 114.062C40.0312 113.542 39.9426 112.977 39.9426 112.367ZM41.3879 112.188V112.367C41.3879 112.789 41.4374 113.188 41.5364 113.562C41.6353 113.932 41.7838 114.26 41.9817 114.547C42.1848 114.833 42.4374 115.06 42.7395 115.227C43.0416 115.388 43.3931 115.469 43.7942 115.469C44.19 115.469 44.5364 115.388 44.8333 115.227C45.1353 115.06 45.3853 114.833 45.5833 114.547C45.7812 114.26 45.9296 113.932 46.0286 113.562C46.1327 113.188 46.1848 112.789 46.1848 112.367V112.188C46.1848 111.771 46.1327 111.378 46.0286 111.008C45.9296 110.633 45.7786 110.302 45.5754 110.016C45.3775 109.724 45.1275 109.495 44.8254 109.328C44.5286 109.161 44.1796 109.078 43.7786 109.078C43.3827 109.078 43.0338 109.161 42.7317 109.328C42.4348 109.495 42.1848 109.724 41.9817 110.016C41.7838 110.302 41.6353 110.633 41.5364 111.008C41.4374 111.378 41.3879 111.771 41.3879 112.188ZM50.8958 109.672V119.75H49.4426V108.047H50.7708L50.8958 109.672ZM56.5911 112.203V112.367C56.5911 112.982 56.5181 113.552 56.3723 114.078C56.2265 114.599 56.0129 115.052 55.7317 115.438C55.4556 115.823 55.1145 116.122 54.7083 116.336C54.302 116.549 53.8359 116.656 53.3098 116.656C52.7734 116.656 52.2994 116.568 51.8879 116.391C51.4765 116.214 51.1275 115.956 50.8411 115.617C50.5546 115.279 50.3254 114.872 50.1536 114.398C49.9869 113.924 49.8723 113.391 49.8098 112.797V111.922C49.8723 111.297 49.9895 110.737 50.1614 110.242C50.3333 109.747 50.5598 109.326 50.8411 108.977C51.1275 108.622 51.4739 108.354 51.8801 108.172C52.2864 107.984 52.7551 107.891 53.2864 107.891C53.8176 107.891 54.289 107.995 54.7004 108.203C55.1119 108.406 55.4583 108.698 55.7395 109.078C56.0208 109.458 56.2317 109.914 56.3723 110.445C56.5181 110.971 56.5911 111.557 56.5911 112.203ZM55.1379 112.367V112.203C55.1379 111.781 55.0937 111.385 55.0051 111.016C54.9166 110.641 54.7786 110.312 54.5911 110.031C54.4088 109.745 54.1744 109.521 53.8879 109.359C53.6015 109.193 53.2603 109.109 52.8645 109.109C52.4999 109.109 52.1822 109.172 51.9114 109.297C51.6458 109.422 51.4192 109.591 51.2317 109.805C51.0442 110.013 50.8905 110.253 50.7708 110.523C50.6562 110.789 50.5702 111.065 50.5129 111.352V113.375C50.6171 113.74 50.7629 114.083 50.9504 114.406C51.1379 114.724 51.3879 114.982 51.7004 115.18C52.0129 115.372 52.4062 115.469 52.8801 115.469C53.2708 115.469 53.6067 115.388 53.8879 115.227C54.1744 115.06 54.4088 114.833 54.5911 114.547C54.7786 114.26 54.9166 113.932 55.0051 113.562C55.0937 113.188 55.1379 112.789 55.1379 112.367ZM61.9426 116.656C61.3541 116.656 60.8202 116.557 60.3411 116.359C59.8671 116.156 59.4583 115.872 59.1145 115.508C58.776 115.143 58.5155 114.711 58.3333 114.211C58.151 113.711 58.0598 113.164 58.0598 112.57V112.242C58.0598 111.555 58.1614 110.943 58.3645 110.406C58.5676 109.865 58.8437 109.406 59.1926 109.031C59.5416 108.656 59.9374 108.372 60.3801 108.18C60.8228 107.987 61.2812 107.891 61.7551 107.891C62.3593 107.891 62.8801 107.995 63.3176 108.203C63.7603 108.411 64.1223 108.703 64.4036 109.078C64.6848 109.448 64.8931 109.885 65.0286 110.391C65.164 110.891 65.2317 111.438 65.2317 112.031V112.68H58.9192V111.5H63.7864V111.391C63.7655 111.016 63.6874 110.651 63.552 110.297C63.4218 109.943 63.2135 109.651 62.927 109.422C62.6405 109.193 62.2499 109.078 61.7551 109.078C61.427 109.078 61.1249 109.148 60.8489 109.289C60.5728 109.424 60.3359 109.628 60.1379 109.898C59.94 110.169 59.7864 110.5 59.677 110.891C59.5676 111.281 59.5129 111.732 59.5129 112.242V112.57C59.5129 112.971 59.5676 113.349 59.677 113.703C59.7916 114.052 59.9556 114.359 60.1692 114.625C60.3879 114.891 60.651 115.099 60.9583 115.25C61.2708 115.401 61.6249 115.477 62.0208 115.477C62.5312 115.477 62.9635 115.372 63.3176 115.164C63.6718 114.956 63.9817 114.677 64.2473 114.328L65.1223 115.023C64.94 115.299 64.7083 115.562 64.427 115.812C64.1458 116.062 63.7994 116.266 63.3879 116.422C62.9817 116.578 62.4999 116.656 61.9426 116.656ZM68.3645 109.375V116.5H66.9192V108.047H68.3254L68.3645 109.375ZM71.0051 108L70.9973 109.344C70.8775 109.318 70.7629 109.302 70.6536 109.297C70.5494 109.286 70.4296 109.281 70.2942 109.281C69.9609 109.281 69.6666 109.333 69.4114 109.438C69.1562 109.542 68.94 109.688 68.7629 109.875C68.5859 110.062 68.4452 110.286 68.3411 110.547C68.2421 110.802 68.177 111.083 68.1458 111.391L67.7395 111.625C67.7395 111.115 67.789 110.635 67.8879 110.188C67.9921 109.74 68.151 109.344 68.3645 109C68.578 108.651 68.8489 108.38 69.177 108.188C69.5103 107.99 69.9062 107.891 70.3645 107.891C70.4687 107.891 70.5885 107.904 70.7239 107.93C70.8593 107.951 70.953 107.974 71.0051 108ZM77.2629 114.258C77.2629 114.049 77.2161 113.857 77.1223 113.68C77.0338 113.497 76.8489 113.333 76.5676 113.188C76.2916 113.036 75.8749 112.906 75.3176 112.797C74.8489 112.698 74.4244 112.581 74.0442 112.445C73.6692 112.31 73.3489 112.146 73.0833 111.953C72.8228 111.76 72.6223 111.534 72.4817 111.273C72.3411 111.013 72.2708 110.708 72.2708 110.359C72.2708 110.026 72.3437 109.711 72.4895 109.414C72.6405 109.117 72.8515 108.854 73.1223 108.625C73.3984 108.396 73.7291 108.216 74.1145 108.086C74.4999 107.956 74.9296 107.891 75.4036 107.891C76.0806 107.891 76.6588 108.01 77.1379 108.25C77.6171 108.49 77.9843 108.81 78.2395 109.211C78.4947 109.607 78.6223 110.047 78.6223 110.531H77.177C77.177 110.297 77.1067 110.07 76.9661 109.852C76.8306 109.628 76.6301 109.443 76.3645 109.297C76.1041 109.151 75.7838 109.078 75.4036 109.078C75.0025 109.078 74.677 109.141 74.427 109.266C74.1822 109.385 74.0025 109.539 73.8879 109.727C73.7786 109.914 73.7239 110.112 73.7239 110.32C73.7239 110.477 73.7499 110.617 73.802 110.742C73.8593 110.862 73.9583 110.974 74.0989 111.078C74.2395 111.177 74.4374 111.271 74.6926 111.359C74.9478 111.448 75.2734 111.536 75.6692 111.625C76.3619 111.781 76.9322 111.969 77.3801 112.188C77.828 112.406 78.1614 112.674 78.3801 112.992C78.5989 113.31 78.7083 113.695 78.7083 114.148C78.7083 114.518 78.6301 114.857 78.4739 115.164C78.3228 115.471 78.1015 115.737 77.8098 115.961C77.5234 116.18 77.1796 116.352 76.7786 116.477C76.3827 116.596 75.9374 116.656 75.4426 116.656C74.6978 116.656 74.0676 116.523 73.552 116.258C73.0364 115.992 72.6458 115.648 72.3801 115.227C72.1145 114.805 71.9817 114.359 71.9817 113.891H73.4348C73.4556 114.286 73.5702 114.602 73.7786 114.836C73.9869 115.065 74.2421 115.229 74.5442 115.328C74.8463 115.422 75.1458 115.469 75.4426 115.469C75.8385 115.469 76.1692 115.417 76.4348 115.312C76.7056 115.208 76.9114 115.065 77.052 114.883C77.1926 114.701 77.2629 114.492 77.2629 114.258Z" fill="#E2E8F0"/>
<path d="M4.73169 162.5H2.35669L2.37231 161.273H4.73169C5.54419 161.273 6.22127 161.104 6.76294 160.766C7.30461 160.422 7.71086 159.943 7.98169 159.328C8.25773 158.708 8.39575 157.984 8.39575 157.156V156.461C8.39575 155.81 8.31763 155.232 8.16138 154.727C8.00513 154.216 7.77596 153.786 7.47388 153.438C7.17179 153.083 6.802 152.815 6.3645 152.633C5.93221 152.451 5.43481 152.359 4.87231 152.359H2.30981V151.125H4.87231C5.61711 151.125 6.29679 151.25 6.91138 151.5C7.52596 151.745 8.05461 152.102 8.49731 152.57C8.94523 153.034 9.28898 153.596 9.52856 154.258C9.76815 154.914 9.88794 155.654 9.88794 156.477V157.156C9.88794 157.979 9.76815 158.721 9.52856 159.383C9.28898 160.039 8.94263 160.599 8.4895 161.062C8.04159 161.526 7.49992 161.883 6.8645 162.133C6.23429 162.378 5.52336 162.5 4.73169 162.5ZM3.16138 151.125V162.5H1.65356V151.125H3.16138ZM11.552 158.367V158.188C11.552 157.578 11.6405 157.013 11.8176 156.492C11.9947 155.966 12.2499 155.51 12.5833 155.125C12.9166 154.734 13.3202 154.432 13.7942 154.219C14.2681 154 14.7994 153.891 15.3879 153.891C15.9817 153.891 16.5155 154 16.9895 154.219C17.4687 154.432 17.8749 154.734 18.2083 155.125C18.5468 155.51 18.8046 155.966 18.9817 156.492C19.1588 157.013 19.2473 157.578 19.2473 158.188V158.367C19.2473 158.977 19.1588 159.542 18.9817 160.062C18.8046 160.583 18.5468 161.039 18.2083 161.43C17.8749 161.815 17.4713 162.117 16.9973 162.336C16.5286 162.549 15.9973 162.656 15.4036 162.656C14.8098 162.656 14.276 162.549 13.802 162.336C13.328 162.117 12.9218 161.815 12.5833 161.43C12.2499 161.039 11.9947 160.583 11.8176 160.062C11.6405 159.542 11.552 158.977 11.552 158.367ZM12.9973 158.188V158.367C12.9973 158.789 13.0468 159.188 13.1458 159.562C13.2447 159.932 13.3931 160.26 13.5911 160.547C13.7942 160.833 14.0468 161.06 14.3489 161.227C14.651 161.388 15.0025 161.469 15.4036 161.469C15.7994 161.469 16.1458 161.388 16.4426 161.227C16.7447 161.06 16.9947 160.833 17.1926 160.547C17.3905 160.26 17.539 159.932 17.6379 159.562C17.7421 159.188 17.7942 158.789 17.7942 158.367V158.188C17.7942 157.771 17.7421 157.378 17.6379 157.008C17.539 156.633 17.3879 156.302 17.1848 156.016C16.9869 155.724 16.7369 155.495 16.4348 155.328C16.1379 155.161 15.789 155.078 15.3879 155.078C14.9921 155.078 14.6431 155.161 14.3411 155.328C14.0442 155.495 13.7942 155.724 13.5911 156.016C13.3931 156.302 13.2447 156.633 13.1458 157.008C13.0468 157.378 12.9973 157.771 12.9973 158.188ZM24.4426 161.469C24.7864 161.469 25.1041 161.398 25.3958 161.258C25.6874 161.117 25.927 160.924 26.1145 160.68C26.302 160.43 26.4088 160.146 26.4348 159.828H27.8098C27.7838 160.328 27.6145 160.794 27.302 161.227C26.9947 161.654 26.5911 162 26.0911 162.266C25.5911 162.526 25.0416 162.656 24.4426 162.656C23.8072 162.656 23.2525 162.544 22.7786 162.32C22.3098 162.096 21.9192 161.789 21.6067 161.398C21.2994 161.008 21.0676 160.56 20.9114 160.055C20.7603 159.544 20.6848 159.005 20.6848 158.438V158.109C20.6848 157.542 20.7603 157.005 20.9114 156.5C21.0676 155.99 21.2994 155.539 21.6067 155.148C21.9192 154.758 22.3098 154.451 22.7786 154.227C23.2525 154.003 23.8072 153.891 24.4426 153.891C25.1041 153.891 25.6822 154.026 26.177 154.297C26.6718 154.562 27.0598 154.927 27.3411 155.391C27.6275 155.849 27.7838 156.37 27.8098 156.953H26.4348C26.4088 156.604 26.3098 156.289 26.1379 156.008C25.9713 155.727 25.7421 155.503 25.4504 155.336C25.164 155.164 24.828 155.078 24.4426 155.078C23.9999 155.078 23.6275 155.167 23.3254 155.344C23.0286 155.516 22.7916 155.75 22.6145 156.047C22.4426 156.339 22.3176 156.664 22.2395 157.023C22.1666 157.378 22.1301 157.74 22.1301 158.109V158.438C22.1301 158.807 22.1666 159.172 22.2395 159.531C22.3124 159.891 22.4348 160.216 22.6067 160.508C22.7838 160.799 23.0208 161.034 23.3176 161.211C23.6197 161.383 23.9947 161.469 24.4426 161.469ZM34.6067 160.547V154.047H36.0598V162.5H34.677L34.6067 160.547ZM34.8801 158.766L35.4817 158.75C35.4817 159.312 35.4218 159.833 35.302 160.312C35.1874 160.786 34.9999 161.198 34.7395 161.547C34.4791 161.896 34.1379 162.169 33.7161 162.367C33.2942 162.56 32.7812 162.656 32.177 162.656C31.7655 162.656 31.3879 162.596 31.0442 162.477C30.7056 162.357 30.414 162.172 30.1692 161.922C29.9244 161.672 29.7343 161.346 29.5989 160.945C29.4687 160.544 29.4036 160.062 29.4036 159.5V154.047H30.8489V159.516C30.8489 159.896 30.8905 160.211 30.9739 160.461C31.0624 160.706 31.1796 160.901 31.3254 161.047C31.4765 161.188 31.6431 161.286 31.8254 161.344C32.0129 161.401 32.2056 161.43 32.4036 161.43C33.0181 161.43 33.5051 161.312 33.8645 161.078C34.2239 160.839 34.4817 160.518 34.6379 160.117C34.7994 159.711 34.8801 159.26 34.8801 158.766ZM39.7004 155.727V162.5H38.2473V154.047H39.6223L39.7004 155.727ZM39.4036 157.953L38.7317 157.93C38.7369 157.352 38.8124 156.818 38.9583 156.328C39.1041 155.833 39.3202 155.404 39.6067 155.039C39.8931 154.674 40.2499 154.393 40.677 154.195C41.1041 153.992 41.5989 153.891 42.1614 153.891C42.5572 153.891 42.9218 153.948 43.2551 154.062C43.5885 154.172 43.8775 154.346 44.1223 154.586C44.3671 154.826 44.5572 155.133 44.6926 155.508C44.828 155.883 44.8958 156.336 44.8958 156.867V162.5H43.4504V156.938C43.4504 156.495 43.3749 156.141 43.2239 155.875C43.078 155.609 42.8697 155.417 42.5989 155.297C42.328 155.172 42.0103 155.109 41.6458 155.109C41.2187 155.109 40.8619 155.185 40.5754 155.336C40.289 155.487 40.0598 155.695 39.8879 155.961C39.7161 156.227 39.5911 156.531 39.5129 156.875C39.44 157.214 39.4036 157.573 39.4036 157.953ZM44.8801 157.156L43.9114 157.453C43.9166 156.99 43.9921 156.544 44.1379 156.117C44.289 155.69 44.5051 155.31 44.7864 154.977C45.0728 154.643 45.4244 154.38 45.8411 154.188C46.2577 153.99 46.7343 153.891 47.2708 153.891C47.7239 153.891 48.1249 153.951 48.4739 154.07C48.828 154.19 49.1249 154.375 49.3645 154.625C49.6093 154.87 49.7942 155.185 49.9192 155.57C50.0442 155.956 50.1067 156.414 50.1067 156.945V162.5H48.6536V156.93C48.6536 156.456 48.578 156.089 48.427 155.828C48.2812 155.562 48.0728 155.378 47.802 155.273C47.5364 155.164 47.2187 155.109 46.8489 155.109C46.5312 155.109 46.2499 155.164 46.0051 155.273C45.7603 155.383 45.5546 155.534 45.3879 155.727C45.2213 155.914 45.0937 156.13 45.0051 156.375C44.9218 156.62 44.8801 156.88 44.8801 157.156ZM55.802 162.656C55.2135 162.656 54.6796 162.557 54.2004 162.359C53.7265 162.156 53.3176 161.872 52.9739 161.508C52.6353 161.143 52.3749 160.711 52.1926 160.211C52.0103 159.711 51.9192 159.164 51.9192 158.57V158.242C51.9192 157.555 52.0208 156.943 52.2239 156.406C52.427 155.865 52.703 155.406 53.052 155.031C53.401 154.656 53.7968 154.372 54.2395 154.18C54.6822 153.987 55.1405 153.891 55.6145 153.891C56.2187 153.891 56.7395 153.995 57.177 154.203C57.6197 154.411 57.9817 154.703 58.2629 155.078C58.5442 155.448 58.7525 155.885 58.8879 156.391C59.0234 156.891 59.0911 157.438 59.0911 158.031V158.68H52.7786V157.5H57.6458V157.391C57.6249 157.016 57.5468 156.651 57.4114 156.297C57.2812 155.943 57.0728 155.651 56.7864 155.422C56.4999 155.193 56.1093 155.078 55.6145 155.078C55.2864 155.078 54.9843 155.148 54.7083 155.289C54.4322 155.424 54.1952 155.628 53.9973 155.898C53.7994 156.169 53.6458 156.5 53.5364 156.891C53.427 157.281 53.3723 157.732 53.3723 158.242V158.57C53.3723 158.971 53.427 159.349 53.5364 159.703C53.651 160.052 53.815 160.359 54.0286 160.625C54.2473 160.891 54.5103 161.099 54.8176 161.25C55.1301 161.401 55.4843 161.477 55.8801 161.477C56.3905 161.477 56.8228 161.372 57.177 161.164C57.5312 160.956 57.8411 160.677 58.1067 160.328L58.9817 161.023C58.7994 161.299 58.5676 161.562 58.2864 161.812C58.0051 162.062 57.6588 162.266 57.2473 162.422C56.8411 162.578 56.3593 162.656 55.802 162.656ZM62.2239 155.852V162.5H60.7786V154.047H62.1458L62.2239 155.852ZM61.8801 157.953L61.2786 157.93C61.2838 157.352 61.3697 156.818 61.5364 156.328C61.703 155.833 61.9374 155.404 62.2395 155.039C62.5416 154.674 62.901 154.393 63.3176 154.195C63.7395 153.992 64.2056 153.891 64.7161 153.891C65.1327 153.891 65.5077 153.948 65.8411 154.062C66.1744 154.172 66.4583 154.349 66.6926 154.594C66.9322 154.839 67.1145 155.156 67.2395 155.547C67.3645 155.932 67.427 156.404 67.427 156.961V162.5H65.9739V156.945C65.9739 156.503 65.9088 156.148 65.7786 155.883C65.6484 155.612 65.4583 155.417 65.2083 155.297C64.9583 155.172 64.651 155.109 64.2864 155.109C63.927 155.109 63.5989 155.185 63.302 155.336C63.0103 155.487 62.7577 155.695 62.5442 155.961C62.3359 156.227 62.1718 156.531 62.052 156.875C61.9374 157.214 61.8801 157.573 61.8801 157.953ZM73.1614 154.047V155.156H68.5911V154.047H73.1614ZM70.1379 151.992H71.5833V160.406C71.5833 160.693 71.6275 160.909 71.7161 161.055C71.8046 161.201 71.9192 161.297 72.0598 161.344C72.2004 161.391 72.3515 161.414 72.5129 161.414C72.6327 161.414 72.7577 161.404 72.8879 161.383C73.0234 161.357 73.1249 161.336 73.1926 161.32L73.2004 162.5C73.0859 162.536 72.9348 162.57 72.7473 162.602C72.565 162.638 72.3437 162.656 72.0833 162.656C71.7291 162.656 71.4036 162.586 71.1067 162.445C70.8098 162.305 70.5728 162.07 70.3958 161.742C70.2239 161.409 70.1379 160.961 70.1379 160.398V151.992ZM79.8411 161.055V156.703C79.8411 156.37 79.7734 156.081 79.6379 155.836C79.5077 155.586 79.3098 155.393 79.0442 155.258C78.7786 155.122 78.4504 155.055 78.0598 155.055C77.6952 155.055 77.3749 155.117 77.0989 155.242C76.828 155.367 76.6145 155.531 76.4583 155.734C76.3072 155.938 76.2317 156.156 76.2317 156.391H74.7864C74.7864 156.089 74.8645 155.789 75.0208 155.492C75.177 155.195 75.401 154.927 75.6926 154.688C75.9895 154.443 76.3437 154.25 76.7551 154.109C77.1718 153.964 77.6353 153.891 78.1458 153.891C78.7603 153.891 79.302 153.995 79.7708 154.203C80.2447 154.411 80.6145 154.727 80.8801 155.148C81.151 155.565 81.2864 156.089 81.2864 156.719V160.656C81.2864 160.938 81.3098 161.237 81.3567 161.555C81.4088 161.872 81.4843 162.146 81.5833 162.375V162.5H80.0754C80.0025 162.333 79.9452 162.112 79.9036 161.836C79.8619 161.555 79.8411 161.294 79.8411 161.055ZM80.0911 157.375L80.1067 158.391H78.6458C78.2343 158.391 77.8671 158.424 77.5442 158.492C77.2213 158.555 76.9504 158.651 76.7317 158.781C76.5129 158.911 76.3463 159.076 76.2317 159.273C76.1171 159.466 76.0598 159.693 76.0598 159.953C76.0598 160.219 76.1197 160.461 76.2395 160.68C76.3593 160.898 76.539 161.073 76.7786 161.203C77.0234 161.328 77.3228 161.391 77.677 161.391C78.1197 161.391 78.5103 161.297 78.8489 161.109C79.1874 160.922 79.4556 160.693 79.6536 160.422C79.8567 160.151 79.9661 159.888 79.9817 159.633L80.5989 160.328C80.5624 160.547 80.4635 160.789 80.302 161.055C80.1405 161.32 79.9244 161.576 79.6536 161.82C79.3879 162.06 79.0702 162.26 78.7004 162.422C78.3359 162.578 77.9244 162.656 77.4661 162.656C76.8931 162.656 76.3905 162.544 75.9583 162.32C75.5312 162.096 75.1978 161.797 74.9583 161.422C74.7239 161.042 74.6067 160.617 74.6067 160.148C74.6067 159.695 74.6952 159.297 74.8723 158.953C75.0494 158.604 75.3046 158.315 75.6379 158.086C75.9713 157.852 76.3723 157.674 76.8411 157.555C77.3098 157.435 77.8333 157.375 78.4114 157.375H80.0911ZM87.0989 154.047V155.156H82.5286V154.047H87.0989ZM84.0754 151.992H85.5208V160.406C85.5208 160.693 85.565 160.909 85.6536 161.055C85.7421 161.201 85.8567 161.297 85.9973 161.344C86.1379 161.391 86.289 161.414 86.4504 161.414C86.5702 161.414 86.6952 161.404 86.8254 161.383C86.9609 161.357 87.0624 161.336 87.1301 161.32L87.1379 162.5C87.0234 162.536 86.8723 162.57 86.6848 162.602C86.5025 162.638 86.2812 162.656 86.0208 162.656C85.6666 162.656 85.3411 162.586 85.0442 162.445C84.7473 162.305 84.5103 162.07 84.3333 161.742C84.1614 161.409 84.0754 160.961 84.0754 160.398V151.992ZM90.3645 154.047V162.5H88.9114V154.047H90.3645ZM88.802 151.805C88.802 151.57 88.8723 151.372 89.0129 151.211C89.1588 151.049 89.3723 150.969 89.6536 150.969C89.9296 150.969 90.1405 151.049 90.2864 151.211C90.4374 151.372 90.5129 151.57 90.5129 151.805C90.5129 152.029 90.4374 152.221 90.2864 152.383C90.1405 152.539 89.9296 152.617 89.6536 152.617C89.3723 152.617 89.1588 152.539 89.0129 152.383C88.8723 152.221 88.802 152.029 88.802 151.805ZM92.302 158.367V158.188C92.302 157.578 92.3905 157.013 92.5676 156.492C92.7447 155.966 92.9999 155.51 93.3333 155.125C93.6666 154.734 94.0702 154.432 94.5442 154.219C95.0181 154 95.5494 153.891 96.1379 153.891C96.7317 153.891 97.2655 154 97.7395 154.219C98.2187 154.432 98.6249 154.734 98.9583 155.125C99.2968 155.51 99.5546 155.966 99.7317 156.492C99.9088 157.013 99.9973 157.578 99.9973 158.188V158.367C99.9973 158.977 99.9088 159.542 99.7317 160.062C99.5546 160.583 99.2968 161.039 98.9583 161.43C98.6249 161.815 98.2213 162.117 97.7473 162.336C97.2786 162.549 96.7473 162.656 96.1536 162.656C95.5598 162.656 95.026 162.549 94.552 162.336C94.078 162.117 93.6718 161.815 93.3333 161.43C92.9999 161.039 92.7447 160.583 92.5676 160.062C92.3905 159.542 92.302 158.977 92.302 158.367ZM93.7473 158.188V158.367C93.7473 158.789 93.7968 159.188 93.8958 159.562C93.9947 159.932 94.1431 160.26 94.3411 160.547C94.5442 160.833 94.7968 161.06 95.0989 161.227C95.401 161.388 95.7525 161.469 96.1536 161.469C96.5494 161.469 96.8958 161.388 97.1926 161.227C97.4947 161.06 97.7447 160.833 97.9426 160.547C98.1405 160.26 98.289 159.932 98.3879 159.562C98.4921 159.188 98.5442 158.789 98.5442 158.367V158.188C98.5442 157.771 98.4921 157.378 98.3879 157.008C98.289 156.633 98.1379 156.302 97.9348 156.016C97.7369 155.724 97.4869 155.495 97.1848 155.328C96.8879 155.161 96.539 155.078 96.1379 155.078C95.7421 155.078 95.3931 155.161 95.0911 155.328C94.7942 155.495 94.5442 155.724 94.3411 156.016C94.1431 156.302 93.9947 156.633 93.8958 157.008C93.7968 157.378 93.7473 157.771 93.7473 158.188ZM103.255 155.852V162.5H101.81V154.047H103.177L103.255 155.852ZM102.911 157.953L102.31 157.93C102.315 157.352 102.401 156.818 102.568 156.328C102.734 155.833 102.969 155.404 103.271 155.039C103.573 154.674 103.932 154.393 104.349 154.195C104.771 153.992 105.237 153.891 105.747 153.891C106.164 153.891 106.539 153.948 106.872 154.062C107.206 154.172 107.49 154.349 107.724 154.594C107.963 154.839 108.146 155.156 108.271 155.547C108.396 155.932 108.458 156.404 108.458 156.961V162.5H107.005V156.945C107.005 156.503 106.94 156.148 106.81 155.883C106.68 155.612 106.49 155.417 106.24 155.297C105.99 155.172 105.682 155.109 105.318 155.109C104.958 155.109 104.63 155.185 104.333 155.336C104.042 155.487 103.789 155.695 103.575 155.961C103.367 156.227 103.203 156.531 103.083 156.875C102.969 157.214 102.911 157.573 102.911 157.953Z" fill="#E2E8F0"/>
<path d="M3.27075 197.125V208.5H1.76294V197.125H3.27075ZM7.2395 201.852V208.5H5.79419V200.047H7.16138L7.2395 201.852ZM6.89575 203.953L6.29419 203.93C6.2994 203.352 6.38534 202.818 6.552 202.328C6.71867 201.833 6.95304 201.404 7.25513 201.039C7.55721 200.674 7.91659 200.393 8.33325 200.195C8.75513 199.992 9.22127 199.891 9.73169 199.891C10.1484 199.891 10.5234 199.948 10.8567 200.062C11.19 200.172 11.4739 200.349 11.7083 200.594C11.9478 200.839 12.1301 201.156 12.2551 201.547C12.3801 201.932 12.4426 202.404 12.4426 202.961V208.5H10.9895V202.945C10.9895 202.503 10.9244 202.148 10.7942 201.883C10.664 201.612 10.4739 201.417 10.2239 201.297C9.97388 201.172 9.66659 201.109 9.302 201.109C8.94263 201.109 8.6145 201.185 8.31763 201.336C8.02596 201.487 7.77336 201.695 7.55981 201.961C7.35148 202.227 7.18742 202.531 7.06763 202.875C6.95304 203.214 6.89575 203.573 6.89575 203.953ZM18.177 200.047V201.156H13.6067V200.047H18.177ZM15.1536 197.992H16.5989V206.406C16.5989 206.693 16.6431 206.909 16.7317 207.055C16.8202 207.201 16.9348 207.297 17.0754 207.344C17.2161 207.391 17.3671 207.414 17.5286 207.414C17.6484 207.414 17.7734 207.404 17.9036 207.383C18.039 207.357 18.1405 207.336 18.2083 207.32L18.2161 208.5C18.1015 208.536 17.9504 208.57 17.7629 208.602C17.5806 208.638 17.3593 208.656 17.0989 208.656C16.7447 208.656 16.4192 208.586 16.1223 208.445C15.8254 208.305 15.5885 208.07 15.4114 207.742C15.2395 207.409 15.1536 206.961 15.1536 206.398V197.992ZM23.3801 208.656C22.7916 208.656 22.2577 208.557 21.7786 208.359C21.3046 208.156 20.8958 207.872 20.552 207.508C20.2135 207.143 19.953 206.711 19.7708 206.211C19.5885 205.711 19.4973 205.164 19.4973 204.57V204.242C19.4973 203.555 19.5989 202.943 19.802 202.406C20.0051 201.865 20.2812 201.406 20.6301 201.031C20.9791 200.656 21.3749 200.372 21.8176 200.18C22.2603 199.987 22.7187 199.891 23.1926 199.891C23.7968 199.891 24.3176 199.995 24.7551 200.203C25.1978 200.411 25.5598 200.703 25.8411 201.078C26.1223 201.448 26.3306 201.885 26.4661 202.391C26.6015 202.891 26.6692 203.438 26.6692 204.031V204.68H20.3567V203.5H25.2239V203.391C25.203 203.016 25.1249 202.651 24.9895 202.297C24.8593 201.943 24.651 201.651 24.3645 201.422C24.078 201.193 23.6874 201.078 23.1926 201.078C22.8645 201.078 22.5624 201.148 22.2864 201.289C22.0103 201.424 21.7734 201.628 21.5754 201.898C21.3775 202.169 21.2239 202.5 21.1145 202.891C21.0051 203.281 20.9504 203.732 20.9504 204.242V204.57C20.9504 204.971 21.0051 205.349 21.1145 205.703C21.2291 206.052 21.3931 206.359 21.6067 206.625C21.8254 206.891 22.0885 207.099 22.3958 207.25C22.7083 207.401 23.0624 207.477 23.4583 207.477C23.9687 207.477 24.401 207.372 24.7551 207.164C25.1093 206.956 25.4192 206.677 25.6848 206.328L26.5598 207.023C26.3775 207.299 26.1458 207.562 25.8645 207.812C25.5833 208.062 25.2369 208.266 24.8254 208.422C24.4192 208.578 23.9374 208.656 23.3801 208.656ZM33.8333 200.047H35.1458V208.32C35.1458 209.065 34.9947 209.701 34.6926 210.227C34.3905 210.753 33.9687 211.151 33.427 211.422C32.8905 211.698 32.2708 211.836 31.5676 211.836C31.276 211.836 30.9322 211.789 30.5364 211.695C30.1458 211.607 29.7603 211.453 29.3801 211.234C29.0051 211.021 28.69 210.732 28.4348 210.367L29.1926 209.508C29.5468 209.935 29.9166 210.232 30.302 210.398C30.6926 210.565 31.078 210.648 31.4583 210.648C31.9166 210.648 32.3124 210.562 32.6458 210.391C32.9791 210.219 33.2369 209.964 33.4192 209.625C33.6067 209.292 33.7004 208.88 33.7004 208.391V201.906L33.8333 200.047ZM28.0129 204.367V204.203C28.0129 203.557 28.0885 202.971 28.2395 202.445C28.3958 201.914 28.6171 201.458 28.9036 201.078C29.1952 200.698 29.5468 200.406 29.9583 200.203C30.3697 199.995 30.8333 199.891 31.3489 199.891C31.8801 199.891 32.3437 199.984 32.7395 200.172C33.1405 200.354 33.4791 200.622 33.7551 200.977C34.0364 201.326 34.2577 201.747 34.4192 202.242C34.5806 202.737 34.6926 203.297 34.7551 203.922V204.641C34.6978 205.26 34.5859 205.818 34.4192 206.312C34.2577 206.807 34.0364 207.229 33.7551 207.578C33.4791 207.927 33.1405 208.195 32.7395 208.383C32.3385 208.565 31.8697 208.656 31.3333 208.656C30.828 208.656 30.3697 208.549 29.9583 208.336C29.552 208.122 29.203 207.823 28.9114 207.438C28.6197 207.052 28.3958 206.599 28.2395 206.078C28.0885 205.552 28.0129 204.982 28.0129 204.367ZM29.4583 204.203V204.367C29.4583 204.789 29.4999 205.185 29.5833 205.555C29.6718 205.924 29.8046 206.25 29.9817 206.531C30.164 206.812 30.3958 207.034 30.677 207.195C30.9583 207.352 31.2942 207.43 31.6848 207.43C32.164 207.43 32.5598 207.328 32.8723 207.125C33.1848 206.922 33.4322 206.654 33.6145 206.32C33.802 205.987 33.9478 205.625 34.052 205.234V203.352C33.9947 203.065 33.9062 202.789 33.7864 202.523C33.6718 202.253 33.5208 202.013 33.3333 201.805C33.151 201.591 32.9244 201.422 32.6536 201.297C32.3827 201.172 32.065 201.109 31.7004 201.109C31.3046 201.109 30.9635 201.193 30.677 201.359C30.3958 201.521 30.164 201.745 29.9817 202.031C29.8046 202.312 29.6718 202.641 29.5833 203.016C29.4999 203.385 29.4583 203.781 29.4583 204.203ZM38.7864 201.375V208.5H37.3411V200.047H38.7473L38.7864 201.375ZM41.427 200L41.4192 201.344C41.2994 201.318 41.1848 201.302 41.0754 201.297C40.9713 201.286 40.8515 201.281 40.7161 201.281C40.3827 201.281 40.0885 201.333 39.8333 201.438C39.578 201.542 39.3619 201.688 39.1848 201.875C39.0077 202.062 38.8671 202.286 38.7629 202.547C38.664 202.802 38.5989 203.083 38.5676 203.391L38.1614 203.625C38.1614 203.115 38.2109 202.635 38.3098 202.188C38.414 201.74 38.5728 201.344 38.7864 201C38.9999 200.651 39.2708 200.38 39.5989 200.188C39.9322 199.99 40.328 199.891 40.7864 199.891C40.8905 199.891 41.0103 199.904 41.1458 199.93C41.2812 199.951 41.3749 199.974 41.427 200ZM47.4348 207.055V202.703C47.4348 202.37 47.3671 202.081 47.2317 201.836C47.1015 201.586 46.9036 201.393 46.6379 201.258C46.3723 201.122 46.0442 201.055 45.6536 201.055C45.289 201.055 44.9687 201.117 44.6926 201.242C44.4218 201.367 44.2083 201.531 44.052 201.734C43.901 201.938 43.8254 202.156 43.8254 202.391H42.3801C42.3801 202.089 42.4583 201.789 42.6145 201.492C42.7708 201.195 42.9947 200.927 43.2864 200.688C43.5833 200.443 43.9374 200.25 44.3489 200.109C44.7655 199.964 45.2291 199.891 45.7395 199.891C46.3541 199.891 46.8958 199.995 47.3645 200.203C47.8385 200.411 48.2083 200.727 48.4739 201.148C48.7447 201.565 48.8801 202.089 48.8801 202.719V206.656C48.8801 206.938 48.9036 207.237 48.9504 207.555C49.0025 207.872 49.078 208.146 49.177 208.375V208.5H47.6692C47.5963 208.333 47.539 208.112 47.4973 207.836C47.4556 207.555 47.4348 207.294 47.4348 207.055ZM47.6848 203.375L47.7004 204.391H46.2395C45.828 204.391 45.4609 204.424 45.1379 204.492C44.815 204.555 44.5442 204.651 44.3254 204.781C44.1067 204.911 43.94 205.076 43.8254 205.273C43.7109 205.466 43.6536 205.693 43.6536 205.953C43.6536 206.219 43.7135 206.461 43.8333 206.68C43.953 206.898 44.1327 207.073 44.3723 207.203C44.6171 207.328 44.9166 207.391 45.2708 207.391C45.7135 207.391 46.1041 207.297 46.4426 207.109C46.7812 206.922 47.0494 206.693 47.2473 206.422C47.4504 206.151 47.5598 205.888 47.5754 205.633L48.1926 206.328C48.1562 206.547 48.0572 206.789 47.8958 207.055C47.7343 207.32 47.5181 207.576 47.2473 207.82C46.9817 208.06 46.664 208.26 46.2942 208.422C45.9296 208.578 45.5181 208.656 45.0598 208.656C44.4869 208.656 43.9843 208.544 43.552 208.32C43.1249 208.096 42.7916 207.797 42.552 207.422C42.3176 207.042 42.2004 206.617 42.2004 206.148C42.2004 205.695 42.289 205.297 42.4661 204.953C42.6431 204.604 42.8984 204.315 43.2317 204.086C43.565 203.852 43.9661 203.674 44.4348 203.555C44.9036 203.435 45.427 203.375 46.0051 203.375H47.6848ZM54.6926 200.047V201.156H50.1223V200.047H54.6926ZM51.6692 197.992H53.1145V206.406C53.1145 206.693 53.1588 206.909 53.2473 207.055C53.3359 207.201 53.4504 207.297 53.5911 207.344C53.7317 207.391 53.8827 207.414 54.0442 207.414C54.164 207.414 54.289 207.404 54.4192 207.383C54.5546 207.357 54.6562 207.336 54.7239 207.32L54.7317 208.5C54.6171 208.536 54.4661 208.57 54.2786 208.602C54.0963 208.638 53.8749 208.656 53.6145 208.656C53.2603 208.656 52.9348 208.586 52.6379 208.445C52.3411 208.305 52.1041 208.07 51.927 207.742C51.7551 207.409 51.6692 206.961 51.6692 206.398V197.992ZM57.9583 200.047V208.5H56.5051V200.047H57.9583ZM56.3958 197.805C56.3958 197.57 56.4661 197.372 56.6067 197.211C56.7525 197.049 56.9661 196.969 57.2473 196.969C57.5234 196.969 57.7343 197.049 57.8801 197.211C58.0312 197.372 58.1067 197.57 58.1067 197.805C58.1067 198.029 58.0312 198.221 57.8801 198.383C57.7343 198.539 57.5234 198.617 57.2473 198.617C56.9661 198.617 56.7525 198.539 56.6067 198.383C56.4661 198.221 56.3958 198.029 56.3958 197.805ZM59.8958 204.367V204.188C59.8958 203.578 59.9843 203.013 60.1614 202.492C60.3385 201.966 60.5937 201.51 60.927 201.125C61.2603 200.734 61.664 200.432 62.1379 200.219C62.6119 200 63.1431 199.891 63.7317 199.891C64.3254 199.891 64.8593 200 65.3333 200.219C65.8124 200.432 66.2187 200.734 66.552 201.125C66.8905 201.51 67.1484 201.966 67.3254 202.492C67.5025 203.013 67.5911 203.578 67.5911 204.188V204.367C67.5911 204.977 67.5025 205.542 67.3254 206.062C67.1484 206.583 66.8905 207.039 66.552 207.43C66.2187 207.815 65.815 208.117 65.3411 208.336C64.8723 208.549 64.3411 208.656 63.7473 208.656C63.1536 208.656 62.6197 208.549 62.1458 208.336C61.6718 208.117 61.2655 207.815 60.927 207.43C60.5937 207.039 60.3385 206.583 60.1614 206.062C59.9843 205.542 59.8958 204.977 59.8958 204.367ZM61.3411 204.188V204.367C61.3411 204.789 61.3905 205.188 61.4895 205.562C61.5885 205.932 61.7369 206.26 61.9348 206.547C62.1379 206.833 62.3905 207.06 62.6926 207.227C62.9947 207.388 63.3463 207.469 63.7473 207.469C64.1431 207.469 64.4895 207.388 64.7864 207.227C65.0885 207.06 65.3385 206.833 65.5364 206.547C65.7343 206.26 65.8827 205.932 65.9817 205.562C66.0859 205.188 66.1379 204.789 66.1379 204.367V204.188C66.1379 203.771 66.0859 203.378 65.9817 203.008C65.8827 202.633 65.7317 202.302 65.5286 202.016C65.3306 201.724 65.0806 201.495 64.7786 201.328C64.4817 201.161 64.1327 201.078 63.7317 201.078C63.3359 201.078 62.9869 201.161 62.6848 201.328C62.3879 201.495 62.1379 201.724 61.9348 202.016C61.7369 202.302 61.5885 202.633 61.4895 203.008C61.3905 203.378 61.3411 203.771 61.3411 204.188ZM70.8489 201.852V208.5H69.4036V200.047H70.7708L70.8489 201.852ZM70.5051 203.953L69.9036 203.93C69.9088 203.352 69.9947 202.818 70.1614 202.328C70.328 201.833 70.5624 201.404 70.8645 201.039C71.1666 200.674 71.526 200.393 71.9426 200.195C72.3645 199.992 72.8306 199.891 73.3411 199.891C73.7577 199.891 74.1327 199.948 74.4661 200.062C74.7994 200.172 75.0833 200.349 75.3176 200.594C75.5572 200.839 75.7395 201.156 75.8645 201.547C75.9895 201.932 76.052 202.404 76.052 202.961V208.5H74.5989V202.945C74.5989 202.503 74.5338 202.148 74.4036 201.883C74.2734 201.612 74.0833 201.417 73.8333 201.297C73.5833 201.172 73.276 201.109 72.9114 201.109C72.552 201.109 72.2239 201.185 71.927 201.336C71.6353 201.487 71.3827 201.695 71.1692 201.961C70.9609 202.227 70.7968 202.531 70.677 202.875C70.5624 203.214 70.5051 203.573 70.5051 203.953ZM83.1692 206.258C83.1692 206.049 83.1223 205.857 83.0286 205.68C82.94 205.497 82.7551 205.333 82.4739 205.188C82.1978 205.036 81.7812 204.906 81.2239 204.797C80.7551 204.698 80.3306 204.581 79.9504 204.445C79.5754 204.31 79.2551 204.146 78.9895 203.953C78.7291 203.76 78.5286 203.534 78.3879 203.273C78.2473 203.013 78.177 202.708 78.177 202.359C78.177 202.026 78.2499 201.711 78.3958 201.414C78.5468 201.117 78.7577 200.854 79.0286 200.625C79.3046 200.396 79.6353 200.216 80.0208 200.086C80.4062 199.956 80.8359 199.891 81.3098 199.891C81.9869 199.891 82.565 200.01 83.0442 200.25C83.5234 200.49 83.8905 200.81 84.1458 201.211C84.401 201.607 84.5286 202.047 84.5286 202.531H83.0833C83.0833 202.297 83.0129 202.07 82.8723 201.852C82.7369 201.628 82.5364 201.443 82.2708 201.297C82.0103 201.151 81.69 201.078 81.3098 201.078C80.9088 201.078 80.5833 201.141 80.3333 201.266C80.0885 201.385 79.9088 201.539 79.7942 201.727C79.6848 201.914 79.6301 202.112 79.6301 202.32C79.6301 202.477 79.6562 202.617 79.7083 202.742C79.7655 202.862 79.8645 202.974 80.0051 203.078C80.1458 203.177 80.3437 203.271 80.5989 203.359C80.8541 203.448 81.1796 203.536 81.5754 203.625C82.2681 203.781 82.8385 203.969 83.2864 204.188C83.7343 204.406 84.0676 204.674 84.2864 204.992C84.5051 205.31 84.6145 205.695 84.6145 206.148C84.6145 206.518 84.5364 206.857 84.3801 207.164C84.2291 207.471 84.0077 207.737 83.7161 207.961C83.4296 208.18 83.0859 208.352 82.6848 208.477C82.289 208.596 81.8437 208.656 81.3489 208.656C80.6041 208.656 79.9739 208.523 79.4583 208.258C78.9426 207.992 78.552 207.648 78.2864 207.227C78.0208 206.805 77.8879 206.359 77.8879 205.891H79.3411C79.3619 206.286 79.4765 206.602 79.6848 206.836C79.8931 207.065 80.1484 207.229 80.4504 207.328C80.7525 207.422 81.052 207.469 81.3489 207.469C81.7447 207.469 82.0754 207.417 82.3411 207.312C82.6119 207.208 82.8176 207.065 82.9583 206.883C83.0989 206.701 83.1692 206.492 83.1692 206.258Z" fill="#E2E8F0"/>
</svg>
