<svg width="174" height="229" viewBox="0 0 174 229" fill="none" xmlns="http://www.w3.org/2000/svg">
<path d="M8.5415 22.7969H10.4946C10.4321 23.5417 10.2238 24.2057 9.86963 24.7891C9.51546 25.3672 9.01807 25.8229 8.37744 26.1562C7.73682 26.4896 6.95817 26.6562 6.0415 26.6562C5.33838 26.6562 4.70557 26.5312 4.14307 26.2812C3.58057 26.026 3.0988 25.6667 2.69775 25.2031C2.29671 24.7344 1.98942 24.1693 1.77588 23.5078C1.56755 22.8464 1.46338 22.1068 1.46338 21.2891V20.3438C1.46338 19.526 1.57015 18.7865 1.78369 18.125C2.00244 17.4635 2.31494 16.8984 2.72119 16.4297C3.12744 15.9557 3.61442 15.5938 4.18213 15.3438C4.75505 15.0938 5.39827 14.9688 6.11182 14.9688C7.01807 14.9688 7.78369 15.1354 8.40869 15.4688C9.03369 15.8021 9.51807 16.263 9.86182 16.8516C10.2108 17.4401 10.4243 18.1146 10.5024 18.875H8.54932C8.49723 18.3854 8.38265 17.9661 8.20557 17.6172C8.03369 17.2682 7.77848 17.0026 7.43994 16.8203C7.1014 16.6328 6.65869 16.5391 6.11182 16.5391C5.6639 16.5391 5.27327 16.6224 4.93994 16.7891C4.60661 16.9557 4.32796 17.2005 4.104 17.5234C3.88005 17.8464 3.71077 18.2448 3.59619 18.7188C3.48682 19.1875 3.43213 19.724 3.43213 20.3281V21.2891C3.43213 21.862 3.48161 22.3828 3.58057 22.8516C3.68473 23.3151 3.84098 23.7135 4.04932 24.0469C4.26286 24.3802 4.53369 24.638 4.86182 24.8203C5.18994 25.0026 5.58317 25.0938 6.0415 25.0938C6.5988 25.0938 7.04932 25.0052 7.39307 24.8281C7.74202 24.651 8.00505 24.3932 8.18213 24.0547C8.36442 23.7109 8.48421 23.2917 8.5415 22.7969ZM11.729 22.3672V22.1875C11.729 21.5781 11.8175 21.013 11.9946 20.4922C12.1717 19.9661 12.4269 19.5104 12.7603 19.125C13.0988 18.7344 13.5103 18.4323 13.9946 18.2188C14.4842 18 15.0363 17.8906 15.6509 17.8906C16.2707 17.8906 16.8228 18 17.3071 18.2188C17.7967 18.4323 18.2108 18.7344 18.5493 19.125C18.8879 19.5104 19.1457 19.9661 19.3228 20.4922C19.4998 21.013 19.5884 21.5781 19.5884 22.1875V22.3672C19.5884 22.9766 19.4998 23.5417 19.3228 24.0625C19.1457 24.5833 18.8879 25.0391 18.5493 25.4297C18.2108 25.8151 17.7993 26.1172 17.3149 26.3359C16.8306 26.5495 16.2811 26.6562 15.6665 26.6562C15.0467 26.6562 14.492 26.5495 14.0024 26.3359C13.5181 26.1172 13.1066 25.8151 12.7681 25.4297C12.4295 25.0391 12.1717 24.5833 11.9946 24.0625C11.8175 23.5417 11.729 22.9766 11.729 22.3672ZM13.6118 22.1875V22.3672C13.6118 22.7474 13.6509 23.1068 13.729 23.4453C13.8071 23.7839 13.9295 24.0807 14.0962 24.3359C14.2629 24.5911 14.4764 24.7917 14.7368 24.9375C14.9972 25.0833 15.3071 25.1562 15.6665 25.1562C16.0155 25.1562 16.3175 25.0833 16.5728 24.9375C16.8332 24.7917 17.0467 24.5911 17.2134 24.3359C17.38 24.0807 17.5024 23.7839 17.5806 23.4453C17.6639 23.1068 17.7056 22.7474 17.7056 22.3672V22.1875C17.7056 21.8125 17.6639 21.4583 17.5806 21.125C17.5024 20.7865 17.3774 20.487 17.2056 20.2266C17.0389 19.9661 16.8254 19.763 16.5649 19.6172C16.3097 19.4661 16.005 19.3906 15.6509 19.3906C15.2967 19.3906 14.9894 19.4661 14.729 19.6172C14.4738 19.763 14.2629 19.9661 14.0962 20.2266C13.9295 20.487 13.8071 20.7865 13.729 21.125C13.6509 21.4583 13.6118 21.8125 13.6118 22.1875ZM23.0493 19.7656V26.5H21.1665V18.0469H22.9399L23.0493 19.7656ZM22.7446 21.9609L22.104 21.9531C22.104 21.3698 22.1769 20.8307 22.3228 20.3359C22.4686 19.8411 22.6821 19.4115 22.9634 19.0469C23.2446 18.6771 23.5936 18.3932 24.0103 18.1953C24.4321 17.9922 24.9191 17.8906 25.4712 17.8906C25.8566 17.8906 26.2082 17.9479 26.5259 18.0625C26.8488 18.1719 27.1274 18.3464 27.3618 18.5859C27.6014 18.8255 27.7837 19.1328 27.9087 19.5078C28.0389 19.8828 28.104 20.3359 28.104 20.8672V26.5H26.2212V21.0312C26.2212 20.6198 26.1587 20.2969 26.0337 20.0625C25.9139 19.8281 25.7394 19.6615 25.5103 19.5625C25.2863 19.4583 25.0181 19.4062 24.7056 19.4062C24.3514 19.4062 24.0493 19.474 23.7993 19.6094C23.5545 19.7448 23.354 19.9297 23.1978 20.1641C23.0415 20.3984 22.9269 20.6693 22.854 20.9766C22.7811 21.2839 22.7446 21.612 22.7446 21.9609ZM27.9868 21.4609L27.104 21.6562C27.104 21.1458 27.1743 20.6641 27.3149 20.2109C27.4608 19.7526 27.6717 19.3516 27.9478 19.0078C28.229 18.6589 28.5754 18.3854 28.9868 18.1875C29.3983 17.9896 29.8696 17.8906 30.4009 17.8906C30.8332 17.8906 31.2186 17.9505 31.5571 18.0703C31.9009 18.1849 32.1925 18.3672 32.4321 18.6172C32.6717 18.8672 32.854 19.1927 32.979 19.5938C33.104 19.9896 33.1665 20.4688 33.1665 21.0312V26.5H31.2759V21.0234C31.2759 20.5964 31.2134 20.2656 31.0884 20.0312C30.9686 19.7969 30.7967 19.6354 30.5728 19.5469C30.3488 19.4531 30.0806 19.4062 29.7681 19.4062C29.4764 19.4062 29.2186 19.4609 28.9946 19.5703C28.7759 19.6745 28.591 19.8229 28.4399 20.0156C28.2889 20.2031 28.1743 20.4193 28.0962 20.6641C28.0233 20.9089 27.9868 21.1745 27.9868 21.4609ZM36.9946 19.6719V29.75H35.1118V18.0469H36.8462L36.9946 19.6719ZM42.5024 22.1953V22.3594C42.5024 22.974 42.4295 23.5443 42.2837 24.0703C42.1431 24.5911 41.9321 25.0469 41.6509 25.4375C41.3748 25.8229 41.0337 26.1224 40.6274 26.3359C40.2212 26.5495 39.7524 26.6562 39.2212 26.6562C38.6951 26.6562 38.2342 26.5599 37.8384 26.3672C37.4478 26.1693 37.117 25.8906 36.8462 25.5312C36.5754 25.1719 36.3566 24.75 36.1899 24.2656C36.0285 23.776 35.9139 23.2396 35.8462 22.6562V22.0234C35.9139 21.4036 36.0285 20.8411 36.1899 20.3359C36.3566 19.8307 36.5754 19.3958 36.8462 19.0312C37.117 18.6667 37.4478 18.3854 37.8384 18.1875C38.229 17.9896 38.6847 17.8906 39.2056 17.8906C39.7368 17.8906 40.2082 17.9948 40.6196 18.2031C41.0311 18.4062 41.3774 18.6979 41.6587 19.0781C41.9399 19.4531 42.1509 19.9062 42.2915 20.4375C42.4321 20.9635 42.5024 21.5495 42.5024 22.1953ZM40.6196 22.3594V22.1953C40.6196 21.8047 40.5832 21.4427 40.5103 21.1094C40.4373 20.7708 40.3228 20.474 40.1665 20.2188C40.0103 19.9635 39.8097 19.7656 39.5649 19.625C39.3254 19.4792 39.0363 19.4062 38.6978 19.4062C38.3644 19.4062 38.078 19.4635 37.8384 19.5781C37.5988 19.6875 37.3983 19.8411 37.2368 20.0391C37.0754 20.237 36.9504 20.4688 36.8618 20.7344C36.7733 20.9948 36.7108 21.2786 36.6743 21.5859V23.1016C36.7368 23.4766 36.8436 23.8203 36.9946 24.1328C37.1457 24.4453 37.3592 24.6953 37.6353 24.8828C37.9165 25.0651 38.2759 25.1562 38.7134 25.1562C39.0519 25.1562 39.341 25.0833 39.5806 24.9375C39.8201 24.7917 40.0155 24.5911 40.1665 24.3359C40.3228 24.0755 40.4373 23.776 40.5103 23.4375C40.5832 23.099 40.6196 22.7396 40.6196 22.3594ZM48.8696 24.8047V20.7734C48.8696 20.4714 48.8149 20.2109 48.7056 19.9922C48.5962 19.7734 48.4295 19.6042 48.2056 19.4844C47.9868 19.3646 47.7108 19.3047 47.3774 19.3047C47.0701 19.3047 46.8045 19.3568 46.5806 19.4609C46.3566 19.5651 46.1821 19.7057 46.0571 19.8828C45.9321 20.0599 45.8696 20.2604 45.8696 20.4844H43.9946C43.9946 20.151 44.0754 19.8281 44.2368 19.5156C44.3983 19.2031 44.6326 18.9245 44.9399 18.6797C45.2472 18.4349 45.6144 18.2422 46.0415 18.1016C46.4686 17.9609 46.9478 17.8906 47.479 17.8906C48.1144 17.8906 48.6769 17.9974 49.1665 18.2109C49.6613 18.4245 50.0493 18.7474 50.3306 19.1797C50.617 19.6068 50.7603 20.1432 50.7603 20.7891V24.5469C50.7603 24.9323 50.7863 25.2786 50.8384 25.5859C50.8957 25.888 50.9764 26.151 51.0806 26.375V26.5H49.1509C49.0623 26.2969 48.992 26.0391 48.9399 25.7266C48.8931 25.4089 48.8696 25.1016 48.8696 24.8047ZM49.1431 21.3594L49.1587 22.5234H47.8071C47.4582 22.5234 47.1509 22.5573 46.8853 22.625C46.6196 22.6875 46.3983 22.7812 46.2212 22.9062C46.0441 23.0312 45.9113 23.1823 45.8228 23.3594C45.7342 23.5365 45.6899 23.737 45.6899 23.9609C45.6899 24.1849 45.742 24.3906 45.8462 24.5781C45.9504 24.7604 46.1014 24.9036 46.2993 25.0078C46.5024 25.112 46.7472 25.1641 47.0337 25.1641C47.4191 25.1641 47.755 25.0859 48.0415 24.9297C48.3332 24.7682 48.5623 24.5729 48.729 24.3438C48.8957 24.1094 48.9842 23.888 48.9946 23.6797L49.604 24.5156C49.5415 24.7292 49.4347 24.9583 49.2837 25.2031C49.1326 25.4479 48.9347 25.6823 48.6899 25.9062C48.4504 26.125 48.1613 26.3047 47.8228 26.4453C47.4894 26.5859 47.104 26.6562 46.6665 26.6562C46.1144 26.6562 45.6222 26.5469 45.1899 26.3281C44.7576 26.1042 44.4191 25.8047 44.1743 25.4297C43.9295 25.0495 43.8071 24.6198 43.8071 24.1406C43.8071 23.6927 43.8905 23.2969 44.0571 22.9531C44.229 22.6042 44.479 22.3125 44.8071 22.0781C45.1405 21.8438 45.5467 21.6667 46.0259 21.5469C46.505 21.4219 47.0519 21.3594 47.6665 21.3594H49.1431ZM54.5962 19.8516V26.5H52.7134V18.0469H54.4868L54.5962 19.8516ZM54.2603 21.9609L53.6509 21.9531C53.6561 21.3542 53.7394 20.8047 53.9009 20.3047C54.0675 19.8047 54.2967 19.375 54.5884 19.0156C54.8853 18.6562 55.2394 18.3802 55.6509 18.1875C56.0623 17.9896 56.5207 17.8906 57.0259 17.8906C57.4321 17.8906 57.7993 17.9479 58.1274 18.0625C58.4608 18.1719 58.7446 18.3516 58.979 18.6016C59.2186 18.8516 59.4009 19.1771 59.5259 19.5781C59.6509 19.974 59.7134 20.4609 59.7134 21.0391V26.5H57.8228V21.0312C57.8228 20.625 57.7629 20.3047 57.6431 20.0703C57.5285 19.8307 57.3592 19.6615 57.1353 19.5625C56.9165 19.4583 56.6431 19.4062 56.3149 19.4062C55.992 19.4062 55.703 19.474 55.4478 19.6094C55.1925 19.7448 54.9764 19.9297 54.7993 20.1641C54.6274 20.3984 54.4946 20.6693 54.4009 20.9766C54.3071 21.2839 54.2603 21.612 54.2603 21.9609ZM64.0884 25.5781L66.3853 18.0469H68.4009L65.0103 27.7891C64.9321 27.9974 64.8306 28.224 64.7056 28.4688C64.5806 28.7135 64.4165 28.9453 64.2134 29.1641C64.0155 29.388 63.7681 29.5677 63.4712 29.7031C63.1743 29.8438 62.8149 29.9141 62.3931 29.9141C62.2264 29.9141 62.0649 29.8984 61.9087 29.8672C61.7576 29.8411 61.6144 29.8125 61.479 29.7812L61.4712 28.3438C61.5233 28.349 61.5858 28.3542 61.6587 28.3594C61.7368 28.3646 61.7993 28.3672 61.8462 28.3672C62.1587 28.3672 62.4191 28.3281 62.6274 28.25C62.8358 28.1771 63.005 28.0573 63.1353 27.8906C63.2707 27.724 63.3853 27.5 63.479 27.2188L64.0884 25.5781ZM62.7915 18.0469L64.7993 24.375L65.1353 26.3594L63.8306 26.6953L60.7603 18.0469H62.7915Z" fill="white"/>
<path d="M6.19775 60.1328L2.43213 70.5H0.893066L5.229 59.125H6.22119L6.19775 60.1328ZM9.354 70.5L5.58057 60.1328L5.55713 59.125H6.54932L10.9009 70.5H9.354ZM9.15869 66.2891V67.5234H2.76807V66.2891H9.15869ZM12.1978 58.5H13.6509V68.8594L13.5259 70.5H12.1978V58.5ZM19.3618 66.2031V66.3672C19.3618 66.9818 19.2889 67.5521 19.1431 68.0781C18.9972 68.599 18.7837 69.0521 18.5024 69.4375C18.2212 69.8229 17.8774 70.1224 17.4712 70.3359C17.0649 70.5495 16.5988 70.6562 16.0728 70.6562C15.5363 70.6562 15.0649 70.5651 14.6587 70.3828C14.2576 70.1953 13.9191 69.9271 13.6431 69.5781C13.367 69.2292 13.1457 68.8073 12.979 68.3125C12.8175 67.8177 12.7056 67.2604 12.6431 66.6406V65.9219C12.7056 65.2969 12.8175 64.737 12.979 64.2422C13.1457 63.7474 13.367 63.3255 13.6431 62.9766C13.9191 62.6224 14.2576 62.3542 14.6587 62.1719C15.0597 61.9844 15.5259 61.8906 16.0571 61.8906C16.5884 61.8906 17.0597 61.9948 17.4712 62.2031C17.8826 62.4062 18.2264 62.6979 18.5024 63.0781C18.7837 63.4583 18.9972 63.9141 19.1431 64.4453C19.2889 64.9714 19.3618 65.5573 19.3618 66.2031ZM17.9087 66.3672V66.2031C17.9087 65.7812 17.8696 65.3854 17.7915 65.0156C17.7134 64.6406 17.5884 64.3125 17.4165 64.0312C17.2446 63.7448 17.0181 63.5208 16.7368 63.3594C16.4556 63.1927 16.1092 63.1094 15.6978 63.1094C15.3332 63.1094 15.0155 63.1719 14.7446 63.2969C14.479 63.4219 14.2524 63.5911 14.0649 63.8047C13.8774 64.013 13.7238 64.2526 13.604 64.5234C13.4894 64.7891 13.4035 65.0651 13.3462 65.3516V67.2344C13.4295 67.599 13.5649 67.9505 13.7524 68.2891C13.9451 68.6224 14.2004 68.8958 14.5181 69.1094C14.841 69.3229 15.2394 69.4297 15.7134 69.4297C16.104 69.4297 16.4373 69.3516 16.7134 69.1953C16.9946 69.0339 17.2212 68.8125 17.3931 68.5312C17.5701 68.25 17.7004 67.9245 17.7837 67.5547C17.867 67.1849 17.9087 66.7891 17.9087 66.3672ZM20.8071 66.3672V66.1875C20.8071 65.5781 20.8957 65.013 21.0728 64.4922C21.2498 63.9661 21.505 63.5104 21.8384 63.125C22.1717 62.7344 22.5754 62.4323 23.0493 62.2188C23.5233 62 24.0545 61.8906 24.6431 61.8906C25.2368 61.8906 25.7707 62 26.2446 62.2188C26.7238 62.4323 27.13 62.7344 27.4634 63.125C27.8019 63.5104 28.0597 63.9661 28.2368 64.4922C28.4139 65.013 28.5024 65.5781 28.5024 66.1875V66.3672C28.5024 66.9766 28.4139 67.5417 28.2368 68.0625C28.0597 68.5833 27.8019 69.0391 27.4634 69.4297C27.13 69.8151 26.7264 70.1172 26.2524 70.3359C25.7837 70.5495 25.2524 70.6562 24.6587 70.6562C24.0649 70.6562 23.5311 70.5495 23.0571 70.3359C22.5832 70.1172 22.1769 69.8151 21.8384 69.4297C21.505 69.0391 21.2498 68.5833 21.0728 68.0625C20.8957 67.5417 20.8071 66.9766 20.8071 66.3672ZM22.2524 66.1875V66.3672C22.2524 66.7891 22.3019 67.1875 22.4009 67.5625C22.4998 67.9323 22.6483 68.2604 22.8462 68.5469C23.0493 68.8333 23.3019 69.0599 23.604 69.2266C23.9061 69.388 24.2576 69.4688 24.6587 69.4688C25.0545 69.4688 25.4009 69.388 25.6978 69.2266C25.9998 69.0599 26.2498 68.8333 26.4478 68.5469C26.6457 68.2604 26.7941 67.9323 26.8931 67.5625C26.9972 67.1875 27.0493 66.7891 27.0493 66.3672V66.1875C27.0493 65.7708 26.9972 65.3776 26.8931 65.0078C26.7941 64.6328 26.6431 64.3021 26.4399 64.0156C26.242 63.724 25.992 63.4948 25.6899 63.3281C25.3931 63.1615 25.0441 63.0781 24.6431 63.0781C24.2472 63.0781 23.8983 63.1615 23.5962 63.3281C23.2993 63.4948 23.0493 63.724 22.8462 64.0156C22.6483 64.3021 22.4998 64.6328 22.4009 65.0078C22.3019 65.3776 22.2524 65.7708 22.2524 66.1875ZM35.4868 68.5469V62.0469H36.9399V70.5H35.5571L35.4868 68.5469ZM35.7603 66.7656L36.3618 66.75C36.3618 67.3125 36.3019 67.8333 36.1821 68.3125C36.0675 68.7865 35.88 69.1979 35.6196 69.5469C35.3592 69.8958 35.0181 70.1693 34.5962 70.3672C34.1743 70.5599 33.6613 70.6562 33.0571 70.6562C32.6457 70.6562 32.2681 70.5964 31.9243 70.4766C31.5858 70.3568 31.2941 70.1719 31.0493 69.9219C30.8045 69.6719 30.6144 69.3464 30.479 68.9453C30.3488 68.5443 30.2837 68.0625 30.2837 67.5V62.0469H31.729V67.5156C31.729 67.8958 31.7707 68.2109 31.854 68.4609C31.9425 68.7057 32.0597 68.901 32.2056 69.0469C32.3566 69.1875 32.5233 69.2865 32.7056 69.3438C32.8931 69.401 33.0858 69.4297 33.2837 69.4297C33.8983 69.4297 34.3853 69.3125 34.7446 69.0781C35.104 68.8385 35.3618 68.5182 35.5181 68.1172C35.6795 67.7109 35.7603 67.2604 35.7603 66.7656ZM42.6821 62.0469V63.1562H38.1118V62.0469H42.6821ZM39.6587 59.9922H41.104V68.4062C41.104 68.6927 41.1483 68.9089 41.2368 69.0547C41.3254 69.2005 41.4399 69.2969 41.5806 69.3438C41.7212 69.3906 41.8722 69.4141 42.0337 69.4141C42.1535 69.4141 42.2785 69.4036 42.4087 69.3828C42.5441 69.3568 42.6457 69.3359 42.7134 69.3203L42.7212 70.5C42.6066 70.5365 42.4556 70.5703 42.2681 70.6016C42.0858 70.638 41.8644 70.6562 41.604 70.6562C41.2498 70.6562 40.9243 70.5859 40.6274 70.4453C40.3306 70.3047 40.0936 70.0703 39.9165 69.7422C39.7446 69.4089 39.6587 68.9609 39.6587 68.3984V59.9922Z" fill="#E2E8F0"/>
<path d="M6.18213 112.039H3.14307V110.812H6.18213C6.77067 110.812 7.24723 110.719 7.61182 110.531C7.9764 110.344 8.24202 110.083 8.40869 109.75C8.58057 109.417 8.6665 109.036 8.6665 108.609C8.6665 108.219 8.58057 107.852 8.40869 107.508C8.24202 107.164 7.9764 106.888 7.61182 106.68C7.24723 106.466 6.77067 106.359 6.18213 106.359H3.49463V116.5H1.98682V105.125H6.18213C7.0415 105.125 7.76807 105.273 8.36182 105.57C8.95557 105.867 9.40609 106.279 9.71338 106.805C10.0207 107.326 10.1743 107.922 10.1743 108.594C10.1743 109.323 10.0207 109.945 9.71338 110.461C9.40609 110.977 8.95557 111.37 8.36182 111.641C7.76807 111.906 7.0415 112.039 6.18213 112.039ZM13.3071 109.375V116.5H11.8618V108.047H13.2681L13.3071 109.375ZM15.9478 108L15.9399 109.344C15.8201 109.318 15.7056 109.302 15.5962 109.297C15.492 109.286 15.3722 109.281 15.2368 109.281C14.9035 109.281 14.6092 109.333 14.354 109.438C14.0988 109.542 13.8826 109.688 13.7056 109.875C13.5285 110.062 13.3879 110.286 13.2837 110.547C13.1847 110.802 13.1196 111.083 13.0884 111.391L12.6821 111.625C12.6821 111.115 12.7316 110.635 12.8306 110.188C12.9347 109.74 13.0936 109.344 13.3071 109C13.5207 108.651 13.7915 108.38 14.1196 108.188C14.453 107.99 14.8488 107.891 15.3071 107.891C15.4113 107.891 15.5311 107.904 15.6665 107.93C15.8019 107.951 15.8957 107.974 15.9478 108ZM20.6353 116.656C20.0467 116.656 19.5129 116.557 19.0337 116.359C18.5597 116.156 18.1509 115.872 17.8071 115.508C17.4686 115.143 17.2082 114.711 17.0259 114.211C16.8436 113.711 16.7524 113.164 16.7524 112.57V112.242C16.7524 111.555 16.854 110.943 17.0571 110.406C17.2603 109.865 17.5363 109.406 17.8853 109.031C18.2342 108.656 18.63 108.372 19.0728 108.18C19.5155 107.987 19.9738 107.891 20.4478 107.891C21.0519 107.891 21.5728 107.995 22.0103 108.203C22.453 108.411 22.8149 108.703 23.0962 109.078C23.3774 109.448 23.5858 109.885 23.7212 110.391C23.8566 110.891 23.9243 111.438 23.9243 112.031V112.68H17.6118V111.5H22.479V111.391C22.4582 111.016 22.38 110.651 22.2446 110.297C22.1144 109.943 21.9061 109.651 21.6196 109.422C21.3332 109.193 20.9425 109.078 20.4478 109.078C20.1196 109.078 19.8175 109.148 19.5415 109.289C19.2655 109.424 19.0285 109.628 18.8306 109.898C18.6326 110.169 18.479 110.5 18.3696 110.891C18.2603 111.281 18.2056 111.732 18.2056 112.242V112.57C18.2056 112.971 18.2603 113.349 18.3696 113.703C18.4842 114.052 18.6483 114.359 18.8618 114.625C19.0806 114.891 19.3436 115.099 19.6509 115.25C19.9634 115.401 20.3175 115.477 20.7134 115.477C21.2238 115.477 21.6561 115.372 22.0103 115.164C22.3644 114.956 22.6743 114.677 22.9399 114.328L23.8149 115.023C23.6326 115.299 23.4009 115.562 23.1196 115.812C22.8384 116.062 22.492 116.266 22.0806 116.422C21.6743 116.578 21.1925 116.656 20.6353 116.656ZM30.5337 114.258C30.5337 114.049 30.4868 113.857 30.3931 113.68C30.3045 113.497 30.1196 113.333 29.8384 113.188C29.5623 113.036 29.1457 112.906 28.5884 112.797C28.1196 112.698 27.6951 112.581 27.3149 112.445C26.9399 112.31 26.6196 112.146 26.354 111.953C26.0936 111.76 25.8931 111.534 25.7524 111.273C25.6118 111.013 25.5415 110.708 25.5415 110.359C25.5415 110.026 25.6144 109.711 25.7603 109.414C25.9113 109.117 26.1222 108.854 26.3931 108.625C26.6691 108.396 26.9998 108.216 27.3853 108.086C27.7707 107.956 28.2004 107.891 28.6743 107.891C29.3514 107.891 29.9295 108.01 30.4087 108.25C30.8879 108.49 31.255 108.81 31.5103 109.211C31.7655 109.607 31.8931 110.047 31.8931 110.531H30.4478C30.4478 110.297 30.3774 110.07 30.2368 109.852C30.1014 109.628 29.9009 109.443 29.6353 109.297C29.3748 109.151 29.0545 109.078 28.6743 109.078C28.2733 109.078 27.9478 109.141 27.6978 109.266C27.453 109.385 27.2733 109.539 27.1587 109.727C27.0493 109.914 26.9946 110.112 26.9946 110.32C26.9946 110.477 27.0207 110.617 27.0728 110.742C27.13 110.862 27.229 110.974 27.3696 111.078C27.5103 111.177 27.7082 111.271 27.9634 111.359C28.2186 111.448 28.5441 111.536 28.9399 111.625C29.6326 111.781 30.203 111.969 30.6509 112.188C31.0988 112.406 31.4321 112.674 31.6509 112.992C31.8696 113.31 31.979 113.695 31.979 114.148C31.979 114.518 31.9009 114.857 31.7446 115.164C31.5936 115.471 31.3722 115.737 31.0806 115.961C30.7941 116.18 30.4504 116.352 30.0493 116.477C29.6535 116.596 29.2082 116.656 28.7134 116.656C27.9686 116.656 27.3384 116.523 26.8228 116.258C26.3071 115.992 25.9165 115.648 25.6509 115.227C25.3853 114.805 25.2524 114.359 25.2524 113.891H26.7056C26.7264 114.286 26.841 114.602 27.0493 114.836C27.2576 115.065 27.5129 115.229 27.8149 115.328C28.117 115.422 28.4165 115.469 28.7134 115.469C29.1092 115.469 29.4399 115.417 29.7056 115.312C29.9764 115.208 30.1821 115.065 30.3228 114.883C30.4634 114.701 30.5337 114.492 30.5337 114.258ZM38.7993 114.258C38.7993 114.049 38.7524 113.857 38.6587 113.68C38.5701 113.497 38.3853 113.333 38.104 113.188C37.828 113.036 37.4113 112.906 36.854 112.797C36.3853 112.698 35.9608 112.581 35.5806 112.445C35.2056 112.31 34.8853 112.146 34.6196 111.953C34.3592 111.76 34.1587 111.534 34.0181 111.273C33.8774 111.013 33.8071 110.708 33.8071 110.359C33.8071 110.026 33.88 109.711 34.0259 109.414C34.1769 109.117 34.3879 108.854 34.6587 108.625C34.9347 108.396 35.2655 108.216 35.6509 108.086C36.0363 107.956 36.466 107.891 36.9399 107.891C37.617 107.891 38.1951 108.01 38.6743 108.25C39.1535 108.49 39.5207 108.81 39.7759 109.211C40.0311 109.607 40.1587 110.047 40.1587 110.531H38.7134C38.7134 110.297 38.6431 110.07 38.5024 109.852C38.367 109.628 38.1665 109.443 37.9009 109.297C37.6405 109.151 37.3201 109.078 36.9399 109.078C36.5389 109.078 36.2134 109.141 35.9634 109.266C35.7186 109.385 35.5389 109.539 35.4243 109.727C35.3149 109.914 35.2603 110.112 35.2603 110.32C35.2603 110.477 35.2863 110.617 35.3384 110.742C35.3957 110.862 35.4946 110.974 35.6353 111.078C35.7759 111.177 35.9738 111.271 36.229 111.359C36.4842 111.448 36.8097 111.536 37.2056 111.625C37.8983 111.781 38.4686 111.969 38.9165 112.188C39.3644 112.406 39.6978 112.674 39.9165 112.992C40.1353 113.31 40.2446 113.695 40.2446 114.148C40.2446 114.518 40.1665 114.857 40.0103 115.164C39.8592 115.471 39.6379 115.737 39.3462 115.961C39.0597 116.18 38.716 116.352 38.3149 116.477C37.9191 116.596 37.4738 116.656 36.979 116.656C36.2342 116.656 35.604 116.523 35.0884 116.258C34.5728 115.992 34.1821 115.648 33.9165 115.227C33.6509 114.805 33.5181 114.359 33.5181 113.891H34.9712C34.992 114.286 35.1066 114.602 35.3149 114.836C35.5233 115.065 35.7785 115.229 36.0806 115.328C36.3826 115.422 36.6821 115.469 36.979 115.469C37.3748 115.469 37.7056 115.417 37.9712 115.312C38.242 115.208 38.4478 115.065 38.5884 114.883C38.729 114.701 38.7993 114.492 38.7993 114.258Z" fill="#E2E8F0"/>
<path d="M9.21338 161.273V162.5H3.18994V161.273H9.21338ZM3.49463 151.125V162.5H1.98682V151.125H3.49463ZM8.4165 156.016V157.242H3.18994V156.016H8.4165ZM9.13525 151.125V152.359H3.18994V151.125H9.13525ZM13.229 161.195L15.5415 154.047H17.0181L13.979 162.5H13.0103L13.229 161.195ZM11.2993 154.047L13.6821 161.234L13.8462 162.5H12.8774L9.81494 154.047H11.2993ZM21.8071 162.656C21.2186 162.656 20.6847 162.557 20.2056 162.359C19.7316 162.156 19.3228 161.872 18.979 161.508C18.6405 161.143 18.38 160.711 18.1978 160.211C18.0155 159.711 17.9243 159.164 17.9243 158.57V158.242C17.9243 157.555 18.0259 156.943 18.229 156.406C18.4321 155.865 18.7082 155.406 19.0571 155.031C19.4061 154.656 19.8019 154.372 20.2446 154.18C20.6873 153.987 21.1457 153.891 21.6196 153.891C22.2238 153.891 22.7446 153.995 23.1821 154.203C23.6248 154.411 23.9868 154.703 24.2681 155.078C24.5493 155.448 24.7576 155.885 24.8931 156.391C25.0285 156.891 25.0962 157.438 25.0962 158.031V158.68H18.7837V157.5H23.6509V157.391C23.63 157.016 23.5519 156.651 23.4165 156.297C23.2863 155.943 23.078 155.651 22.7915 155.422C22.505 155.193 22.1144 155.078 21.6196 155.078C21.2915 155.078 20.9894 155.148 20.7134 155.289C20.4373 155.424 20.2004 155.628 20.0024 155.898C19.8045 156.169 19.6509 156.5 19.5415 156.891C19.4321 157.281 19.3774 157.732 19.3774 158.242V158.57C19.3774 158.971 19.4321 159.349 19.5415 159.703C19.6561 160.052 19.8201 160.359 20.0337 160.625C20.2524 160.891 20.5155 161.099 20.8228 161.25C21.1353 161.401 21.4894 161.477 21.8853 161.477C22.3957 161.477 22.828 161.372 23.1821 161.164C23.5363 160.956 23.8462 160.677 24.1118 160.328L24.9868 161.023C24.8045 161.299 24.5728 161.562 24.2915 161.812C24.0103 162.062 23.6639 162.266 23.2524 162.422C22.8462 162.578 22.3644 162.656 21.8071 162.656ZM28.229 155.852V162.5H26.7837V154.047H28.1509L28.229 155.852ZM27.8853 157.953L27.2837 157.93C27.2889 157.352 27.3748 156.818 27.5415 156.328C27.7082 155.833 27.9425 155.404 28.2446 155.039C28.5467 154.674 28.9061 154.393 29.3228 154.195C29.7446 153.992 30.2108 153.891 30.7212 153.891C31.1379 153.891 31.5129 153.948 31.8462 154.062C32.1795 154.172 32.4634 154.349 32.6978 154.594C32.9373 154.839 33.1196 155.156 33.2446 155.547C33.3696 155.932 33.4321 156.404 33.4321 156.961V162.5H31.979V156.945C31.979 156.503 31.9139 156.148 31.7837 155.883C31.6535 155.612 31.4634 155.417 31.2134 155.297C30.9634 155.172 30.6561 155.109 30.2915 155.109C29.9321 155.109 29.604 155.185 29.3071 155.336C29.0155 155.487 28.7629 155.695 28.5493 155.961C28.341 156.227 28.1769 156.531 28.0571 156.875C27.9425 157.214 27.8853 157.573 27.8853 157.953ZM39.1665 154.047V155.156H34.5962V154.047H39.1665ZM36.1431 151.992H37.5884V160.406C37.5884 160.693 37.6326 160.909 37.7212 161.055C37.8097 161.201 37.9243 161.297 38.0649 161.344C38.2056 161.391 38.3566 161.414 38.5181 161.414C38.6379 161.414 38.7629 161.404 38.8931 161.383C39.0285 161.357 39.13 161.336 39.1978 161.32L39.2056 162.5C39.091 162.536 38.9399 162.57 38.7524 162.602C38.5701 162.638 38.3488 162.656 38.0884 162.656C37.7342 162.656 37.4087 162.586 37.1118 162.445C36.8149 162.305 36.578 162.07 36.4009 161.742C36.229 161.409 36.1431 160.961 36.1431 160.398V151.992ZM45.7837 160.258C45.7837 160.049 45.7368 159.857 45.6431 159.68C45.5545 159.497 45.3696 159.333 45.0884 159.188C44.8123 159.036 44.3957 158.906 43.8384 158.797C43.3696 158.698 42.9451 158.581 42.5649 158.445C42.1899 158.31 41.8696 158.146 41.604 157.953C41.3436 157.76 41.1431 157.534 41.0024 157.273C40.8618 157.013 40.7915 156.708 40.7915 156.359C40.7915 156.026 40.8644 155.711 41.0103 155.414C41.1613 155.117 41.3722 154.854 41.6431 154.625C41.9191 154.396 42.2498 154.216 42.6353 154.086C43.0207 153.956 43.4504 153.891 43.9243 153.891C44.6014 153.891 45.1795 154.01 45.6587 154.25C46.1379 154.49 46.505 154.81 46.7603 155.211C47.0155 155.607 47.1431 156.047 47.1431 156.531H45.6978C45.6978 156.297 45.6274 156.07 45.4868 155.852C45.3514 155.628 45.1509 155.443 44.8853 155.297C44.6248 155.151 44.3045 155.078 43.9243 155.078C43.5233 155.078 43.1978 155.141 42.9478 155.266C42.703 155.385 42.5233 155.539 42.4087 155.727C42.2993 155.914 42.2446 156.112 42.2446 156.32C42.2446 156.477 42.2707 156.617 42.3228 156.742C42.38 156.862 42.479 156.974 42.6196 157.078C42.7603 157.177 42.9582 157.271 43.2134 157.359C43.4686 157.448 43.7941 157.536 44.1899 157.625C44.8826 157.781 45.453 157.969 45.9009 158.188C46.3488 158.406 46.6821 158.674 46.9009 158.992C47.1196 159.31 47.229 159.695 47.229 160.148C47.229 160.518 47.1509 160.857 46.9946 161.164C46.8436 161.471 46.6222 161.737 46.3306 161.961C46.0441 162.18 45.7004 162.352 45.2993 162.477C44.9035 162.596 44.4582 162.656 43.9634 162.656C43.2186 162.656 42.5884 162.523 42.0728 162.258C41.5571 161.992 41.1665 161.648 40.9009 161.227C40.6353 160.805 40.5024 160.359 40.5024 159.891H41.9556C41.9764 160.286 42.091 160.602 42.2993 160.836C42.5076 161.065 42.7629 161.229 43.0649 161.328C43.367 161.422 43.6665 161.469 43.9634 161.469C44.3592 161.469 44.6899 161.417 44.9556 161.312C45.2264 161.208 45.4321 161.065 45.5728 160.883C45.7134 160.701 45.7837 160.492 45.7837 160.258Z" fill="#E2E8F0"/>
<path d="M1.98682 198.125H5.75244C6.60661 198.125 7.32796 198.255 7.9165 198.516C8.51025 198.776 8.96077 199.161 9.26807 199.672C9.58057 200.177 9.73682 200.799 9.73682 201.539C9.73682 202.06 9.63005 202.536 9.4165 202.969C9.20817 203.396 8.90609 203.76 8.51025 204.062C8.11963 204.359 7.65088 204.581 7.104 204.727L6.68213 204.891H3.14307L3.12744 203.664H5.79932C6.34098 203.664 6.7915 203.57 7.15088 203.383C7.51025 203.19 7.78109 202.932 7.96338 202.609C8.14567 202.286 8.23682 201.93 8.23682 201.539C8.23682 201.102 8.15088 200.719 7.979 200.391C7.80713 200.062 7.5363 199.81 7.1665 199.633C6.80192 199.451 6.33057 199.359 5.75244 199.359H3.49463V209.5H1.98682V198.125ZM8.63525 209.5L5.86963 204.344L7.43994 204.336L10.2446 209.406V209.5H8.63525ZM15.1353 209.656C14.5467 209.656 14.0129 209.557 13.5337 209.359C13.0597 209.156 12.6509 208.872 12.3071 208.508C11.9686 208.143 11.7082 207.711 11.5259 207.211C11.3436 206.711 11.2524 206.164 11.2524 205.57V205.242C11.2524 204.555 11.354 203.943 11.5571 203.406C11.7603 202.865 12.0363 202.406 12.3853 202.031C12.7342 201.656 13.13 201.372 13.5728 201.18C14.0155 200.987 14.4738 200.891 14.9478 200.891C15.5519 200.891 16.0728 200.995 16.5103 201.203C16.953 201.411 17.3149 201.703 17.5962 202.078C17.8774 202.448 18.0858 202.885 18.2212 203.391C18.3566 203.891 18.4243 204.438 18.4243 205.031V205.68H12.1118V204.5H16.979V204.391C16.9582 204.016 16.88 203.651 16.7446 203.297C16.6144 202.943 16.4061 202.651 16.1196 202.422C15.8332 202.193 15.4425 202.078 14.9478 202.078C14.6196 202.078 14.3175 202.148 14.0415 202.289C13.7655 202.424 13.5285 202.628 13.3306 202.898C13.1326 203.169 12.979 203.5 12.8696 203.891C12.7603 204.281 12.7056 204.732 12.7056 205.242V205.57C12.7056 205.971 12.7603 206.349 12.8696 206.703C12.9842 207.052 13.1483 207.359 13.3618 207.625C13.5806 207.891 13.8436 208.099 14.1509 208.25C14.4634 208.401 14.8175 208.477 15.2134 208.477C15.7238 208.477 16.1561 208.372 16.5103 208.164C16.8644 207.956 17.1743 207.677 17.4399 207.328L18.3149 208.023C18.1326 208.299 17.9009 208.562 17.6196 208.812C17.3384 209.062 16.992 209.266 16.5806 209.422C16.1743 209.578 15.6925 209.656 15.1353 209.656ZM25.4321 212.75V202.672L25.5571 201.047H26.8853V212.75H25.4321ZM19.7524 205.367V205.203C19.7524 204.557 19.828 203.971 19.979 203.445C20.13 202.914 20.3514 202.458 20.6431 202.078C20.9347 201.698 21.2863 201.406 21.6978 201.203C22.1144 200.995 22.5884 200.891 23.1196 200.891C23.6509 200.891 24.117 200.984 24.5181 201.172C24.9243 201.354 25.2681 201.622 25.5493 201.977C25.8358 202.326 26.0623 202.747 26.229 203.242C26.3957 203.737 26.5103 204.297 26.5728 204.922V205.641C26.5155 206.26 26.4035 206.818 26.2368 207.312C26.0701 207.807 25.8436 208.229 25.5571 208.578C25.2759 208.927 24.9295 209.195 24.5181 209.383C24.1118 209.565 23.6405 209.656 23.104 209.656C22.5832 209.656 22.1144 209.549 21.6978 209.336C21.2863 209.122 20.9347 208.823 20.6431 208.438C20.3566 208.052 20.1353 207.599 19.979 207.078C19.828 206.552 19.7524 205.982 19.7524 205.367ZM21.2056 205.203V205.367C21.2056 205.789 21.2498 206.188 21.3384 206.562C21.4269 206.932 21.5623 207.26 21.7446 207.547C21.9321 207.833 22.1665 208.06 22.4478 208.227C22.7342 208.388 23.0728 208.469 23.4634 208.469C23.9425 208.469 24.341 208.365 24.6587 208.156C24.9816 207.948 25.2394 207.674 25.4321 207.336C25.6248 206.992 25.7733 206.625 25.8774 206.234V204.352C25.8201 204.065 25.729 203.786 25.604 203.516C25.4842 203.245 25.328 203.003 25.1353 202.789C24.9425 202.57 24.7082 202.398 24.4321 202.273C24.1613 202.143 23.8436 202.078 23.479 202.078C23.0832 202.078 22.742 202.161 22.4556 202.328C22.1691 202.495 21.9321 202.724 21.7446 203.016C21.5623 203.302 21.4269 203.633 21.3384 204.008C21.2498 204.383 21.2056 204.781 21.2056 205.203ZM34.3774 207.547V201.047H35.8306V209.5H34.4478L34.3774 207.547ZM34.6509 205.766L35.2524 205.75C35.2524 206.312 35.1925 206.833 35.0728 207.312C34.9582 207.786 34.7707 208.198 34.5103 208.547C34.2498 208.896 33.9087 209.169 33.4868 209.367C33.0649 209.56 32.5519 209.656 31.9478 209.656C31.5363 209.656 31.1587 209.596 30.8149 209.477C30.4764 209.357 30.1847 209.172 29.9399 208.922C29.6951 208.672 29.505 208.346 29.3696 207.945C29.2394 207.544 29.1743 207.062 29.1743 206.5V201.047H30.6196V206.516C30.6196 206.896 30.6613 207.211 30.7446 207.461C30.8332 207.706 30.9504 207.901 31.0962 208.047C31.2472 208.188 31.4139 208.286 31.5962 208.344C31.7837 208.401 31.9764 208.43 32.1743 208.43C32.7889 208.43 33.2759 208.312 33.6353 208.078C33.9946 207.839 34.2524 207.518 34.4087 207.117C34.5701 206.711 34.6509 206.26 34.6509 205.766ZM41.5415 209.656C40.953 209.656 40.4191 209.557 39.9399 209.359C39.466 209.156 39.0571 208.872 38.7134 208.508C38.3748 208.143 38.1144 207.711 37.9321 207.211C37.7498 206.711 37.6587 206.164 37.6587 205.57V205.242C37.6587 204.555 37.7603 203.943 37.9634 203.406C38.1665 202.865 38.4425 202.406 38.7915 202.031C39.1405 201.656 39.5363 201.372 39.979 201.18C40.4217 200.987 40.88 200.891 41.354 200.891C41.9582 200.891 42.479 200.995 42.9165 201.203C43.3592 201.411 43.7212 201.703 44.0024 202.078C44.2837 202.448 44.492 202.885 44.6274 203.391C44.7629 203.891 44.8306 204.438 44.8306 205.031V205.68H38.5181V204.5H43.3853V204.391C43.3644 204.016 43.2863 203.651 43.1509 203.297C43.0207 202.943 42.8123 202.651 42.5259 202.422C42.2394 202.193 41.8488 202.078 41.354 202.078C41.0259 202.078 40.7238 202.148 40.4478 202.289C40.1717 202.424 39.9347 202.628 39.7368 202.898C39.5389 203.169 39.3853 203.5 39.2759 203.891C39.1665 204.281 39.1118 204.732 39.1118 205.242V205.57C39.1118 205.971 39.1665 206.349 39.2759 206.703C39.3905 207.052 39.5545 207.359 39.7681 207.625C39.9868 207.891 40.2498 208.099 40.5571 208.25C40.8696 208.401 41.2238 208.477 41.6196 208.477C42.13 208.477 42.5623 208.372 42.9165 208.164C43.2707 207.956 43.5806 207.677 43.8462 207.328L44.7212 208.023C44.5389 208.299 44.3071 208.562 44.0259 208.812C43.7446 209.062 43.3983 209.266 42.9868 209.422C42.5806 209.578 42.0988 209.656 41.5415 209.656ZM51.4399 207.258C51.4399 207.049 51.3931 206.857 51.2993 206.68C51.2108 206.497 51.0259 206.333 50.7446 206.188C50.4686 206.036 50.0519 205.906 49.4946 205.797C49.0259 205.698 48.6014 205.581 48.2212 205.445C47.8462 205.31 47.5259 205.146 47.2603 204.953C46.9998 204.76 46.7993 204.534 46.6587 204.273C46.5181 204.013 46.4478 203.708 46.4478 203.359C46.4478 203.026 46.5207 202.711 46.6665 202.414C46.8175 202.117 47.0285 201.854 47.2993 201.625C47.5754 201.396 47.9061 201.216 48.2915 201.086C48.6769 200.956 49.1066 200.891 49.5806 200.891C50.2576 200.891 50.8358 201.01 51.3149 201.25C51.7941 201.49 52.1613 201.81 52.4165 202.211C52.6717 202.607 52.7993 203.047 52.7993 203.531H51.354C51.354 203.297 51.2837 203.07 51.1431 202.852C51.0076 202.628 50.8071 202.443 50.5415 202.297C50.2811 202.151 49.9608 202.078 49.5806 202.078C49.1795 202.078 48.854 202.141 48.604 202.266C48.3592 202.385 48.1795 202.539 48.0649 202.727C47.9556 202.914 47.9009 203.112 47.9009 203.32C47.9009 203.477 47.9269 203.617 47.979 203.742C48.0363 203.862 48.1353 203.974 48.2759 204.078C48.4165 204.177 48.6144 204.271 48.8696 204.359C49.1248 204.448 49.4504 204.536 49.8462 204.625C50.5389 204.781 51.1092 204.969 51.5571 205.188C52.005 205.406 52.3384 205.674 52.5571 205.992C52.7759 206.31 52.8853 206.695 52.8853 207.148C52.8853 207.518 52.8071 207.857 52.6509 208.164C52.4998 208.471 52.2785 208.737 51.9868 208.961C51.7004 209.18 51.3566 209.352 50.9556 209.477C50.5597 209.596 50.1144 209.656 49.6196 209.656C48.8748 209.656 48.2446 209.523 47.729 209.258C47.2134 208.992 46.8228 208.648 46.5571 208.227C46.2915 207.805 46.1587 207.359 46.1587 206.891H47.6118C47.6326 207.286 47.7472 207.602 47.9556 207.836C48.1639 208.065 48.4191 208.229 48.7212 208.328C49.0233 208.422 49.3228 208.469 49.6196 208.469C50.0155 208.469 50.3462 208.417 50.6118 208.312C50.8826 208.208 51.0884 208.065 51.229 207.883C51.3696 207.701 51.4399 207.492 51.4399 207.258ZM58.3228 201.047V202.156H53.7524V201.047H58.3228ZM55.2993 198.992H56.7446V207.406C56.7446 207.693 56.7889 207.909 56.8774 208.055C56.966 208.201 57.0806 208.297 57.2212 208.344C57.3618 208.391 57.5129 208.414 57.6743 208.414C57.7941 208.414 57.9191 208.404 58.0493 208.383C58.1847 208.357 58.2863 208.336 58.354 208.32L58.3618 209.5C58.2472 209.536 58.0962 209.57 57.9087 209.602C57.7264 209.638 57.505 209.656 57.2446 209.656C56.8905 209.656 56.5649 209.586 56.2681 209.445C55.9712 209.305 55.7342 209.07 55.5571 208.742C55.3853 208.409 55.2993 207.961 55.2993 207.398V198.992ZM67.2837 209.5H64.9087L64.9243 208.273H67.2837C68.0962 208.273 68.7733 208.104 69.3149 207.766C69.8566 207.422 70.2629 206.943 70.5337 206.328C70.8097 205.708 70.9478 204.984 70.9478 204.156V203.461C70.9478 202.81 70.8696 202.232 70.7134 201.727C70.5571 201.216 70.328 200.786 70.0259 200.438C69.7238 200.083 69.354 199.815 68.9165 199.633C68.4842 199.451 67.9868 199.359 67.4243 199.359H64.8618V198.125H67.4243C68.1691 198.125 68.8488 198.25 69.4634 198.5C70.078 198.745 70.6066 199.102 71.0493 199.57C71.4972 200.034 71.841 200.596 72.0806 201.258C72.3201 201.914 72.4399 202.654 72.4399 203.477V204.156C72.4399 204.979 72.3201 205.721 72.0806 206.383C71.841 207.039 71.4946 207.599 71.0415 208.062C70.5936 208.526 70.0519 208.883 69.4165 209.133C68.7863 209.378 68.0754 209.5 67.2837 209.5ZM65.7134 198.125V209.5H64.2056V198.125H65.7134ZM77.9946 209.656C77.4061 209.656 76.8722 209.557 76.3931 209.359C75.9191 209.156 75.5103 208.872 75.1665 208.508C74.828 208.143 74.5675 207.711 74.3853 207.211C74.203 206.711 74.1118 206.164 74.1118 205.57V205.242C74.1118 204.555 74.2134 203.943 74.4165 203.406C74.6196 202.865 74.8957 202.406 75.2446 202.031C75.5936 201.656 75.9894 201.372 76.4321 201.18C76.8748 200.987 77.3332 200.891 77.8071 200.891C78.4113 200.891 78.9321 200.995 79.3696 201.203C79.8123 201.411 80.1743 201.703 80.4556 202.078C80.7368 202.448 80.9451 202.885 81.0806 203.391C81.216 203.891 81.2837 204.438 81.2837 205.031V205.68H74.9712V204.5H79.8384V204.391C79.8175 204.016 79.7394 203.651 79.604 203.297C79.4738 202.943 79.2655 202.651 78.979 202.422C78.6925 202.193 78.3019 202.078 77.8071 202.078C77.479 202.078 77.1769 202.148 76.9009 202.289C76.6248 202.424 76.3879 202.628 76.1899 202.898C75.992 203.169 75.8384 203.5 75.729 203.891C75.6196 204.281 75.5649 204.732 75.5649 205.242V205.57C75.5649 205.971 75.6196 206.349 75.729 206.703C75.8436 207.052 76.0076 207.359 76.2212 207.625C76.4399 207.891 76.703 208.099 77.0103 208.25C77.3228 208.401 77.6769 208.477 78.0728 208.477C78.5832 208.477 79.0155 208.372 79.3696 208.164C79.7238 207.956 80.0337 207.677 80.2993 207.328L81.1743 208.023C80.992 208.299 80.7603 208.562 80.479 208.812C80.1978 209.062 79.8514 209.266 79.4399 209.422C79.0337 209.578 78.5519 209.656 77.9946 209.656ZM84.4087 202.727V209.5H82.9556V201.047H84.3306L84.4087 202.727ZM84.1118 204.953L83.4399 204.93C83.4451 204.352 83.5207 203.818 83.6665 203.328C83.8123 202.833 84.0285 202.404 84.3149 202.039C84.6014 201.674 84.9582 201.393 85.3853 201.195C85.8123 200.992 86.3071 200.891 86.8696 200.891C87.2655 200.891 87.63 200.948 87.9634 201.062C88.2967 201.172 88.5858 201.346 88.8306 201.586C89.0754 201.826 89.2655 202.133 89.4009 202.508C89.5363 202.883 89.604 203.336 89.604 203.867V209.5H88.1587V203.938C88.1587 203.495 88.0832 203.141 87.9321 202.875C87.7863 202.609 87.578 202.417 87.3071 202.297C87.0363 202.172 86.7186 202.109 86.354 202.109C85.9269 202.109 85.5701 202.185 85.2837 202.336C84.9972 202.487 84.7681 202.695 84.5962 202.961C84.4243 203.227 84.2993 203.531 84.2212 203.875C84.1483 204.214 84.1118 204.573 84.1118 204.953ZM89.5884 204.156L88.6196 204.453C88.6248 203.99 88.7004 203.544 88.8462 203.117C88.9972 202.69 89.2134 202.31 89.4946 201.977C89.7811 201.643 90.1326 201.38 90.5493 201.188C90.966 200.99 91.4425 200.891 91.979 200.891C92.4321 200.891 92.8332 200.951 93.1821 201.07C93.5363 201.19 93.8332 201.375 94.0728 201.625C94.3175 201.87 94.5024 202.185 94.6274 202.57C94.7524 202.956 94.8149 203.414 94.8149 203.945V209.5H93.3618V203.93C93.3618 203.456 93.2863 203.089 93.1353 202.828C92.9894 202.562 92.7811 202.378 92.5103 202.273C92.2446 202.164 91.9269 202.109 91.5571 202.109C91.2394 202.109 90.9582 202.164 90.7134 202.273C90.4686 202.383 90.2629 202.534 90.0962 202.727C89.9295 202.914 89.8019 203.13 89.7134 203.375C89.63 203.62 89.5884 203.88 89.5884 204.156ZM96.6196 205.367V205.188C96.6196 204.578 96.7082 204.013 96.8853 203.492C97.0623 202.966 97.3175 202.51 97.6509 202.125C97.9842 201.734 98.3879 201.432 98.8618 201.219C99.3358 201 99.867 200.891 100.456 200.891C101.049 200.891 101.583 201 102.057 201.219C102.536 201.432 102.943 201.734 103.276 202.125C103.614 202.51 103.872 202.966 104.049 203.492C104.226 204.013 104.315 204.578 104.315 205.188V205.367C104.315 205.977 104.226 206.542 104.049 207.062C103.872 207.583 103.614 208.039 103.276 208.43C102.943 208.815 102.539 209.117 102.065 209.336C101.596 209.549 101.065 209.656 100.471 209.656C99.8774 209.656 99.3436 209.549 98.8696 209.336C98.3957 209.117 97.9894 208.815 97.6509 208.43C97.3175 208.039 97.0623 207.583 96.8853 207.062C96.7082 206.542 96.6196 205.977 96.6196 205.367ZM98.0649 205.188V205.367C98.0649 205.789 98.1144 206.188 98.2134 206.562C98.3123 206.932 98.4608 207.26 98.6587 207.547C98.8618 207.833 99.1144 208.06 99.4165 208.227C99.7186 208.388 100.07 208.469 100.471 208.469C100.867 208.469 101.213 208.388 101.51 208.227C101.812 208.06 102.062 207.833 102.26 207.547C102.458 207.26 102.607 206.932 102.706 206.562C102.81 206.188 102.862 205.789 102.862 205.367V205.188C102.862 204.771 102.81 204.378 102.706 204.008C102.607 203.633 102.456 203.302 102.252 203.016C102.055 202.724 101.805 202.495 101.502 202.328C101.206 202.161 100.857 202.078 100.456 202.078C100.06 202.078 99.7108 202.161 99.4087 202.328C99.1118 202.495 98.8618 202.724 98.6587 203.016C98.4608 203.302 98.3123 203.633 98.2134 204.008C98.1144 204.378 98.0649 204.771 98.0649 205.188Z" fill="#E2E8F0"/>
<path d="M129.253 203.157L125.303 199.207C125.12 199.018 125.02 198.766 125.022 198.504C125.024 198.241 125.129 197.991 125.315 197.805C125.5 197.62 125.751 197.515 126.013 197.512C126.275 197.51 126.528 197.611 126.717 197.793L132.374 203.45C132.467 203.543 132.541 203.653 132.591 203.774C132.642 203.895 132.668 204.026 132.668 204.157C132.668 204.288 132.642 204.418 132.591 204.54C132.541 204.661 132.467 204.771 132.374 204.864L126.717 210.521C126.624 210.616 126.514 210.693 126.392 210.745C126.27 210.797 126.139 210.825 126.006 210.826C125.873 210.827 125.741 210.802 125.619 210.752C125.496 210.701 125.384 210.627 125.29 210.533C125.196 210.439 125.122 210.328 125.072 210.205C125.021 210.082 124.996 209.95 124.997 209.818C124.998 209.685 125.026 209.554 125.078 209.432C125.131 209.31 125.207 209.199 125.303 209.107L129.253 205.157H119.667C119.401 205.157 119.147 205.052 118.959 204.864C118.772 204.676 118.667 204.422 118.667 204.157C118.667 203.892 118.772 203.637 118.959 203.45C119.147 203.262 119.401 203.157 119.667 203.157H129.253Z" fill="#E2E8F0"/>
</svg>
