<svg width="174" height="227" viewBox="0 0 174 227" fill="none" xmlns="http://www.w3.org/2000/svg">
<path d="M7.80737 23.5703C7.80737 23.3359 7.77091 23.1276 7.698 22.9453C7.63029 22.763 7.50789 22.5964 7.33081 22.4453C7.15373 22.2943 6.90373 22.1484 6.58081 22.0078C6.2631 21.862 5.85685 21.7135 5.36206 21.5625C4.82039 21.3958 4.32039 21.2109 3.86206 21.0078C3.40894 20.7995 3.0131 20.5599 2.67456 20.2891C2.33602 20.013 2.073 19.6979 1.8855 19.3438C1.698 18.9844 1.60425 18.5703 1.60425 18.1016C1.60425 17.638 1.7006 17.2161 1.89331 16.8359C2.09123 16.4557 2.36987 16.1276 2.72925 15.8516C3.09383 15.5703 3.52352 15.3542 4.01831 15.2031C4.5131 15.0469 5.05998 14.9688 5.65894 14.9688C6.50269 14.9688 7.22925 15.125 7.83862 15.4375C8.45321 15.75 8.92456 16.1693 9.25269 16.6953C9.58602 17.2214 9.75269 17.8021 9.75269 18.4375H7.80737C7.80737 18.0625 7.72664 17.7318 7.56519 17.4453C7.40894 17.1536 7.16935 16.9245 6.84644 16.7578C6.52873 16.5911 6.12508 16.5078 5.6355 16.5078C5.17196 16.5078 4.78654 16.5781 4.47925 16.7188C4.17196 16.8594 3.94279 17.0495 3.79175 17.2891C3.64071 17.5286 3.56519 17.7995 3.56519 18.1016C3.56519 18.3151 3.61466 18.5104 3.71362 18.6875C3.81258 18.8594 3.96362 19.0208 4.16675 19.1719C4.36987 19.3177 4.62508 19.4557 4.93237 19.5859C5.23966 19.7161 5.60164 19.8411 6.01831 19.9609C6.64852 20.1484 7.198 20.3568 7.66675 20.5859C8.1355 20.8099 8.52612 21.0651 8.83862 21.3516C9.15112 21.638 9.3855 21.9635 9.54175 22.3281C9.698 22.6875 9.77612 23.0964 9.77612 23.5547C9.77612 24.0339 9.67977 24.4661 9.48706 24.8516C9.29435 25.2318 9.01831 25.5573 8.65894 25.8281C8.30477 26.0938 7.87769 26.2995 7.37769 26.4453C6.88289 26.5859 6.33081 26.6562 5.72144 26.6562C5.17456 26.6562 4.6355 26.5833 4.10425 26.4375C3.57821 26.2917 3.09904 26.0703 2.66675 25.7734C2.23446 25.4714 1.89071 25.0964 1.6355 24.6484C1.38029 24.1953 1.25269 23.6667 1.25269 23.0625H3.21362C3.21362 23.4323 3.27612 23.7474 3.40112 24.0078C3.53133 24.2682 3.71102 24.4818 3.94019 24.6484C4.16935 24.8099 4.43498 24.9297 4.73706 25.0078C5.04435 25.0859 5.37248 25.125 5.72144 25.125C6.17977 25.125 6.56258 25.0599 6.86987 24.9297C7.18237 24.7995 7.41675 24.6172 7.573 24.3828C7.72925 24.1484 7.80737 23.8776 7.80737 23.5703ZM10.9636 22.3672V22.1875C10.9636 21.5781 11.0522 21.013 11.2292 20.4922C11.4063 19.9661 11.6615 19.5104 11.9949 19.125C12.3334 18.7344 12.7449 18.4323 13.2292 18.2188C13.7188 18 14.2709 17.8906 14.8855 17.8906C15.5053 17.8906 16.0574 18 16.5417 18.2188C17.0313 18.4323 17.4454 18.7344 17.7839 19.125C18.1225 19.5104 18.3803 19.9661 18.5574 20.4922C18.7345 21.013 18.823 21.5781 18.823 22.1875V22.3672C18.823 22.9766 18.7345 23.5417 18.5574 24.0625C18.3803 24.5833 18.1225 25.0391 17.7839 25.4297C17.4454 25.8151 17.0339 26.1172 16.5496 26.3359C16.0652 26.5495 15.5157 26.6562 14.9011 26.6562C14.2813 26.6562 13.7266 26.5495 13.2371 26.3359C12.7527 26.1172 12.3412 25.8151 12.0027 25.4297C11.6641 25.0391 11.4063 24.5833 11.2292 24.0625C11.0522 23.5417 10.9636 22.9766 10.9636 22.3672ZM12.8464 22.1875V22.3672C12.8464 22.7474 12.8855 23.1068 12.9636 23.4453C13.0417 23.7839 13.1641 24.0807 13.3308 24.3359C13.4975 24.5911 13.711 24.7917 13.9714 24.9375C14.2319 25.0833 14.5417 25.1562 14.9011 25.1562C15.2501 25.1562 15.5522 25.0833 15.8074 24.9375C16.0678 24.7917 16.2813 24.5911 16.448 24.3359C16.6147 24.0807 16.7371 23.7839 16.8152 23.4453C16.8985 23.1068 16.9402 22.7474 16.9402 22.3672V22.1875C16.9402 21.8125 16.8985 21.4583 16.8152 21.125C16.7371 20.7865 16.6121 20.487 16.4402 20.2266C16.2735 19.9661 16.06 19.763 15.7996 19.6172C15.5444 19.4661 15.2397 19.3906 14.8855 19.3906C14.5313 19.3906 14.224 19.4661 13.9636 19.6172C13.7084 19.763 13.4975 19.9661 13.3308 20.2266C13.1641 20.487 13.0417 20.7865 12.9636 21.125C12.8855 21.4583 12.8464 21.8125 12.8464 22.1875ZM22.4167 14.5V26.5H20.5261V14.5H22.4167ZM29.5652 24.5078V18.0469H31.4558V26.5H29.6746L29.5652 24.5078ZM29.8308 22.75L30.4636 22.7344C30.4636 23.3021 30.4011 23.8255 30.2761 24.3047C30.1511 24.7786 29.9584 25.1927 29.698 25.5469C29.4376 25.8958 29.1042 26.1693 28.698 26.3672C28.2917 26.5599 27.8048 26.6562 27.2371 26.6562C26.8256 26.6562 26.448 26.5964 26.1042 26.4766C25.7605 26.3568 25.4636 26.1719 25.2136 25.9219C24.9688 25.6719 24.7787 25.3464 24.6433 24.9453C24.5079 24.5443 24.4402 24.0651 24.4402 23.5078V18.0469H26.323V23.5234C26.323 23.8307 26.3595 24.0885 26.4324 24.2969C26.5053 24.5 26.6042 24.6641 26.7292 24.7891C26.8542 24.9141 27.0001 25.0026 27.1667 25.0547C27.3334 25.1068 27.5105 25.1328 27.698 25.1328C28.2345 25.1328 28.6563 25.0286 28.9636 24.8203C29.2761 24.6068 29.4975 24.3203 29.6277 23.9609C29.7631 23.6016 29.8308 23.1979 29.8308 22.75ZM37.2605 18.0469V19.4219H32.4949V18.0469H37.2605ZM33.8699 15.9766H35.7527V24.1641C35.7527 24.4245 35.7891 24.625 35.8621 24.7656C35.9402 24.901 36.047 24.9922 36.1824 25.0391C36.3178 25.0859 36.4766 25.1094 36.6589 25.1094C36.7891 25.1094 36.9141 25.1016 37.0339 25.0859C37.1537 25.0703 37.2501 25.0547 37.323 25.0391L37.3308 26.4766C37.1746 26.5234 36.9923 26.5651 36.7839 26.6016C36.5808 26.638 36.3464 26.6562 36.0808 26.6562C35.6485 26.6562 35.2657 26.5807 34.9324 26.4297C34.599 26.2734 34.3386 26.0208 34.1511 25.6719C33.9636 25.3229 33.8699 24.8594 33.8699 24.2812V15.9766ZM40.7292 18.0469V26.5H38.8386V18.0469H40.7292ZM38.7136 15.8281C38.7136 15.5417 38.8074 15.3047 38.9949 15.1172C39.1876 14.9245 39.4532 14.8281 39.7917 14.8281C40.1251 14.8281 40.3881 14.9245 40.5808 15.1172C40.7735 15.3047 40.8699 15.5417 40.8699 15.8281C40.8699 16.1094 40.7735 16.3438 40.5808 16.5312C40.3881 16.7188 40.1251 16.8125 39.7917 16.8125C39.4532 16.8125 39.1876 16.7188 38.9949 16.5312C38.8074 16.3438 38.7136 16.1094 38.7136 15.8281ZM42.4324 22.3672V22.1875C42.4324 21.5781 42.5209 21.013 42.698 20.4922C42.8751 19.9661 43.1303 19.5104 43.4636 19.125C43.8022 18.7344 44.2136 18.4323 44.698 18.2188C45.1876 18 45.7397 17.8906 46.3542 17.8906C46.974 17.8906 47.5261 18 48.0105 18.2188C48.5001 18.4323 48.9141 18.7344 49.2527 19.125C49.5912 19.5104 49.849 19.9661 50.0261 20.4922C50.2032 21.013 50.2917 21.5781 50.2917 22.1875V22.3672C50.2917 22.9766 50.2032 23.5417 50.0261 24.0625C49.849 24.5833 49.5912 25.0391 49.2527 25.4297C48.9141 25.8151 48.5027 26.1172 48.0183 26.3359C47.5339 26.5495 46.9845 26.6562 46.3699 26.6562C45.7501 26.6562 45.1954 26.5495 44.7058 26.3359C44.2214 26.1172 43.81 25.8151 43.4714 25.4297C43.1329 25.0391 42.8751 24.5833 42.698 24.0625C42.5209 23.5417 42.4324 22.9766 42.4324 22.3672ZM44.3152 22.1875V22.3672C44.3152 22.7474 44.3542 23.1068 44.4324 23.4453C44.5105 23.7839 44.6329 24.0807 44.7996 24.3359C44.9662 24.5911 45.1798 24.7917 45.4402 24.9375C45.7006 25.0833 46.0105 25.1562 46.3699 25.1562C46.7188 25.1562 47.0209 25.0833 47.2761 24.9375C47.5365 24.7917 47.7501 24.5911 47.9167 24.3359C48.0834 24.0807 48.2058 23.7839 48.2839 23.4453C48.3673 23.1068 48.4089 22.7474 48.4089 22.3672V22.1875C48.4089 21.8125 48.3673 21.4583 48.2839 21.125C48.2058 20.7865 48.0808 20.487 47.9089 20.2266C47.7423 19.9661 47.5287 19.763 47.2683 19.6172C47.0131 19.4661 46.7084 19.3906 46.3542 19.3906C46.0001 19.3906 45.6928 19.4661 45.4324 19.6172C45.1772 19.763 44.9662 19.9661 44.7996 20.2266C44.6329 20.487 44.5105 20.7865 44.4324 21.125C44.3542 21.4583 44.3152 21.8125 44.3152 22.1875ZM53.7371 19.8516V26.5H51.8542V18.0469H53.6277L53.7371 19.8516ZM53.4011 21.9609L52.7917 21.9531C52.797 21.3542 52.8803 20.8047 53.0417 20.3047C53.2084 19.8047 53.4376 19.375 53.7292 19.0156C54.0261 18.6562 54.3803 18.3802 54.7917 18.1875C55.2032 17.9896 55.6615 17.8906 56.1667 17.8906C56.573 17.8906 56.9402 17.9479 57.2683 18.0625C57.6016 18.1719 57.8855 18.3516 58.1199 18.6016C58.3595 18.8516 58.5417 19.1771 58.6667 19.5781C58.7917 19.974 58.8542 20.4609 58.8542 21.0391V26.5H56.9636V21.0312C56.9636 20.625 56.9037 20.3047 56.7839 20.0703C56.6694 19.8307 56.5001 19.6615 56.2761 19.5625C56.0574 19.4583 55.7839 19.4062 55.4558 19.4062C55.1329 19.4062 54.8438 19.474 54.5886 19.6094C54.3334 19.7448 54.1173 19.9297 53.9402 20.1641C53.7683 20.3984 53.6355 20.6693 53.5417 20.9766C53.448 21.2839 53.4011 21.612 53.4011 21.9609ZM65.5183 24.2109C65.5183 24.0234 65.4714 23.8542 65.3777 23.7031C65.2839 23.5469 65.1042 23.4062 64.8386 23.2812C64.5782 23.1562 64.1928 23.0417 63.6824 22.9375C63.2345 22.8385 62.823 22.7214 62.448 22.5859C62.0782 22.4453 61.7605 22.276 61.4949 22.0781C61.2292 21.8802 61.0235 21.6458 60.8777 21.375C60.7319 21.1042 60.6589 20.7917 60.6589 20.4375C60.6589 20.0938 60.7345 19.7682 60.8855 19.4609C61.0365 19.1536 61.2527 18.8828 61.5339 18.6484C61.8152 18.4141 62.1563 18.2292 62.5574 18.0938C62.9636 17.9583 63.4167 17.8906 63.9167 17.8906C64.6251 17.8906 65.2319 18.0104 65.7371 18.25C66.2475 18.4844 66.6381 18.8047 66.9089 19.2109C67.1798 19.612 67.3152 20.0651 67.3152 20.5703H65.4324C65.4324 20.3464 65.3751 20.138 65.2605 19.9453C65.1511 19.7474 64.9845 19.5885 64.7605 19.4688C64.5365 19.3438 64.2553 19.2812 63.9167 19.2812C63.5938 19.2812 63.3256 19.3333 63.1121 19.4375C62.9037 19.5365 62.7475 19.6667 62.6433 19.8281C62.5444 19.9896 62.4949 20.1667 62.4949 20.3594C62.4949 20.5 62.5209 20.6276 62.573 20.7422C62.6303 20.8516 62.724 20.9531 62.8542 21.0469C62.9845 21.1354 63.1615 21.2188 63.3855 21.2969C63.6147 21.375 63.9011 21.4505 64.2449 21.5234C64.8907 21.6589 65.4454 21.8333 65.9089 22.0469C66.3777 22.2552 66.7371 22.526 66.9871 22.8594C67.2371 23.1875 67.3621 23.6042 67.3621 24.1094C67.3621 24.4844 67.2813 24.8281 67.1199 25.1406C66.9636 25.4479 66.7345 25.7161 66.4324 25.9453C66.1303 26.1693 65.7683 26.3438 65.3464 26.4688C64.9298 26.5938 64.461 26.6562 63.9402 26.6562C63.1746 26.6562 62.5261 26.5208 61.9949 26.25C61.4636 25.974 61.06 25.6224 60.7839 25.1953C60.5131 24.763 60.3777 24.3151 60.3777 23.8516H62.198C62.2188 24.2005 62.3152 24.4792 62.4871 24.6875C62.6641 24.8906 62.8829 25.0391 63.1433 25.1328C63.4089 25.2214 63.6824 25.2656 63.9636 25.2656C64.3022 25.2656 64.586 25.2214 64.8152 25.1328C65.0444 25.0391 65.2188 24.9141 65.3386 24.7578C65.4584 24.5964 65.5183 24.4141 65.5183 24.2109Z" fill="white"/>
<path d="M6.04175 65.1797H3.15894L3.14331 63.9688H5.7605C6.19279 63.9688 6.57039 63.8958 6.89331 63.75C7.21623 63.6042 7.46623 63.3958 7.64331 63.125C7.8256 62.849 7.91675 62.5208 7.91675 62.1406C7.91675 61.724 7.83602 61.3854 7.67456 61.125C7.51831 60.8594 7.27612 60.6667 6.948 60.5469C6.62508 60.4219 6.21362 60.3594 5.71362 60.3594H3.49487V70.5H1.98706V59.125H5.71362C6.29696 59.125 6.81779 59.1849 7.27612 59.3047C7.73446 59.4193 8.12248 59.6016 8.44019 59.8516C8.7631 60.0964 9.00789 60.4089 9.17456 60.7891C9.34123 61.1693 9.42456 61.625 9.42456 62.1562C9.42456 62.625 9.30477 63.0495 9.06519 63.4297C8.8256 63.8047 8.49227 64.112 8.06519 64.3516C7.64331 64.5911 7.14852 64.7448 6.58081 64.8125L6.04175 65.1797ZM5.97144 70.5H2.56519L3.41675 69.2734H5.97144C6.4506 69.2734 6.85685 69.1901 7.19019 69.0234C7.52873 68.8568 7.78654 68.6224 7.96362 68.3203C8.14071 68.013 8.22925 67.651 8.22925 67.2344C8.22925 66.8125 8.15373 66.4479 8.00269 66.1406C7.85164 65.8333 7.61466 65.5964 7.29175 65.4297C6.96883 65.263 6.55216 65.1797 6.04175 65.1797H3.89331L3.90894 63.9688H6.84644L7.16675 64.4062C7.71362 64.4531 8.17716 64.6094 8.55737 64.875C8.93758 65.1354 9.22664 65.4688 9.42456 65.875C9.62769 66.2812 9.72925 66.7292 9.72925 67.2188C9.72925 67.9271 9.573 68.526 9.2605 69.0156C8.95321 69.5 8.51831 69.8698 7.95581 70.125C7.39331 70.375 6.73185 70.5 5.97144 70.5ZM13.1824 63.375V70.5H11.7371V62.0469H13.1433L13.1824 63.375ZM15.823 62L15.8152 63.3438C15.6954 63.3177 15.5808 63.3021 15.4714 63.2969C15.3673 63.2865 15.2475 63.2812 15.1121 63.2812C14.7787 63.2812 14.4845 63.3333 14.2292 63.4375C13.974 63.5417 13.7579 63.6875 13.5808 63.875C13.4037 64.0625 13.2631 64.2865 13.1589 64.5469C13.06 64.8021 12.9949 65.0833 12.9636 65.3906L12.5574 65.625C12.5574 65.1146 12.6069 64.6354 12.7058 64.1875C12.81 63.7396 12.9688 63.3438 13.1824 63C13.3959 62.651 13.6667 62.3802 13.9949 62.1875C14.3282 61.9896 14.724 61.8906 15.1824 61.8906C15.2865 61.8906 15.4063 61.9036 15.5417 61.9297C15.6772 61.9505 15.7709 61.974 15.823 62ZM21.8308 69.0547V64.7031C21.8308 64.3698 21.7631 64.0807 21.6277 63.8359C21.4975 63.5859 21.2996 63.3932 21.0339 63.2578C20.7683 63.1224 20.4402 63.0547 20.0496 63.0547C19.685 63.0547 19.3647 63.1172 19.0886 63.2422C18.8178 63.3672 18.6042 63.5312 18.448 63.7344C18.297 63.9375 18.2214 64.1562 18.2214 64.3906H16.7761C16.7761 64.0885 16.8542 63.7891 17.0105 63.4922C17.1667 63.1953 17.3907 62.9271 17.6824 62.6875C17.9792 62.4427 18.3334 62.25 18.7449 62.1094C19.1615 61.9635 19.6251 61.8906 20.1355 61.8906C20.7501 61.8906 21.2917 61.9948 21.7605 62.2031C22.2345 62.4115 22.6042 62.7266 22.8699 63.1484C23.1407 63.5651 23.2761 64.0885 23.2761 64.7188V68.6562C23.2761 68.9375 23.2996 69.237 23.3464 69.5547C23.3985 69.8724 23.474 70.1458 23.573 70.375V70.5H22.0652C21.9923 70.3333 21.935 70.112 21.8933 69.8359C21.8516 69.5547 21.8308 69.2943 21.8308 69.0547ZM22.0808 65.375L22.0964 66.3906H20.6355C20.224 66.3906 19.8569 66.4245 19.5339 66.4922C19.211 66.5547 18.9402 66.651 18.7214 66.7812C18.5027 66.9115 18.336 67.0755 18.2214 67.2734C18.1069 67.4661 18.0496 67.6927 18.0496 67.9531C18.0496 68.2188 18.1095 68.4609 18.2292 68.6797C18.349 68.8984 18.5287 69.0729 18.7683 69.2031C19.0131 69.3281 19.3126 69.3906 19.6667 69.3906C20.1095 69.3906 20.5001 69.2969 20.8386 69.1094C21.1772 68.9219 21.4454 68.6927 21.6433 68.4219C21.8464 68.151 21.9558 67.888 21.9714 67.6328L22.5886 68.3281C22.5522 68.5469 22.4532 68.7891 22.2917 69.0547C22.1303 69.3203 21.9141 69.5755 21.6433 69.8203C21.3777 70.0599 21.06 70.2604 20.6902 70.4219C20.3256 70.5781 19.9141 70.6562 19.4558 70.6562C18.8829 70.6562 18.3803 70.5443 17.948 70.3203C17.5209 70.0964 17.1876 69.7969 16.948 69.4219C16.7136 69.0417 16.5964 68.6172 16.5964 68.1484C16.5964 67.6953 16.685 67.2969 16.8621 66.9531C17.0391 66.6042 17.2944 66.3151 17.6277 66.0859C17.961 65.8516 18.3621 65.6745 18.8308 65.5547C19.2996 65.4349 19.823 65.375 20.4011 65.375H22.0808ZM27.1199 62.0469V70.5H25.6667V62.0469H27.1199ZM25.5574 59.8047C25.5574 59.5703 25.6277 59.3724 25.7683 59.2109C25.9141 59.0495 26.1277 58.9688 26.4089 58.9688C26.685 58.9688 26.8959 59.0495 27.0417 59.2109C27.1928 59.3724 27.2683 59.5703 27.2683 59.8047C27.2683 60.0286 27.1928 60.2214 27.0417 60.3828C26.8959 60.5391 26.685 60.6172 26.4089 60.6172C26.1277 60.6172 25.9141 60.5391 25.7683 60.3828C25.6277 60.2214 25.5574 60.0286 25.5574 59.8047ZM30.8855 63.8516V70.5H29.4402V62.0469H30.8074L30.8855 63.8516ZM30.5417 65.9531L29.9402 65.9297C29.9454 65.3516 30.0313 64.8177 30.198 64.3281C30.3647 63.8333 30.599 63.4036 30.9011 63.0391C31.2032 62.6745 31.5626 62.3932 31.9792 62.1953C32.4011 61.9922 32.8673 61.8906 33.3777 61.8906C33.7944 61.8906 34.1694 61.9479 34.5027 62.0625C34.836 62.1719 35.1199 62.349 35.3542 62.5938C35.5938 62.8385 35.7761 63.1562 35.9011 63.5469C36.0261 63.9323 36.0886 64.4036 36.0886 64.9609V70.5H34.6355V64.9453C34.6355 64.5026 34.5704 64.1484 34.4402 63.8828C34.31 63.612 34.1199 63.4167 33.8699 63.2969C33.6199 63.1719 33.3126 63.1094 32.948 63.1094C32.5886 63.1094 32.2605 63.1849 31.9636 63.3359C31.672 63.487 31.4194 63.6953 31.2058 63.9609C30.9975 64.2266 30.8334 64.5312 30.7136 64.875C30.599 65.2135 30.5417 65.5729 30.5417 65.9531ZM43.2058 68.2578C43.2058 68.0495 43.1589 67.8568 43.0652 67.6797C42.9766 67.4974 42.7917 67.3333 42.5105 67.1875C42.2345 67.0365 41.8178 66.9062 41.2605 66.7969C40.7917 66.6979 40.3673 66.5807 39.9871 66.4453C39.6121 66.3099 39.2917 66.1458 39.0261 65.9531C38.7657 65.7604 38.5652 65.5339 38.4246 65.2734C38.2839 65.013 38.2136 64.7083 38.2136 64.3594C38.2136 64.026 38.2865 63.7109 38.4324 63.4141C38.5834 63.1172 38.7944 62.8542 39.0652 62.625C39.3412 62.3958 39.672 62.2161 40.0574 62.0859C40.4428 61.9557 40.8725 61.8906 41.3464 61.8906C42.0235 61.8906 42.6016 62.0104 43.0808 62.25C43.56 62.4896 43.9272 62.8099 44.1824 63.2109C44.4376 63.6068 44.5652 64.0469 44.5652 64.5312H43.1199C43.1199 64.2969 43.0496 64.0703 42.9089 63.8516C42.7735 63.6276 42.573 63.4427 42.3074 63.2969C42.047 63.151 41.7266 63.0781 41.3464 63.0781C40.9454 63.0781 40.6199 63.1406 40.3699 63.2656C40.1251 63.3854 39.9454 63.5391 39.8308 63.7266C39.7214 63.9141 39.6667 64.112 39.6667 64.3203C39.6667 64.4766 39.6928 64.6172 39.7449 64.7422C39.8022 64.862 39.9011 64.974 40.0417 65.0781C40.1824 65.1771 40.3803 65.2708 40.6355 65.3594C40.8907 65.4479 41.2162 65.5365 41.6121 65.625C42.3048 65.7812 42.8751 65.9688 43.323 66.1875C43.7709 66.4062 44.1042 66.6745 44.323 66.9922C44.5417 67.3099 44.6511 67.6953 44.6511 68.1484C44.6511 68.5182 44.573 68.8568 44.4167 69.1641C44.2657 69.4714 44.0444 69.737 43.7527 69.9609C43.4662 70.1797 43.1225 70.3516 42.7214 70.4766C42.3256 70.5964 41.8803 70.6562 41.3855 70.6562C40.6407 70.6562 40.0105 70.5234 39.4949 70.2578C38.9792 69.9922 38.5886 69.6484 38.323 69.2266C38.0574 68.8047 37.9246 68.3594 37.9246 67.8906H39.3777C39.3985 68.2865 39.5131 68.6016 39.7214 68.8359C39.9298 69.0651 40.185 69.2292 40.4871 69.3281C40.7891 69.4219 41.0886 69.4688 41.3855 69.4688C41.7813 69.4688 42.1121 69.4167 42.3777 69.3125C42.6485 69.2083 42.8542 69.0651 42.9949 68.8828C43.1355 68.7005 43.2058 68.4922 43.2058 68.2578ZM50.0886 62.0469V63.1562H45.5183V62.0469H50.0886ZM47.0652 59.9922H48.5105V68.4062C48.5105 68.6927 48.5548 68.9089 48.6433 69.0547C48.7319 69.2005 48.8464 69.2969 48.9871 69.3438C49.1277 69.3906 49.2787 69.4141 49.4402 69.4141C49.56 69.4141 49.685 69.4036 49.8152 69.3828C49.9506 69.3568 50.0522 69.3359 50.1199 69.3203L50.1277 70.5C50.0131 70.5365 49.8621 70.5703 49.6746 70.6016C49.4923 70.638 49.2709 70.6562 49.0105 70.6562C48.6563 70.6562 48.3308 70.5859 48.0339 70.4453C47.7371 70.3047 47.5001 70.0703 47.323 69.7422C47.1511 69.4089 47.0652 68.9609 47.0652 68.3984V59.9922ZM51.2449 66.3672V66.1875C51.2449 65.5781 51.3334 65.013 51.5105 64.4922C51.6876 63.9661 51.9428 63.5104 52.2761 63.125C52.6095 62.7344 53.0131 62.4323 53.4871 62.2188C53.961 62 54.4923 61.8906 55.0808 61.8906C55.6746 61.8906 56.2084 62 56.6824 62.2188C57.1615 62.4323 57.5678 62.7344 57.9011 63.125C58.2397 63.5104 58.4975 63.9661 58.6746 64.4922C58.8516 65.013 58.9402 65.5781 58.9402 66.1875V66.3672C58.9402 66.9766 58.8516 67.5417 58.6746 68.0625C58.4975 68.5833 58.2397 69.0391 57.9011 69.4297C57.5678 69.8151 57.1641 70.1172 56.6902 70.3359C56.2214 70.5495 55.6902 70.6562 55.0964 70.6562C54.5027 70.6562 53.9688 70.5495 53.4949 70.3359C53.0209 70.1172 52.6147 69.8151 52.2761 69.4297C51.9428 69.0391 51.6876 68.5833 51.5105 68.0625C51.3334 67.5417 51.2449 66.9766 51.2449 66.3672ZM52.6902 66.1875V66.3672C52.6902 66.7891 52.7397 67.1875 52.8386 67.5625C52.9376 67.9323 53.086 68.2604 53.2839 68.5469C53.4871 68.8333 53.7397 69.0599 54.0417 69.2266C54.3438 69.388 54.6954 69.4688 55.0964 69.4688C55.4923 69.4688 55.8386 69.388 56.1355 69.2266C56.4376 69.0599 56.6876 68.8333 56.8855 68.5469C57.0834 68.2604 57.2319 67.9323 57.3308 67.5625C57.435 67.1875 57.4871 66.7891 57.4871 66.3672V66.1875C57.4871 65.7708 57.435 65.3776 57.3308 65.0078C57.2319 64.6328 57.0808 64.3021 56.8777 64.0156C56.6798 63.724 56.4298 63.4948 56.1277 63.3281C55.8308 63.1615 55.4819 63.0781 55.0808 63.0781C54.685 63.0781 54.336 63.1615 54.0339 63.3281C53.7371 63.4948 53.4871 63.724 53.2839 64.0156C53.086 64.3021 52.9376 64.6328 52.8386 65.0078C52.7397 65.3776 52.6902 65.7708 52.6902 66.1875ZM62.198 63.375V70.5H60.7527V62.0469H62.1589L62.198 63.375ZM64.8386 62L64.8308 63.3438C64.711 63.3177 64.5964 63.3021 64.4871 63.2969C64.3829 63.2865 64.2631 63.2812 64.1277 63.2812C63.7944 63.2812 63.5001 63.3333 63.2449 63.4375C62.9897 63.5417 62.7735 63.6875 62.5964 63.875C62.4194 64.0625 62.2787 64.2865 62.1746 64.5469C62.0756 64.8021 62.0105 65.0833 61.9792 65.3906L61.573 65.625C61.573 65.1146 61.6225 64.6354 61.7214 64.1875C61.8256 63.7396 61.9845 63.3438 62.198 63C62.4115 62.651 62.6824 62.3802 63.0105 62.1875C63.3438 61.9896 63.7397 61.8906 64.198 61.8906C64.3022 61.8906 64.422 61.9036 64.5574 61.9297C64.6928 61.9505 64.7865 61.974 64.8386 62ZM67.6121 63.7266V70.5H66.1589V62.0469H67.5339L67.6121 63.7266ZM67.3152 65.9531L66.6433 65.9297C66.6485 65.3516 66.724 64.8177 66.8699 64.3281C67.0157 63.8333 67.2319 63.4036 67.5183 63.0391C67.8048 62.6745 68.1615 62.3932 68.5886 62.1953C69.0157 61.9922 69.5105 61.8906 70.073 61.8906C70.4688 61.8906 70.8334 61.9479 71.1667 62.0625C71.5001 62.1719 71.7891 62.3464 72.0339 62.5859C72.2787 62.8255 72.4688 63.1328 72.6042 63.5078C72.7397 63.8828 72.8074 64.3359 72.8074 64.8672V70.5H71.3621V64.9375C71.3621 64.4948 71.2865 64.1406 71.1355 63.875C70.9897 63.6094 70.7813 63.4167 70.5105 63.2969C70.2397 63.1719 69.922 63.1094 69.5574 63.1094C69.1303 63.1094 68.7735 63.1849 68.4871 63.3359C68.2006 63.487 67.9714 63.6953 67.7996 63.9609C67.6277 64.2266 67.5027 64.5312 67.4246 64.875C67.3516 65.2135 67.3152 65.5729 67.3152 65.9531ZM72.7917 65.1562L71.823 65.4531C71.8282 64.9896 71.9037 64.5443 72.0496 64.1172C72.2006 63.6901 72.4167 63.3099 72.698 62.9766C72.9845 62.6432 73.336 62.3802 73.7527 62.1875C74.1694 61.9896 74.6459 61.8906 75.1824 61.8906C75.6355 61.8906 76.0365 61.9505 76.3855 62.0703C76.7397 62.1901 77.0365 62.375 77.2761 62.625C77.5209 62.8698 77.7058 63.1849 77.8308 63.5703C77.9558 63.9557 78.0183 64.4141 78.0183 64.9453V70.5H76.5652V64.9297C76.5652 64.4557 76.4897 64.0885 76.3386 63.8281C76.1928 63.5625 75.9845 63.3776 75.7136 63.2734C75.448 63.1641 75.1303 63.1094 74.7605 63.1094C74.4428 63.1094 74.1615 63.1641 73.9167 63.2734C73.672 63.3828 73.4662 63.5339 73.2996 63.7266C73.1329 63.9141 73.0053 64.1302 72.9167 64.375C72.8334 64.6198 72.7917 64.8802 72.7917 65.1562ZM81.7761 62.0469V70.5H80.323V62.0469H81.7761ZM80.2136 59.8047C80.2136 59.5703 80.2839 59.3724 80.4246 59.2109C80.5704 59.0495 80.7839 58.9688 81.0652 58.9688C81.3412 58.9688 81.5522 59.0495 81.698 59.2109C81.849 59.3724 81.9246 59.5703 81.9246 59.8047C81.9246 60.0286 81.849 60.2214 81.698 60.3828C81.5522 60.5391 81.3412 60.6172 81.0652 60.6172C80.7839 60.6172 80.5704 60.5391 80.4246 60.3828C80.2839 60.2214 80.2136 60.0286 80.2136 59.8047ZM85.5417 63.8516V70.5H84.0964V62.0469H85.4636L85.5417 63.8516ZM85.198 65.9531L84.5964 65.9297C84.6016 65.3516 84.6876 64.8177 84.8542 64.3281C85.0209 63.8333 85.2553 63.4036 85.5574 63.0391C85.8595 62.6745 86.2188 62.3932 86.6355 62.1953C87.0574 61.9922 87.5235 61.8906 88.0339 61.8906C88.4506 61.8906 88.8256 61.9479 89.1589 62.0625C89.4923 62.1719 89.7761 62.349 90.0105 62.5938C90.2501 62.8385 90.4324 63.1562 90.5574 63.5469C90.6824 63.9323 90.7449 64.4036 90.7449 64.9609V70.5H89.2917V64.9453C89.2917 64.5026 89.2266 64.1484 89.0964 63.8828C88.9662 63.612 88.7761 63.4167 88.5261 63.2969C88.2761 63.1719 87.9688 63.1094 87.6042 63.1094C87.2449 63.1094 86.9167 63.1849 86.6199 63.3359C86.3282 63.487 86.0756 63.6953 85.8621 63.9609C85.6537 64.2266 85.4897 64.5312 85.3699 64.875C85.2553 65.2135 85.198 65.5729 85.198 65.9531ZM98.4167 62.0469H99.7292V70.3203C99.7292 71.0651 99.5782 71.7005 99.2761 72.2266C98.974 72.7526 98.5522 73.151 98.0105 73.4219C97.474 73.6979 96.8542 73.8359 96.1511 73.8359C95.8595 73.8359 95.5157 73.7891 95.1199 73.6953C94.7292 73.6068 94.3438 73.4531 93.9636 73.2344C93.5886 73.0208 93.2735 72.7318 93.0183 72.3672L93.7761 71.5078C94.1303 71.9349 94.5001 72.2318 94.8855 72.3984C95.2761 72.5651 95.6615 72.6484 96.0417 72.6484C96.5001 72.6484 96.8959 72.5625 97.2292 72.3906C97.5626 72.2188 97.8204 71.9635 98.0027 71.625C98.1902 71.2917 98.2839 70.8802 98.2839 70.3906V63.9062L98.4167 62.0469ZM92.5964 66.3672V66.2031C92.5964 65.5573 92.672 64.9714 92.823 64.4453C92.9792 63.9141 93.2006 63.4583 93.4871 63.0781C93.7787 62.6979 94.1303 62.4062 94.5417 62.2031C94.9532 61.9948 95.4167 61.8906 95.9324 61.8906C96.4636 61.8906 96.9272 61.9844 97.323 62.1719C97.724 62.3542 98.0626 62.6224 98.3386 62.9766C98.6199 63.3255 98.8412 63.7474 99.0027 64.2422C99.1641 64.737 99.2761 65.2969 99.3386 65.9219V66.6406C99.2813 67.2604 99.1694 67.8177 99.0027 68.3125C98.8412 68.8073 98.6199 69.2292 98.3386 69.5781C98.0626 69.9271 97.724 70.1953 97.323 70.3828C96.922 70.5651 96.4532 70.6562 95.9167 70.6562C95.4115 70.6562 94.9532 70.5495 94.5417 70.3359C94.1355 70.1224 93.7865 69.8229 93.4949 69.4375C93.2032 69.0521 92.9792 68.599 92.823 68.0781C92.672 67.5521 92.5964 66.9818 92.5964 66.3672ZM94.0417 66.2031V66.3672C94.0417 66.7891 94.0834 67.1849 94.1667 67.5547C94.2553 67.9245 94.3881 68.25 94.5652 68.5312C94.7475 68.8125 94.9792 69.0339 95.2605 69.1953C95.5417 69.3516 95.8777 69.4297 96.2683 69.4297C96.7475 69.4297 97.1433 69.3281 97.4558 69.125C97.7683 68.9219 98.0157 68.6536 98.198 68.3203C98.3855 67.987 98.5313 67.625 98.6355 67.2344V65.3516C98.5782 65.0651 98.4897 64.7891 98.3699 64.5234C98.2553 64.2526 98.1042 64.013 97.9167 63.8047C97.7345 63.5911 97.5079 63.4219 97.2371 63.2969C96.9662 63.1719 96.6485 63.1094 96.2839 63.1094C95.8881 63.1094 95.547 63.1927 95.2605 63.3594C94.9792 63.5208 94.7475 63.7448 94.5652 64.0312C94.3881 64.3125 94.2553 64.6406 94.1667 65.0156C94.0834 65.3854 94.0417 65.7812 94.0417 66.2031Z" fill="#E2E8F0"/>
<path d="M3.60425 105.125V116.5H2.09644V105.125H3.60425ZM11.4558 114.859V104.5H12.9089V116.5H11.5808L11.4558 114.859ZM5.76831 112.367V112.203C5.76831 111.557 5.84644 110.971 6.00269 110.445C6.16414 109.914 6.39071 109.458 6.68237 109.078C6.97925 108.698 7.33081 108.406 7.73706 108.203C8.14852 107.995 8.60685 107.891 9.11206 107.891C9.64331 107.891 10.1069 107.984 10.5027 108.172C10.9037 108.354 11.2423 108.622 11.5183 108.977C11.7996 109.326 12.0209 109.747 12.1824 110.242C12.3438 110.737 12.4558 111.297 12.5183 111.922V112.641C12.461 113.26 12.349 113.818 12.1824 114.312C12.0209 114.807 11.7996 115.229 11.5183 115.578C11.2423 115.927 10.9037 116.195 10.5027 116.383C10.1016 116.565 9.63289 116.656 9.09644 116.656C8.60164 116.656 8.14852 116.549 7.73706 116.336C7.33081 116.122 6.97925 115.823 6.68237 115.438C6.39071 115.052 6.16414 114.599 6.00269 114.078C5.84644 113.552 5.76831 112.982 5.76831 112.367ZM7.22144 112.203V112.367C7.22144 112.789 7.2631 113.185 7.34644 113.555C7.43498 113.924 7.57039 114.25 7.75269 114.531C7.93498 114.812 8.16675 115.034 8.448 115.195C8.72925 115.352 9.06519 115.43 9.45581 115.43C9.93498 115.43 10.3282 115.328 10.6355 115.125C10.948 114.922 11.198 114.654 11.3855 114.32C11.573 113.987 11.7188 113.625 11.823 113.234V111.352C11.7605 111.065 11.6694 110.789 11.5496 110.523C11.435 110.253 11.2839 110.013 11.0964 109.805C10.9141 109.591 10.6876 109.422 10.4167 109.297C10.1511 109.172 9.83602 109.109 9.47144 109.109C9.0756 109.109 8.73446 109.193 8.448 109.359C8.16675 109.521 7.93498 109.745 7.75269 110.031C7.57039 110.312 7.43498 110.641 7.34644 111.016C7.2631 111.385 7.22144 111.781 7.22144 112.203ZM18.6667 116.656C18.0782 116.656 17.5444 116.557 17.0652 116.359C16.5912 116.156 16.1824 115.872 15.8386 115.508C15.5001 115.143 15.2397 114.711 15.0574 114.211C14.8751 113.711 14.7839 113.164 14.7839 112.57V112.242C14.7839 111.555 14.8855 110.943 15.0886 110.406C15.2917 109.865 15.5678 109.406 15.9167 109.031C16.2657 108.656 16.6615 108.372 17.1042 108.18C17.547 107.987 18.0053 107.891 18.4792 107.891C19.0834 107.891 19.6042 107.995 20.0417 108.203C20.4845 108.411 20.8464 108.703 21.1277 109.078C21.4089 109.448 21.6173 109.885 21.7527 110.391C21.8881 110.891 21.9558 111.438 21.9558 112.031V112.68H15.6433V111.5H20.5105V111.391C20.4897 111.016 20.4115 110.651 20.2761 110.297C20.1459 109.943 19.9376 109.651 19.6511 109.422C19.3647 109.193 18.974 109.078 18.4792 109.078C18.1511 109.078 17.849 109.148 17.573 109.289C17.297 109.424 17.06 109.628 16.8621 109.898C16.6641 110.169 16.5105 110.5 16.4011 110.891C16.2917 111.281 16.2371 111.732 16.2371 112.242V112.57C16.2371 112.971 16.2917 113.349 16.4011 113.703C16.5157 114.052 16.6798 114.359 16.8933 114.625C17.1121 114.891 17.3751 115.099 17.6824 115.25C17.9949 115.401 18.349 115.477 18.7449 115.477C19.2553 115.477 19.6876 115.372 20.0417 115.164C20.3959 114.956 20.7058 114.677 20.9714 114.328L21.8464 115.023C21.6641 115.299 21.4324 115.562 21.1511 115.812C20.8699 116.062 20.5235 116.266 20.1121 116.422C19.7058 116.578 19.224 116.656 18.6667 116.656ZM28.6277 115.055V110.703C28.6277 110.37 28.56 110.081 28.4246 109.836C28.2944 109.586 28.0964 109.393 27.8308 109.258C27.5652 109.122 27.2371 109.055 26.8464 109.055C26.4819 109.055 26.1615 109.117 25.8855 109.242C25.6147 109.367 25.4011 109.531 25.2449 109.734C25.0938 109.938 25.0183 110.156 25.0183 110.391H23.573C23.573 110.089 23.6511 109.789 23.8074 109.492C23.9636 109.195 24.1876 108.927 24.4792 108.688C24.7761 108.443 25.1303 108.25 25.5417 108.109C25.9584 107.964 26.422 107.891 26.9324 107.891C27.547 107.891 28.0886 107.995 28.5574 108.203C29.0313 108.411 29.4011 108.727 29.6667 109.148C29.9376 109.565 30.073 110.089 30.073 110.719V114.656C30.073 114.938 30.0964 115.237 30.1433 115.555C30.1954 115.872 30.2709 116.146 30.3699 116.375V116.5H28.8621C28.7891 116.333 28.7319 116.112 28.6902 115.836C28.6485 115.555 28.6277 115.294 28.6277 115.055ZM28.8777 111.375L28.8933 112.391H27.4324C27.0209 112.391 26.6537 112.424 26.3308 112.492C26.0079 112.555 25.7371 112.651 25.5183 112.781C25.2996 112.911 25.1329 113.076 25.0183 113.273C24.9037 113.466 24.8464 113.693 24.8464 113.953C24.8464 114.219 24.9063 114.461 25.0261 114.68C25.1459 114.898 25.3256 115.073 25.5652 115.203C25.81 115.328 26.1095 115.391 26.4636 115.391C26.9063 115.391 27.297 115.297 27.6355 115.109C27.974 114.922 28.2423 114.693 28.4402 114.422C28.6433 114.151 28.7527 113.888 28.7683 113.633L29.3855 114.328C29.349 114.547 29.2501 114.789 29.0886 115.055C28.9272 115.32 28.711 115.576 28.4402 115.82C28.1746 116.06 27.8569 116.26 27.4871 116.422C27.1225 116.578 26.711 116.656 26.2527 116.656C25.6798 116.656 25.1772 116.544 24.7449 116.32C24.3178 116.096 23.9845 115.797 23.7449 115.422C23.5105 115.042 23.3933 114.617 23.3933 114.148C23.3933 113.695 23.4819 113.297 23.6589 112.953C23.836 112.604 24.0912 112.315 24.4246 112.086C24.7579 111.852 25.1589 111.674 25.6277 111.555C26.0964 111.435 26.6199 111.375 27.198 111.375H28.8777ZM35.8855 108.047V109.156H31.3152V108.047H35.8855ZM32.8621 105.992H34.3074V114.406C34.3074 114.693 34.3516 114.909 34.4402 115.055C34.5287 115.201 34.6433 115.297 34.7839 115.344C34.9246 115.391 35.0756 115.414 35.2371 115.414C35.3569 115.414 35.4819 115.404 35.6121 115.383C35.7475 115.357 35.849 115.336 35.9167 115.32L35.9246 116.5C35.81 116.536 35.6589 116.57 35.4714 116.602C35.2891 116.638 35.0678 116.656 34.8074 116.656C34.4532 116.656 34.1277 116.586 33.8308 116.445C33.5339 116.305 33.297 116.07 33.1199 115.742C32.948 115.409 32.8621 114.961 32.8621 114.398V105.992ZM39.1511 108.047V116.5H37.698V108.047H39.1511ZM37.5886 105.805C37.5886 105.57 37.6589 105.372 37.7996 105.211C37.9454 105.049 38.1589 104.969 38.4402 104.969C38.7162 104.969 38.9272 105.049 39.073 105.211C39.224 105.372 39.2996 105.57 39.2996 105.805C39.2996 106.029 39.224 106.221 39.073 106.383C38.9272 106.539 38.7162 106.617 38.4402 106.617C38.1589 106.617 37.9454 106.539 37.7996 106.383C37.6589 106.221 37.5886 106.029 37.5886 105.805ZM41.0886 112.367V112.188C41.0886 111.578 41.1772 111.013 41.3542 110.492C41.5313 109.966 41.7865 109.51 42.1199 109.125C42.4532 108.734 42.8569 108.432 43.3308 108.219C43.8048 108 44.336 107.891 44.9246 107.891C45.5183 107.891 46.0522 108 46.5261 108.219C47.0053 108.432 47.4115 108.734 47.7449 109.125C48.0834 109.51 48.3412 109.966 48.5183 110.492C48.6954 111.013 48.7839 111.578 48.7839 112.188V112.367C48.7839 112.977 48.6954 113.542 48.5183 114.062C48.3412 114.583 48.0834 115.039 47.7449 115.43C47.4115 115.815 47.0079 116.117 46.5339 116.336C46.0652 116.549 45.5339 116.656 44.9402 116.656C44.3464 116.656 43.8126 116.549 43.3386 116.336C42.8647 116.117 42.4584 115.815 42.1199 115.43C41.7865 115.039 41.5313 114.583 41.3542 114.062C41.1772 113.542 41.0886 112.977 41.0886 112.367ZM42.5339 112.188V112.367C42.5339 112.789 42.5834 113.188 42.6824 113.562C42.7813 113.932 42.9298 114.26 43.1277 114.547C43.3308 114.833 43.5834 115.06 43.8855 115.227C44.1876 115.388 44.5391 115.469 44.9402 115.469C45.336 115.469 45.6824 115.388 45.9792 115.227C46.2813 115.06 46.5313 114.833 46.7292 114.547C46.9272 114.26 47.0756 113.932 47.1746 113.562C47.2787 113.188 47.3308 112.789 47.3308 112.367V112.188C47.3308 111.771 47.2787 111.378 47.1746 111.008C47.0756 110.633 46.9246 110.302 46.7214 110.016C46.5235 109.724 46.2735 109.495 45.9714 109.328C45.6746 109.161 45.3256 109.078 44.9246 109.078C44.5287 109.078 44.1798 109.161 43.8777 109.328C43.5808 109.495 43.3308 109.724 43.1277 110.016C42.9298 110.302 42.7813 110.633 42.6824 111.008C42.5834 111.378 42.5339 111.771 42.5339 112.188ZM52.0417 109.852V116.5H50.5964V108.047H51.9636L52.0417 109.852ZM51.698 111.953L51.0964 111.93C51.1016 111.352 51.1876 110.818 51.3542 110.328C51.5209 109.833 51.7553 109.404 52.0574 109.039C52.3595 108.674 52.7188 108.393 53.1355 108.195C53.5574 107.992 54.0235 107.891 54.5339 107.891C54.9506 107.891 55.3256 107.948 55.6589 108.062C55.9923 108.172 56.2761 108.349 56.5105 108.594C56.7501 108.839 56.9324 109.156 57.0574 109.547C57.1824 109.932 57.2449 110.404 57.2449 110.961V116.5H55.7917V110.945C55.7917 110.503 55.7266 110.148 55.5964 109.883C55.4662 109.612 55.2761 109.417 55.0261 109.297C54.7761 109.172 54.4688 109.109 54.1042 109.109C53.7449 109.109 53.4167 109.185 53.1199 109.336C52.8282 109.487 52.5756 109.695 52.3621 109.961C52.1537 110.227 51.9897 110.531 51.8699 110.875C51.7553 111.214 51.698 111.573 51.698 111.953Z" fill="#E2E8F0"/>
<path d="M4.97925 159.062L7.23706 151.125H8.33081L7.698 154.211L5.26831 162.5H4.18237L4.97925 159.062ZM2.64331 151.125L4.44019 158.906L4.97925 162.5H3.90112L1.14331 151.125H2.64331ZM11.2527 158.898L13.0105 151.125H14.5183L11.7683 162.5H10.6902L11.2527 158.898ZM8.49487 151.125L10.6902 159.062L11.4871 162.5H10.4011L8.05737 154.211L7.41675 151.125H8.49487ZM17.5417 154.047V162.5H16.0886V154.047H17.5417ZM15.9792 151.805C15.9792 151.57 16.0496 151.372 16.1902 151.211C16.336 151.049 16.5496 150.969 16.8308 150.969C17.1069 150.969 17.3178 151.049 17.4636 151.211C17.6147 151.372 17.6902 151.57 17.6902 151.805C17.6902 152.029 17.6147 152.221 17.4636 152.383C17.3178 152.539 17.1069 152.617 16.8308 152.617C16.5496 152.617 16.336 152.539 16.1902 152.383C16.0496 152.221 15.9792 152.029 15.9792 151.805ZM21.3074 155.375V162.5H19.8621V154.047H21.2683L21.3074 155.375ZM23.948 154L23.9402 155.344C23.8204 155.318 23.7058 155.302 23.5964 155.297C23.4923 155.286 23.3725 155.281 23.2371 155.281C22.9037 155.281 22.6095 155.333 22.3542 155.438C22.099 155.542 21.8829 155.688 21.7058 155.875C21.5287 156.062 21.3881 156.286 21.2839 156.547C21.185 156.802 21.1199 157.083 21.0886 157.391L20.6824 157.625C20.6824 157.115 20.7319 156.635 20.8308 156.188C20.935 155.74 21.0938 155.344 21.3074 155C21.5209 154.651 21.7917 154.38 22.1199 154.188C22.4532 153.99 22.849 153.891 23.3074 153.891C23.4115 153.891 23.5313 153.904 23.6667 153.93C23.8022 153.951 23.8959 153.974 23.948 154ZM28.6355 162.656C28.047 162.656 27.5131 162.557 27.0339 162.359C26.56 162.156 26.1511 161.872 25.8074 161.508C25.4688 161.143 25.2084 160.711 25.0261 160.211C24.8438 159.711 24.7527 159.164 24.7527 158.57V158.242C24.7527 157.555 24.8542 156.943 25.0574 156.406C25.2605 155.865 25.5365 155.406 25.8855 155.031C26.2345 154.656 26.6303 154.372 27.073 154.18C27.5157 153.987 27.974 153.891 28.448 153.891C29.0522 153.891 29.573 153.995 30.0105 154.203C30.4532 154.411 30.8152 154.703 31.0964 155.078C31.3777 155.448 31.586 155.885 31.7214 156.391C31.8569 156.891 31.9246 157.438 31.9246 158.031V158.68H25.6121V157.5H30.4792V157.391C30.4584 157.016 30.3803 156.651 30.2449 156.297C30.1147 155.943 29.9063 155.651 29.6199 155.422C29.3334 155.193 28.9428 155.078 28.448 155.078C28.1199 155.078 27.8178 155.148 27.5417 155.289C27.2657 155.424 27.0287 155.628 26.8308 155.898C26.6329 156.169 26.4792 156.5 26.3699 156.891C26.2605 157.281 26.2058 157.732 26.2058 158.242V158.57C26.2058 158.971 26.2605 159.349 26.3699 159.703C26.4845 160.052 26.6485 160.359 26.8621 160.625C27.0808 160.891 27.3438 161.099 27.6511 161.25C27.9636 161.401 28.3178 161.477 28.7136 161.477C29.224 161.477 29.6563 161.372 30.0105 161.164C30.3647 160.956 30.6746 160.677 30.9402 160.328L31.8152 161.023C31.6329 161.299 31.4011 161.562 31.1199 161.812C30.8386 162.062 30.4923 162.266 30.0808 162.422C29.6746 162.578 29.1928 162.656 28.6355 162.656ZM35.7683 162.5H34.323V153.156C34.323 152.547 34.4324 152.034 34.6511 151.617C34.8751 151.195 35.1954 150.878 35.6121 150.664C36.0287 150.445 36.5235 150.336 37.0964 150.336C37.2631 150.336 37.4298 150.346 37.5964 150.367C37.7683 150.388 37.935 150.419 38.0964 150.461L38.0183 151.641C37.9089 151.615 37.7839 151.596 37.6433 151.586C37.5079 151.576 37.3725 151.57 37.2371 151.57C36.9298 151.57 36.6641 151.633 36.4402 151.758C36.2214 151.878 36.0548 152.055 35.9402 152.289C35.8256 152.523 35.7683 152.812 35.7683 153.156V162.5ZM37.5652 154.047V155.156H32.9871V154.047H37.5652ZM40.6199 155.375V162.5H39.1746V154.047H40.5808L40.6199 155.375ZM43.2605 154L43.2527 155.344C43.1329 155.318 43.0183 155.302 42.9089 155.297C42.8048 155.286 42.685 155.281 42.5496 155.281C42.2162 155.281 41.922 155.333 41.6667 155.438C41.4115 155.542 41.1954 155.688 41.0183 155.875C40.8412 156.062 40.7006 156.286 40.5964 156.547C40.4975 156.802 40.4324 157.083 40.4011 157.391L39.9949 157.625C39.9949 157.115 40.0444 156.635 40.1433 156.188C40.2475 155.74 40.4063 155.344 40.6199 155C40.8334 154.651 41.1042 154.38 41.4324 154.188C41.7657 153.99 42.1615 153.891 42.6199 153.891C42.724 153.891 42.8438 153.904 42.9792 153.93C43.1147 153.951 43.2084 153.974 43.2605 154ZM49.2683 161.055V156.703C49.2683 156.37 49.2006 156.081 49.0652 155.836C48.935 155.586 48.7371 155.393 48.4714 155.258C48.2058 155.122 47.8777 155.055 47.4871 155.055C47.1225 155.055 46.8022 155.117 46.5261 155.242C46.2553 155.367 46.0417 155.531 45.8855 155.734C45.7345 155.938 45.6589 156.156 45.6589 156.391H44.2136C44.2136 156.089 44.2917 155.789 44.448 155.492C44.6042 155.195 44.8282 154.927 45.1199 154.688C45.4167 154.443 45.7709 154.25 46.1824 154.109C46.599 153.964 47.0626 153.891 47.573 153.891C48.1876 153.891 48.7292 153.995 49.198 154.203C49.672 154.411 50.0417 154.727 50.3074 155.148C50.5782 155.565 50.7136 156.089 50.7136 156.719V160.656C50.7136 160.938 50.7371 161.237 50.7839 161.555C50.836 161.872 50.9115 162.146 51.0105 162.375V162.5H49.5027C49.4298 162.333 49.3725 162.112 49.3308 161.836C49.2891 161.555 49.2683 161.294 49.2683 161.055ZM49.5183 157.375L49.5339 158.391H48.073C47.6615 158.391 47.2944 158.424 46.9714 158.492C46.6485 158.555 46.3777 158.651 46.1589 158.781C45.9402 158.911 45.7735 159.076 45.6589 159.273C45.5444 159.466 45.4871 159.693 45.4871 159.953C45.4871 160.219 45.547 160.461 45.6667 160.68C45.7865 160.898 45.9662 161.073 46.2058 161.203C46.4506 161.328 46.7501 161.391 47.1042 161.391C47.547 161.391 47.9376 161.297 48.2761 161.109C48.6147 160.922 48.8829 160.693 49.0808 160.422C49.2839 160.151 49.3933 159.888 49.4089 159.633L50.0261 160.328C49.9897 160.547 49.8907 160.789 49.7292 161.055C49.5678 161.32 49.3516 161.576 49.0808 161.82C48.8152 162.06 48.4975 162.26 48.1277 162.422C47.7631 162.578 47.3516 162.656 46.8933 162.656C46.3204 162.656 45.8178 162.544 45.3855 162.32C44.9584 162.096 44.6251 161.797 44.3855 161.422C44.1511 161.042 44.0339 160.617 44.0339 160.148C44.0339 159.695 44.1225 159.297 44.2996 158.953C44.4766 158.604 44.7319 158.315 45.0652 158.086C45.3985 157.852 45.7996 157.674 46.2683 157.555C46.7371 157.435 47.2605 157.375 47.8386 157.375H49.5183ZM54.4246 155.727V162.5H52.9714V154.047H54.3464L54.4246 155.727ZM54.1277 157.953L53.4558 157.93C53.461 157.352 53.5365 156.818 53.6824 156.328C53.8282 155.833 54.0444 155.404 54.3308 155.039C54.6173 154.674 54.974 154.393 55.4011 154.195C55.8282 153.992 56.323 153.891 56.8855 153.891C57.2813 153.891 57.6459 153.948 57.9792 154.062C58.3126 154.172 58.6016 154.346 58.8464 154.586C59.0912 154.826 59.2813 155.133 59.4167 155.508C59.5522 155.883 59.6199 156.336 59.6199 156.867V162.5H58.1746V156.938C58.1746 156.495 58.099 156.141 57.948 155.875C57.8022 155.609 57.5938 155.417 57.323 155.297C57.0522 155.172 56.7345 155.109 56.3699 155.109C55.9428 155.109 55.586 155.185 55.2996 155.336C55.0131 155.487 54.7839 155.695 54.6121 155.961C54.4402 156.227 54.3152 156.531 54.2371 156.875C54.1641 157.214 54.1277 157.573 54.1277 157.953ZM59.6042 157.156L58.6355 157.453C58.6407 156.99 58.7162 156.544 58.8621 156.117C59.0131 155.69 59.2292 155.31 59.5105 154.977C59.797 154.643 60.1485 154.38 60.5652 154.188C60.9819 153.99 61.4584 153.891 61.9949 153.891C62.448 153.891 62.849 153.951 63.198 154.07C63.5522 154.19 63.849 154.375 64.0886 154.625C64.3334 154.87 64.5183 155.185 64.6433 155.57C64.7683 155.956 64.8308 156.414 64.8308 156.945V162.5H63.3777V156.93C63.3777 156.456 63.3022 156.089 63.1511 155.828C63.0053 155.562 62.797 155.378 62.5261 155.273C62.2605 155.164 61.9428 155.109 61.573 155.109C61.2553 155.109 60.974 155.164 60.7292 155.273C60.4845 155.383 60.2787 155.534 60.1121 155.727C59.9454 155.914 59.8178 156.13 59.7292 156.375C59.6459 156.62 59.6042 156.88 59.6042 157.156ZM68.5886 154.047V162.5H67.1355V154.047H68.5886ZM67.0261 151.805C67.0261 151.57 67.0964 151.372 67.2371 151.211C67.3829 151.049 67.5964 150.969 67.8777 150.969C68.1537 150.969 68.3647 151.049 68.5105 151.211C68.6615 151.372 68.7371 151.57 68.7371 151.805C68.7371 152.029 68.6615 152.221 68.5105 152.383C68.3647 152.539 68.1537 152.617 67.8777 152.617C67.5964 152.617 67.3829 152.539 67.2371 152.383C67.0964 152.221 67.0261 152.029 67.0261 151.805ZM72.3542 155.852V162.5H70.9089V154.047H72.2761L72.3542 155.852ZM72.0105 157.953L71.4089 157.93C71.4141 157.352 71.5001 156.818 71.6667 156.328C71.8334 155.833 72.0678 155.404 72.3699 155.039C72.672 154.674 73.0313 154.393 73.448 154.195C73.8699 153.992 74.336 153.891 74.8464 153.891C75.2631 153.891 75.6381 153.948 75.9714 154.062C76.3048 154.172 76.5886 154.349 76.823 154.594C77.0626 154.839 77.2449 155.156 77.3699 155.547C77.4949 155.932 77.5574 156.404 77.5574 156.961V162.5H76.1042V156.945C76.1042 156.503 76.0391 156.148 75.9089 155.883C75.7787 155.612 75.5886 155.417 75.3386 155.297C75.0886 155.172 74.7813 155.109 74.4167 155.109C74.0574 155.109 73.7292 155.185 73.4324 155.336C73.1407 155.487 72.8881 155.695 72.6746 155.961C72.4662 156.227 72.3022 156.531 72.1824 156.875C72.0678 157.214 72.0105 157.573 72.0105 157.953ZM85.2292 154.047H86.5417V162.32C86.5417 163.065 86.3907 163.701 86.0886 164.227C85.7865 164.753 85.3647 165.151 84.823 165.422C84.2865 165.698 83.6667 165.836 82.9636 165.836C82.672 165.836 82.3282 165.789 81.9324 165.695C81.5417 165.607 81.1563 165.453 80.7761 165.234C80.4011 165.021 80.086 164.732 79.8308 164.367L80.5886 163.508C80.9428 163.935 81.3126 164.232 81.698 164.398C82.0886 164.565 82.474 164.648 82.8542 164.648C83.3126 164.648 83.7084 164.562 84.0417 164.391C84.3751 164.219 84.6329 163.964 84.8152 163.625C85.0027 163.292 85.0964 162.88 85.0964 162.391V155.906L85.2292 154.047ZM79.4089 158.367V158.203C79.4089 157.557 79.4845 156.971 79.6355 156.445C79.7917 155.914 80.0131 155.458 80.2996 155.078C80.5912 154.698 80.9428 154.406 81.3542 154.203C81.7657 153.995 82.2292 153.891 82.7449 153.891C83.2761 153.891 83.7397 153.984 84.1355 154.172C84.5365 154.354 84.8751 154.622 85.1511 154.977C85.4324 155.326 85.6537 155.747 85.8152 156.242C85.9766 156.737 86.0886 157.297 86.1511 157.922V158.641C86.0938 159.26 85.9819 159.818 85.8152 160.312C85.6537 160.807 85.4324 161.229 85.1511 161.578C84.8751 161.927 84.5365 162.195 84.1355 162.383C83.7345 162.565 83.2657 162.656 82.7292 162.656C82.224 162.656 81.7657 162.549 81.3542 162.336C80.948 162.122 80.599 161.823 80.3074 161.438C80.0157 161.052 79.7917 160.599 79.6355 160.078C79.4845 159.552 79.4089 158.982 79.4089 158.367ZM80.8542 158.203V158.367C80.8542 158.789 80.8959 159.185 80.9792 159.555C81.0678 159.924 81.2006 160.25 81.3777 160.531C81.56 160.812 81.7917 161.034 82.073 161.195C82.3542 161.352 82.6902 161.43 83.0808 161.43C83.56 161.43 83.9558 161.328 84.2683 161.125C84.5808 160.922 84.8282 160.654 85.0105 160.32C85.198 159.987 85.3438 159.625 85.448 159.234V157.352C85.3907 157.065 85.3022 156.789 85.1824 156.523C85.0678 156.253 84.9167 156.013 84.7292 155.805C84.547 155.591 84.3204 155.422 84.0496 155.297C83.7787 155.172 83.461 155.109 83.0964 155.109C82.7006 155.109 82.3595 155.193 82.073 155.359C81.7917 155.521 81.56 155.745 81.3777 156.031C81.2006 156.312 81.0678 156.641 80.9792 157.016C80.8959 157.385 80.8542 157.781 80.8542 158.203Z" fill="#E2E8F0"/>
<path d="M1.98706 197.125H5.75269C6.60685 197.125 7.32821 197.255 7.91675 197.516C8.5105 197.776 8.96102 198.161 9.26831 198.672C9.58081 199.177 9.73706 199.799 9.73706 200.539C9.73706 201.06 9.63029 201.536 9.41675 201.969C9.20841 202.396 8.90633 202.76 8.5105 203.062C8.11987 203.359 7.65112 203.581 7.10425 203.727L6.68237 203.891H3.14331L3.12769 202.664H5.79956C6.34123 202.664 6.79175 202.57 7.15112 202.383C7.5105 202.19 7.78133 201.932 7.96362 201.609C8.14591 201.286 8.23706 200.93 8.23706 200.539C8.23706 200.102 8.15112 199.719 7.97925 199.391C7.80737 199.062 7.53654 198.81 7.16675 198.633C6.80216 198.451 6.33081 198.359 5.75269 198.359H3.49487V208.5H1.98706V197.125ZM8.6355 208.5L5.86987 203.344L7.44019 203.336L10.2449 208.406V208.5H8.6355ZM15.1355 208.656C14.547 208.656 14.0131 208.557 13.5339 208.359C13.06 208.156 12.6511 207.872 12.3074 207.508C11.9688 207.143 11.7084 206.711 11.5261 206.211C11.3438 205.711 11.2527 205.164 11.2527 204.57V204.242C11.2527 203.555 11.3542 202.943 11.5574 202.406C11.7605 201.865 12.0365 201.406 12.3855 201.031C12.7345 200.656 13.1303 200.372 13.573 200.18C14.0157 199.987 14.474 199.891 14.948 199.891C15.5522 199.891 16.073 199.995 16.5105 200.203C16.9532 200.411 17.3152 200.703 17.5964 201.078C17.8777 201.448 18.086 201.885 18.2214 202.391C18.3569 202.891 18.4246 203.438 18.4246 204.031V204.68H12.1121V203.5H16.9792V203.391C16.9584 203.016 16.8803 202.651 16.7449 202.297C16.6147 201.943 16.4063 201.651 16.1199 201.422C15.8334 201.193 15.4428 201.078 14.948 201.078C14.6199 201.078 14.3178 201.148 14.0417 201.289C13.7657 201.424 13.5287 201.628 13.3308 201.898C13.1329 202.169 12.9792 202.5 12.8699 202.891C12.7605 203.281 12.7058 203.732 12.7058 204.242V204.57C12.7058 204.971 12.7605 205.349 12.8699 205.703C12.9845 206.052 13.1485 206.359 13.3621 206.625C13.5808 206.891 13.8438 207.099 14.1511 207.25C14.4636 207.401 14.8178 207.477 15.2136 207.477C15.724 207.477 16.1563 207.372 16.5105 207.164C16.8647 206.956 17.1746 206.677 17.4402 206.328L18.3152 207.023C18.1329 207.299 17.9011 207.562 17.6199 207.812C17.3386 208.062 16.9923 208.266 16.5808 208.422C16.1746 208.578 15.6928 208.656 15.1355 208.656ZM25.0339 206.258C25.0339 206.049 24.9871 205.857 24.8933 205.68C24.8048 205.497 24.6199 205.333 24.3386 205.188C24.0626 205.036 23.6459 204.906 23.0886 204.797C22.6199 204.698 22.1954 204.581 21.8152 204.445C21.4402 204.31 21.1199 204.146 20.8542 203.953C20.5938 203.76 20.3933 203.534 20.2527 203.273C20.1121 203.013 20.0417 202.708 20.0417 202.359C20.0417 202.026 20.1147 201.711 20.2605 201.414C20.4115 201.117 20.6225 200.854 20.8933 200.625C21.1694 200.396 21.5001 200.216 21.8855 200.086C22.2709 199.956 22.7006 199.891 23.1746 199.891C23.8516 199.891 24.4298 200.01 24.9089 200.25C25.3881 200.49 25.7553 200.81 26.0105 201.211C26.2657 201.607 26.3933 202.047 26.3933 202.531H24.948C24.948 202.297 24.8777 202.07 24.7371 201.852C24.6016 201.628 24.4011 201.443 24.1355 201.297C23.8751 201.151 23.5548 201.078 23.1746 201.078C22.7735 201.078 22.448 201.141 22.198 201.266C21.9532 201.385 21.7735 201.539 21.6589 201.727C21.5496 201.914 21.4949 202.112 21.4949 202.32C21.4949 202.477 21.5209 202.617 21.573 202.742C21.6303 202.862 21.7292 202.974 21.8699 203.078C22.0105 203.177 22.2084 203.271 22.4636 203.359C22.7188 203.448 23.0444 203.536 23.4402 203.625C24.1329 203.781 24.7032 203.969 25.1511 204.188C25.599 204.406 25.9324 204.674 26.1511 204.992C26.3699 205.31 26.4792 205.695 26.4792 206.148C26.4792 206.518 26.4011 206.857 26.2449 207.164C26.0938 207.471 25.8725 207.737 25.5808 207.961C25.2944 208.18 24.9506 208.352 24.5496 208.477C24.1537 208.596 23.7084 208.656 23.2136 208.656C22.4688 208.656 21.8386 208.523 21.323 208.258C20.8074 207.992 20.4167 207.648 20.1511 207.227C19.8855 206.805 19.7527 206.359 19.7527 205.891H21.2058C21.2266 206.286 21.3412 206.602 21.5496 206.836C21.7579 207.065 22.0131 207.229 22.3152 207.328C22.6173 207.422 22.9167 207.469 23.2136 207.469C23.6095 207.469 23.9402 207.417 24.2058 207.312C24.4766 207.208 24.6824 207.065 24.823 206.883C24.9636 206.701 25.0339 206.492 25.0339 206.258ZM31.8855 208.656C31.297 208.656 30.7631 208.557 30.2839 208.359C29.81 208.156 29.4011 207.872 29.0574 207.508C28.7188 207.143 28.4584 206.711 28.2761 206.211C28.0938 205.711 28.0027 205.164 28.0027 204.57V204.242C28.0027 203.555 28.1042 202.943 28.3074 202.406C28.5105 201.865 28.7865 201.406 29.1355 201.031C29.4845 200.656 29.8803 200.372 30.323 200.18C30.7657 199.987 31.224 199.891 31.698 199.891C32.3022 199.891 32.823 199.995 33.2605 200.203C33.7032 200.411 34.0652 200.703 34.3464 201.078C34.6277 201.448 34.836 201.885 34.9714 202.391C35.1069 202.891 35.1746 203.438 35.1746 204.031V204.68H28.8621V203.5H33.7292V203.391C33.7084 203.016 33.6303 202.651 33.4949 202.297C33.3647 201.943 33.1563 201.651 32.8699 201.422C32.5834 201.193 32.1928 201.078 31.698 201.078C31.3699 201.078 31.0678 201.148 30.7917 201.289C30.5157 201.424 30.2787 201.628 30.0808 201.898C29.8829 202.169 29.7292 202.5 29.6199 202.891C29.5105 203.281 29.4558 203.732 29.4558 204.242V204.57C29.4558 204.971 29.5105 205.349 29.6199 205.703C29.7345 206.052 29.8985 206.359 30.1121 206.625C30.3308 206.891 30.5938 207.099 30.9011 207.25C31.2136 207.401 31.5678 207.477 31.9636 207.477C32.474 207.477 32.9063 207.372 33.2605 207.164C33.6147 206.956 33.9246 206.677 34.1902 206.328L35.0652 207.023C34.8829 207.299 34.6511 207.562 34.3699 207.812C34.0886 208.062 33.7423 208.266 33.3308 208.422C32.9246 208.578 32.4428 208.656 31.8855 208.656ZM41.8464 207.055V202.703C41.8464 202.37 41.7787 202.081 41.6433 201.836C41.5131 201.586 41.3152 201.393 41.0496 201.258C40.7839 201.122 40.4558 201.055 40.0652 201.055C39.7006 201.055 39.3803 201.117 39.1042 201.242C38.8334 201.367 38.6199 201.531 38.4636 201.734C38.3126 201.938 38.2371 202.156 38.2371 202.391H36.7917C36.7917 202.089 36.8699 201.789 37.0261 201.492C37.1824 201.195 37.4063 200.927 37.698 200.688C37.9949 200.443 38.349 200.25 38.7605 200.109C39.1772 199.964 39.6407 199.891 40.1511 199.891C40.7657 199.891 41.3074 199.995 41.7761 200.203C42.2501 200.411 42.6199 200.727 42.8855 201.148C43.1563 201.565 43.2917 202.089 43.2917 202.719V206.656C43.2917 206.938 43.3152 207.237 43.3621 207.555C43.4141 207.872 43.4897 208.146 43.5886 208.375V208.5H42.0808C42.0079 208.333 41.9506 208.112 41.9089 207.836C41.8673 207.555 41.8464 207.294 41.8464 207.055ZM42.0964 203.375L42.1121 204.391H40.6511C40.2397 204.391 39.8725 204.424 39.5496 204.492C39.2266 204.555 38.9558 204.651 38.7371 204.781C38.5183 204.911 38.3516 205.076 38.2371 205.273C38.1225 205.466 38.0652 205.693 38.0652 205.953C38.0652 206.219 38.1251 206.461 38.2449 206.68C38.3647 206.898 38.5444 207.073 38.7839 207.203C39.0287 207.328 39.3282 207.391 39.6824 207.391C40.1251 207.391 40.5157 207.297 40.8542 207.109C41.1928 206.922 41.461 206.693 41.6589 206.422C41.8621 206.151 41.9714 205.888 41.9871 205.633L42.6042 206.328C42.5678 206.547 42.4688 206.789 42.3074 207.055C42.1459 207.32 41.9298 207.576 41.6589 207.82C41.3933 208.06 41.0756 208.26 40.7058 208.422C40.3412 208.578 39.9298 208.656 39.4714 208.656C38.8985 208.656 38.3959 208.544 37.9636 208.32C37.5365 208.096 37.2032 207.797 36.9636 207.422C36.7292 207.042 36.6121 206.617 36.6121 206.148C36.6121 205.695 36.7006 205.297 36.8777 204.953C37.0548 204.604 37.31 204.315 37.6433 204.086C37.9766 203.852 38.3777 203.674 38.8464 203.555C39.3152 203.435 39.8386 203.375 40.4167 203.375H42.0964ZM47.0105 201.375V208.5H45.5652V200.047H46.9714L47.0105 201.375ZM49.6511 200L49.6433 201.344C49.5235 201.318 49.4089 201.302 49.2996 201.297C49.1954 201.286 49.0756 201.281 48.9402 201.281C48.6069 201.281 48.3126 201.333 48.0574 201.438C47.8022 201.542 47.586 201.688 47.4089 201.875C47.2319 202.062 47.0912 202.286 46.9871 202.547C46.8881 202.802 46.823 203.083 46.7917 203.391L46.3855 203.625C46.3855 203.115 46.435 202.635 46.5339 202.188C46.6381 201.74 46.797 201.344 47.0105 201C47.224 200.651 47.4949 200.38 47.823 200.188C48.1563 199.99 48.5522 199.891 49.0105 199.891C49.1147 199.891 49.2345 199.904 49.3699 199.93C49.5053 199.951 49.599 199.974 49.6511 200ZM54.2136 207.469C54.5574 207.469 54.8751 207.398 55.1667 207.258C55.4584 207.117 55.698 206.924 55.8855 206.68C56.073 206.43 56.1798 206.146 56.2058 205.828H57.5808C57.5548 206.328 57.3855 206.794 57.073 207.227C56.7657 207.654 56.3621 208 55.8621 208.266C55.3621 208.526 54.8126 208.656 54.2136 208.656C53.5782 208.656 53.0235 208.544 52.5496 208.32C52.0808 208.096 51.6902 207.789 51.3777 207.398C51.0704 207.008 50.8386 206.56 50.6824 206.055C50.5313 205.544 50.4558 205.005 50.4558 204.438V204.109C50.4558 203.542 50.5313 203.005 50.6824 202.5C50.8386 201.99 51.0704 201.539 51.3777 201.148C51.6902 200.758 52.0808 200.451 52.5496 200.227C53.0235 200.003 53.5782 199.891 54.2136 199.891C54.8751 199.891 55.4532 200.026 55.948 200.297C56.4428 200.562 56.8308 200.927 57.1121 201.391C57.3985 201.849 57.5548 202.37 57.5808 202.953H56.2058C56.1798 202.604 56.0808 202.289 55.9089 202.008C55.7423 201.727 55.5131 201.503 55.2214 201.336C54.935 201.164 54.599 201.078 54.2136 201.078C53.7709 201.078 53.3985 201.167 53.0964 201.344C52.7996 201.516 52.5626 201.75 52.3855 202.047C52.2136 202.339 52.0886 202.664 52.0105 203.023C51.9376 203.378 51.9011 203.74 51.9011 204.109V204.438C51.9011 204.807 51.9376 205.172 52.0105 205.531C52.0834 205.891 52.2058 206.216 52.3777 206.508C52.5548 206.799 52.7917 207.034 53.0886 207.211C53.3907 207.383 53.7657 207.469 54.2136 207.469ZM60.6511 196.5V208.5H59.2058V196.5H60.6511ZM60.3074 203.953L59.7058 203.93C59.711 203.352 59.797 202.818 59.9636 202.328C60.1303 201.833 60.3647 201.404 60.6667 201.039C60.9688 200.674 61.3282 200.393 61.7449 200.195C62.1667 199.992 62.6329 199.891 63.1433 199.891C63.56 199.891 63.935 199.948 64.2683 200.062C64.6016 200.172 64.8855 200.349 65.1199 200.594C65.3595 200.839 65.5417 201.156 65.6667 201.547C65.7917 201.932 65.8542 202.404 65.8542 202.961V208.5H64.4011V202.945C64.4011 202.503 64.336 202.148 64.2058 201.883C64.0756 201.612 63.8855 201.417 63.6355 201.297C63.3855 201.172 63.0782 201.109 62.7136 201.109C62.3542 201.109 62.0261 201.185 61.7292 201.336C61.4376 201.487 61.185 201.695 60.9714 201.961C60.7631 202.227 60.599 202.531 60.4792 202.875C60.3647 203.214 60.3074 203.573 60.3074 203.953Z" fill="#E2E8F0"/>
</svg>
