<svg width="174" height="227" viewBox="0 0 174 227" fill="none" xmlns="http://www.w3.org/2000/svg">
<path d="M5.80981 22.2578H2.84888V20.7031H5.80981C6.32544 20.7031 6.74211 20.6198 7.05981 20.4531C7.37752 20.2865 7.60929 20.0573 7.75513 19.7656C7.90617 19.4688 7.98169 19.1302 7.98169 18.75C7.98169 18.3906 7.90617 18.0547 7.75513 17.7422C7.60929 17.4245 7.37752 17.1693 7.05981 16.9766C6.74211 16.7839 6.32544 16.6875 5.80981 16.6875H3.45044V26.5H1.4895V15.125H5.80981C6.69002 15.125 7.43742 15.2812 8.052 15.5938C8.67179 15.901 9.14315 16.3281 9.46606 16.875C9.78898 17.4167 9.95044 18.0365 9.95044 18.7344C9.95044 19.4688 9.78898 20.099 9.46606 20.625C9.14315 21.151 8.67179 21.5547 8.052 21.8359C7.43742 22.1172 6.69002 22.2578 5.80981 22.2578ZM13.4114 19.6562V26.5H11.5286V18.0469H13.3254L13.4114 19.6562ZM15.9973 17.9922L15.9817 19.7422C15.8671 19.7214 15.7421 19.7057 15.6067 19.6953C15.4765 19.6849 15.3463 19.6797 15.2161 19.6797C14.8931 19.6797 14.6093 19.7266 14.3645 19.8203C14.1197 19.9089 13.914 20.0391 13.7473 20.2109C13.5859 20.3776 13.4609 20.5807 13.3723 20.8203C13.2838 21.0599 13.2317 21.3281 13.2161 21.625L12.7864 21.6562C12.7864 21.125 12.8385 20.6328 12.9426 20.1797C13.0468 19.7266 13.203 19.3281 13.4114 18.9844C13.6249 18.6406 13.8905 18.3724 14.2083 18.1797C14.5312 17.987 14.9036 17.8906 15.3254 17.8906C15.44 17.8906 15.5624 17.901 15.6926 17.9219C15.828 17.9427 15.9296 17.9661 15.9973 17.9922ZM16.6145 22.3672V22.1875C16.6145 21.5781 16.703 21.013 16.8801 20.4922C17.0572 19.9661 17.3124 19.5104 17.6458 19.125C17.9843 18.7344 18.3958 18.4323 18.8801 18.2188C19.3697 18 19.9218 17.8906 20.5364 17.8906C21.1562 17.8906 21.7083 18 22.1926 18.2188C22.6822 18.4323 23.0963 18.7344 23.4348 19.125C23.7734 19.5104 24.0312 19.9661 24.2083 20.4922C24.3853 21.013 24.4739 21.5781 24.4739 22.1875V22.3672C24.4739 22.9766 24.3853 23.5417 24.2083 24.0625C24.0312 24.5833 23.7734 25.0391 23.4348 25.4297C23.0963 25.8151 22.6848 26.1172 22.2004 26.3359C21.7161 26.5495 21.1666 26.6562 20.552 26.6562C19.9322 26.6562 19.3775 26.5495 18.8879 26.3359C18.4036 26.1172 17.9921 25.8151 17.6536 25.4297C17.315 25.0391 17.0572 24.5833 16.8801 24.0625C16.703 23.5417 16.6145 22.9766 16.6145 22.3672ZM18.4973 22.1875V22.3672C18.4973 22.7474 18.5364 23.1068 18.6145 23.4453C18.6926 23.7839 18.815 24.0807 18.9817 24.3359C19.1484 24.5911 19.3619 24.7917 19.6223 24.9375C19.8827 25.0833 20.1926 25.1562 20.552 25.1562C20.901 25.1562 21.203 25.0833 21.4583 24.9375C21.7187 24.7917 21.9322 24.5911 22.0989 24.3359C22.2655 24.0807 22.3879 23.7839 22.4661 23.4453C22.5494 23.1068 22.5911 22.7474 22.5911 22.3672V22.1875C22.5911 21.8125 22.5494 21.4583 22.4661 21.125C22.3879 20.7865 22.2629 20.487 22.0911 20.2266C21.9244 19.9661 21.7109 19.763 21.4504 19.6172C21.1952 19.4661 20.8905 19.3906 20.5364 19.3906C20.1822 19.3906 19.8749 19.4661 19.6145 19.6172C19.3593 19.763 19.1484 19.9661 18.9817 20.2266C18.815 20.487 18.6926 20.7865 18.6145 21.125C18.5364 21.4583 18.4973 21.8125 18.4973 22.1875ZM31.2083 24.75V14.5H33.0989V26.5H31.3879L31.2083 24.75ZM25.7083 22.3672V22.2031C25.7083 21.5625 25.7838 20.9792 25.9348 20.4531C26.0859 19.9219 26.3046 19.4661 26.5911 19.0859C26.8775 18.7005 27.2265 18.4062 27.6379 18.2031C28.0494 17.9948 28.5129 17.8906 29.0286 17.8906C29.539 17.8906 29.9869 17.9896 30.3723 18.1875C30.7577 18.3854 31.0859 18.6693 31.3567 19.0391C31.6275 19.4036 31.8437 19.8411 32.0051 20.3516C32.1666 20.8568 32.2812 21.4193 32.3489 22.0391V22.5625C32.2812 23.1667 32.1666 23.7188 32.0051 24.2188C31.8437 24.7188 31.6275 25.151 31.3567 25.5156C31.0859 25.8802 30.7551 26.1615 30.3645 26.3594C29.9791 26.5573 29.5286 26.6562 29.0129 26.6562C28.5025 26.6562 28.0416 26.5495 27.6301 26.3359C27.2239 26.1224 26.8775 25.8229 26.5911 25.4375C26.3046 25.0521 26.0859 24.599 25.9348 24.0781C25.7838 23.5521 25.7083 22.9818 25.7083 22.3672ZM27.5911 22.2031V22.3672C27.5911 22.7526 27.6249 23.112 27.6926 23.4453C27.7655 23.7786 27.8775 24.0729 28.0286 24.3281C28.1796 24.5781 28.3749 24.776 28.6145 24.9219C28.8593 25.0625 29.151 25.1328 29.4895 25.1328C29.9166 25.1328 30.2681 25.0391 30.5442 24.8516C30.8202 24.6641 31.0364 24.4115 31.1926 24.0938C31.3541 23.7708 31.4635 23.4115 31.5208 23.0156V21.6016C31.4895 21.2943 31.4244 21.0078 31.3254 20.7422C31.2317 20.4766 31.1041 20.2448 30.9426 20.0469C30.7812 19.8438 30.5806 19.6875 30.3411 19.5781C30.1067 19.4635 29.828 19.4062 29.5051 19.4062C29.1614 19.4062 28.8697 19.4792 28.6301 19.625C28.3905 19.7708 28.1926 19.9714 28.0364 20.2266C27.8853 20.4818 27.7734 20.7786 27.7004 21.1172C27.6275 21.4557 27.5911 21.8177 27.5911 22.2031ZM40.1536 24.5078V18.0469H42.0442V26.5H40.2629L40.1536 24.5078ZM40.4192 22.75L41.052 22.7344C41.052 23.3021 40.9895 23.8255 40.8645 24.3047C40.7395 24.7786 40.5468 25.1927 40.2864 25.5469C40.026 25.8958 39.6926 26.1693 39.2864 26.3672C38.8801 26.5599 38.3931 26.6562 37.8254 26.6562C37.414 26.6562 37.0364 26.5964 36.6926 26.4766C36.3489 26.3568 36.052 26.1719 35.802 25.9219C35.5572 25.6719 35.3671 25.3464 35.2317 24.9453C35.0963 24.5443 35.0286 24.0651 35.0286 23.5078V18.0469H36.9114V23.5234C36.9114 23.8307 36.9478 24.0885 37.0208 24.2969C37.0937 24.5 37.1926 24.6641 37.3176 24.7891C37.4426 24.9141 37.5885 25.0026 37.7551 25.0547C37.9218 25.1068 38.0989 25.1328 38.2864 25.1328C38.8228 25.1328 39.2447 25.0286 39.552 24.8203C39.8645 24.6068 40.0859 24.3203 40.2161 23.9609C40.3515 23.6016 40.4192 23.1979 40.4192 22.75ZM47.427 25.1562C47.7343 25.1562 48.0103 25.0964 48.2551 24.9766C48.5051 24.8516 48.7056 24.6797 48.8567 24.4609C49.0129 24.2422 49.0989 23.9896 49.1145 23.7031H50.8879C50.8775 24.25 50.7161 24.7474 50.4036 25.1953C50.0911 25.6432 49.677 26 49.1614 26.2656C48.6458 26.526 48.0754 26.6562 47.4504 26.6562C46.8046 26.6562 46.2421 26.5469 45.7629 26.3281C45.2838 26.1042 44.8853 25.7969 44.5676 25.4062C44.2499 25.0156 44.0103 24.5651 43.8489 24.0547C43.6926 23.5443 43.6145 22.9974 43.6145 22.4141V22.1406C43.6145 21.5573 43.6926 21.0104 43.8489 20.5C44.0103 19.9844 44.2499 19.5312 44.5676 19.1406C44.8853 18.75 45.2838 18.4453 45.7629 18.2266C46.2421 18.0026 46.802 17.8906 47.4426 17.8906C48.1197 17.8906 48.7135 18.026 49.2239 18.2969C49.7343 18.5625 50.1353 18.9349 50.427 19.4141C50.7239 19.888 50.8775 20.4401 50.8879 21.0703H49.1145C49.0989 20.7578 49.0208 20.4766 48.8801 20.2266C48.7447 19.9714 48.552 19.7682 48.302 19.6172C48.0572 19.4661 47.7629 19.3906 47.4192 19.3906C47.039 19.3906 46.7239 19.4688 46.4739 19.625C46.2239 19.776 46.0286 19.9844 45.8879 20.25C45.7473 20.5104 45.6458 20.8047 45.5833 21.1328C45.526 21.4557 45.4973 21.7917 45.4973 22.1406V22.4141C45.4973 22.763 45.526 23.1016 45.5833 23.4297C45.6405 23.7578 45.7395 24.0521 45.8801 24.3125C46.026 24.5677 46.2239 24.7734 46.4739 24.9297C46.7239 25.0807 47.0416 25.1562 47.427 25.1562ZM56.2083 18.0469V19.4219H51.4426V18.0469H56.2083ZM52.8176 15.9766H54.7004V24.1641C54.7004 24.4245 54.7369 24.625 54.8098 24.7656C54.8879 24.901 54.9947 24.9922 55.1301 25.0391C55.2655 25.0859 55.4244 25.1094 55.6067 25.1094C55.7369 25.1094 55.8619 25.1016 55.9817 25.0859C56.1015 25.0703 56.1978 25.0547 56.2708 25.0391L56.2786 26.4766C56.1223 26.5234 55.94 26.5651 55.7317 26.6016C55.5286 26.638 55.2942 26.6562 55.0286 26.6562C54.5963 26.6562 54.2135 26.5807 53.8801 26.4297C53.5468 26.2734 53.2864 26.0208 53.0989 25.6719C52.9114 25.3229 52.8176 24.8594 52.8176 24.2812V15.9766Z" fill="white"/>
<path d="M5.84888 66.0391H2.80981V64.8125H5.84888C6.43742 64.8125 6.91398 64.7188 7.27856 64.5312C7.64315 64.3438 7.90877 64.0833 8.07544 63.75C8.24731 63.4167 8.33325 63.0365 8.33325 62.6094C8.33325 62.2188 8.24731 61.8516 8.07544 61.5078C7.90877 61.1641 7.64315 60.888 7.27856 60.6797C6.91398 60.4661 6.43742 60.3594 5.84888 60.3594H3.16138V70.5H1.65356V59.125H5.84888C6.70825 59.125 7.43481 59.2734 8.02856 59.5703C8.62231 59.8672 9.07284 60.2786 9.38013 60.8047C9.68742 61.3255 9.84106 61.9219 9.84106 62.5938C9.84106 63.3229 9.68742 63.9453 9.38013 64.4609C9.07284 64.9766 8.62231 65.3698 8.02856 65.6406C7.43481 65.9062 6.70825 66.0391 5.84888 66.0391ZM12.9739 63.375V70.5H11.5286V62.0469H12.9348L12.9739 63.375ZM15.6145 62L15.6067 63.3438C15.4869 63.3177 15.3723 63.3021 15.2629 63.2969C15.1588 63.2865 15.039 63.2812 14.9036 63.2812C14.5702 63.2812 14.276 63.3333 14.0208 63.4375C13.7655 63.5417 13.5494 63.6875 13.3723 63.875C13.1952 64.0625 13.0546 64.2865 12.9504 64.5469C12.8515 64.8021 12.7864 65.0833 12.7551 65.3906L12.3489 65.625C12.3489 65.1146 12.3984 64.6354 12.4973 64.1875C12.6015 63.7396 12.7603 63.3438 12.9739 63C13.1874 62.651 13.4583 62.3802 13.7864 62.1875C14.1197 61.9896 14.5155 61.8906 14.9739 61.8906C15.078 61.8906 15.1978 61.9036 15.3333 61.9297C15.4687 61.9505 15.5624 61.974 15.6145 62ZM18.5208 62.0469V70.5H17.0676V62.0469H18.5208ZM16.9583 59.8047C16.9583 59.5703 17.0286 59.3724 17.1692 59.2109C17.315 59.0495 17.5286 58.9688 17.8098 58.9688C18.0859 58.9688 18.2968 59.0495 18.4426 59.2109C18.5937 59.3724 18.6692 59.5703 18.6692 59.8047C18.6692 60.0286 18.5937 60.2214 18.4426 60.3828C18.2968 60.5391 18.0859 60.6172 17.8098 60.6172C17.5286 60.6172 17.315 60.5391 17.1692 60.3828C17.0286 60.2214 16.9583 60.0286 16.9583 59.8047ZM24.2239 69.4688C24.5676 69.4688 24.8853 69.3984 25.177 69.2578C25.4687 69.1172 25.7083 68.9245 25.8958 68.6797C26.0833 68.4297 26.19 68.1458 26.2161 67.8281H27.5911C27.565 68.3281 27.3958 68.7943 27.0833 69.2266C26.776 69.6536 26.3723 70 25.8723 70.2656C25.3723 70.526 24.8228 70.6562 24.2239 70.6562C23.5885 70.6562 23.0338 70.5443 22.5598 70.3203C22.0911 70.0964 21.7004 69.7891 21.3879 69.3984C21.0806 69.0078 20.8489 68.5599 20.6926 68.0547C20.5416 67.5443 20.4661 67.0052 20.4661 66.4375V66.1094C20.4661 65.5417 20.5416 65.0052 20.6926 64.5C20.8489 63.9896 21.0806 63.5391 21.3879 63.1484C21.7004 62.7578 22.0911 62.4505 22.5598 62.2266C23.0338 62.0026 23.5885 61.8906 24.2239 61.8906C24.8853 61.8906 25.4635 62.026 25.9583 62.2969C26.453 62.5625 26.8411 62.9271 27.1223 63.3906C27.4088 63.849 27.565 64.3698 27.5911 64.9531H26.2161C26.19 64.6042 26.0911 64.2891 25.9192 64.0078C25.7525 63.7266 25.5234 63.5026 25.2317 63.3359C24.9452 63.1641 24.6093 63.0781 24.2239 63.0781C23.7812 63.0781 23.4088 63.1667 23.1067 63.3438C22.8098 63.5156 22.5728 63.75 22.3958 64.0469C22.2239 64.3385 22.0989 64.6641 22.0208 65.0234C21.9478 65.3776 21.9114 65.7396 21.9114 66.1094V66.4375C21.9114 66.8073 21.9478 67.1719 22.0208 67.5312C22.0937 67.8906 22.2161 68.2161 22.3879 68.5078C22.565 68.7995 22.802 69.0339 23.0989 69.2109C23.401 69.3828 23.776 69.4688 24.2239 69.4688ZM30.7864 62.0469V70.5H29.3333V62.0469H30.7864ZM29.2239 59.8047C29.2239 59.5703 29.2942 59.3724 29.4348 59.2109C29.5806 59.0495 29.7942 58.9688 30.0754 58.9688C30.3515 58.9688 30.5624 59.0495 30.7083 59.2109C30.8593 59.3724 30.9348 59.5703 30.9348 59.8047C30.9348 60.0286 30.8593 60.2214 30.7083 60.3828C30.5624 60.5391 30.3515 60.6172 30.0754 60.6172C29.7942 60.6172 29.5806 60.5391 29.4348 60.3828C29.2942 60.2214 29.2239 60.0286 29.2239 59.8047ZM34.552 63.8516V70.5H33.1067V62.0469H34.4739L34.552 63.8516ZM34.2083 65.9531L33.6067 65.9297C33.6119 65.3516 33.6978 64.8177 33.8645 64.3281C34.0312 63.8333 34.2655 63.4036 34.5676 63.0391C34.8697 62.6745 35.2291 62.3932 35.6458 62.1953C36.0676 61.9922 36.5338 61.8906 37.0442 61.8906C37.4609 61.8906 37.8359 61.9479 38.1692 62.0625C38.5025 62.1719 38.7864 62.349 39.0208 62.5938C39.2603 62.8385 39.4426 63.1562 39.5676 63.5469C39.6926 63.9323 39.7551 64.4036 39.7551 64.9609V70.5H38.302V64.9453C38.302 64.5026 38.2369 64.1484 38.1067 63.8828C37.9765 63.612 37.7864 63.4167 37.5364 63.2969C37.2864 63.1719 36.9791 63.1094 36.6145 63.1094C36.2551 63.1094 35.927 63.1849 35.6301 63.3359C35.3385 63.487 35.0859 63.6953 34.8723 63.9609C34.664 64.2266 34.4999 64.5312 34.3801 64.875C34.2655 65.2135 34.2083 65.5729 34.2083 65.9531ZM47.427 62.0469H48.7395V70.3203C48.7395 71.0651 48.5885 71.7005 48.2864 72.2266C47.9843 72.7526 47.5624 73.151 47.0208 73.4219C46.4843 73.6979 45.8645 73.8359 45.1614 73.8359C44.8697 73.8359 44.526 73.7891 44.1301 73.6953C43.7395 73.6068 43.3541 73.4531 42.9739 73.2344C42.5989 73.0208 42.2838 72.7318 42.0286 72.3672L42.7864 71.5078C43.1405 71.9349 43.5103 72.2318 43.8958 72.3984C44.2864 72.5651 44.6718 72.6484 45.052 72.6484C45.5103 72.6484 45.9062 72.5625 46.2395 72.3906C46.5728 72.2188 46.8306 71.9635 47.0129 71.625C47.2004 71.2917 47.2942 70.8802 47.2942 70.3906V63.9062L47.427 62.0469ZM41.6067 66.3672V66.2031C41.6067 65.5573 41.6822 64.9714 41.8333 64.4453C41.9895 63.9141 42.2109 63.4583 42.4973 63.0781C42.789 62.6979 43.1405 62.4062 43.552 62.2031C43.9635 61.9948 44.427 61.8906 44.9426 61.8906C45.4739 61.8906 45.9374 61.9844 46.3333 62.1719C46.7343 62.3542 47.0728 62.6224 47.3489 62.9766C47.6301 63.3255 47.8515 63.7474 48.0129 64.2422C48.1744 64.737 48.2864 65.2969 48.3489 65.9219V66.6406C48.2916 67.2604 48.1796 67.8177 48.0129 68.3125C47.8515 68.8073 47.6301 69.2292 47.3489 69.5781C47.0728 69.9271 46.7343 70.1953 46.3333 70.3828C45.9322 70.5651 45.4635 70.6562 44.927 70.6562C44.4218 70.6562 43.9635 70.5495 43.552 70.3359C43.1458 70.1224 42.7968 69.8229 42.5051 69.4375C42.2135 69.0521 41.9895 68.599 41.8333 68.0781C41.6822 67.5521 41.6067 66.9818 41.6067 66.3672ZM43.052 66.2031V66.3672C43.052 66.7891 43.0937 67.1849 43.177 67.5547C43.2655 67.9245 43.3984 68.25 43.5754 68.5312C43.7577 68.8125 43.9895 69.0339 44.2708 69.1953C44.552 69.3516 44.8879 69.4297 45.2786 69.4297C45.7577 69.4297 46.1536 69.3281 46.4661 69.125C46.7786 68.9219 47.026 68.6536 47.2083 68.3203C47.3958 67.987 47.5416 67.625 47.6458 67.2344V65.3516C47.5885 65.0651 47.4999 64.7891 47.3801 64.5234C47.2655 64.2526 47.1145 64.013 46.927 63.8047C46.7447 63.5911 46.5181 63.4219 46.2473 63.2969C45.9765 63.1719 45.6588 63.1094 45.2942 63.1094C44.8984 63.1094 44.5572 63.1927 44.2708 63.3594C43.9895 63.5208 43.7577 63.7448 43.5754 64.0312C43.3984 64.3125 43.2655 64.6406 43.177 65.0156C43.0937 65.3854 43.052 65.7812 43.052 66.2031Z" fill="#E2E8F0"/>
<path d="M10.4114 110.453V111.172C10.4114 112.026 10.3046 112.792 10.0911 113.469C9.87752 114.146 9.57023 114.721 9.16919 115.195C8.76815 115.669 8.28638 116.031 7.72388 116.281C7.16659 116.531 6.54159 116.656 5.84888 116.656C5.177 116.656 4.55981 116.531 3.99731 116.281C3.44002 116.031 2.95565 115.669 2.54419 115.195C2.13794 114.721 1.82284 114.146 1.59888 113.469C1.37492 112.792 1.26294 112.026 1.26294 111.172V110.453C1.26294 109.599 1.37231 108.836 1.59106 108.164C1.81502 107.487 2.13013 106.911 2.53638 106.438C2.94263 105.958 3.4244 105.594 3.98169 105.344C4.54419 105.094 5.16138 104.969 5.83325 104.969C6.52596 104.969 7.15096 105.094 7.70825 105.344C8.27075 105.594 8.75252 105.958 9.15356 106.438C9.55981 106.911 9.86971 107.487 10.0833 108.164C10.302 108.836 10.4114 109.599 10.4114 110.453ZM8.91919 111.172V110.438C8.91919 109.76 8.84888 109.161 8.70825 108.641C8.57284 108.12 8.37231 107.682 8.10669 107.328C7.84106 106.974 7.51554 106.706 7.13013 106.523C6.74992 106.341 6.31763 106.25 5.83325 106.25C5.3645 106.25 4.94002 106.341 4.55981 106.523C4.18481 106.706 3.8619 106.974 3.59106 107.328C3.32544 107.682 3.11971 108.12 2.97388 108.641C2.82804 109.161 2.75513 109.76 2.75513 110.438V111.172C2.75513 111.854 2.82804 112.458 2.97388 112.984C3.11971 113.505 3.32804 113.945 3.59888 114.305C3.87492 114.659 4.20044 114.927 4.57544 115.109C4.95565 115.292 5.38013 115.383 5.84888 115.383C6.33846 115.383 6.77336 115.292 7.15356 115.109C7.53377 114.927 7.85409 114.659 8.1145 114.305C8.38013 113.945 8.58065 113.505 8.71606 112.984C8.85148 112.458 8.91919 111.854 8.91919 111.172ZM15.0208 115.195L17.3333 108.047H18.8098L15.7708 116.5H14.802L15.0208 115.195ZM13.0911 108.047L15.4739 115.234L15.6379 116.5H14.6692L11.6067 108.047H13.0911ZM23.5989 116.656C23.0103 116.656 22.4765 116.557 21.9973 116.359C21.5234 116.156 21.1145 115.872 20.7708 115.508C20.4322 115.143 20.1718 114.711 19.9895 114.211C19.8072 113.711 19.7161 113.164 19.7161 112.57V112.242C19.7161 111.555 19.8176 110.943 20.0208 110.406C20.2239 109.865 20.4999 109.406 20.8489 109.031C21.1978 108.656 21.5937 108.372 22.0364 108.18C22.4791 107.987 22.9374 107.891 23.4114 107.891C24.0155 107.891 24.5364 107.995 24.9739 108.203C25.4166 108.411 25.7786 108.703 26.0598 109.078C26.3411 109.448 26.5494 109.885 26.6848 110.391C26.8202 110.891 26.8879 111.438 26.8879 112.031V112.68H20.5754V111.5H25.4426V111.391C25.4218 111.016 25.3437 110.651 25.2083 110.297C25.078 109.943 24.8697 109.651 24.5833 109.422C24.2968 109.193 23.9062 109.078 23.4114 109.078C23.0833 109.078 22.7812 109.148 22.5051 109.289C22.2291 109.424 21.9921 109.628 21.7942 109.898C21.5963 110.169 21.4426 110.5 21.3333 110.891C21.2239 111.281 21.1692 111.732 21.1692 112.242V112.57C21.1692 112.971 21.2239 113.349 21.3333 113.703C21.4478 114.052 21.6119 114.359 21.8254 114.625C22.0442 114.891 22.3072 115.099 22.6145 115.25C22.927 115.401 23.2812 115.477 23.677 115.477C24.1874 115.477 24.6197 115.372 24.9739 115.164C25.328 114.956 25.6379 114.677 25.9036 114.328L26.7786 115.023C26.5963 115.299 26.3645 115.562 26.0833 115.812C25.802 116.062 25.4556 116.266 25.0442 116.422C24.6379 116.578 24.1562 116.656 23.5989 116.656ZM30.0208 109.375V116.5H28.5754V108.047H29.9817L30.0208 109.375ZM32.6614 108L32.6536 109.344C32.5338 109.318 32.4192 109.302 32.3098 109.297C32.2056 109.286 32.0859 109.281 31.9504 109.281C31.6171 109.281 31.3228 109.333 31.0676 109.438C30.8124 109.542 30.5963 109.688 30.4192 109.875C30.2421 110.062 30.1015 110.286 29.9973 110.547C29.8984 110.802 29.8333 111.083 29.802 111.391L29.3958 111.625C29.3958 111.115 29.4452 110.635 29.5442 110.188C29.6484 109.74 29.8072 109.344 30.0208 109C30.2343 108.651 30.5051 108.38 30.8333 108.188C31.1666 107.99 31.5624 107.891 32.0208 107.891C32.1249 107.891 32.2447 107.904 32.3801 107.93C32.5155 107.951 32.6093 107.974 32.6614 108ZM36.7083 115.195L39.0208 108.047H40.4973L37.4583 116.5H36.4895L36.7083 115.195ZM34.7786 108.047L37.1614 115.234L37.3254 116.5H36.3567L33.2942 108.047H34.7786ZM43.4583 108.047V116.5H42.0051V108.047H43.4583ZM41.8958 105.805C41.8958 105.57 41.9661 105.372 42.1067 105.211C42.2525 105.049 42.4661 104.969 42.7473 104.969C43.0234 104.969 43.2343 105.049 43.3801 105.211C43.5312 105.372 43.6067 105.57 43.6067 105.805C43.6067 106.029 43.5312 106.221 43.3801 106.383C43.2343 106.539 43.0234 106.617 42.7473 106.617C42.4661 106.617 42.2525 106.539 42.1067 106.383C41.9661 106.221 41.8958 106.029 41.8958 105.805ZM49.2864 116.656C48.6978 116.656 48.164 116.557 47.6848 116.359C47.2109 116.156 46.802 115.872 46.4583 115.508C46.1197 115.143 45.8593 114.711 45.677 114.211C45.4947 113.711 45.4036 113.164 45.4036 112.57V112.242C45.4036 111.555 45.5051 110.943 45.7083 110.406C45.9114 109.865 46.1874 109.406 46.5364 109.031C46.8853 108.656 47.2812 108.372 47.7239 108.18C48.1666 107.987 48.6249 107.891 49.0989 107.891C49.703 107.891 50.2239 107.995 50.6614 108.203C51.1041 108.411 51.4661 108.703 51.7473 109.078C52.0286 109.448 52.2369 109.885 52.3723 110.391C52.5077 110.891 52.5754 111.438 52.5754 112.031V112.68H46.2629V111.5H51.1301V111.391C51.1093 111.016 51.0312 110.651 50.8958 110.297C50.7655 109.943 50.5572 109.651 50.2708 109.422C49.9843 109.193 49.5937 109.078 49.0989 109.078C48.7708 109.078 48.4687 109.148 48.1926 109.289C47.9166 109.424 47.6796 109.628 47.4817 109.898C47.2838 110.169 47.1301 110.5 47.0208 110.891C46.9114 111.281 46.8567 111.732 46.8567 112.242V112.57C46.8567 112.971 46.9114 113.349 47.0208 113.703C47.1353 114.052 47.2994 114.359 47.5129 114.625C47.7317 114.891 47.9947 115.099 48.302 115.25C48.6145 115.401 48.9687 115.477 49.3645 115.477C49.8749 115.477 50.3072 115.372 50.6614 115.164C51.0155 114.956 51.3254 114.677 51.5911 114.328L52.4661 115.023C52.2838 115.299 52.052 115.562 51.7708 115.812C51.4895 116.062 51.1431 116.266 50.7317 116.422C50.3254 116.578 49.8437 116.656 49.2864 116.656ZM56.4036 115L58.5754 108.047H59.5286L59.3411 109.43L57.1301 116.5H56.2004L56.4036 115ZM54.9426 108.047L56.7942 115.078L56.927 116.5H55.9504L53.4973 108.047H54.9426ZM61.6067 115.023L63.3723 108.047H64.8098L62.3567 116.5H61.3879L61.6067 115.023ZM59.7395 108.047L61.8645 114.883L62.1067 116.5H61.1848L58.9114 109.414L58.7239 108.047H59.7395Z" fill="#E2E8F0"/>
<path d="M5.70825 157.18H2.82544L2.80981 155.969H5.427C5.85929 155.969 6.2369 155.896 6.55981 155.75C6.88273 155.604 7.13273 155.396 7.30981 155.125C7.49211 154.849 7.58325 154.521 7.58325 154.141C7.58325 153.724 7.50252 153.385 7.34106 153.125C7.18481 152.859 6.94263 152.667 6.6145 152.547C6.29159 152.422 5.88013 152.359 5.38013 152.359H3.16138V162.5H1.65356V151.125H5.38013C5.96346 151.125 6.48429 151.185 6.94263 151.305C7.40096 151.419 7.78898 151.602 8.10669 151.852C8.42961 152.096 8.6744 152.409 8.84106 152.789C9.00773 153.169 9.09106 153.625 9.09106 154.156C9.09106 154.625 8.97127 155.049 8.73169 155.43C8.49211 155.805 8.15877 156.112 7.73169 156.352C7.30981 156.591 6.81502 156.745 6.24731 156.812L5.70825 157.18ZM5.63794 162.5H2.23169L3.08325 161.273H5.63794C6.11711 161.273 6.52336 161.19 6.85669 161.023C7.19523 160.857 7.45304 160.622 7.63013 160.32C7.80721 160.013 7.89575 159.651 7.89575 159.234C7.89575 158.812 7.82023 158.448 7.66919 158.141C7.51815 157.833 7.28117 157.596 6.95825 157.43C6.63534 157.263 6.21867 157.18 5.70825 157.18H3.55981L3.57544 155.969H6.51294L6.83325 156.406C7.38013 156.453 7.84367 156.609 8.22388 156.875C8.60409 157.135 8.89315 157.469 9.09106 157.875C9.29419 158.281 9.39575 158.729 9.39575 159.219C9.39575 159.927 9.2395 160.526 8.927 161.016C8.61971 161.5 8.18481 161.87 7.62231 162.125C7.05981 162.375 6.39836 162.5 5.63794 162.5ZM12.8489 155.375V162.5H11.4036V154.047H12.8098L12.8489 155.375ZM15.4895 154L15.4817 155.344C15.3619 155.318 15.2473 155.302 15.1379 155.297C15.0338 155.286 14.914 155.281 14.7786 155.281C14.4452 155.281 14.151 155.333 13.8958 155.438C13.6405 155.542 13.4244 155.688 13.2473 155.875C13.0702 156.062 12.9296 156.286 12.8254 156.547C12.7265 156.802 12.6614 157.083 12.6301 157.391L12.2239 157.625C12.2239 157.115 12.2734 156.635 12.3723 156.188C12.4765 155.74 12.6353 155.344 12.8489 155C13.0624 154.651 13.3333 154.38 13.6614 154.188C13.9947 153.99 14.3905 153.891 14.8489 153.891C14.953 153.891 15.0728 153.904 15.2083 153.93C15.3437 153.951 15.4374 153.974 15.4895 154ZM16.2864 158.367V158.188C16.2864 157.578 16.3749 157.013 16.552 156.492C16.7291 155.966 16.9843 155.51 17.3176 155.125C17.651 154.734 18.0546 154.432 18.5286 154.219C19.0025 154 19.5338 153.891 20.1223 153.891C20.7161 153.891 21.2499 154 21.7239 154.219C22.203 154.432 22.6093 154.734 22.9426 155.125C23.2812 155.51 23.539 155.966 23.7161 156.492C23.8931 157.013 23.9817 157.578 23.9817 158.188V158.367C23.9817 158.977 23.8931 159.542 23.7161 160.062C23.539 160.583 23.2812 161.039 22.9426 161.43C22.6093 161.815 22.2056 162.117 21.7317 162.336C21.2629 162.549 20.7317 162.656 20.1379 162.656C19.5442 162.656 19.0103 162.549 18.5364 162.336C18.0624 162.117 17.6562 161.815 17.3176 161.43C16.9843 161.039 16.7291 160.583 16.552 160.062C16.3749 159.542 16.2864 158.977 16.2864 158.367ZM17.7317 158.188V158.367C17.7317 158.789 17.7812 159.188 17.8801 159.562C17.9791 159.932 18.1275 160.26 18.3254 160.547C18.5286 160.833 18.7812 161.06 19.0833 161.227C19.3853 161.388 19.7369 161.469 20.1379 161.469C20.5338 161.469 20.8801 161.388 21.177 161.227C21.4791 161.06 21.7291 160.833 21.927 160.547C22.1249 160.26 22.2734 159.932 22.3723 159.562C22.4765 159.188 22.5286 158.789 22.5286 158.367V158.188C22.5286 157.771 22.4765 157.378 22.3723 157.008C22.2734 156.633 22.1223 156.302 21.9192 156.016C21.7213 155.724 21.4713 155.495 21.1692 155.328C20.8723 155.161 20.5234 155.078 20.1223 155.078C19.7265 155.078 19.3775 155.161 19.0754 155.328C18.7786 155.495 18.5286 155.724 18.3254 156.016C18.1275 156.302 17.9791 156.633 17.8801 157.008C17.7812 157.378 17.7317 157.771 17.7317 158.188ZM27.9348 161L30.1067 154.047H31.0598L30.8723 155.43L28.6614 162.5H27.7317L27.9348 161ZM26.4739 154.047L28.3254 161.078L28.4583 162.5H27.4817L25.0286 154.047H26.4739ZM33.1379 161.023L34.9036 154.047H36.3411L33.8879 162.5H32.9192L33.1379 161.023ZM31.2708 154.047L33.3958 160.883L33.6379 162.5H32.7161L30.4426 155.414L30.2551 154.047H31.2708ZM42.7473 160.258C42.7473 160.049 42.7004 159.857 42.6067 159.68C42.5181 159.497 42.3333 159.333 42.052 159.188C41.776 159.036 41.3593 158.906 40.802 158.797C40.3333 158.698 39.9088 158.581 39.5286 158.445C39.1536 158.31 38.8333 158.146 38.5676 157.953C38.3072 157.76 38.1067 157.534 37.9661 157.273C37.8254 157.013 37.7551 156.708 37.7551 156.359C37.7551 156.026 37.828 155.711 37.9739 155.414C38.1249 155.117 38.3359 154.854 38.6067 154.625C38.8827 154.396 39.2135 154.216 39.5989 154.086C39.9843 153.956 40.414 153.891 40.8879 153.891C41.565 153.891 42.1431 154.01 42.6223 154.25C43.1015 154.49 43.4687 154.81 43.7239 155.211C43.9791 155.607 44.1067 156.047 44.1067 156.531H42.6614C42.6614 156.297 42.5911 156.07 42.4504 155.852C42.315 155.628 42.1145 155.443 41.8489 155.297C41.5885 155.151 41.2681 155.078 40.8879 155.078C40.4869 155.078 40.1614 155.141 39.9114 155.266C39.6666 155.385 39.4869 155.539 39.3723 155.727C39.2629 155.914 39.2083 156.112 39.2083 156.32C39.2083 156.477 39.2343 156.617 39.2864 156.742C39.3437 156.862 39.4426 156.974 39.5833 157.078C39.7239 157.177 39.9218 157.271 40.177 157.359C40.4322 157.448 40.7577 157.536 41.1536 157.625C41.8463 157.781 42.4166 157.969 42.8645 158.188C43.3124 158.406 43.6458 158.674 43.8645 158.992C44.0833 159.31 44.1926 159.695 44.1926 160.148C44.1926 160.518 44.1145 160.857 43.9583 161.164C43.8072 161.471 43.5859 161.737 43.2942 161.961C43.0077 162.18 42.664 162.352 42.2629 162.477C41.8671 162.596 41.4218 162.656 40.927 162.656C40.1822 162.656 39.552 162.523 39.0364 162.258C38.5208 161.992 38.1301 161.648 37.8645 161.227C37.5989 160.805 37.4661 160.359 37.4661 159.891H38.9192C38.94 160.286 39.0546 160.602 39.2629 160.836C39.4713 161.065 39.7265 161.229 40.0286 161.328C40.3306 161.422 40.6301 161.469 40.927 161.469C41.3228 161.469 41.6536 161.417 41.9192 161.312C42.19 161.208 42.3958 161.065 42.5364 160.883C42.677 160.701 42.7473 160.492 42.7473 160.258ZM49.5989 162.656C49.0103 162.656 48.4765 162.557 47.9973 162.359C47.5234 162.156 47.1145 161.872 46.7708 161.508C46.4322 161.143 46.1718 160.711 45.9895 160.211C45.8072 159.711 45.7161 159.164 45.7161 158.57V158.242C45.7161 157.555 45.8176 156.943 46.0208 156.406C46.2239 155.865 46.4999 155.406 46.8489 155.031C47.1978 154.656 47.5937 154.372 48.0364 154.18C48.4791 153.987 48.9374 153.891 49.4114 153.891C50.0155 153.891 50.5364 153.995 50.9739 154.203C51.4166 154.411 51.7786 154.703 52.0598 155.078C52.3411 155.448 52.5494 155.885 52.6848 156.391C52.8202 156.891 52.8879 157.438 52.8879 158.031V158.68H46.5754V157.5H51.4426V157.391C51.4218 157.016 51.3437 156.651 51.2083 156.297C51.078 155.943 50.8697 155.651 50.5833 155.422C50.2968 155.193 49.9062 155.078 49.4114 155.078C49.0833 155.078 48.7812 155.148 48.5051 155.289C48.2291 155.424 47.9921 155.628 47.7942 155.898C47.5963 156.169 47.4426 156.5 47.3333 156.891C47.2239 157.281 47.1692 157.732 47.1692 158.242V158.57C47.1692 158.971 47.2239 159.349 47.3333 159.703C47.4478 160.052 47.6119 160.359 47.8254 160.625C48.0442 160.891 48.3072 161.099 48.6145 161.25C48.927 161.401 49.2812 161.477 49.677 161.477C50.1874 161.477 50.6197 161.372 50.9739 161.164C51.328 160.956 51.6379 160.677 51.9036 160.328L52.7786 161.023C52.5963 161.299 52.3645 161.562 52.0833 161.812C51.802 162.062 51.4556 162.266 51.0442 162.422C50.6379 162.578 50.1562 162.656 49.5989 162.656Z" fill="#E2E8F0"/>
<path d="M5.8645 198.133L2.09888 208.5H0.559814L4.89575 197.125H5.88794L5.8645 198.133ZM9.02075 208.5L5.24731 198.133L5.22388 197.125H6.21606L10.5676 208.5H9.02075ZM8.82544 204.289V205.523H2.43481V204.289H8.82544ZM15.2551 207.469C15.5989 207.469 15.9166 207.398 16.2083 207.258C16.4999 207.117 16.7395 206.924 16.927 206.68C17.1145 206.43 17.2213 206.146 17.2473 205.828H18.6223C18.5963 206.328 18.427 206.794 18.1145 207.227C17.8072 207.654 17.4036 208 16.9036 208.266C16.4036 208.526 15.8541 208.656 15.2551 208.656C14.6197 208.656 14.065 208.544 13.5911 208.32C13.1223 208.096 12.7317 207.789 12.4192 207.398C12.1119 207.008 11.8801 206.56 11.7239 206.055C11.5728 205.544 11.4973 205.005 11.4973 204.438V204.109C11.4973 203.542 11.5728 203.005 11.7239 202.5C11.8801 201.99 12.1119 201.539 12.4192 201.148C12.7317 200.758 13.1223 200.451 13.5911 200.227C14.065 200.003 14.6197 199.891 15.2551 199.891C15.9166 199.891 16.4947 200.026 16.9895 200.297C17.4843 200.562 17.8723 200.927 18.1536 201.391C18.44 201.849 18.5963 202.37 18.6223 202.953H17.2473C17.2213 202.604 17.1223 202.289 16.9504 202.008C16.7838 201.727 16.5546 201.503 16.2629 201.336C15.9765 201.164 15.6405 201.078 15.2551 201.078C14.8124 201.078 14.44 201.167 14.1379 201.344C13.8411 201.516 13.6041 201.75 13.427 202.047C13.2551 202.339 13.1301 202.664 13.052 203.023C12.9791 203.378 12.9426 203.74 12.9426 204.109V204.438C12.9426 204.807 12.9791 205.172 13.052 205.531C13.1249 205.891 13.2473 206.216 13.4192 206.508C13.5963 206.799 13.8333 207.034 14.1301 207.211C14.4322 207.383 14.8072 207.469 15.2551 207.469ZM23.6301 207.469C23.9739 207.469 24.2916 207.398 24.5833 207.258C24.8749 207.117 25.1145 206.924 25.302 206.68C25.4895 206.43 25.5963 206.146 25.6223 205.828H26.9973C26.9713 206.328 26.802 206.794 26.4895 207.227C26.1822 207.654 25.7786 208 25.2786 208.266C24.7786 208.526 24.2291 208.656 23.6301 208.656C22.9947 208.656 22.44 208.544 21.9661 208.32C21.4973 208.096 21.1067 207.789 20.7942 207.398C20.4869 207.008 20.2551 206.56 20.0989 206.055C19.9478 205.544 19.8723 205.005 19.8723 204.438V204.109C19.8723 203.542 19.9478 203.005 20.0989 202.5C20.2551 201.99 20.4869 201.539 20.7942 201.148C21.1067 200.758 21.4973 200.451 21.9661 200.227C22.44 200.003 22.9947 199.891 23.6301 199.891C24.2916 199.891 24.8697 200.026 25.3645 200.297C25.8593 200.562 26.2473 200.927 26.5286 201.391C26.815 201.849 26.9713 202.37 26.9973 202.953H25.6223C25.5963 202.604 25.4973 202.289 25.3254 202.008C25.1588 201.727 24.9296 201.503 24.6379 201.336C24.3515 201.164 24.0155 201.078 23.6301 201.078C23.1874 201.078 22.815 201.167 22.5129 201.344C22.2161 201.516 21.9791 201.75 21.802 202.047C21.6301 202.339 21.5051 202.664 21.427 203.023C21.3541 203.378 21.3176 203.74 21.3176 204.109V204.438C21.3176 204.807 21.3541 205.172 21.427 205.531C21.4999 205.891 21.6223 206.216 21.7942 206.508C21.9713 206.799 22.2083 207.034 22.5051 207.211C22.8072 207.383 23.1822 207.469 23.6301 207.469ZM32.1301 208.656C31.5416 208.656 31.0077 208.557 30.5286 208.359C30.0546 208.156 29.6458 207.872 29.302 207.508C28.9635 207.143 28.703 206.711 28.5208 206.211C28.3385 205.711 28.2473 205.164 28.2473 204.57V204.242C28.2473 203.555 28.3489 202.943 28.552 202.406C28.7551 201.865 29.0312 201.406 29.3801 201.031C29.7291 200.656 30.1249 200.372 30.5676 200.18C31.0103 199.987 31.4687 199.891 31.9426 199.891C32.5468 199.891 33.0676 199.995 33.5051 200.203C33.9478 200.411 34.3098 200.703 34.5911 201.078C34.8723 201.448 35.0806 201.885 35.2161 202.391C35.3515 202.891 35.4192 203.438 35.4192 204.031V204.68H29.1067V203.5H33.9739V203.391C33.953 203.016 33.8749 202.651 33.7395 202.297C33.6093 201.943 33.401 201.651 33.1145 201.422C32.828 201.193 32.4374 201.078 31.9426 201.078C31.6145 201.078 31.3124 201.148 31.0364 201.289C30.7603 201.424 30.5234 201.628 30.3254 201.898C30.1275 202.169 29.9739 202.5 29.8645 202.891C29.7551 203.281 29.7004 203.732 29.7004 204.242V204.57C29.7004 204.971 29.7551 205.349 29.8645 205.703C29.9791 206.052 30.1431 206.359 30.3567 206.625C30.5754 206.891 30.8385 207.099 31.1458 207.25C31.4583 207.401 31.8124 207.477 32.2083 207.477C32.7187 207.477 33.151 207.372 33.5051 207.164C33.8593 206.956 34.1692 206.677 34.4348 206.328L35.3098 207.023C35.1275 207.299 34.8958 207.562 34.6145 207.812C34.3333 208.062 33.9869 208.266 33.5754 208.422C33.1692 208.578 32.6874 208.656 32.1301 208.656ZM42.0286 206.258C42.0286 206.049 41.9817 205.857 41.8879 205.68C41.7994 205.497 41.6145 205.333 41.3333 205.188C41.0572 205.036 40.6405 204.906 40.0833 204.797C39.6145 204.698 39.19 204.581 38.8098 204.445C38.4348 204.31 38.1145 204.146 37.8489 203.953C37.5885 203.76 37.3879 203.534 37.2473 203.273C37.1067 203.013 37.0364 202.708 37.0364 202.359C37.0364 202.026 37.1093 201.711 37.2551 201.414C37.4062 201.117 37.6171 200.854 37.8879 200.625C38.164 200.396 38.4947 200.216 38.8801 200.086C39.2655 199.956 39.6952 199.891 40.1692 199.891C40.8463 199.891 41.4244 200.01 41.9036 200.25C42.3827 200.49 42.7499 200.81 43.0051 201.211C43.2603 201.607 43.3879 202.047 43.3879 202.531H41.9426C41.9426 202.297 41.8723 202.07 41.7317 201.852C41.5963 201.628 41.3958 201.443 41.1301 201.297C40.8697 201.151 40.5494 201.078 40.1692 201.078C39.7681 201.078 39.4426 201.141 39.1926 201.266C38.9478 201.385 38.7681 201.539 38.6536 201.727C38.5442 201.914 38.4895 202.112 38.4895 202.32C38.4895 202.477 38.5155 202.617 38.5676 202.742C38.6249 202.862 38.7239 202.974 38.8645 203.078C39.0051 203.177 39.203 203.271 39.4583 203.359C39.7135 203.448 40.039 203.536 40.4348 203.625C41.1275 203.781 41.6978 203.969 42.1458 204.188C42.5937 204.406 42.927 204.674 43.1458 204.992C43.3645 205.31 43.4739 205.695 43.4739 206.148C43.4739 206.518 43.3958 206.857 43.2395 207.164C43.0885 207.471 42.8671 207.737 42.5754 207.961C42.289 208.18 41.9452 208.352 41.5442 208.477C41.1484 208.596 40.703 208.656 40.2083 208.656C39.4635 208.656 38.8333 208.523 38.3176 208.258C37.802 207.992 37.4114 207.648 37.1458 207.227C36.8801 206.805 36.7473 206.359 36.7473 205.891H38.2004C38.2213 206.286 38.3359 206.602 38.5442 206.836C38.7525 207.065 39.0077 207.229 39.3098 207.328C39.6119 207.422 39.9114 207.469 40.2083 207.469C40.6041 207.469 40.9348 207.417 41.2004 207.312C41.4713 207.208 41.677 207.065 41.8176 206.883C41.9583 206.701 42.0286 206.492 42.0286 206.258ZM50.2942 206.258C50.2942 206.049 50.2473 205.857 50.1536 205.68C50.065 205.497 49.8801 205.333 49.5989 205.188C49.3228 205.036 48.9062 204.906 48.3489 204.797C47.8801 204.698 47.4556 204.581 47.0754 204.445C46.7004 204.31 46.3801 204.146 46.1145 203.953C45.8541 203.76 45.6536 203.534 45.5129 203.273C45.3723 203.013 45.302 202.708 45.302 202.359C45.302 202.026 45.3749 201.711 45.5208 201.414C45.6718 201.117 45.8827 200.854 46.1536 200.625C46.4296 200.396 46.7603 200.216 47.1458 200.086C47.5312 199.956 47.9609 199.891 48.4348 199.891C49.1119 199.891 49.69 200.01 50.1692 200.25C50.6484 200.49 51.0155 200.81 51.2708 201.211C51.526 201.607 51.6536 202.047 51.6536 202.531H50.2083C50.2083 202.297 50.1379 202.07 49.9973 201.852C49.8619 201.628 49.6614 201.443 49.3958 201.297C49.1353 201.151 48.815 201.078 48.4348 201.078C48.0338 201.078 47.7083 201.141 47.4583 201.266C47.2135 201.385 47.0338 201.539 46.9192 201.727C46.8098 201.914 46.7551 202.112 46.7551 202.32C46.7551 202.477 46.7812 202.617 46.8333 202.742C46.8905 202.862 46.9895 202.974 47.1301 203.078C47.2708 203.177 47.4687 203.271 47.7239 203.359C47.9791 203.448 48.3046 203.536 48.7004 203.625C49.3931 203.781 49.9635 203.969 50.4114 204.188C50.8593 204.406 51.1926 204.674 51.4114 204.992C51.6301 205.31 51.7395 205.695 51.7395 206.148C51.7395 206.518 51.6614 206.857 51.5051 207.164C51.3541 207.471 51.1327 207.737 50.8411 207.961C50.5546 208.18 50.2109 208.352 49.8098 208.477C49.414 208.596 48.9687 208.656 48.4739 208.656C47.7291 208.656 47.0989 208.523 46.5833 208.258C46.0676 207.992 45.677 207.648 45.4114 207.227C45.1458 206.805 45.0129 206.359 45.0129 205.891H46.4661C46.4869 206.286 46.6015 206.602 46.8098 206.836C47.0181 207.065 47.2734 207.229 47.5754 207.328C47.8775 207.422 48.177 207.469 48.4739 207.469C48.8697 207.469 49.2004 207.417 49.4661 207.312C49.7369 207.208 49.9426 207.065 50.0833 206.883C50.2239 206.701 50.2942 206.492 50.2942 206.258ZM55.2083 200.047V208.5H53.7551V200.047H55.2083ZM53.6458 197.805C53.6458 197.57 53.7161 197.372 53.8567 197.211C54.0025 197.049 54.2161 196.969 54.4973 196.969C54.7734 196.969 54.9843 197.049 55.1301 197.211C55.2812 197.372 55.3567 197.57 55.3567 197.805C55.3567 198.029 55.2812 198.221 55.1301 198.383C54.9843 198.539 54.7734 198.617 54.4973 198.617C54.2161 198.617 54.0025 198.539 53.8567 198.383C53.7161 198.221 53.6458 198.029 53.6458 197.805ZM57.5208 196.5H58.9739V206.859L58.8489 208.5H57.5208V196.5ZM64.6848 204.203V204.367C64.6848 204.982 64.6119 205.552 64.4661 206.078C64.3202 206.599 64.1067 207.052 63.8254 207.438C63.5442 207.823 63.2004 208.122 62.7942 208.336C62.3879 208.549 61.9218 208.656 61.3958 208.656C60.8593 208.656 60.3879 208.565 59.9817 208.383C59.5806 208.195 59.2421 207.927 58.9661 207.578C58.69 207.229 58.4687 206.807 58.302 206.312C58.1405 205.818 58.0286 205.26 57.9661 204.641V203.922C58.0286 203.297 58.1405 202.737 58.302 202.242C58.4687 201.747 58.69 201.326 58.9661 200.977C59.2421 200.622 59.5806 200.354 59.9817 200.172C60.3827 199.984 60.8489 199.891 61.3801 199.891C61.9114 199.891 62.3827 199.995 62.7942 200.203C63.2056 200.406 63.5494 200.698 63.8254 201.078C64.1067 201.458 64.3202 201.914 64.4661 202.445C64.6119 202.971 64.6848 203.557 64.6848 204.203ZM63.2317 204.367V204.203C63.2317 203.781 63.1926 203.385 63.1145 203.016C63.0364 202.641 62.9114 202.312 62.7395 202.031C62.5676 201.745 62.3411 201.521 62.0598 201.359C61.7786 201.193 61.4322 201.109 61.0208 201.109C60.6562 201.109 60.3385 201.172 60.0676 201.297C59.802 201.422 59.5754 201.591 59.3879 201.805C59.2004 202.013 59.0468 202.253 58.927 202.523C58.8124 202.789 58.7265 203.065 58.6692 203.352V205.234C58.7525 205.599 58.8879 205.951 59.0754 206.289C59.2681 206.622 59.5234 206.896 59.8411 207.109C60.164 207.323 60.5624 207.43 61.0364 207.43C61.427 207.43 61.7603 207.352 62.0364 207.195C62.3176 207.034 62.5442 206.812 62.7161 206.531C62.8931 206.25 63.0234 205.924 63.1067 205.555C63.19 205.185 63.2317 204.789 63.2317 204.367ZM68.0833 200.047V208.5H66.6301V200.047H68.0833ZM66.5208 197.805C66.5208 197.57 66.5911 197.372 66.7317 197.211C66.8775 197.049 67.0911 196.969 67.3723 196.969C67.6484 196.969 67.8593 197.049 68.0051 197.211C68.1562 197.372 68.2317 197.57 68.2317 197.805C68.2317 198.029 68.1562 198.221 68.0051 198.383C67.8593 198.539 67.6484 198.617 67.3723 198.617C67.0911 198.617 66.8775 198.539 66.7317 198.383C66.5911 198.221 66.5208 198.029 66.5208 197.805ZM71.9739 196.5V208.5H70.5208V196.5H71.9739ZM75.8645 200.047V208.5H74.4114V200.047H75.8645ZM74.302 197.805C74.302 197.57 74.3723 197.372 74.5129 197.211C74.6588 197.049 74.8723 196.969 75.1536 196.969C75.4296 196.969 75.6405 197.049 75.7864 197.211C75.9374 197.372 76.0129 197.57 76.0129 197.805C76.0129 198.029 75.9374 198.221 75.7864 198.383C75.6405 198.539 75.4296 198.617 75.1536 198.617C74.8723 198.617 74.6588 198.539 74.5129 198.383C74.3723 198.221 74.302 198.029 74.302 197.805ZM81.7239 200.047V201.156H77.1536V200.047H81.7239ZM78.7004 197.992H80.1458V206.406C80.1458 206.693 80.19 206.909 80.2786 207.055C80.3671 207.201 80.4817 207.297 80.6223 207.344C80.7629 207.391 80.914 207.414 81.0754 207.414C81.1952 207.414 81.3202 207.404 81.4504 207.383C81.5859 207.357 81.6874 207.336 81.7551 207.32L81.7629 208.5C81.6484 208.536 81.4973 208.57 81.3098 208.602C81.1275 208.638 80.9062 208.656 80.6458 208.656C80.2916 208.656 79.9661 208.586 79.6692 208.445C79.3723 208.305 79.1353 208.07 78.9583 207.742C78.7864 207.409 78.7004 206.961 78.7004 206.398V197.992ZM85.7942 207.625L88.1458 200.047H89.6926L86.302 209.805C86.2239 210.013 86.1197 210.237 85.9895 210.477C85.8645 210.721 85.703 210.953 85.5051 211.172C85.3072 211.391 85.0676 211.568 84.7864 211.703C84.5103 211.844 84.1796 211.914 83.7942 211.914C83.6796 211.914 83.5338 211.898 83.3567 211.867C83.1796 211.836 83.0546 211.81 82.9817 211.789L82.9739 210.617C83.0155 210.622 83.0806 210.628 83.1692 210.633C83.2629 210.643 83.328 210.648 83.3645 210.648C83.6926 210.648 83.9713 210.604 84.2004 210.516C84.4296 210.432 84.6223 210.289 84.7786 210.086C84.94 209.888 85.078 209.615 85.1926 209.266L85.7942 207.625ZM84.0676 200.047L86.2629 206.609L86.6379 208.133L85.5989 208.664L82.4895 200.047H84.0676Z" fill="#E2E8F0"/>
<rect x="98.3333" y="193.5" width="45" height="20" rx="4" fill="#F3E8FF"/>
<path d="M110.365 204.01H108.202L108.191 203.102H110.154C110.478 203.102 110.761 203.047 111.003 202.938C111.245 202.828 111.433 202.672 111.566 202.469C111.702 202.262 111.771 202.016 111.771 201.73C111.771 201.418 111.71 201.164 111.589 200.969C111.472 200.77 111.29 200.625 111.044 200.535C110.802 200.441 110.493 200.395 110.118 200.395H108.454V208H107.323V199.469H110.118C110.556 199.469 110.947 199.514 111.29 199.604C111.634 199.689 111.925 199.826 112.163 200.014C112.406 200.197 112.589 200.432 112.714 200.717C112.839 201.002 112.902 201.344 112.902 201.742C112.902 202.094 112.812 202.412 112.632 202.697C112.452 202.979 112.202 203.209 111.882 203.389C111.566 203.568 111.195 203.684 110.769 203.734L110.365 204.01ZM110.312 208H107.757L108.396 207.08H110.312C110.671 207.08 110.976 207.018 111.226 206.893C111.48 206.768 111.673 206.592 111.806 206.365C111.939 206.135 112.005 205.863 112.005 205.551C112.005 205.234 111.948 204.961 111.835 204.73C111.722 204.5 111.544 204.322 111.302 204.197C111.06 204.072 110.747 204.01 110.365 204.01H108.753L108.765 203.102H110.968L111.208 203.43C111.618 203.465 111.966 203.582 112.251 203.781C112.536 203.977 112.753 204.227 112.902 204.531C113.054 204.836 113.13 205.172 113.13 205.539C113.13 206.07 113.013 206.52 112.779 206.887C112.548 207.25 112.222 207.527 111.8 207.719C111.378 207.906 110.882 208 110.312 208ZM120.22 207.08V208H115.702V207.08H120.22ZM115.931 199.469V208H114.8V199.469H115.931ZM119.622 203.137V204.057H115.702V203.137H119.622ZM120.161 199.469V200.395H115.702V199.469H120.161ZM124.89 199.469V208H123.777V199.469H124.89ZM127.632 199.469V200.395H121.04V199.469H127.632ZM131.587 200.225L128.763 208H127.609L130.861 199.469H131.605L131.587 200.225ZM133.954 208L131.124 200.225L131.107 199.469H131.851L135.115 208H133.954ZM133.808 204.842V205.768H129.015V204.842H133.808Z" fill="#6B21A8"/>
</svg>
