<svg width="174" height="227" viewBox="0 0 174 227" fill="none" xmlns="http://www.w3.org/2000/svg">
<path d="M1.15625 15.125H5.17969C6.04427 15.125 6.78125 15.2552 7.39062 15.5156C8 15.776 8.46615 16.1615 8.78906 16.6719C9.11719 17.1771 9.28125 17.8021 9.28125 18.5469C9.28125 19.1146 9.17708 19.6146 8.96875 20.0469C8.76042 20.4792 8.46615 20.8438 8.08594 21.1406C7.70573 21.4323 7.2526 21.6589 6.72656 21.8203L6.13281 22.1094H2.51562L2.5 20.5547H5.21094C5.67969 20.5547 6.07031 20.4714 6.38281 20.3047C6.69531 20.138 6.92969 19.9115 7.08594 19.625C7.2474 19.3333 7.32812 19.0052 7.32812 18.6406C7.32812 18.2448 7.25 17.901 7.09375 17.6094C6.94271 17.3125 6.70833 17.0859 6.39062 16.9297C6.07292 16.7682 5.66927 16.6875 5.17969 16.6875H3.11719V26.5H1.15625V15.125ZM7.64844 26.5L4.97656 21.3906L7.03125 21.3828L9.74219 26.3984V26.5H7.64844ZM14.7734 26.6562C14.1484 26.6562 13.5833 26.5547 13.0781 26.3516C12.5781 26.1432 12.151 25.8542 11.7969 25.4844C11.4479 25.1146 11.1797 24.6797 10.9922 24.1797C10.8047 23.6797 10.7109 23.1406 10.7109 22.5625V22.25C10.7109 21.5885 10.8073 20.9896 11 20.4531C11.1927 19.9167 11.4609 19.4583 11.8047 19.0781C12.1484 18.6927 12.5547 18.3984 13.0234 18.1953C13.4922 17.9922 14 17.8906 14.5469 17.8906C15.151 17.8906 15.6797 17.9922 16.1328 18.1953C16.5859 18.3984 16.9609 18.6849 17.2578 19.0547C17.5599 19.4193 17.7839 19.8542 17.9297 20.3594C18.0807 20.8646 18.1562 21.4219 18.1562 22.0312V22.8359H11.625V21.4844H16.2969V21.3359C16.2865 20.9974 16.2188 20.6797 16.0938 20.3828C15.974 20.0859 15.7891 19.8464 15.5391 19.6641C15.2891 19.4818 14.9557 19.3906 14.5391 19.3906C14.2266 19.3906 13.9479 19.4583 13.7031 19.5938C13.4635 19.724 13.263 19.9141 13.1016 20.1641C12.9401 20.4141 12.8151 20.7161 12.7266 21.0703C12.6432 21.4193 12.6016 21.8125 12.6016 22.25V22.5625C12.6016 22.9323 12.651 23.276 12.75 23.5938C12.8542 23.9062 13.0052 24.1797 13.2031 24.4141C13.401 24.6484 13.6406 24.8333 13.9219 24.9688C14.2031 25.099 14.5234 25.1641 14.8828 25.1641C15.3359 25.1641 15.7396 25.0729 16.0938 24.8906C16.4479 24.7083 16.7552 24.4505 17.0156 24.1172L18.0078 25.0781C17.8255 25.3438 17.5885 25.599 17.2969 25.8438C17.0052 26.0833 16.6484 26.2786 16.2266 26.4297C15.8099 26.5807 15.3255 26.6562 14.7734 26.6562ZM24.3672 24.2109C24.3672 24.0234 24.3203 23.8542 24.2266 23.7031C24.1328 23.5469 23.9531 23.4062 23.6875 23.2812C23.4271 23.1562 23.0417 23.0417 22.5312 22.9375C22.0833 22.8385 21.6719 22.7214 21.2969 22.5859C20.9271 22.4453 20.6094 22.276 20.3438 22.0781C20.0781 21.8802 19.8724 21.6458 19.7266 21.375C19.5807 21.1042 19.5078 20.7917 19.5078 20.4375C19.5078 20.0938 19.5833 19.7682 19.7344 19.4609C19.8854 19.1536 20.1016 18.8828 20.3828 18.6484C20.6641 18.4141 21.0052 18.2292 21.4062 18.0938C21.8125 17.9583 22.2656 17.8906 22.7656 17.8906C23.474 17.8906 24.0807 18.0104 24.5859 18.25C25.0964 18.4844 25.487 18.8047 25.7578 19.2109C26.0286 19.612 26.1641 20.0651 26.1641 20.5703H24.2812C24.2812 20.3464 24.224 20.138 24.1094 19.9453C24 19.7474 23.8333 19.5885 23.6094 19.4688C23.3854 19.3438 23.1042 19.2812 22.7656 19.2812C22.4427 19.2812 22.1745 19.3333 21.9609 19.4375C21.7526 19.5365 21.5964 19.6667 21.4922 19.8281C21.3932 19.9896 21.3438 20.1667 21.3438 20.3594C21.3438 20.5 21.3698 20.6276 21.4219 20.7422C21.4792 20.8516 21.5729 20.9531 21.7031 21.0469C21.8333 21.1354 22.0104 21.2188 22.2344 21.2969C22.4635 21.375 22.75 21.4505 23.0938 21.5234C23.7396 21.6589 24.2943 21.8333 24.7578 22.0469C25.2266 22.2552 25.5859 22.526 25.8359 22.8594C26.0859 23.1875 26.2109 23.6042 26.2109 24.1094C26.2109 24.4844 26.1302 24.8281 25.9688 25.1406C25.8125 25.4479 25.5833 25.7161 25.2812 25.9453C24.9792 26.1693 24.6172 26.3438 24.1953 26.4688C23.7786 26.5938 23.3099 26.6562 22.7891 26.6562C22.0234 26.6562 21.375 26.5208 20.8438 26.25C20.3125 25.974 19.9089 25.6224 19.6328 25.1953C19.362 24.763 19.2266 24.3151 19.2266 23.8516H21.0469C21.0677 24.2005 21.1641 24.4792 21.3359 24.6875C21.513 24.8906 21.7318 25.0391 21.9922 25.1328C22.2578 25.2214 22.5312 25.2656 22.8125 25.2656C23.151 25.2656 23.4349 25.2214 23.6641 25.1328C23.8932 25.0391 24.0677 24.9141 24.1875 24.7578C24.3073 24.5964 24.3672 24.4141 24.3672 24.2109ZM27.5 22.3672V22.1875C27.5 21.5781 27.5885 21.013 27.7656 20.4922C27.9427 19.9661 28.1979 19.5104 28.5312 19.125C28.8698 18.7344 29.2812 18.4323 29.7656 18.2188C30.2552 18 30.8073 17.8906 31.4219 17.8906C32.0417 17.8906 32.5938 18 33.0781 18.2188C33.5677 18.4323 33.9818 18.7344 34.3203 19.125C34.6589 19.5104 34.9167 19.9661 35.0938 20.4922C35.2708 21.013 35.3594 21.5781 35.3594 22.1875V22.3672C35.3594 22.9766 35.2708 23.5417 35.0938 24.0625C34.9167 24.5833 34.6589 25.0391 34.3203 25.4297C33.9818 25.8151 33.5703 26.1172 33.0859 26.3359C32.6016 26.5495 32.0521 26.6562 31.4375 26.6562C30.8177 26.6562 30.263 26.5495 29.7734 26.3359C29.2891 26.1172 28.8776 25.8151 28.5391 25.4297C28.2005 25.0391 27.9427 24.5833 27.7656 24.0625C27.5885 23.5417 27.5 22.9766 27.5 22.3672ZM29.3828 22.1875V22.3672C29.3828 22.7474 29.4219 23.1068 29.5 23.4453C29.5781 23.7839 29.7005 24.0807 29.8672 24.3359C30.0339 24.5911 30.2474 24.7917 30.5078 24.9375C30.7682 25.0833 31.0781 25.1562 31.4375 25.1562C31.7865 25.1562 32.0885 25.0833 32.3438 24.9375C32.6042 24.7917 32.8177 24.5911 32.9844 24.3359C33.151 24.0807 33.2734 23.7839 33.3516 23.4453C33.4349 23.1068 33.4766 22.7474 33.4766 22.3672V22.1875C33.4766 21.8125 33.4349 21.4583 33.3516 21.125C33.2734 20.7865 33.1484 20.487 32.9766 20.2266C32.8099 19.9661 32.5964 19.763 32.3359 19.6172C32.0807 19.4661 31.776 19.3906 31.4219 19.3906C31.0677 19.3906 30.7604 19.4661 30.5 19.6172C30.2448 19.763 30.0339 19.9661 29.8672 20.2266C29.7005 20.487 29.5781 20.7865 29.5 21.125C29.4219 21.4583 29.3828 21.8125 29.3828 22.1875ZM42.0234 24.5078V18.0469H43.9141V26.5H42.1328L42.0234 24.5078ZM42.2891 22.75L42.9219 22.7344C42.9219 23.3021 42.8594 23.8255 42.7344 24.3047C42.6094 24.7786 42.4167 25.1927 42.1562 25.5469C41.8958 25.8958 41.5625 26.1693 41.1562 26.3672C40.75 26.5599 40.263 26.6562 39.6953 26.6562C39.2839 26.6562 38.9062 26.5964 38.5625 26.4766C38.2188 26.3568 37.9219 26.1719 37.6719 25.9219C37.4271 25.6719 37.237 25.3464 37.1016 24.9453C36.9661 24.5443 36.8984 24.0651 36.8984 23.5078V18.0469H38.7812V23.5234C38.7812 23.8307 38.8177 24.0885 38.8906 24.2969C38.9635 24.5 39.0625 24.6641 39.1875 24.7891C39.3125 24.9141 39.4583 25.0026 39.625 25.0547C39.7917 25.1068 39.9688 25.1328 40.1562 25.1328C40.6927 25.1328 41.1146 25.0286 41.4219 24.8203C41.7344 24.6068 41.9557 24.3203 42.0859 23.9609C42.2214 23.6016 42.2891 23.1979 42.2891 22.75ZM47.7344 19.6562V26.5H45.8516V18.0469H47.6484L47.7344 19.6562ZM50.3203 17.9922L50.3047 19.7422C50.1901 19.7214 50.0651 19.7057 49.9297 19.6953C49.7995 19.6849 49.6693 19.6797 49.5391 19.6797C49.2161 19.6797 48.9323 19.7266 48.6875 19.8203C48.4427 19.9089 48.237 20.0391 48.0703 20.2109C47.9089 20.3776 47.7839 20.5807 47.6953 20.8203C47.6068 21.0599 47.5547 21.3281 47.5391 21.625L47.1094 21.6562C47.1094 21.125 47.1615 20.6328 47.2656 20.1797C47.3698 19.7266 47.526 19.3281 47.7344 18.9844C47.9479 18.6406 48.2135 18.3724 48.5312 18.1797C48.8542 17.987 49.2266 17.8906 49.6484 17.8906C49.763 17.8906 49.8854 17.901 50.0156 17.9219C50.151 17.9427 50.2526 17.9661 50.3203 17.9922ZM54.7969 25.1562C55.1042 25.1562 55.3802 25.0964 55.625 24.9766C55.875 24.8516 56.0755 24.6797 56.2266 24.4609C56.3828 24.2422 56.4688 23.9896 56.4844 23.7031H58.2578C58.2474 24.25 58.0859 24.7474 57.7734 25.1953C57.4609 25.6432 57.0469 26 56.5312 26.2656C56.0156 26.526 55.4453 26.6562 54.8203 26.6562C54.1745 26.6562 53.612 26.5469 53.1328 26.3281C52.6536 26.1042 52.2552 25.7969 51.9375 25.4062C51.6198 25.0156 51.3802 24.5651 51.2188 24.0547C51.0625 23.5443 50.9844 22.9974 50.9844 22.4141V22.1406C50.9844 21.5573 51.0625 21.0104 51.2188 20.5C51.3802 19.9844 51.6198 19.5312 51.9375 19.1406C52.2552 18.75 52.6536 18.4453 53.1328 18.2266C53.612 18.0026 54.1719 17.8906 54.8125 17.8906C55.4896 17.8906 56.0833 18.026 56.5938 18.2969C57.1042 18.5625 57.5052 18.9349 57.7969 19.4141C58.0938 19.888 58.2474 20.4401 58.2578 21.0703H56.4844C56.4688 20.7578 56.3906 20.4766 56.25 20.2266C56.1146 19.9714 55.9219 19.7682 55.6719 19.6172C55.4271 19.4661 55.1328 19.3906 54.7891 19.3906C54.4089 19.3906 54.0938 19.4688 53.8438 19.625C53.5938 19.776 53.3984 19.9844 53.2578 20.25C53.1172 20.5104 53.0156 20.8047 52.9531 21.1328C52.8958 21.4557 52.8672 21.7917 52.8672 22.1406V22.4141C52.8672 22.763 52.8958 23.1016 52.9531 23.4297C53.0104 23.7578 53.1094 24.0521 53.25 24.3125C53.3958 24.5677 53.5938 24.7734 53.8438 24.9297C54.0938 25.0807 54.4115 25.1562 54.7969 25.1562ZM63.4297 26.6562C62.8047 26.6562 62.2396 26.5547 61.7344 26.3516C61.2344 26.1432 60.8073 25.8542 60.4531 25.4844C60.1042 25.1146 59.8359 24.6797 59.6484 24.1797C59.4609 23.6797 59.3672 23.1406 59.3672 22.5625V22.25C59.3672 21.5885 59.4635 20.9896 59.6562 20.4531C59.849 19.9167 60.1172 19.4583 60.4609 19.0781C60.8047 18.6927 61.2109 18.3984 61.6797 18.1953C62.1484 17.9922 62.6562 17.8906 63.2031 17.8906C63.8073 17.8906 64.3359 17.9922 64.7891 18.1953C65.2422 18.3984 65.6172 18.6849 65.9141 19.0547C66.2161 19.4193 66.4401 19.8542 66.5859 20.3594C66.737 20.8646 66.8125 21.4219 66.8125 22.0312V22.8359H60.2812V21.4844H64.9531V21.3359C64.9427 20.9974 64.875 20.6797 64.75 20.3828C64.6302 20.0859 64.4453 19.8464 64.1953 19.6641C63.9453 19.4818 63.612 19.3906 63.1953 19.3906C62.8828 19.3906 62.6042 19.4583 62.3594 19.5938C62.1198 19.724 61.9193 19.9141 61.7578 20.1641C61.5964 20.4141 61.4714 20.7161 61.3828 21.0703C61.2995 21.4193 61.2578 21.8125 61.2578 22.25V22.5625C61.2578 22.9323 61.3073 23.276 61.4062 23.5938C61.5104 23.9062 61.6615 24.1797 61.8594 24.4141C62.0573 24.6484 62.2969 24.8333 62.5781 24.9688C62.8594 25.099 63.1797 25.1641 63.5391 25.1641C63.9922 25.1641 64.3958 25.0729 64.75 24.8906C65.1042 24.7083 65.4115 24.4505 65.6719 24.1172L66.6641 25.0781C66.4818 25.3438 66.2448 25.599 65.9531 25.8438C65.6615 26.0833 65.3047 26.2786 64.8828 26.4297C64.4661 26.5807 63.9818 26.6562 63.4297 26.6562ZM73.0234 24.2109C73.0234 24.0234 72.9766 23.8542 72.8828 23.7031C72.7891 23.5469 72.6094 23.4062 72.3438 23.2812C72.0833 23.1562 71.6979 23.0417 71.1875 22.9375C70.7396 22.8385 70.3281 22.7214 69.9531 22.5859C69.5833 22.4453 69.2656 22.276 69 22.0781C68.7344 21.8802 68.5286 21.6458 68.3828 21.375C68.237 21.1042 68.1641 20.7917 68.1641 20.4375C68.1641 20.0938 68.2396 19.7682 68.3906 19.4609C68.5417 19.1536 68.7578 18.8828 69.0391 18.6484C69.3203 18.4141 69.6615 18.2292 70.0625 18.0938C70.4688 17.9583 70.9219 17.8906 71.4219 17.8906C72.1302 17.8906 72.737 18.0104 73.2422 18.25C73.7526 18.4844 74.1432 18.8047 74.4141 19.2109C74.6849 19.612 74.8203 20.0651 74.8203 20.5703H72.9375C72.9375 20.3464 72.8802 20.138 72.7656 19.9453C72.6562 19.7474 72.4896 19.5885 72.2656 19.4688C72.0417 19.3438 71.7604 19.2812 71.4219 19.2812C71.099 19.2812 70.8307 19.3333 70.6172 19.4375C70.4089 19.5365 70.2526 19.6667 70.1484 19.8281C70.0495 19.9896 70 20.1667 70 20.3594C70 20.5 70.026 20.6276 70.0781 20.7422C70.1354 20.8516 70.2292 20.9531 70.3594 21.0469C70.4896 21.1354 70.6667 21.2188 70.8906 21.2969C71.1198 21.375 71.4062 21.4505 71.75 21.5234C72.3958 21.6589 72.9505 21.8333 73.4141 22.0469C73.8828 22.2552 74.2422 22.526 74.4922 22.8594C74.7422 23.1875 74.8672 23.6042 74.8672 24.1094C74.8672 24.4844 74.7865 24.8281 74.625 25.1406C74.4688 25.4479 74.2396 25.7161 73.9375 25.9453C73.6354 26.1693 73.2734 26.3438 72.8516 26.4688C72.4349 26.5938 71.9661 26.6562 71.4453 26.6562C70.6797 26.6562 70.0312 26.5208 69.5 26.25C68.9688 25.974 68.5651 25.6224 68.2891 25.1953C68.0182 24.763 67.8828 24.3151 67.8828 23.8516H69.7031C69.724 24.2005 69.8203 24.4792 69.9922 24.6875C70.1693 24.8906 70.388 25.0391 70.6484 25.1328C70.9141 25.2214 71.1875 25.2656 71.4688 25.2656C71.8073 25.2656 72.0911 25.2214 72.3203 25.1328C72.5495 25.0391 72.724 24.9141 72.8438 24.7578C72.9635 24.5964 73.0234 24.4141 73.0234 24.2109Z" fill="white"/>
<path d="M8.75 64.0156V65.2422H2.59375V64.0156H8.75ZM2.82812 59.125V70.5H1.32031V59.125H2.82812ZM10.0625 59.125V70.5H8.5625V59.125H10.0625ZM16.0312 70.6562C15.4427 70.6562 14.9089 70.5573 14.4297 70.3594C13.9557 70.1562 13.5469 69.8724 13.2031 69.5078C12.8646 69.1432 12.6042 68.7109 12.4219 68.2109C12.2396 67.7109 12.1484 67.1641 12.1484 66.5703V66.2422C12.1484 65.5547 12.25 64.9427 12.4531 64.4062C12.6562 63.8646 12.9323 63.4062 13.2812 63.0312C13.6302 62.6562 14.026 62.3724 14.4688 62.1797C14.9115 61.987 15.3698 61.8906 15.8438 61.8906C16.4479 61.8906 16.9688 61.9948 17.4062 62.2031C17.849 62.4115 18.2109 62.7031 18.4922 63.0781C18.7734 63.4479 18.9818 63.8854 19.1172 64.3906C19.2526 64.8906 19.3203 65.4375 19.3203 66.0312V66.6797H13.0078V65.5H17.875V65.3906C17.8542 65.0156 17.776 64.651 17.6406 64.2969C17.5104 63.9427 17.3021 63.651 17.0156 63.4219C16.7292 63.1927 16.3385 63.0781 15.8438 63.0781C15.5156 63.0781 15.2135 63.1484 14.9375 63.2891C14.6615 63.4245 14.4245 63.6276 14.2266 63.8984C14.0286 64.1693 13.875 64.5 13.7656 64.8906C13.6562 65.2812 13.6016 65.7318 13.6016 66.2422V66.5703C13.6016 66.9714 13.6562 67.349 13.7656 67.7031C13.8802 68.0521 14.0443 68.3594 14.2578 68.625C14.4766 68.8906 14.7396 69.099 15.0469 69.25C15.3594 69.401 15.7135 69.4766 16.1094 69.4766C16.6198 69.4766 17.0521 69.3724 17.4062 69.1641C17.7604 68.9557 18.0703 68.6771 18.3359 68.3281L19.2109 69.0234C19.0286 69.2995 18.7969 69.5625 18.5156 69.8125C18.2344 70.0625 17.888 70.2656 17.4766 70.4219C17.0703 70.5781 16.5885 70.6562 16.0312 70.6562ZM22.5781 58.5V70.5H21.125V58.5H22.5781ZM26.3438 63.6719V73.75H24.8906V62.0469H26.2188L26.3438 63.6719ZM32.0391 66.2031V66.3672C32.0391 66.9818 31.9661 67.5521 31.8203 68.0781C31.6745 68.599 31.4609 69.0521 31.1797 69.4375C30.9036 69.8229 30.5625 70.1224 30.1562 70.3359C29.75 70.5495 29.2839 70.6562 28.7578 70.6562C28.2214 70.6562 27.7474 70.5677 27.3359 70.3906C26.9245 70.2135 26.5755 69.9557 26.2891 69.6172C26.0026 69.2786 25.7734 68.8724 25.6016 68.3984C25.4349 67.9245 25.3203 67.3906 25.2578 66.7969V65.9219C25.3203 65.2969 25.4375 64.737 25.6094 64.2422C25.7812 63.7474 26.0078 63.3255 26.2891 62.9766C26.5755 62.6224 26.9219 62.3542 27.3281 62.1719C27.7344 61.9844 28.2031 61.8906 28.7344 61.8906C29.2656 61.8906 29.737 61.9948 30.1484 62.2031C30.5599 62.4062 30.9062 62.6979 31.1875 63.0781C31.4688 63.4583 31.6797 63.9141 31.8203 64.4453C31.9661 64.9714 32.0391 65.5573 32.0391 66.2031ZM30.5859 66.3672V66.2031C30.5859 65.7812 30.5417 65.3854 30.4531 65.0156C30.3646 64.6406 30.2266 64.3125 30.0391 64.0312C29.8568 63.7448 29.6224 63.5208 29.3359 63.3594C29.0495 63.1927 28.7083 63.1094 28.3125 63.1094C27.9479 63.1094 27.6302 63.1719 27.3594 63.2969C27.0938 63.4219 26.8672 63.5911 26.6797 63.8047C26.4922 64.013 26.3385 64.2526 26.2188 64.5234C26.1042 64.7891 26.0182 65.0651 25.9609 65.3516V67.375C26.0651 67.7396 26.2109 68.0833 26.3984 68.4062C26.5859 68.724 26.8359 68.9818 27.1484 69.1797C27.4609 69.3724 27.8542 69.4688 28.3281 69.4688C28.7188 69.4688 29.0547 69.388 29.3359 69.2266C29.6224 69.0599 29.8568 68.8333 30.0391 68.5469C30.2266 68.2604 30.3646 67.9323 30.4531 67.5625C30.5417 67.1875 30.5859 66.7891 30.5859 66.3672ZM44.9375 66.8828H46.4375C46.3594 67.6016 46.1536 68.2448 45.8203 68.8125C45.487 69.3802 45.0156 69.8307 44.4062 70.1641C43.7969 70.4922 43.0365 70.6562 42.125 70.6562C41.4583 70.6562 40.8516 70.5312 40.3047 70.2812C39.763 70.0312 39.2969 69.6771 38.9062 69.2188C38.5156 68.7552 38.2135 68.2005 38 67.5547C37.7917 66.9036 37.6875 66.1797 37.6875 65.3828V64.25C37.6875 63.4531 37.7917 62.7318 38 62.0859C38.2135 61.4349 38.5182 60.8776 38.9141 60.4141C39.3151 59.9505 39.7969 59.5938 40.3594 59.3438C40.9219 59.0938 41.5547 58.9688 42.2578 58.9688C43.1172 58.9688 43.8438 59.1302 44.4375 59.4531C45.0312 59.776 45.4922 60.224 45.8203 60.7969C46.1536 61.3646 46.3594 62.0234 46.4375 62.7734H44.9375C44.8646 62.2422 44.7292 61.7865 44.5312 61.4062C44.3333 61.0208 44.0521 60.724 43.6875 60.5156C43.3229 60.3073 42.8464 60.2031 42.2578 60.2031C41.7526 60.2031 41.3073 60.2995 40.9219 60.4922C40.5417 60.6849 40.2214 60.9583 39.9609 61.3125C39.7057 61.6667 39.513 62.0911 39.3828 62.5859C39.2526 63.0807 39.1875 63.6302 39.1875 64.2344V65.3828C39.1875 65.9401 39.2448 66.4635 39.3594 66.9531C39.4792 67.4427 39.6589 67.8724 39.8984 68.2422C40.138 68.612 40.4427 68.9036 40.8125 69.1172C41.1823 69.3255 41.6198 69.4297 42.125 69.4297C42.7656 69.4297 43.276 69.3281 43.6562 69.125C44.0365 68.9219 44.3229 68.6302 44.5156 68.25C44.7135 67.8698 44.8542 67.4141 44.9375 66.8828ZM51.7812 70.6562C51.1927 70.6562 50.6589 70.5573 50.1797 70.3594C49.7057 70.1562 49.2969 69.8724 48.9531 69.5078C48.6146 69.1432 48.3542 68.7109 48.1719 68.2109C47.9896 67.7109 47.8984 67.1641 47.8984 66.5703V66.2422C47.8984 65.5547 48 64.9427 48.2031 64.4062C48.4062 63.8646 48.6823 63.4062 49.0312 63.0312C49.3802 62.6562 49.776 62.3724 50.2188 62.1797C50.6615 61.987 51.1198 61.8906 51.5938 61.8906C52.1979 61.8906 52.7188 61.9948 53.1562 62.2031C53.599 62.4115 53.9609 62.7031 54.2422 63.0781C54.5234 63.4479 54.7318 63.8854 54.8672 64.3906C55.0026 64.8906 55.0703 65.4375 55.0703 66.0312V66.6797H48.7578V65.5H53.625V65.3906C53.6042 65.0156 53.526 64.651 53.3906 64.2969C53.2604 63.9427 53.0521 63.651 52.7656 63.4219C52.4792 63.1927 52.0885 63.0781 51.5938 63.0781C51.2656 63.0781 50.9635 63.1484 50.6875 63.2891C50.4115 63.4245 50.1745 63.6276 49.9766 63.8984C49.7786 64.1693 49.625 64.5 49.5156 64.8906C49.4062 65.2812 49.3516 65.7318 49.3516 66.2422V66.5703C49.3516 66.9714 49.4062 67.349 49.5156 67.7031C49.6302 68.0521 49.7943 68.3594 50.0078 68.625C50.2266 68.8906 50.4896 69.099 50.7969 69.25C51.1094 69.401 51.4635 69.4766 51.8594 69.4766C52.3698 69.4766 52.8021 69.3724 53.1562 69.1641C53.5104 68.9557 53.8203 68.6771 54.0859 68.3281L54.9609 69.0234C54.7786 69.2995 54.5469 69.5625 54.2656 69.8125C53.9844 70.0625 53.638 70.2656 53.2266 70.4219C52.8203 70.5781 52.3385 70.6562 51.7812 70.6562ZM58.2031 63.8516V70.5H56.7578V62.0469H58.125L58.2031 63.8516ZM57.8594 65.9531L57.2578 65.9297C57.263 65.3516 57.349 64.8177 57.5156 64.3281C57.6823 63.8333 57.9167 63.4036 58.2188 63.0391C58.5208 62.6745 58.8802 62.3932 59.2969 62.1953C59.7188 61.9922 60.1849 61.8906 60.6953 61.8906C61.112 61.8906 61.487 61.9479 61.8203 62.0625C62.1536 62.1719 62.4375 62.349 62.6719 62.5938C62.9115 62.8385 63.0938 63.1562 63.2188 63.5469C63.3438 63.9323 63.4062 64.4036 63.4062 64.9609V70.5H61.9531V64.9453C61.9531 64.5026 61.888 64.1484 61.7578 63.8828C61.6276 63.612 61.4375 63.4167 61.1875 63.2969C60.9375 63.1719 60.6302 63.1094 60.2656 63.1094C59.9062 63.1094 59.5781 63.1849 59.2812 63.3359C58.9896 63.487 58.737 63.6953 58.5234 63.9609C58.3151 64.2266 58.151 64.5312 58.0312 64.875C57.9167 65.2135 57.8594 65.5729 57.8594 65.9531ZM69.1406 62.0469V63.1562H64.5703V62.0469H69.1406ZM66.1172 59.9922H67.5625V68.4062C67.5625 68.6927 67.6068 68.9089 67.6953 69.0547C67.7839 69.2005 67.8984 69.2969 68.0391 69.3438C68.1797 69.3906 68.3307 69.4141 68.4922 69.4141C68.612 69.4141 68.737 69.4036 68.8672 69.3828C69.0026 69.3568 69.1042 69.3359 69.1719 69.3203L69.1797 70.5C69.0651 70.5365 68.9141 70.5703 68.7266 70.6016C68.5443 70.638 68.3229 70.6562 68.0625 70.6562C67.7083 70.6562 67.3828 70.5859 67.0859 70.4453C66.7891 70.3047 66.5521 70.0703 66.375 69.7422C66.2031 69.4089 66.1172 68.9609 66.1172 68.3984V59.9922ZM74.3438 70.6562C73.7552 70.6562 73.2214 70.5573 72.7422 70.3594C72.2682 70.1562 71.8594 69.8724 71.5156 69.5078C71.1771 69.1432 70.9167 68.7109 70.7344 68.2109C70.5521 67.7109 70.4609 67.1641 70.4609 66.5703V66.2422C70.4609 65.5547 70.5625 64.9427 70.7656 64.4062C70.9688 63.8646 71.2448 63.4062 71.5938 63.0312C71.9427 62.6562 72.3385 62.3724 72.7812 62.1797C73.224 61.987 73.6823 61.8906 74.1562 61.8906C74.7604 61.8906 75.2812 61.9948 75.7188 62.2031C76.1615 62.4115 76.5234 62.7031 76.8047 63.0781C77.0859 63.4479 77.2943 63.8854 77.4297 64.3906C77.5651 64.8906 77.6328 65.4375 77.6328 66.0312V66.6797H71.3203V65.5H76.1875V65.3906C76.1667 65.0156 76.0885 64.651 75.9531 64.2969C75.8229 63.9427 75.6146 63.651 75.3281 63.4219C75.0417 63.1927 74.651 63.0781 74.1562 63.0781C73.8281 63.0781 73.526 63.1484 73.25 63.2891C72.974 63.4245 72.737 63.6276 72.5391 63.8984C72.3411 64.1693 72.1875 64.5 72.0781 64.8906C71.9688 65.2812 71.9141 65.7318 71.9141 66.2422V66.5703C71.9141 66.9714 71.9688 67.349 72.0781 67.7031C72.1927 68.0521 72.3568 68.3594 72.5703 68.625C72.7891 68.8906 73.0521 69.099 73.3594 69.25C73.6719 69.401 74.026 69.4766 74.4219 69.4766C74.9323 69.4766 75.3646 69.3724 75.7188 69.1641C76.0729 68.9557 76.3828 68.6771 76.6484 68.3281L77.5234 69.0234C77.3411 69.2995 77.1094 69.5625 76.8281 69.8125C76.5469 70.0625 76.2005 70.2656 75.7891 70.4219C75.3828 70.5781 74.901 70.6562 74.3438 70.6562ZM80.7656 63.375V70.5H79.3203V62.0469H80.7266L80.7656 63.375ZM83.4062 62L83.3984 63.3438C83.2786 63.3177 83.1641 63.3021 83.0547 63.2969C82.9505 63.2865 82.8307 63.2812 82.6953 63.2812C82.362 63.2812 82.0677 63.3333 81.8125 63.4375C81.5573 63.5417 81.3411 63.6875 81.1641 63.875C80.987 64.0625 80.8464 64.2865 80.7422 64.5469C80.6432 64.8021 80.5781 65.0833 80.5469 65.3906L80.1406 65.625C80.1406 65.1146 80.1901 64.6354 80.2891 64.1875C80.3932 63.7396 80.5521 63.3438 80.7656 63C80.9792 62.651 81.25 62.3802 81.5781 62.1875C81.9115 61.9896 82.3073 61.8906 82.7656 61.8906C82.8698 61.8906 82.9896 61.9036 83.125 61.9297C83.2604 61.9505 83.3542 61.974 83.4062 62Z" fill="#E2E8F0"/>
<path d="M5.375 111.18H2.49219L2.47656 109.969H5.09375C5.52604 109.969 5.90365 109.896 6.22656 109.75C6.54948 109.604 6.79948 109.396 6.97656 109.125C7.15885 108.849 7.25 108.521 7.25 108.141C7.25 107.724 7.16927 107.385 7.00781 107.125C6.85156 106.859 6.60938 106.667 6.28125 106.547C5.95833 106.422 5.54688 106.359 5.04688 106.359H2.82812V116.5H1.32031V105.125H5.04688C5.63021 105.125 6.15104 105.185 6.60938 105.305C7.06771 105.419 7.45573 105.602 7.77344 105.852C8.09635 106.096 8.34115 106.409 8.50781 106.789C8.67448 107.169 8.75781 107.625 8.75781 108.156C8.75781 108.625 8.63802 109.049 8.39844 109.43C8.15885 109.805 7.82552 110.112 7.39844 110.352C6.97656 110.591 6.48177 110.745 5.91406 110.812L5.375 111.18ZM5.30469 116.5H1.89844L2.75 115.273H5.30469C5.78385 115.273 6.1901 115.19 6.52344 115.023C6.86198 114.857 7.11979 114.622 7.29688 114.32C7.47396 114.013 7.5625 113.651 7.5625 113.234C7.5625 112.812 7.48698 112.448 7.33594 112.141C7.1849 111.833 6.94792 111.596 6.625 111.43C6.30208 111.263 5.88542 111.18 5.375 111.18H3.22656L3.24219 109.969H6.17969L6.5 110.406C7.04688 110.453 7.51042 110.609 7.89062 110.875C8.27083 111.135 8.5599 111.469 8.75781 111.875C8.96094 112.281 9.0625 112.729 9.0625 113.219C9.0625 113.927 8.90625 114.526 8.59375 115.016C8.28646 115.5 7.85156 115.87 7.28906 116.125C6.72656 116.375 6.0651 116.5 5.30469 116.5ZM12.6406 104.5V116.5H11.1875V104.5H12.6406ZM14.5781 112.367V112.188C14.5781 111.578 14.6667 111.013 14.8438 110.492C15.0208 109.966 15.276 109.51 15.6094 109.125C15.9427 108.734 16.3464 108.432 16.8203 108.219C17.2943 108 17.8255 107.891 18.4141 107.891C19.0078 107.891 19.5417 108 20.0156 108.219C20.4948 108.432 20.901 108.734 21.2344 109.125C21.5729 109.51 21.8307 109.966 22.0078 110.492C22.1849 111.013 22.2734 111.578 22.2734 112.188V112.367C22.2734 112.977 22.1849 113.542 22.0078 114.062C21.8307 114.583 21.5729 115.039 21.2344 115.43C20.901 115.815 20.4974 116.117 20.0234 116.336C19.5547 116.549 19.0234 116.656 18.4297 116.656C17.8359 116.656 17.3021 116.549 16.8281 116.336C16.3542 116.117 15.9479 115.815 15.6094 115.43C15.276 115.039 15.0208 114.583 14.8438 114.062C14.6667 113.542 14.5781 112.977 14.5781 112.367ZM16.0234 112.188V112.367C16.0234 112.789 16.0729 113.188 16.1719 113.562C16.2708 113.932 16.4193 114.26 16.6172 114.547C16.8203 114.833 17.0729 115.06 17.375 115.227C17.6771 115.388 18.0286 115.469 18.4297 115.469C18.8255 115.469 19.1719 115.388 19.4688 115.227C19.7708 115.06 20.0208 114.833 20.2188 114.547C20.4167 114.26 20.5651 113.932 20.6641 113.562C20.7682 113.188 20.8203 112.789 20.8203 112.367V112.188C20.8203 111.771 20.7682 111.378 20.6641 111.008C20.5651 110.633 20.4141 110.302 20.2109 110.016C20.013 109.724 19.763 109.495 19.4609 109.328C19.1641 109.161 18.8151 109.078 18.4141 109.078C18.0182 109.078 17.6693 109.161 17.3672 109.328C17.0703 109.495 16.8203 109.724 16.6172 110.016C16.4193 110.302 16.2708 110.633 16.1719 111.008C16.0729 111.378 16.0234 111.771 16.0234 112.188ZM29.5625 108.047H30.875V116.32C30.875 117.065 30.724 117.701 30.4219 118.227C30.1198 118.753 29.6979 119.151 29.1562 119.422C28.6198 119.698 28 119.836 27.2969 119.836C27.0052 119.836 26.6615 119.789 26.2656 119.695C25.875 119.607 25.4896 119.453 25.1094 119.234C24.7344 119.021 24.4193 118.732 24.1641 118.367L24.9219 117.508C25.276 117.935 25.6458 118.232 26.0312 118.398C26.4219 118.565 26.8073 118.648 27.1875 118.648C27.6458 118.648 28.0417 118.562 28.375 118.391C28.7083 118.219 28.9661 117.964 29.1484 117.625C29.3359 117.292 29.4297 116.88 29.4297 116.391V109.906L29.5625 108.047ZM23.7422 112.367V112.203C23.7422 111.557 23.8177 110.971 23.9688 110.445C24.125 109.914 24.3464 109.458 24.6328 109.078C24.9245 108.698 25.276 108.406 25.6875 108.203C26.099 107.995 26.5625 107.891 27.0781 107.891C27.6094 107.891 28.0729 107.984 28.4688 108.172C28.8698 108.354 29.2083 108.622 29.4844 108.977C29.7656 109.326 29.987 109.747 30.1484 110.242C30.3099 110.737 30.4219 111.297 30.4844 111.922V112.641C30.4271 113.26 30.3151 113.818 30.1484 114.312C29.987 114.807 29.7656 115.229 29.4844 115.578C29.2083 115.927 28.8698 116.195 28.4688 116.383C28.0677 116.565 27.599 116.656 27.0625 116.656C26.5573 116.656 26.099 116.549 25.6875 116.336C25.2812 116.122 24.9323 115.823 24.6406 115.438C24.349 115.052 24.125 114.599 23.9688 114.078C23.8177 113.552 23.7422 112.982 23.7422 112.367ZM25.1875 112.203V112.367C25.1875 112.789 25.2292 113.185 25.3125 113.555C25.401 113.924 25.5339 114.25 25.7109 114.531C25.8932 114.812 26.125 115.034 26.4062 115.195C26.6875 115.352 27.0234 115.43 27.4141 115.43C27.8932 115.43 28.2891 115.328 28.6016 115.125C28.9141 114.922 29.1615 114.654 29.3438 114.32C29.5312 113.987 29.6771 113.625 29.7812 113.234V111.352C29.724 111.065 29.6354 110.789 29.5156 110.523C29.401 110.253 29.25 110.013 29.0625 109.805C28.8802 109.591 28.6536 109.422 28.3828 109.297C28.112 109.172 27.7943 109.109 27.4297 109.109C27.0339 109.109 26.6927 109.193 26.4062 109.359C26.125 109.521 25.8932 109.745 25.7109 110.031C25.5339 110.312 25.401 110.641 25.3125 111.016C25.2292 111.385 25.1875 111.781 25.1875 112.203Z" fill="#E2E8F0"/>
<path d="M5.52344 151.125V162.5H4.03906V151.125H5.52344ZM9.17969 151.125V152.359H0.390625V151.125H9.17969ZM15.0703 160.547V154.047H16.5234V162.5H15.1406L15.0703 160.547ZM15.3438 158.766L15.9453 158.75C15.9453 159.312 15.8854 159.833 15.7656 160.312C15.651 160.786 15.4635 161.198 15.2031 161.547C14.9427 161.896 14.6016 162.169 14.1797 162.367C13.7578 162.56 13.2448 162.656 12.6406 162.656C12.2292 162.656 11.8516 162.596 11.5078 162.477C11.1693 162.357 10.8776 162.172 10.6328 161.922C10.388 161.672 10.1979 161.346 10.0625 160.945C9.93229 160.544 9.86719 160.062 9.86719 159.5V154.047H11.3125V159.516C11.3125 159.896 11.3542 160.211 11.4375 160.461C11.526 160.706 11.6432 160.901 11.7891 161.047C11.9401 161.188 12.1068 161.286 12.2891 161.344C12.4766 161.401 12.6693 161.43 12.8672 161.43C13.4818 161.43 13.9688 161.312 14.3281 161.078C14.6875 160.839 14.9453 160.518 15.1016 160.117C15.263 159.711 15.3438 159.26 15.3438 158.766ZM22.2656 154.047V155.156H17.6953V154.047H22.2656ZM19.2422 151.992H20.6875V160.406C20.6875 160.693 20.7318 160.909 20.8203 161.055C20.9089 161.201 21.0234 161.297 21.1641 161.344C21.3047 161.391 21.4557 161.414 21.6172 161.414C21.737 161.414 21.862 161.404 21.9922 161.383C22.1276 161.357 22.2292 161.336 22.2969 161.32L22.3047 162.5C22.1901 162.536 22.0391 162.57 21.8516 162.602C21.6693 162.638 21.4479 162.656 21.1875 162.656C20.8333 162.656 20.5078 162.586 20.2109 162.445C19.9141 162.305 19.6771 162.07 19.5 161.742C19.3281 161.409 19.2422 160.961 19.2422 160.398V151.992ZM23.4219 158.367V158.188C23.4219 157.578 23.5104 157.013 23.6875 156.492C23.8646 155.966 24.1198 155.51 24.4531 155.125C24.7865 154.734 25.1901 154.432 25.6641 154.219C26.138 154 26.6693 153.891 27.2578 153.891C27.8516 153.891 28.3854 154 28.8594 154.219C29.3385 154.432 29.7448 154.734 30.0781 155.125C30.4167 155.51 30.6745 155.966 30.8516 156.492C31.0286 157.013 31.1172 157.578 31.1172 158.188V158.367C31.1172 158.977 31.0286 159.542 30.8516 160.062C30.6745 160.583 30.4167 161.039 30.0781 161.43C29.7448 161.815 29.3411 162.117 28.8672 162.336C28.3984 162.549 27.8672 162.656 27.2734 162.656C26.6797 162.656 26.1458 162.549 25.6719 162.336C25.1979 162.117 24.7917 161.815 24.4531 161.43C24.1198 161.039 23.8646 160.583 23.6875 160.062C23.5104 159.542 23.4219 158.977 23.4219 158.367ZM24.8672 158.188V158.367C24.8672 158.789 24.9167 159.188 25.0156 159.562C25.1146 159.932 25.263 160.26 25.4609 160.547C25.6641 160.833 25.9167 161.06 26.2188 161.227C26.5208 161.388 26.8724 161.469 27.2734 161.469C27.6693 161.469 28.0156 161.388 28.3125 161.227C28.6146 161.06 28.8646 160.833 29.0625 160.547C29.2604 160.26 29.4089 159.932 29.5078 159.562C29.612 159.188 29.6641 158.789 29.6641 158.367V158.188C29.6641 157.771 29.612 157.378 29.5078 157.008C29.4089 156.633 29.2578 156.302 29.0547 156.016C28.8568 155.724 28.6068 155.495 28.3047 155.328C28.0078 155.161 27.6589 155.078 27.2578 155.078C26.862 155.078 26.513 155.161 26.2109 155.328C25.9141 155.495 25.6641 155.724 25.4609 156.016C25.263 156.302 25.1146 156.633 25.0156 157.008C24.9167 157.378 24.8672 157.771 24.8672 158.188ZM34.375 155.375V162.5H32.9297V154.047H34.3359L34.375 155.375ZM37.0156 154L37.0078 155.344C36.888 155.318 36.7734 155.302 36.6641 155.297C36.5599 155.286 36.4401 155.281 36.3047 155.281C35.9714 155.281 35.6771 155.333 35.4219 155.438C35.1667 155.542 34.9505 155.688 34.7734 155.875C34.5964 156.062 34.4557 156.286 34.3516 156.547C34.2526 156.802 34.1875 157.083 34.1562 157.391L33.75 157.625C33.75 157.115 33.7995 156.635 33.8984 156.188C34.0026 155.74 34.1615 155.344 34.375 155C34.5885 154.651 34.8594 154.38 35.1875 154.188C35.5208 153.99 35.9167 153.891 36.375 153.891C36.4792 153.891 36.599 153.904 36.7344 153.93C36.8698 153.951 36.9635 153.974 37.0156 154ZM39.9219 154.047V162.5H38.4688V154.047H39.9219ZM38.3594 151.805C38.3594 151.57 38.4297 151.372 38.5703 151.211C38.7161 151.049 38.9297 150.969 39.2109 150.969C39.487 150.969 39.6979 151.049 39.8438 151.211C39.9948 151.372 40.0703 151.57 40.0703 151.805C40.0703 152.029 39.9948 152.221 39.8438 152.383C39.6979 152.539 39.487 152.617 39.2109 152.617C38.9297 152.617 38.7161 152.539 38.5703 152.383C38.4297 152.221 38.3594 152.029 38.3594 151.805ZM47.2266 161.055V156.703C47.2266 156.37 47.1589 156.081 47.0234 155.836C46.8932 155.586 46.6953 155.393 46.4297 155.258C46.1641 155.122 45.8359 155.055 45.4453 155.055C45.0807 155.055 44.7604 155.117 44.4844 155.242C44.2135 155.367 44 155.531 43.8438 155.734C43.6927 155.938 43.6172 156.156 43.6172 156.391H42.1719C42.1719 156.089 42.25 155.789 42.4062 155.492C42.5625 155.195 42.7865 154.927 43.0781 154.688C43.375 154.443 43.7292 154.25 44.1406 154.109C44.5573 153.964 45.0208 153.891 45.5312 153.891C46.1458 153.891 46.6875 153.995 47.1562 154.203C47.6302 154.411 48 154.727 48.2656 155.148C48.5365 155.565 48.6719 156.089 48.6719 156.719V160.656C48.6719 160.938 48.6953 161.237 48.7422 161.555C48.7943 161.872 48.8698 162.146 48.9688 162.375V162.5H47.4609C47.388 162.333 47.3307 162.112 47.2891 161.836C47.2474 161.555 47.2266 161.294 47.2266 161.055ZM47.4766 157.375L47.4922 158.391H46.0312C45.6198 158.391 45.2526 158.424 44.9297 158.492C44.6068 158.555 44.3359 158.651 44.1172 158.781C43.8984 158.911 43.7318 159.076 43.6172 159.273C43.5026 159.466 43.4453 159.693 43.4453 159.953C43.4453 160.219 43.5052 160.461 43.625 160.68C43.7448 160.898 43.9245 161.073 44.1641 161.203C44.4089 161.328 44.7083 161.391 45.0625 161.391C45.5052 161.391 45.8958 161.297 46.2344 161.109C46.5729 160.922 46.8411 160.693 47.0391 160.422C47.2422 160.151 47.3516 159.888 47.3672 159.633L47.9844 160.328C47.9479 160.547 47.849 160.789 47.6875 161.055C47.526 161.32 47.3099 161.576 47.0391 161.82C46.7734 162.06 46.4557 162.26 46.0859 162.422C45.7214 162.578 45.3099 162.656 44.8516 162.656C44.2786 162.656 43.776 162.544 43.3438 162.32C42.9167 162.096 42.5833 161.797 42.3438 161.422C42.1094 161.042 41.9922 160.617 41.9922 160.148C41.9922 159.695 42.0807 159.297 42.2578 158.953C42.4349 158.604 42.6901 158.315 43.0234 158.086C43.3568 157.852 43.7578 157.674 44.2266 157.555C44.6953 157.435 45.2188 157.375 45.7969 157.375H47.4766ZM52.5156 150.5V162.5H51.0625V150.5H52.5156ZM59.7578 160.258C59.7578 160.049 59.7109 159.857 59.6172 159.68C59.5286 159.497 59.3438 159.333 59.0625 159.188C58.7865 159.036 58.3698 158.906 57.8125 158.797C57.3438 158.698 56.9193 158.581 56.5391 158.445C56.1641 158.31 55.8438 158.146 55.5781 157.953C55.3177 157.76 55.1172 157.534 54.9766 157.273C54.8359 157.013 54.7656 156.708 54.7656 156.359C54.7656 156.026 54.8385 155.711 54.9844 155.414C55.1354 155.117 55.3464 154.854 55.6172 154.625C55.8932 154.396 56.224 154.216 56.6094 154.086C56.9948 153.956 57.4245 153.891 57.8984 153.891C58.5755 153.891 59.1536 154.01 59.6328 154.25C60.112 154.49 60.4792 154.81 60.7344 155.211C60.9896 155.607 61.1172 156.047 61.1172 156.531H59.6719C59.6719 156.297 59.6016 156.07 59.4609 155.852C59.3255 155.628 59.125 155.443 58.8594 155.297C58.599 155.151 58.2786 155.078 57.8984 155.078C57.4974 155.078 57.1719 155.141 56.9219 155.266C56.6771 155.385 56.4974 155.539 56.3828 155.727C56.2734 155.914 56.2188 156.112 56.2188 156.32C56.2188 156.477 56.2448 156.617 56.2969 156.742C56.3542 156.862 56.4531 156.974 56.5938 157.078C56.7344 157.177 56.9323 157.271 57.1875 157.359C57.4427 157.448 57.7682 157.536 58.1641 157.625C58.8568 157.781 59.4271 157.969 59.875 158.188C60.3229 158.406 60.6562 158.674 60.875 158.992C61.0938 159.31 61.2031 159.695 61.2031 160.148C61.2031 160.518 61.125 160.857 60.9688 161.164C60.8177 161.471 60.5964 161.737 60.3047 161.961C60.0182 162.18 59.6745 162.352 59.2734 162.477C58.8776 162.596 58.4323 162.656 57.9375 162.656C57.1927 162.656 56.5625 162.523 56.0469 162.258C55.5312 161.992 55.1406 161.648 54.875 161.227C54.6094 160.805 54.4766 160.359 54.4766 159.891H55.9297C55.9505 160.286 56.0651 160.602 56.2734 160.836C56.4818 161.065 56.737 161.229 57.0391 161.328C57.3411 161.422 57.6406 161.469 57.9375 161.469C58.3333 161.469 58.6641 161.417 58.9297 161.312C59.2005 161.208 59.4062 161.065 59.5469 160.883C59.6875 160.701 59.7578 160.492 59.7578 160.258Z" fill="#E2E8F0"/>
<path d="M2.82812 197.125V208.5H1.32031V197.125H2.82812ZM7.59375 202.242V203.477H2.5V202.242H7.59375ZM8.36719 197.125V198.359H2.5V197.125H8.36719ZM13.0469 198.133L9.28125 208.5H7.74219L12.0781 197.125H13.0703L13.0469 198.133ZM16.2031 208.5L12.4297 198.133L12.4062 197.125H13.3984L17.75 208.5H16.2031ZM16.0078 204.289V205.523H9.61719V204.289H16.0078ZM25.0156 207.195L27.9062 209.484L26.8906 210.422L24.0469 208.164L25.0156 207.195ZM27.8672 202.453V203.172C27.8672 204.026 27.7604 204.792 27.5469 205.469C27.3333 206.146 27.026 206.721 26.625 207.195C26.224 207.669 25.7422 208.031 25.1797 208.281C24.6224 208.531 23.9974 208.656 23.3047 208.656C22.6328 208.656 22.0156 208.531 21.4531 208.281C20.8958 208.031 20.4115 207.669 20 207.195C19.5938 206.721 19.2786 206.146 19.0547 205.469C18.8307 204.792 18.7188 204.026 18.7188 203.172V202.453C18.7188 201.599 18.8281 200.836 19.0469 200.164C19.2708 199.487 19.5859 198.911 19.9922 198.438C20.3984 197.958 20.8802 197.594 21.4375 197.344C22 197.094 22.6172 196.969 23.2891 196.969C23.9818 196.969 24.6094 197.094 25.1719 197.344C25.7344 197.594 26.2161 197.958 26.6172 198.438C27.0182 198.911 27.3255 199.487 27.5391 200.164C27.7578 200.836 27.8672 201.599 27.8672 202.453ZM26.375 203.172V202.438C26.375 201.76 26.3047 201.161 26.1641 200.641C26.0286 200.12 25.8281 199.682 25.5625 199.328C25.2969 198.974 24.974 198.706 24.5938 198.523C24.2135 198.341 23.7786 198.25 23.2891 198.25C22.8255 198.25 22.4036 198.341 22.0234 198.523C21.6484 198.706 21.3255 198.974 21.0547 199.328C20.7839 199.682 20.5755 200.12 20.4297 200.641C20.2839 201.161 20.2109 201.76 20.2109 202.438V203.172C20.2109 203.854 20.2839 204.458 20.4297 204.984C20.5755 205.505 20.7839 205.945 21.0547 206.305C21.3307 206.659 21.6589 206.927 22.0391 207.109C22.4193 207.292 22.8411 207.383 23.3047 207.383C23.7943 207.383 24.2292 207.292 24.6094 207.109C24.9896 206.927 25.3099 206.659 25.5703 206.305C25.8359 205.945 26.0365 205.505 26.1719 204.984C26.3073 204.458 26.375 203.854 26.375 203.172ZM34.8984 206.258C34.8984 206.049 34.8516 205.857 34.7578 205.68C34.6693 205.497 34.4844 205.333 34.2031 205.188C33.9271 205.036 33.5104 204.906 32.9531 204.797C32.4844 204.698 32.0599 204.581 31.6797 204.445C31.3047 204.31 30.9844 204.146 30.7188 203.953C30.4583 203.76 30.2578 203.534 30.1172 203.273C29.9766 203.013 29.9062 202.708 29.9062 202.359C29.9062 202.026 29.9792 201.711 30.125 201.414C30.276 201.117 30.487 200.854 30.7578 200.625C31.0339 200.396 31.3646 200.216 31.75 200.086C32.1354 199.956 32.5651 199.891 33.0391 199.891C33.7161 199.891 34.2943 200.01 34.7734 200.25C35.2526 200.49 35.6198 200.81 35.875 201.211C36.1302 201.607 36.2578 202.047 36.2578 202.531H34.8125C34.8125 202.297 34.7422 202.07 34.6016 201.852C34.4661 201.628 34.2656 201.443 34 201.297C33.7396 201.151 33.4193 201.078 33.0391 201.078C32.638 201.078 32.3125 201.141 32.0625 201.266C31.8177 201.385 31.638 201.539 31.5234 201.727C31.4141 201.914 31.3594 202.112 31.3594 202.32C31.3594 202.477 31.3854 202.617 31.4375 202.742C31.4948 202.862 31.5938 202.974 31.7344 203.078C31.875 203.177 32.0729 203.271 32.3281 203.359C32.5833 203.448 32.9089 203.536 33.3047 203.625C33.9974 203.781 34.5677 203.969 35.0156 204.188C35.4635 204.406 35.7969 204.674 36.0156 204.992C36.2344 205.31 36.3438 205.695 36.3438 206.148C36.3438 206.518 36.2656 206.857 36.1094 207.164C35.9583 207.471 35.737 207.737 35.4453 207.961C35.1589 208.18 34.8151 208.352 34.4141 208.477C34.0182 208.596 33.5729 208.656 33.0781 208.656C32.3333 208.656 31.7031 208.523 31.1875 208.258C30.6719 207.992 30.2812 207.648 30.0156 207.227C29.75 206.805 29.6172 206.359 29.6172 205.891H31.0703C31.0911 206.286 31.2057 206.602 31.4141 206.836C31.6224 207.065 31.8776 207.229 32.1797 207.328C32.4818 207.422 32.7812 207.469 33.0781 207.469C33.474 207.469 33.8047 207.417 34.0703 207.312C34.3411 207.208 34.5469 207.065 34.6875 206.883C34.8281 206.701 34.8984 206.492 34.8984 206.258Z" fill="#E2E8F0"/>
</svg>
