<svg width="66" height="67" viewBox="0 0 66 67" fill="none" xmlns="http://www.w3.org/2000/svg">
<rect x="0.5" y="1.03223" width="65" height="65" rx="14.5" fill="white"/>
<rect x="0.5" y="1.03223" width="65" height="65" rx="14.5" stroke="#CBD5E1"/>
<g filter="url(#filter0_ii_3_1872)">
<path d="M50.6001 16.4656H15.4001C13.9273 16.4656 12.7334 17.6595 12.7334 19.1322V43.6656C12.7334 45.1383 13.9273 46.3322 15.4001 46.3322H50.6001C52.0728 46.3322 53.2667 45.1383 53.2667 43.6656V19.1322C53.2667 17.6595 52.0728 16.4656 50.6001 16.4656Z" fill="#8E592D"/>
</g>
<g filter="url(#filter1_i_3_1872)">
<path fill-rule="evenodd" clip-rule="evenodd" d="M27.209 46.2996C27.209 46.2996 29.1254 39.0449 32.8178 39.0449C36.5102 39.0449 38.4265 46.3536 38.4265 46.3536L27.209 46.2996Z" fill="black" fill-opacity="0.01"/>
</g>
<g filter="url(#filter2_i_3_1872)">
<path fill-rule="evenodd" clip-rule="evenodd" d="M43.6671 39.9323C46.6126 39.9323 49.0004 37.5445 49.0004 34.599C49.0004 31.6535 46.6126 29.2656 43.6671 29.2656C40.7216 29.2656 38.3337 31.6535 38.3337 34.599C38.3337 37.5445 40.7216 39.9323 43.6671 39.9323Z" fill="black" fill-opacity="0.01"/>
</g>
<g filter="url(#filter3_i_3_1872)">
<path fill-rule="evenodd" clip-rule="evenodd" d="M22.3333 39.9323C25.2788 39.9323 27.6667 37.5445 27.6667 34.599C27.6667 31.6535 25.2788 29.2656 22.3333 29.2656C19.3878 29.2656 17 31.6535 17 34.599C17 37.5445 19.3878 39.9323 22.3333 39.9323Z" fill="black" fill-opacity="0.01"/>
</g>
<g filter="url(#filter4_ii_3_1872)">
<path fill-rule="evenodd" clip-rule="evenodd" d="M53.2682 19.6655C55.0348 19.6655 56.4668 21.0954 56.4668 22.8666V47.3977C56.4668 49.1657 55.0337 50.5989 53.2663 50.5989H41.6253C41.0352 50.5989 40.3467 50.169 40.0898 49.643L36.2761 41.8374C34.4668 38.1342 31.4378 38.0869 29.5081 41.7363L25.3211 49.6546C25.0454 50.1761 24.3475 50.5989 23.7589 50.5989H12.7384C10.9683 50.5989 9.53345 49.1689 9.53345 47.3977V22.8666C9.53345 21.0987 10.9701 19.6655 12.732 19.6655H12.968H53.2682ZM22.3334 39.9322C25.2789 39.9322 27.6668 37.5444 27.6668 34.5989C27.6668 31.6534 25.2789 29.2655 22.3334 29.2655C19.388 29.2655 17.0001 31.6534 17.0001 34.5989C17.0001 37.5444 19.388 39.9322 22.3334 39.9322ZM43.6668 39.9322C46.6123 39.9322 49.0001 37.5444 49.0001 34.5989C49.0001 31.6534 46.6123 29.2655 43.6668 29.2655C40.7213 29.2655 38.3334 31.6534 38.3334 34.5989C38.3334 37.5444 40.7213 39.9322 43.6668 39.9322Z" fill="#D89E4E"/>
</g>
<defs>
<filter id="filter0_ii_3_1872" x="12.7334" y="15.4656" width="40.5334" height="31.8667" filterUnits="userSpaceOnUse" color-interpolation-filters="sRGB">
<feFlood flood-opacity="0" result="BackgroundImageFix"/>
<feBlend mode="normal" in="SourceGraphic" in2="BackgroundImageFix" result="shape"/>
<feColorMatrix in="SourceAlpha" type="matrix" values="0 0 0 0 0 0 0 0 0 0 0 0 0 0 0 0 0 0 127 0" result="hardAlpha"/>
<feOffset dy="1"/>
<feGaussianBlur stdDeviation="2"/>
<feComposite in2="hardAlpha" operator="arithmetic" k2="-1" k3="1"/>
<feColorMatrix type="matrix" values="0 0 0 0 0.6 0 0 0 0 0.411765 0 0 0 0 0.258824 0 0 0 1 0"/>
<feBlend mode="normal" in2="shape" result="effect1_innerShadow_3_1872"/>
<feColorMatrix in="SourceAlpha" type="matrix" values="0 0 0 0 0 0 0 0 0 0 0 0 0 0 0 0 0 0 127 0" result="hardAlpha"/>
<feOffset dy="-1"/>
<feGaussianBlur stdDeviation="2"/>
<feComposite in2="hardAlpha" operator="arithmetic" k2="-1" k3="1"/>
<feColorMatrix type="matrix" values="0 0 0 0 0.517647 0 0 0 0 0.317647 0 0 0 0 0.160784 0 0 0 1 0"/>
<feBlend mode="normal" in2="effect1_innerShadow_3_1872" result="effect2_innerShadow_3_1872"/>
</filter>
<filter id="filter1_i_3_1872" x="27.209" y="39.0449" width="11.2175" height="9.30872" filterUnits="userSpaceOnUse" color-interpolation-filters="sRGB">
<feFlood flood-opacity="0" result="BackgroundImageFix"/>
<feBlend mode="normal" in="SourceGraphic" in2="BackgroundImageFix" result="shape"/>
<feColorMatrix in="SourceAlpha" type="matrix" values="0 0 0 0 0 0 0 0 0 0 0 0 0 0 0 0 0 0 127 0" result="hardAlpha"/>
<feOffset dy="2"/>
<feGaussianBlur stdDeviation="1"/>
<feComposite in2="hardAlpha" operator="arithmetic" k2="-1" k3="1"/>
<feColorMatrix type="matrix" values="0 0 0 0 0 0 0 0 0 0 0 0 0 0 0 0 0 0 0.2 0"/>
<feBlend mode="normal" in2="shape" result="effect1_innerShadow_3_1872"/>
</filter>
<filter id="filter2_i_3_1872" x="38.3337" y="29.2656" width="10.6667" height="11.6666" filterUnits="userSpaceOnUse" color-interpolation-filters="sRGB">
<feFlood flood-opacity="0" result="BackgroundImageFix"/>
<feBlend mode="normal" in="SourceGraphic" in2="BackgroundImageFix" result="shape"/>
<feColorMatrix in="SourceAlpha" type="matrix" values="0 0 0 0 0 0 0 0 0 0 0 0 0 0 0 0 0 0 127 0" result="hardAlpha"/>
<feOffset dy="1"/>
<feGaussianBlur stdDeviation="2"/>
<feComposite in2="hardAlpha" operator="arithmetic" k2="-1" k3="1"/>
<feColorMatrix type="matrix" values="0 0 0 0 0 0 0 0 0 0 0 0 0 0 0 0 0 0 0.25 0"/>
<feBlend mode="normal" in2="shape" result="effect1_innerShadow_3_1872"/>
</filter>
<filter id="filter3_i_3_1872" x="17" y="29.2656" width="10.6667" height="11.6666" filterUnits="userSpaceOnUse" color-interpolation-filters="sRGB">
<feFlood flood-opacity="0" result="BackgroundImageFix"/>
<feBlend mode="normal" in="SourceGraphic" in2="BackgroundImageFix" result="shape"/>
<feColorMatrix in="SourceAlpha" type="matrix" values="0 0 0 0 0 0 0 0 0 0 0 0 0 0 0 0 0 0 127 0" result="hardAlpha"/>
<feOffset dy="1"/>
<feGaussianBlur stdDeviation="2"/>
<feComposite in2="hardAlpha" operator="arithmetic" k2="-1" k3="1"/>
<feColorMatrix type="matrix" values="0 0 0 0 0 0 0 0 0 0 0 0 0 0 0 0 0 0 0.25 0"/>
<feBlend mode="normal" in2="shape" result="effect1_innerShadow_3_1872"/>
</filter>
<filter id="filter4_ii_3_1872" x="9.53345" y="18.6655" width="46.9333" height="32.9333" filterUnits="userSpaceOnUse" color-interpolation-filters="sRGB">
<feFlood flood-opacity="0" result="BackgroundImageFix"/>
<feBlend mode="normal" in="SourceGraphic" in2="BackgroundImageFix" result="shape"/>
<feColorMatrix in="SourceAlpha" type="matrix" values="0 0 0 0 0 0 0 0 0 0 0 0 0 0 0 0 0 0 127 0" result="hardAlpha"/>
<feOffset dy="1"/>
<feGaussianBlur stdDeviation="2"/>
<feComposite in2="hardAlpha" operator="arithmetic" k2="-1" k3="1"/>
<feColorMatrix type="matrix" values="0 0 0 0 0.862745 0 0 0 0 0.654902 0 0 0 0 0.372549 0 0 0 1 0"/>
<feBlend mode="normal" in2="shape" result="effect1_innerShadow_3_1872"/>
<feColorMatrix in="SourceAlpha" type="matrix" values="0 0 0 0 0 0 0 0 0 0 0 0 0 0 0 0 0 0 127 0" result="hardAlpha"/>
<feOffset dy="-1"/>
<feGaussianBlur stdDeviation="2"/>
<feComposite in2="hardAlpha" operator="arithmetic" k2="-1" k3="1"/>
<feColorMatrix type="matrix" values="0 0 0 0 0.811765 0 0 0 0 0.584314 0 0 0 0 0.270588 0 0 0 1 0"/>
<feBlend mode="normal" in2="effect1_innerShadow_3_1872" result="effect2_innerShadow_3_1872"/>
</filter>
</defs>
</svg>
