<svg width="66" height="67" viewBox="0 0 66 67" fill="none" xmlns="http://www.w3.org/2000/svg">
<rect x="0.5" y="1.03223" width="65" height="65" rx="14.5" fill="white"/>
<rect x="0.5" y="1.03223" width="65" height="65" rx="14.5" stroke="#CBD5E1"/>
<path fill-rule="evenodd" clip-rule="evenodd" d="M32.9999 60.1989C47.7275 60.1989 59.6666 48.2598 59.6666 33.5323C59.6666 18.8047 47.7275 6.8656 32.9999 6.8656C18.2723 6.8656 6.33325 18.8047 6.33325 33.5323C6.33325 48.2598 18.2723 60.1989 32.9999 60.1989Z" fill="url(#paint0_linear_3_1870)"/>
<path fill-rule="evenodd" clip-rule="evenodd" d="M15.3999 46.5989L20.4666 49.7989L26.8666 38.8656L36.1999 44.4656L44.4666 29.5322L50.3332 32.9989L48.1999 17.5322L33.7999 23.3989L39.3999 26.5989L34.0666 36.1989L24.7332 30.5989L15.3999 46.5989Z" fill="white"/>
<defs>
<linearGradient id="paint0_linear_3_1870" x1="6.33325" y1="6.8656" x2="6.33325" y2="60.1989" gradientUnits="userSpaceOnUse">
<stop stop-color="#E8016A"/>
<stop offset="1" stop-color="#EE3224"/>
</linearGradient>
</defs>
</svg>
