<svg width="70" height="71" viewBox="0 0 70 71" fill="none" xmlns="http://www.w3.org/2000/svg">
<rect x="1.5" y="2.03223" width="67" height="67" rx="15.5" fill="white"/>
<rect x="1.5" y="2.03223" width="67" height="67" rx="15.5" stroke="#FB923C" stroke-width="3"/>
<g filter="url(#filter0_i_3_1865)">
<path fill-rule="evenodd" clip-rule="evenodd" d="M26.9619 14.7322H42.9619L58.4286 42.4655H42.4286L26.9619 14.7322Z" fill="#FFCF48"/>
</g>
<g filter="url(#filter1_i_3_1865)">
<path fill-rule="evenodd" clip-rule="evenodd" d="M19.5708 55.2655C21.8899 50.9586 27.0375 42.4655 27.0375 42.4655H58.5044L50.5042 56.3321H19.5708C19.5708 56.3321 19.401 55.5809 19.5708 55.2655Z" fill="#4587F4"/>
</g>
<path fill-rule="evenodd" clip-rule="evenodd" d="M26.962 14.7322L34.962 29.1322L19.4954 56.3322L11.4954 42.4655L26.962 14.7322Z" fill="#1BA261"/>
<path fill-rule="evenodd" clip-rule="evenodd" d="M27.3704 42.4944L34.1334 55.786H19.822L27.3704 42.4944Z" fill="url(#paint0_linear_3_1865)"/>
<path fill-rule="evenodd" clip-rule="evenodd" d="M27.3704 42.4944L34.1334 55.786H19.822L27.3704 42.4944Z" fill="url(#paint1_linear_3_1865)"/>
<path fill-rule="evenodd" clip-rule="evenodd" d="M26.9766 14.7501L31.624 34.9923L34.9865 29.1133L26.9766 14.7501Z" fill="url(#paint2_linear_3_1865)"/>
<defs>
<filter id="filter0_i_3_1865" x="26.9619" y="14.7322" width="32.0666" height="28.7333" filterUnits="userSpaceOnUse" color-interpolation-filters="sRGB">
<feFlood flood-opacity="0" result="BackgroundImageFix"/>
<feBlend mode="normal" in="SourceGraphic" in2="BackgroundImageFix" result="shape"/>
<feColorMatrix in="SourceAlpha" type="matrix" values="0 0 0 0 0 0 0 0 0 0 0 0 0 0 0 0 0 0 127 0" result="hardAlpha"/>
<feOffset dx="0.6" dy="1"/>
<feGaussianBlur stdDeviation="2"/>
<feComposite in2="hardAlpha" operator="arithmetic" k2="-1" k3="1"/>
<feColorMatrix type="matrix" values="0 0 0 0 1 0 0 0 0 0.88914 0 0 0 0 0.556562 0 0 0 1 0"/>
<feBlend mode="normal" in2="shape" result="effect1_innerShadow_3_1865"/>
</filter>
<filter id="filter1_i_3_1865" x="19.4954" y="41.4655" width="39.609" height="14.8667" filterUnits="userSpaceOnUse" color-interpolation-filters="sRGB">
<feFlood flood-opacity="0" result="BackgroundImageFix"/>
<feBlend mode="normal" in="SourceGraphic" in2="BackgroundImageFix" result="shape"/>
<feColorMatrix in="SourceAlpha" type="matrix" values="0 0 0 0 0 0 0 0 0 0 0 0 0 0 0 0 0 0 127 0" result="hardAlpha"/>
<feOffset dx="0.6" dy="-1"/>
<feGaussianBlur stdDeviation="2"/>
<feComposite in2="hardAlpha" operator="arithmetic" k2="-1" k3="1"/>
<feColorMatrix type="matrix" values="0 0 0 0 0.580392 0 0 0 0 0.713726 0 0 0 0 0.909804 0 0 0 1 0"/>
<feBlend mode="normal" in2="shape" result="effect1_innerShadow_3_1865"/>
</filter>
<linearGradient id="paint0_linear_3_1865" x1="14.9037" y1="36.3379" x2="14.9037" y2="57.0644" gradientUnits="userSpaceOnUse">
<stop stop-color="#155ACA"/>
<stop offset="1" stop-color="#2F71DD" stop-opacity="0.01"/>
</linearGradient>
<linearGradient id="paint1_linear_3_1865" x1="19.3023" y1="50.6863" x2="23.9942" y2="53.7702" gradientUnits="userSpaceOnUse">
<stop stop-color="#002D77" stop-opacity="0.8018"/>
<stop offset="1" stop-color="#2F71DD" stop-opacity="0.01"/>
</linearGradient>
<linearGradient id="paint2_linear_3_1865" x1="26.7553" y1="25.4452" x2="36.2987" y2="30.7037" gradientUnits="userSpaceOnUse">
<stop stop-color="#1B935A"/>
<stop offset="1" stop-color="#118B50" stop-opacity="0.01"/>
</linearGradient>
</defs>
</svg>
