<svg width="66" height="67" viewBox="0 0 66 67" fill="none" xmlns="http://www.w3.org/2000/svg">
<rect x="0.5" y="1.03223" width="65" height="65" rx="14.5" fill="white"/>
<rect x="0.5" y="1.03223" width="65" height="65" rx="14.5" stroke="#CBD5E1"/>
<path fill-rule="evenodd" clip-rule="evenodd" d="M12.7308 20.544C11.5565 20.544 10.6001 21.5155 10.6001 22.7138V49.7624C10.6001 50.9584 11.554 51.9322 12.7308 51.9322H53.2694C54.4438 51.9322 55.4001 50.9607 55.4001 49.7624V22.7138C55.4001 21.5177 54.446 20.544 53.2694 20.544H45.3493C44.9924 20.3256 44.635 20.068 44.2928 19.7643C42.3389 18.0303 42.0467 17.011 42.0467 17.011C41.6018 15.9734 40.286 15.1322 39.1102 15.1322H33.0001V17.8381V15.1322H26.89C25.7142 15.1322 24.3984 15.9734 23.9535 17.011C23.9535 17.011 23.6613 18.0303 21.7074 19.7643C21.3652 20.068 21.0078 20.3256 20.6509 20.544H12.7308Z" fill="url(#paint0_linear_3_1867)"/>
<path fill-rule="evenodd" clip-rule="evenodd" d="M42.0467 17.011C42.0467 17.011 42.3389 18.0303 44.2928 19.7643C44.635 20.068 44.9924 20.3256 45.3493 20.544H53.2694C54.446 20.544 55.4001 21.5177 55.4001 22.7138V49.7624C55.4001 50.9607 54.4438 51.9322 53.2694 51.9322H12.7308C11.554 51.9322 10.6001 50.9584 10.6001 49.7624V22.7138C10.6001 21.5155 11.5565 20.544 12.7308 20.544H20.6509C21.0078 20.3256 21.3652 20.068 21.7074 19.7643C23.6613 18.0303 23.9535 17.011 23.9535 17.011C24.3984 15.9734 25.7142 15.1322 26.89 15.1322H39.1102C40.286 15.1322 41.6018 15.9734 42.0467 17.011ZM39.1102 14.1322C39.9243 14.1322 40.7315 14.418 41.3914 14.8401C42.0491 15.2608 42.6466 15.8724 42.9657 16.6169L42.9906 16.6748L43.001 16.7111C43.005 16.7212 43.0133 16.741 43.0271 16.7703C43.0625 16.8453 43.1348 16.9832 43.2667 17.1792C43.5305 17.5713 44.0335 18.1972 44.9566 19.0164C45.1779 19.2128 45.4079 19.3879 45.6414 19.544H53.2694C55.016 19.544 56.4001 20.9833 56.4001 22.7138V49.7624C56.4001 51.4965 55.0125 52.9322 53.2694 52.9322H12.7308C10.9839 52.9322 9.6001 51.4927 9.6001 49.7624V22.7138C9.6001 20.9796 10.9879 19.544 12.7308 19.544H20.3588C20.5923 19.3879 20.8223 19.2128 21.0436 19.0164C21.9666 18.1972 22.4697 17.5713 22.7335 17.1792C22.8653 16.9832 22.9377 16.8453 22.9731 16.7703C22.9869 16.741 22.9952 16.7212 22.9992 16.7111L23.0096 16.6748L23.0344 16.6169C23.3536 15.8724 23.951 15.2608 24.6088 14.8401C25.2687 14.418 26.0759 14.1322 26.89 14.1322H39.1102Z" fill="#CBD5E1"/>
<g filter="url(#filter0_ii_3_1867)">
<path d="M14.8667 19.1322C14.8667 18.6903 15.2249 18.3322 15.6667 18.3322H17.8C18.2418 18.3322 18.6 18.6903 18.6 19.1322V20.4655H14.8667V19.1322Z" fill="url(#paint1_linear_3_1867)"/>
</g>
<g filter="url(#filter1_d_3_1867)">
<path fill-rule="evenodd" clip-rule="evenodd" d="M43.1333 28.4655C43.7224 28.4655 44.2 27.9879 44.2 27.3988C44.2 26.8097 43.7224 26.3322 43.1333 26.3322C42.5442 26.3322 42.0667 26.8097 42.0667 27.3988C42.0667 27.9879 42.5442 28.4655 43.1333 28.4655Z" fill="url(#paint2_linear_3_1867)"/>
</g>
<g filter="url(#filter2_d_3_1867)">
<path d="M55.4001 23.6655H10.6001V24.1989H55.4001V23.6655Z" fill="white"/>
</g>
<g filter="url(#filter3_d_3_1867)">
<path d="M55.4001 47.6655H10.6001V48.1989H55.4001V47.6655Z" fill="white"/>
</g>
<g filter="url(#filter4_d_3_1867)">
<path fill-rule="evenodd" clip-rule="evenodd" d="M42.9333 35.9321C42.9333 41.4182 38.486 45.8654 33 45.8654C27.5139 45.8654 23.0667 41.4182 23.0667 35.9321C23.0667 30.4461 27.5139 25.9988 33 25.9988C38.486 25.9988 42.9333 30.4461 42.9333 35.9321ZM33 44.8654C37.9337 44.8654 41.9333 40.8659 41.9333 35.9321C41.9333 30.9984 37.9337 26.9988 33 26.9988C28.0662 26.9988 24.0667 30.9984 24.0667 35.9321C24.0667 40.8659 28.0662 44.8654 33 44.8654Z" fill="white"/>
</g>
<defs>
<filter id="filter0_ii_3_1867" x="14.8667" y="17.3322" width="3.7334" height="4.1333" filterUnits="userSpaceOnUse" color-interpolation-filters="sRGB">
<feFlood flood-opacity="0" result="BackgroundImageFix"/>
<feBlend mode="normal" in="SourceGraphic" in2="BackgroundImageFix" result="shape"/>
<feColorMatrix in="SourceAlpha" type="matrix" values="0 0 0 0 0 0 0 0 0 0 0 0 0 0 0 0 0 0 127 0" result="hardAlpha"/>
<feOffset dy="1"/>
<feGaussianBlur stdDeviation="1"/>
<feComposite in2="hardAlpha" operator="arithmetic" k2="-1" k3="1"/>
<feColorMatrix type="matrix" values="0 0 0 0 0 0 0 0 0 0 0 0 0 0 0 0 0 0 0.694265 0"/>
<feBlend mode="normal" in2="shape" result="effect1_innerShadow_3_1867"/>
<feColorMatrix in="SourceAlpha" type="matrix" values="0 0 0 0 0 0 0 0 0 0 0 0 0 0 0 0 0 0 127 0" result="hardAlpha"/>
<feOffset dy="-1"/>
<feGaussianBlur stdDeviation="2"/>
<feComposite in2="hardAlpha" operator="arithmetic" k2="-1" k3="1"/>
<feColorMatrix type="matrix" values="0 0 0 0 0.8 0 0 0 0 0.807843 0 0 0 0 0.815686 0 0 0 1 0"/>
<feBlend mode="normal" in2="effect1_innerShadow_3_1867" result="effect2_innerShadow_3_1867"/>
</filter>
<filter id="filter1_d_3_1867" x="40.0667" y="25.3322" width="6.1333" height="6.1333" filterUnits="userSpaceOnUse" color-interpolation-filters="sRGB">
<feFlood flood-opacity="0" result="BackgroundImageFix"/>
<feColorMatrix in="SourceAlpha" type="matrix" values="0 0 0 0 0 0 0 0 0 0 0 0 0 0 0 0 0 0 127 0" result="hardAlpha"/>
<feOffset dy="1"/>
<feGaussianBlur stdDeviation="1"/>
<feColorMatrix type="matrix" values="0 0 0 0 0 0 0 0 0 0 0 0 0 0 0 0 0 0 0.578182 0"/>
<feBlend mode="normal" in2="BackgroundImageFix" result="effect1_dropShadow_3_1867"/>
<feBlend mode="normal" in="SourceGraphic" in2="effect1_dropShadow_3_1867" result="shape"/>
</filter>
<filter id="filter2_d_3_1867" x="9.6001" y="23.6655" width="46.8" height="2.53333" filterUnits="userSpaceOnUse" color-interpolation-filters="sRGB">
<feFlood flood-opacity="0" result="BackgroundImageFix"/>
<feColorMatrix in="SourceAlpha" type="matrix" values="0 0 0 0 0 0 0 0 0 0 0 0 0 0 0 0 0 0 127 0" result="hardAlpha"/>
<feOffset dy="1"/>
<feGaussianBlur stdDeviation="0.5"/>
<feColorMatrix type="matrix" values="0 0 0 0 0 0 0 0 0 0 0 0 0 0 0 0 0 0 0.407609 0"/>
<feBlend mode="normal" in2="BackgroundImageFix" result="effect1_dropShadow_3_1867"/>
<feBlend mode="normal" in="SourceGraphic" in2="effect1_dropShadow_3_1867" result="shape"/>
</filter>
<filter id="filter3_d_3_1867" x="9.6001" y="47.6655" width="46.8" height="2.53333" filterUnits="userSpaceOnUse" color-interpolation-filters="sRGB">
<feFlood flood-opacity="0" result="BackgroundImageFix"/>
<feColorMatrix in="SourceAlpha" type="matrix" values="0 0 0 0 0 0 0 0 0 0 0 0 0 0 0 0 0 0 127 0" result="hardAlpha"/>
<feOffset dy="1"/>
<feGaussianBlur stdDeviation="0.5"/>
<feColorMatrix type="matrix" values="0 0 0 0 0 0 0 0 0 0 0 0 0 0 0 0 0 0 0.407609 0"/>
<feBlend mode="normal" in2="BackgroundImageFix" result="effect1_dropShadow_3_1867"/>
<feBlend mode="normal" in="SourceGraphic" in2="effect1_dropShadow_3_1867" result="shape"/>
</filter>
<filter id="filter4_d_3_1867" x="22.5667" y="25.9988" width="20.8667" height="21.3667" filterUnits="userSpaceOnUse" color-interpolation-filters="sRGB">
<feFlood flood-opacity="0" result="BackgroundImageFix"/>
<feColorMatrix in="SourceAlpha" type="matrix" values="0 0 0 0 0 0 0 0 0 0 0 0 0 0 0 0 0 0 127 0" result="hardAlpha"/>
<feOffset dy="1"/>
<feGaussianBlur stdDeviation="0.25"/>
<feColorMatrix type="matrix" values="0 0 0 0 0 0 0 0 0 0 0 0 0 0 0 0 0 0 0.579031 0"/>
<feBlend mode="normal" in2="BackgroundImageFix" result="effect1_dropShadow_3_1867"/>
<feBlend mode="normal" in="SourceGraphic" in2="effect1_dropShadow_3_1867" result="shape"/>
</filter>
<linearGradient id="paint0_linear_3_1867" x1="14.1364" y1="12.4631" x2="14.1364" y2="43.4535" gradientUnits="userSpaceOnUse">
<stop stop-color="#494949"/>
<stop offset="1" stop-color="#2B2B2B"/>
</linearGradient>
<linearGradient id="paint1_linear_3_1867" x1="14.8667" y1="18.3322" x2="14.8667" y2="20.4655" gradientUnits="userSpaceOnUse">
<stop stop-color="#494949"/>
<stop offset="1" stop-color="#2B2B2B"/>
</linearGradient>
<linearGradient id="paint2_linear_3_1867" x1="41.5839" y1="25.3667" x2="41.5839" y2="28.4655" gradientUnits="userSpaceOnUse">
<stop stop-color="#E9CD78"/>
<stop offset="1" stop-color="#E7B61D"/>
</linearGradient>
</defs>
</svg>
