<svg width="66" height="67" viewBox="0 0 66 67" fill="none" xmlns="http://www.w3.org/2000/svg">
<rect x="0.5" y="1.03223" width="65" height="65" rx="14.5" fill="white"/>
<rect x="0.5" y="1.03223" width="65" height="65" rx="14.5" stroke="#CBD5E1"/>
<g filter="url(#filter0_i_3_1869)">
<path d="M48.4727 13.2679H17.5394C15.772 13.2679 14.3394 14.7006 14.3394 16.4679V21.2679C14.3394 23.0353 15.772 24.4679 17.5394 24.4679H48.4727C50.24 24.4679 51.6727 23.0353 51.6727 21.2679V16.4679C51.6727 14.7006 50.24 13.2679 48.4727 13.2679Z" fill="#C4C4C4"/>
</g>
<path fill-rule="evenodd" clip-rule="evenodd" d="M21.7729 17.6298L25.7752 21.8093H29.954L23.9938 15.3213L21.7729 17.6298Z" fill="url(#paint0_linear_3_1869)"/>
<g filter="url(#filter1_d_3_1869)">
<path fill-rule="evenodd" clip-rule="evenodd" d="M22.8725 18.068C23.7561 18.068 24.4725 17.3517 24.4725 16.468C24.4725 15.5844 23.7561 14.868 22.8725 14.868C21.9888 14.868 21.2725 15.5844 21.2725 16.468C21.2725 17.3517 21.9888 18.068 22.8725 18.068Z" fill="#EFEFEF"/>
</g>
<path fill-rule="evenodd" clip-rule="evenodd" d="M42.0396 17.6298L46.0418 21.8093H50.2206L44.2603 15.3213L42.0396 17.6298Z" fill="url(#paint1_linear_3_1869)"/>
<g filter="url(#filter2_d_3_1869)">
<path fill-rule="evenodd" clip-rule="evenodd" d="M43.1391 18.068C44.0227 18.068 44.7391 17.3517 44.7391 16.468C44.7391 15.5844 44.0227 14.868 43.1391 14.868C42.2554 14.868 41.5391 15.5844 41.5391 16.468C41.5391 17.3517 42.2554 18.068 43.1391 18.068Z" fill="#EFEFEF"/>
</g>
<g filter="url(#filter3_i_3_1869)">
<path fill-rule="evenodd" clip-rule="evenodd" d="M53.8706 22.8681C54.1405 21.101 52.8907 19.668 51.0786 19.668H14.9215C13.1108 19.668 11.8593 21.1007 12.1294 22.8681L14.2488 36.7329L13.1011 50.5963C12.831 52.3636 15.1874 53.7964 16.9981 53.7964H49.1893C51.0014 53.7964 52.8174 52.3633 52.5474 50.5963L51.7513 36.7333L53.8706 22.8681Z" fill="#4687F4"/>
</g>
<g filter="url(#filter4_i_3_1869)">
<path fill-rule="evenodd" clip-rule="evenodd" d="M14.9215 19.668H51.0786C52.8907 19.668 54.1405 21.101 53.8706 22.8681L51.751 36.7346H14.249L12.1294 22.8681C11.8593 21.1007 13.1108 19.668 14.9215 19.668Z" fill="#3866D0"/>
</g>
<path fill-rule="evenodd" clip-rule="evenodd" d="M49.1903 53.7964C51.0024 53.7964 52.8184 52.3634 52.5484 50.5963L51.7455 36.9967H14.2307L30.4303 53.7964H49.1903Z" fill="url(#paint2_linear_3_1869)"/>
<path fill-rule="evenodd" clip-rule="evenodd" d="M35.597 30.1215L42.5559 27.4618V45.8609H40.4078V30.4351L35.597 32.2262V30.1215ZM25.1833 35.5491H27.2654C28.3226 35.5491 29.071 35.281 29.5108 34.7449C29.9507 34.2087 30.1706 33.4618 30.1706 32.5041C30.1706 31.481 29.9204 30.7034 29.42 30.1713C28.9197 29.6393 28.1813 29.3733 27.2048 29.3733C26.2768 29.3733 25.5323 29.6495 24.9715 30.2021C24.4106 30.7545 24.1302 31.4892 24.1302 32.406H21.8423L21.8181 32.3322C21.7778 30.9817 22.2599 29.8337 23.2646 28.8883C24.2694 27.9429 25.5828 27.4702 27.2048 27.4702C28.835 27.4702 30.1342 27.9102 31.1027 28.7901C32.0711 29.67 32.5552 30.9244 32.5552 32.5533C32.5552 33.29 32.3354 34.0246 31.8955 34.7572C31.4557 35.4897 30.796 36.0484 29.9164 36.4331C30.9735 36.7851 31.722 37.3376 32.1619 38.0906C32.6016 38.8437 32.8216 39.6868 32.8216 40.6199C32.8216 42.2488 32.295 43.5297 31.2419 44.4629C30.1887 45.396 28.843 45.8626 27.2048 45.8626C25.5989 45.8626 24.2694 45.4226 23.2162 44.5427C22.1631 43.6628 21.6567 42.4698 21.6971 40.9637L21.7334 40.89H24.0091C24.0091 41.8313 24.2936 42.5802 24.8625 43.1369C25.4315 43.6935 26.2122 43.9718 27.2048 43.9718C28.2136 43.9718 29.0045 43.6935 29.5774 43.1369C30.1504 42.5802 30.4369 41.7576 30.4369 40.669C30.4369 39.564 30.1827 38.7495 29.6743 38.2257C29.1659 37.7018 28.3629 37.4399 27.2654 37.4399H25.1833V35.5491Z" fill="#EEEEEE"/>
<path fill-rule="evenodd" clip-rule="evenodd" d="M30.6541 36.7361H25.1832V35.5491H27.2653C28.3224 35.5491 29.0709 35.281 29.5108 34.7449C29.9505 34.2087 30.1705 33.4618 30.1705 32.5041C30.1705 31.481 29.9203 30.7034 29.42 30.1713C28.9196 29.6393 28.1812 29.3733 27.2047 29.3733C26.2767 29.3733 25.5323 29.6495 24.9713 30.2021C24.4105 30.7545 24.1301 31.4892 24.1301 32.406H21.8422L21.818 32.3322C21.7776 30.9817 22.2598 29.8337 23.2646 28.8883C24.2693 27.9429 25.5827 27.4702 27.2047 27.4702C28.8349 27.4702 30.1342 27.9102 31.1025 28.7901C32.071 29.67 32.5552 30.9244 32.5552 32.5533C32.5552 33.29 32.3352 34.0246 31.8955 34.7572C31.4556 35.4897 30.7959 36.0484 29.9163 36.4331C30.1816 36.5215 30.4276 36.6224 30.6541 36.7361ZM42.5559 36.7269V27.4618L35.5969 30.1215V32.2262L40.4077 30.4351V36.7269H42.5559Z" fill="#D4D4D4"/>
<g filter="url(#filter5_i_3_1869)">
<path fill-rule="evenodd" clip-rule="evenodd" d="M16.9988 53.7964H49.19C51.0022 53.7964 52.8182 52.3633 52.5481 50.5963L51.7518 36.7297H14.2497L13.1019 50.5963C12.8317 52.3637 15.1881 53.7964 16.9988 53.7964Z" fill="black" fill-opacity="0.01"/>
</g>
<defs>
<filter id="filter0_i_3_1869" x="14.3394" y="13.2679" width="37.3333" height="12.2" filterUnits="userSpaceOnUse" color-interpolation-filters="sRGB">
<feFlood flood-opacity="0" result="BackgroundImageFix"/>
<feBlend mode="normal" in="SourceGraphic" in2="BackgroundImageFix" result="shape"/>
<feColorMatrix in="SourceAlpha" type="matrix" values="0 0 0 0 0 0 0 0 0 0 0 0 0 0 0 0 0 0 127 0" result="hardAlpha"/>
<feOffset dy="1"/>
<feGaussianBlur stdDeviation="2"/>
<feComposite in2="hardAlpha" operator="arithmetic" k2="-1" k3="1"/>
<feColorMatrix type="matrix" values="0 0 0 0 0.792157 0 0 0 0 0.792157 0 0 0 0 0.792157 0 0 0 1 0"/>
<feBlend mode="normal" in2="shape" result="effect1_innerShadow_3_1869"/>
</filter>
<filter id="filter1_d_3_1869" x="20.7725" y="14.868" width="5.19995" height="5.19995" filterUnits="userSpaceOnUse" color-interpolation-filters="sRGB">
<feFlood flood-opacity="0" result="BackgroundImageFix"/>
<feColorMatrix in="SourceAlpha" type="matrix" values="0 0 0 0 0 0 0 0 0 0 0 0 0 0 0 0 0 0 127 0" result="hardAlpha"/>
<feOffset dx="0.5" dy="1"/>
<feGaussianBlur stdDeviation="0.5"/>
<feColorMatrix type="matrix" values="0 0 0 0 0 0 0 0 0 0 0 0 0 0 0 0 0 0 0.1 0"/>
<feBlend mode="normal" in2="BackgroundImageFix" result="effect1_dropShadow_3_1869"/>
<feBlend mode="normal" in="SourceGraphic" in2="effect1_dropShadow_3_1869" result="shape"/>
</filter>
<filter id="filter2_d_3_1869" x="41.0391" y="14.868" width="5.19995" height="5.19995" filterUnits="userSpaceOnUse" color-interpolation-filters="sRGB">
<feFlood flood-opacity="0" result="BackgroundImageFix"/>
<feColorMatrix in="SourceAlpha" type="matrix" values="0 0 0 0 0 0 0 0 0 0 0 0 0 0 0 0 0 0 127 0" result="hardAlpha"/>
<feOffset dx="0.5" dy="1"/>
<feGaussianBlur stdDeviation="0.5"/>
<feColorMatrix type="matrix" values="0 0 0 0 0 0 0 0 0 0 0 0 0 0 0 0 0 0 0.1 0"/>
<feBlend mode="normal" in2="BackgroundImageFix" result="effect1_dropShadow_3_1869"/>
<feBlend mode="normal" in="SourceGraphic" in2="effect1_dropShadow_3_1869" result="shape"/>
</filter>
<filter id="filter3_i_3_1869" x="12.0928" y="18.668" width="41.8145" height="35.1284" filterUnits="userSpaceOnUse" color-interpolation-filters="sRGB">
<feFlood flood-opacity="0" result="BackgroundImageFix"/>
<feBlend mode="normal" in="SourceGraphic" in2="BackgroundImageFix" result="shape"/>
<feColorMatrix in="SourceAlpha" type="matrix" values="0 0 0 0 0 0 0 0 0 0 0 0 0 0 0 0 0 0 127 0" result="hardAlpha"/>
<feOffset dy="-1"/>
<feGaussianBlur stdDeviation="2"/>
<feComposite in2="hardAlpha" operator="arithmetic" k2="-1" k3="1"/>
<feColorMatrix type="matrix" values="0 0 0 0 0.258824 0 0 0 0 0.494118 0 0 0 0 0.913725 0 0 0 1 0"/>
<feBlend mode="normal" in2="shape" result="effect1_innerShadow_3_1869"/>
</filter>
<filter id="filter4_i_3_1869" x="12.0928" y="19.668" width="41.8145" height="18.0667" filterUnits="userSpaceOnUse" color-interpolation-filters="sRGB">
<feFlood flood-opacity="0" result="BackgroundImageFix"/>
<feBlend mode="normal" in="SourceGraphic" in2="BackgroundImageFix" result="shape"/>
<feColorMatrix in="SourceAlpha" type="matrix" values="0 0 0 0 0 0 0 0 0 0 0 0 0 0 0 0 0 0 127 0" result="hardAlpha"/>
<feOffset dy="1"/>
<feGaussianBlur stdDeviation="2"/>
<feComposite in2="hardAlpha" operator="arithmetic" k2="-1" k3="1"/>
<feColorMatrix type="matrix" values="0 0 0 0 0.282353 0 0 0 0 0.45098 0 0 0 0 0.831373 0 0 0 1 0"/>
<feBlend mode="normal" in2="shape" result="effect1_innerShadow_3_1869"/>
</filter>
<filter id="filter5_i_3_1869" x="13.0806" y="36.7297" width="39.4944" height="17.5667" filterUnits="userSpaceOnUse" color-interpolation-filters="sRGB">
<feFlood flood-opacity="0" result="BackgroundImageFix"/>
<feBlend mode="normal" in="SourceGraphic" in2="BackgroundImageFix" result="shape"/>
<feColorMatrix in="SourceAlpha" type="matrix" values="0 0 0 0 0 0 0 0 0 0 0 0 0 0 0 0 0 0 127 0" result="hardAlpha"/>
<feOffset dy="0.5"/>
<feGaussianBlur stdDeviation="2"/>
<feComposite in2="hardAlpha" operator="arithmetic" k2="-1" k3="1"/>
<feColorMatrix type="matrix" values="0 0 0 0 0.588542 0 0 0 0 0.588542 0 0 0 0 0.588542 0 0 0 0.2 0"/>
<feBlend mode="normal" in2="shape" result="effect1_innerShadow_3_1869"/>
</filter>
<linearGradient id="paint0_linear_3_1869" x1="19.8932" y1="18.3786" x2="23.0545" y2="24.2565" gradientUnits="userSpaceOnUse">
<stop stop-color="#B0B0B0"/>
<stop offset="1" stop-color="#D8D8D8" stop-opacity="0.01"/>
</linearGradient>
<linearGradient id="paint1_linear_3_1869" x1="40.1598" y1="18.3786" x2="43.3212" y2="24.2565" gradientUnits="userSpaceOnUse">
<stop stop-color="#B0B0B0"/>
<stop offset="1" stop-color="#D8D8D8" stop-opacity="0.01"/>
</linearGradient>
<linearGradient id="paint2_linear_3_1869" x1="19.6487" y1="38.9386" x2="21.4398" y2="54.8659" gradientUnits="userSpaceOnUse">
<stop stop-color="#3C78DD"/>
<stop offset="1" stop-color="#4688F4" stop-opacity="0.01"/>
</linearGradient>
</defs>
</svg>
