<svg width="66" height="67" viewBox="0 0 66 67" fill="none" xmlns="http://www.w3.org/2000/svg">
<rect x="0.5" y="1.03223" width="65" height="65" rx="14.5" fill="white"/>
<rect x="0.5" y="1.03223" width="65" height="65" rx="14.5" stroke="#CBD5E1"/>
<path fill-rule="evenodd" clip-rule="evenodd" d="M24.1024 44.7273C24.1024 44.7273 27.2922 41.2052 32.6085 41.2052C37.9248 41.2052 41.52 44.7273 41.52 44.7273L32.8112 54.252L24.1024 44.7273ZM19.235 40.0279C19.235 40.0279 24.8462 34.406 32.811 34.3537C40.7758 34.3009 46.555 40.0279 46.555 40.0279L51.5987 34.3532C51.5987 34.3532 43.4974 26.8407 32.811 26.8929C22.1246 26.9457 13.9811 34.6689 13.9811 34.6689L19.235 40.0279ZM9.67287 29.4676C9.67287 29.4676 20.1177 20.2207 32.811 20.2207C45.5043 20.2207 56.0119 29.4676 56.0119 29.4676L61.0557 23.9508C61.0557 23.9508 48.6041 12.7604 32.7902 12.8127C16.9758 12.8655 4.94434 24.1087 4.94434 24.1087L9.67287 29.4676Z" fill="url(#paint0_linear_3_1871)"/>
<defs>
<linearGradient id="paint0_linear_3_1871" x1="4.94434" y1="12.8125" x2="4.94434" y2="54.252" gradientUnits="userSpaceOnUse">
<stop stop-color="#19DEFE"/>
<stop offset="1" stop-color="#1E5BEF"/>
</linearGradient>
</defs>
</svg>
