<svg width="452" height="49" viewBox="0 0 452 49" fill="none" xmlns="http://www.w3.org/2000/svg">
<path d="M5.52344 18.125V29.5H4.03906V18.125H5.52344ZM9.17969 18.125V19.3594H0.390625V18.125H9.17969ZM13.375 29.6562C12.7865 29.6562 12.2526 29.5573 11.7734 29.3594C11.2995 29.1562 10.8906 28.8724 10.5469 28.5078C10.2083 28.1432 9.94792 27.7109 9.76562 27.2109C9.58333 26.7109 9.49219 26.1641 9.49219 25.5703V25.2422C9.49219 24.5547 9.59375 23.9427 9.79688 23.4062C10 22.8646 10.276 22.4062 10.625 22.0312C10.974 21.6562 11.3698 21.3724 11.8125 21.1797C12.2552 20.987 12.7135 20.8906 13.1875 20.8906C13.7917 20.8906 14.3125 20.9948 14.75 21.2031C15.1927 21.4115 15.5547 21.7031 15.8359 22.0781C16.1172 22.4479 16.3255 22.8854 16.4609 23.3906C16.5964 23.8906 16.6641 24.4375 16.6641 25.0312V25.6797H10.3516V24.5H15.2188V24.3906C15.1979 24.0156 15.1198 23.651 14.9844 23.2969C14.8542 22.9427 14.6458 22.651 14.3594 22.4219C14.0729 22.1927 13.6823 22.0781 13.1875 22.0781C12.8594 22.0781 12.5573 22.1484 12.2812 22.2891C12.0052 22.4245 11.7682 22.6276 11.5703 22.8984C11.3724 23.1693 11.2188 23.5 11.1094 23.8906C11 24.2812 10.9453 24.7318 10.9453 25.2422V25.5703C10.9453 25.9714 11 26.349 11.1094 26.7031C11.224 27.0521 11.388 27.3594 11.6016 27.625C11.8203 27.8906 12.0833 28.099 12.3906 28.25C12.7031 28.401 13.0573 28.4766 13.4531 28.4766C13.9635 28.4766 14.3958 28.3724 14.75 28.1641C15.1042 27.9557 15.4141 27.6771 15.6797 27.3281L16.5547 28.0234C16.3724 28.2995 16.1406 28.5625 15.8594 28.8125C15.5781 29.0625 15.2318 29.2656 14.8203 29.4219C14.4141 29.5781 13.9323 29.6562 13.375 29.6562ZM19.7969 22.375V29.5H18.3516V21.0469H19.7578L19.7969 22.375ZM22.4375 21L22.4297 22.3438C22.3099 22.3177 22.1953 22.3021 22.0859 22.2969C21.9818 22.2865 21.862 22.2812 21.7266 22.2812C21.3932 22.2812 21.099 22.3333 20.8438 22.4375C20.5885 22.5417 20.3724 22.6875 20.1953 22.875C20.0182 23.0625 19.8776 23.2865 19.7734 23.5469C19.6745 23.8021 19.6094 24.0833 19.5781 24.3906L19.1719 24.625C19.1719 24.1146 19.2214 23.6354 19.3203 23.1875C19.4245 22.7396 19.5833 22.3438 19.7969 22C20.0104 21.651 20.2812 21.3802 20.6094 21.1875C20.9427 20.9896 21.3385 20.8906 21.7969 20.8906C21.901 20.8906 22.0208 20.9036 22.1562 20.9297C22.2917 20.9505 22.3854 20.974 22.4375 21ZM25.2109 22.7266V29.5H23.7578V21.0469H25.1328L25.2109 22.7266ZM24.9141 24.9531L24.2422 24.9297C24.2474 24.3516 24.3229 23.8177 24.4688 23.3281C24.6146 22.8333 24.8307 22.4036 25.1172 22.0391C25.4036 21.6745 25.7604 21.3932 26.1875 21.1953C26.6146 20.9922 27.1094 20.8906 27.6719 20.8906C28.0677 20.8906 28.4323 20.9479 28.7656 21.0625C29.099 21.1719 29.388 21.3464 29.6328 21.5859C29.8776 21.8255 30.0677 22.1328 30.2031 22.5078C30.3385 22.8828 30.4062 23.3359 30.4062 23.8672V29.5H28.9609V23.9375C28.9609 23.4948 28.8854 23.1406 28.7344 22.875C28.5885 22.6094 28.3802 22.4167 28.1094 22.2969C27.8385 22.1719 27.5208 22.1094 27.1562 22.1094C26.7292 22.1094 26.3724 22.1849 26.0859 22.3359C25.7995 22.487 25.5703 22.6953 25.3984 22.9609C25.2266 23.2266 25.1016 23.5312 25.0234 23.875C24.9505 24.2135 24.9141 24.5729 24.9141 24.9531ZM30.3906 24.1562L29.4219 24.4531C29.4271 23.9896 29.5026 23.5443 29.6484 23.1172C29.7995 22.6901 30.0156 22.3099 30.2969 21.9766C30.5833 21.6432 30.9349 21.3802 31.3516 21.1875C31.7682 20.9896 32.2448 20.8906 32.7812 20.8906C33.2344 20.8906 33.6354 20.9505 33.9844 21.0703C34.3385 21.1901 34.6354 21.375 34.875 21.625C35.1198 21.8698 35.3047 22.1849 35.4297 22.5703C35.5547 22.9557 35.6172 23.4141 35.6172 23.9453V29.5H34.1641V23.9297C34.1641 23.4557 34.0885 23.0885 33.9375 22.8281C33.7917 22.5625 33.5833 22.3776 33.3125 22.2734C33.0469 22.1641 32.7292 22.1094 32.3594 22.1094C32.0417 22.1094 31.7604 22.1641 31.5156 22.2734C31.2708 22.3828 31.0651 22.5339 30.8984 22.7266C30.7318 22.9141 30.6042 23.1302 30.5156 23.375C30.4323 23.6198 30.3906 23.8802 30.3906 24.1562ZM42.7266 27.2578C42.7266 27.0495 42.6797 26.8568 42.5859 26.6797C42.4974 26.4974 42.3125 26.3333 42.0312 26.1875C41.7552 26.0365 41.3385 25.9062 40.7812 25.7969C40.3125 25.6979 39.888 25.5807 39.5078 25.4453C39.1328 25.3099 38.8125 25.1458 38.5469 24.9531C38.2865 24.7604 38.0859 24.5339 37.9453 24.2734C37.8047 24.013 37.7344 23.7083 37.7344 23.3594C37.7344 23.026 37.8073 22.7109 37.9531 22.4141C38.1042 22.1172 38.3151 21.8542 38.5859 21.625C38.862 21.3958 39.1927 21.2161 39.5781 21.0859C39.9635 20.9557 40.3932 20.8906 40.8672 20.8906C41.5443 20.8906 42.1224 21.0104 42.6016 21.25C43.0807 21.4896 43.4479 21.8099 43.7031 22.2109C43.9583 22.6068 44.0859 23.0469 44.0859 23.5312H42.6406C42.6406 23.2969 42.5703 23.0703 42.4297 22.8516C42.2943 22.6276 42.0938 22.4427 41.8281 22.2969C41.5677 22.151 41.2474 22.0781 40.8672 22.0781C40.4661 22.0781 40.1406 22.1406 39.8906 22.2656C39.6458 22.3854 39.4661 22.5391 39.3516 22.7266C39.2422 22.9141 39.1875 23.112 39.1875 23.3203C39.1875 23.4766 39.2135 23.6172 39.2656 23.7422C39.3229 23.862 39.4219 23.974 39.5625 24.0781C39.7031 24.1771 39.901 24.2708 40.1562 24.3594C40.4115 24.4479 40.737 24.5365 41.1328 24.625C41.8255 24.7812 42.3958 24.9688 42.8438 25.1875C43.2917 25.4062 43.625 25.6745 43.8438 25.9922C44.0625 26.3099 44.1719 26.6953 44.1719 27.1484C44.1719 27.5182 44.0938 27.8568 43.9375 28.1641C43.7865 28.4714 43.5651 28.737 43.2734 28.9609C42.987 29.1797 42.6432 29.3516 42.2422 29.4766C41.8464 29.5964 41.401 29.6562 40.9062 29.6562C40.1615 29.6562 39.5312 29.5234 39.0156 29.2578C38.5 28.9922 38.1094 28.6484 37.8438 28.2266C37.5781 27.8047 37.4453 27.3594 37.4453 26.8906H38.8984C38.9193 27.2865 39.0339 27.6016 39.2422 27.8359C39.4505 28.0651 39.7057 28.2292 40.0078 28.3281C40.3099 28.4219 40.6094 28.4688 40.9062 28.4688C41.3021 28.4688 41.6328 28.4167 41.8984 28.3125C42.1693 28.2083 42.375 28.0651 42.5156 27.8828C42.6562 27.7005 42.7266 27.4922 42.7266 27.2578Z" fill="#E2E8F0"/>
<path d="M82.5156 25.0391H79.4766V23.8125H82.5156C83.1042 23.8125 83.5807 23.7188 83.9453 23.5312C84.3099 23.3438 84.5755 23.0833 84.7422 22.75C84.9141 22.4167 85 22.0365 85 21.6094C85 21.2188 84.9141 20.8516 84.7422 20.5078C84.5755 20.1641 84.3099 19.888 83.9453 19.6797C83.5807 19.4661 83.1042 19.3594 82.5156 19.3594H79.8281V29.5H78.3203V18.125H82.5156C83.375 18.125 84.1016 18.2734 84.6953 18.5703C85.2891 18.8672 85.7396 19.2786 86.0469 19.8047C86.3542 20.3255 86.5078 20.9219 86.5078 21.5938C86.5078 22.3229 86.3542 22.9453 86.0469 23.4609C85.7396 23.9766 85.2891 24.3698 84.6953 24.6406C84.1016 24.9062 83.375 25.0391 82.5156 25.0391ZM89.6406 22.375V29.5H88.1953V21.0469H89.6016L89.6406 22.375ZM92.2812 21L92.2734 22.3438C92.1536 22.3177 92.0391 22.3021 91.9297 22.2969C91.8255 22.2865 91.7057 22.2812 91.5703 22.2812C91.237 22.2812 90.9427 22.3333 90.6875 22.4375C90.4323 22.5417 90.2161 22.6875 90.0391 22.875C89.862 23.0625 89.7214 23.2865 89.6172 23.5469C89.5182 23.8021 89.4531 24.0833 89.4219 24.3906L89.0156 24.625C89.0156 24.1146 89.0651 23.6354 89.1641 23.1875C89.2682 22.7396 89.4271 22.3438 89.6406 22C89.8542 21.651 90.125 21.3802 90.4531 21.1875C90.7865 20.9896 91.1823 20.8906 91.6406 20.8906C91.7448 20.8906 91.8646 20.9036 92 20.9297C92.1354 20.9505 92.2292 20.974 92.2812 21ZM95.1875 21.0469V29.5H93.7344V21.0469H95.1875ZM93.625 18.8047C93.625 18.5703 93.6953 18.3724 93.8359 18.2109C93.9818 18.0495 94.1953 17.9688 94.4766 17.9688C94.7526 17.9688 94.9635 18.0495 95.1094 18.2109C95.2604 18.3724 95.3359 18.5703 95.3359 18.8047C95.3359 19.0286 95.2604 19.2214 95.1094 19.3828C94.9635 19.5391 94.7526 19.6172 94.4766 19.6172C94.1953 19.6172 93.9818 19.5391 93.8359 19.3828C93.6953 19.2214 93.625 19.0286 93.625 18.8047ZM100.078 28.1953L102.391 21.0469H103.867L100.828 29.5H99.8594L100.078 28.1953ZM98.1484 21.0469L100.531 28.2344L100.695 29.5H99.7266L96.6641 21.0469H98.1484ZM110.117 28.0547V23.7031C110.117 23.3698 110.049 23.0807 109.914 22.8359C109.784 22.5859 109.586 22.3932 109.32 22.2578C109.055 22.1224 108.727 22.0547 108.336 22.0547C107.971 22.0547 107.651 22.1172 107.375 22.2422C107.104 22.3672 106.891 22.5312 106.734 22.7344C106.583 22.9375 106.508 23.1562 106.508 23.3906H105.062C105.062 23.0885 105.141 22.7891 105.297 22.4922C105.453 22.1953 105.677 21.9271 105.969 21.6875C106.266 21.4427 106.62 21.25 107.031 21.1094C107.448 20.9635 107.911 20.8906 108.422 20.8906C109.036 20.8906 109.578 20.9948 110.047 21.2031C110.521 21.4115 110.891 21.7266 111.156 22.1484C111.427 22.5651 111.562 23.0885 111.562 23.7188V27.6562C111.562 27.9375 111.586 28.237 111.633 28.5547C111.685 28.8724 111.76 29.1458 111.859 29.375V29.5H110.352C110.279 29.3333 110.221 29.112 110.18 28.8359C110.138 28.5547 110.117 28.2943 110.117 28.0547ZM110.367 24.375L110.383 25.3906H108.922C108.51 25.3906 108.143 25.4245 107.82 25.4922C107.497 25.5547 107.227 25.651 107.008 25.7812C106.789 25.9115 106.622 26.0755 106.508 26.2734C106.393 26.4661 106.336 26.6927 106.336 26.9531C106.336 27.2188 106.396 27.4609 106.516 27.6797C106.635 27.8984 106.815 28.0729 107.055 28.2031C107.299 28.3281 107.599 28.3906 107.953 28.3906C108.396 28.3906 108.786 28.2969 109.125 28.1094C109.464 27.9219 109.732 27.6927 109.93 27.4219C110.133 27.151 110.242 26.888 110.258 26.6328L110.875 27.3281C110.839 27.5469 110.74 27.7891 110.578 28.0547C110.417 28.3203 110.201 28.5755 109.93 28.8203C109.664 29.0599 109.346 29.2604 108.977 29.4219C108.612 29.5781 108.201 29.6562 107.742 29.6562C107.169 29.6562 106.667 29.5443 106.234 29.3203C105.807 29.0964 105.474 28.7969 105.234 28.4219C105 28.0417 104.883 27.6172 104.883 27.1484C104.883 26.6953 104.971 26.2969 105.148 25.9531C105.326 25.6042 105.581 25.3151 105.914 25.0859C106.247 24.8516 106.648 24.6745 107.117 24.5547C107.586 24.4349 108.109 24.375 108.688 24.375H110.367ZM117.219 28.4688C117.562 28.4688 117.88 28.3984 118.172 28.2578C118.464 28.1172 118.703 27.9245 118.891 27.6797C119.078 27.4297 119.185 27.1458 119.211 26.8281H120.586C120.56 27.3281 120.391 27.7943 120.078 28.2266C119.771 28.6536 119.367 29 118.867 29.2656C118.367 29.526 117.818 29.6562 117.219 29.6562C116.583 29.6562 116.029 29.5443 115.555 29.3203C115.086 29.0964 114.695 28.7891 114.383 28.3984C114.076 28.0078 113.844 27.5599 113.688 27.0547C113.536 26.5443 113.461 26.0052 113.461 25.4375V25.1094C113.461 24.5417 113.536 24.0052 113.688 23.5C113.844 22.9896 114.076 22.5391 114.383 22.1484C114.695 21.7578 115.086 21.4505 115.555 21.2266C116.029 21.0026 116.583 20.8906 117.219 20.8906C117.88 20.8906 118.458 21.026 118.953 21.2969C119.448 21.5625 119.836 21.9271 120.117 22.3906C120.404 22.849 120.56 23.3698 120.586 23.9531H119.211C119.185 23.6042 119.086 23.2891 118.914 23.0078C118.747 22.7266 118.518 22.5026 118.227 22.3359C117.94 22.1641 117.604 22.0781 117.219 22.0781C116.776 22.0781 116.404 22.1667 116.102 22.3438C115.805 22.5156 115.568 22.75 115.391 23.0469C115.219 23.3385 115.094 23.6641 115.016 24.0234C114.943 24.3776 114.906 24.7396 114.906 25.1094V25.4375C114.906 25.8073 114.943 26.1719 115.016 26.5312C115.089 26.8906 115.211 27.2161 115.383 27.5078C115.56 27.7995 115.797 28.0339 116.094 28.2109C116.396 28.3828 116.771 28.4688 117.219 28.4688ZM124.586 28.625L126.938 21.0469H128.484L125.094 30.8047C125.016 31.013 124.911 31.237 124.781 31.4766C124.656 31.7214 124.495 31.9531 124.297 32.1719C124.099 32.3906 123.859 32.5677 123.578 32.7031C123.302 32.8438 122.971 32.9141 122.586 32.9141C122.471 32.9141 122.326 32.8984 122.148 32.8672C121.971 32.8359 121.846 32.8099 121.773 32.7891L121.766 31.6172C121.807 31.6224 121.872 31.6276 121.961 31.6328C122.055 31.6432 122.12 31.6484 122.156 31.6484C122.484 31.6484 122.763 31.6042 122.992 31.5156C123.221 31.4323 123.414 31.2891 123.57 31.0859C123.732 30.888 123.87 30.6146 123.984 30.2656L124.586 28.625ZM122.859 21.0469L125.055 27.6094L125.43 29.1328L124.391 29.6641L121.281 21.0469H122.859Z" fill="#E2E8F0"/>
<path d="M169.188 25.8828H170.688C170.609 26.6016 170.404 27.2448 170.07 27.8125C169.737 28.3802 169.266 28.8307 168.656 29.1641C168.047 29.4922 167.286 29.6562 166.375 29.6562C165.708 29.6562 165.102 29.5312 164.555 29.2812C164.013 29.0312 163.547 28.6771 163.156 28.2188C162.766 27.7552 162.464 27.2005 162.25 26.5547C162.042 25.9036 161.938 25.1797 161.938 24.3828V23.25C161.938 22.4531 162.042 21.7318 162.25 21.0859C162.464 20.4349 162.768 19.8776 163.164 19.4141C163.565 18.9505 164.047 18.5938 164.609 18.3438C165.172 18.0938 165.805 17.9688 166.508 17.9688C167.367 17.9688 168.094 18.1302 168.688 18.4531C169.281 18.776 169.742 19.224 170.07 19.7969C170.404 20.3646 170.609 21.0234 170.688 21.7734H169.188C169.115 21.2422 168.979 20.7865 168.781 20.4062C168.583 20.0208 168.302 19.724 167.938 19.5156C167.573 19.3073 167.096 19.2031 166.508 19.2031C166.003 19.2031 165.557 19.2995 165.172 19.4922C164.792 19.6849 164.471 19.9583 164.211 20.3125C163.956 20.6667 163.763 21.0911 163.633 21.5859C163.503 22.0807 163.438 22.6302 163.438 23.2344V24.3828C163.438 24.9401 163.495 25.4635 163.609 25.9531C163.729 26.4427 163.909 26.8724 164.148 27.2422C164.388 27.612 164.693 27.9036 165.062 28.1172C165.432 28.3255 165.87 28.4297 166.375 28.4297C167.016 28.4297 167.526 28.3281 167.906 28.125C168.286 27.9219 168.573 27.6302 168.766 27.25C168.964 26.8698 169.104 26.4141 169.188 25.8828ZM172.141 25.3672V25.1875C172.141 24.5781 172.229 24.013 172.406 23.4922C172.583 22.9661 172.839 22.5104 173.172 22.125C173.505 21.7344 173.909 21.4323 174.383 21.2188C174.857 21 175.388 20.8906 175.977 20.8906C176.57 20.8906 177.104 21 177.578 21.2188C178.057 21.4323 178.464 21.7344 178.797 22.125C179.135 22.5104 179.393 22.9661 179.57 23.4922C179.747 24.013 179.836 24.5781 179.836 25.1875V25.3672C179.836 25.9766 179.747 26.5417 179.57 27.0625C179.393 27.5833 179.135 28.0391 178.797 28.4297C178.464 28.8151 178.06 29.1172 177.586 29.3359C177.117 29.5495 176.586 29.6562 175.992 29.6562C175.398 29.6562 174.865 29.5495 174.391 29.3359C173.917 29.1172 173.51 28.8151 173.172 28.4297C172.839 28.0391 172.583 27.5833 172.406 27.0625C172.229 26.5417 172.141 25.9766 172.141 25.3672ZM173.586 25.1875V25.3672C173.586 25.7891 173.635 26.1875 173.734 26.5625C173.833 26.9323 173.982 27.2604 174.18 27.5469C174.383 27.8333 174.635 28.0599 174.938 28.2266C175.24 28.388 175.591 28.4688 175.992 28.4688C176.388 28.4688 176.734 28.388 177.031 28.2266C177.333 28.0599 177.583 27.8333 177.781 27.5469C177.979 27.2604 178.128 26.9323 178.227 26.5625C178.331 26.1875 178.383 25.7891 178.383 25.3672V25.1875C178.383 24.7708 178.331 24.3776 178.227 24.0078C178.128 23.6328 177.977 23.3021 177.773 23.0156C177.576 22.724 177.326 22.4948 177.023 22.3281C176.727 22.1615 176.378 22.0781 175.977 22.0781C175.581 22.0781 175.232 22.1615 174.93 22.3281C174.633 22.4948 174.383 22.724 174.18 23.0156C173.982 23.3021 173.833 23.6328 173.734 24.0078C173.635 24.3776 173.586 24.7708 173.586 25.1875ZM183.094 22.8516V29.5H181.648V21.0469H183.016L183.094 22.8516ZM182.75 24.9531L182.148 24.9297C182.154 24.3516 182.24 23.8177 182.406 23.3281C182.573 22.8333 182.807 22.4036 183.109 22.0391C183.411 21.6745 183.771 21.3932 184.188 21.1953C184.609 20.9922 185.076 20.8906 185.586 20.8906C186.003 20.8906 186.378 20.9479 186.711 21.0625C187.044 21.1719 187.328 21.349 187.562 21.5938C187.802 21.8385 187.984 22.1562 188.109 22.5469C188.234 22.9323 188.297 23.4036 188.297 23.9609V29.5H186.844V23.9453C186.844 23.5026 186.779 23.1484 186.648 22.8828C186.518 22.612 186.328 22.4167 186.078 22.2969C185.828 22.1719 185.521 22.1094 185.156 22.1094C184.797 22.1094 184.469 22.1849 184.172 22.3359C183.88 22.487 183.628 22.6953 183.414 22.9609C183.206 23.2266 183.042 23.5312 182.922 23.875C182.807 24.2135 182.75 24.5729 182.75 24.9531ZM194.031 21.0469V22.1562H189.461V21.0469H194.031ZM191.008 18.9922H192.453V27.4062C192.453 27.6927 192.497 27.9089 192.586 28.0547C192.674 28.2005 192.789 28.2969 192.93 28.3438C193.07 28.3906 193.221 28.4141 193.383 28.4141C193.503 28.4141 193.628 28.4036 193.758 28.3828C193.893 28.3568 193.995 28.3359 194.062 28.3203L194.07 29.5C193.956 29.5365 193.805 29.5703 193.617 29.6016C193.435 29.638 193.214 29.6562 192.953 29.6562C192.599 29.6562 192.273 29.5859 191.977 29.4453C191.68 29.3047 191.443 29.0703 191.266 28.7422C191.094 28.4089 191.008 27.9609 191.008 27.3984V18.9922ZM200.711 28.0547V23.7031C200.711 23.3698 200.643 23.0807 200.508 22.8359C200.378 22.5859 200.18 22.3932 199.914 22.2578C199.648 22.1224 199.32 22.0547 198.93 22.0547C198.565 22.0547 198.245 22.1172 197.969 22.2422C197.698 22.3672 197.484 22.5312 197.328 22.7344C197.177 22.9375 197.102 23.1562 197.102 23.3906H195.656C195.656 23.0885 195.734 22.7891 195.891 22.4922C196.047 22.1953 196.271 21.9271 196.562 21.6875C196.859 21.4427 197.214 21.25 197.625 21.1094C198.042 20.9635 198.505 20.8906 199.016 20.8906C199.63 20.8906 200.172 20.9948 200.641 21.2031C201.115 21.4115 201.484 21.7266 201.75 22.1484C202.021 22.5651 202.156 23.0885 202.156 23.7188V27.6562C202.156 27.9375 202.18 28.237 202.227 28.5547C202.279 28.8724 202.354 29.1458 202.453 29.375V29.5H200.945C200.872 29.3333 200.815 29.112 200.773 28.8359C200.732 28.5547 200.711 28.2943 200.711 28.0547ZM200.961 24.375L200.977 25.3906H199.516C199.104 25.3906 198.737 25.4245 198.414 25.4922C198.091 25.5547 197.82 25.651 197.602 25.7812C197.383 25.9115 197.216 26.0755 197.102 26.2734C196.987 26.4661 196.93 26.6927 196.93 26.9531C196.93 27.2188 196.99 27.4609 197.109 27.6797C197.229 27.8984 197.409 28.0729 197.648 28.2031C197.893 28.3281 198.193 28.3906 198.547 28.3906C198.99 28.3906 199.38 28.2969 199.719 28.1094C200.057 27.9219 200.326 27.6927 200.523 27.4219C200.727 27.151 200.836 26.888 200.852 26.6328L201.469 27.3281C201.432 27.5469 201.333 27.7891 201.172 28.0547C201.01 28.3203 200.794 28.5755 200.523 28.8203C200.258 29.0599 199.94 29.2604 199.57 29.4219C199.206 29.5781 198.794 29.6562 198.336 29.6562C197.763 29.6562 197.26 29.5443 196.828 29.3203C196.401 29.0964 196.068 28.7969 195.828 28.4219C195.594 28.0417 195.477 27.6172 195.477 27.1484C195.477 26.6953 195.565 26.2969 195.742 25.9531C195.919 25.6042 196.174 25.3151 196.508 25.0859C196.841 24.8516 197.242 24.6745 197.711 24.5547C198.18 24.4349 198.703 24.375 199.281 24.375H200.961ZM207.812 28.4688C208.156 28.4688 208.474 28.3984 208.766 28.2578C209.057 28.1172 209.297 27.9245 209.484 27.6797C209.672 27.4297 209.779 27.1458 209.805 26.8281H211.18C211.154 27.3281 210.984 27.7943 210.672 28.2266C210.365 28.6536 209.961 29 209.461 29.2656C208.961 29.526 208.411 29.6562 207.812 29.6562C207.177 29.6562 206.622 29.5443 206.148 29.3203C205.68 29.0964 205.289 28.7891 204.977 28.3984C204.669 28.0078 204.438 27.5599 204.281 27.0547C204.13 26.5443 204.055 26.0052 204.055 25.4375V25.1094C204.055 24.5417 204.13 24.0052 204.281 23.5C204.438 22.9896 204.669 22.5391 204.977 22.1484C205.289 21.7578 205.68 21.4505 206.148 21.2266C206.622 21.0026 207.177 20.8906 207.812 20.8906C208.474 20.8906 209.052 21.026 209.547 21.2969C210.042 21.5625 210.43 21.9271 210.711 22.3906C210.997 22.849 211.154 23.3698 211.18 23.9531H209.805C209.779 23.6042 209.68 23.2891 209.508 23.0078C209.341 22.7266 209.112 22.5026 208.82 22.3359C208.534 22.1641 208.198 22.0781 207.812 22.0781C207.37 22.0781 206.997 22.1667 206.695 22.3438C206.398 22.5156 206.161 22.75 205.984 23.0469C205.812 23.3385 205.688 23.6641 205.609 24.0234C205.536 24.3776 205.5 24.7396 205.5 25.1094V25.4375C205.5 25.8073 205.536 26.1719 205.609 26.5312C205.682 26.8906 205.805 27.2161 205.977 27.5078C206.154 27.7995 206.391 28.0339 206.688 28.2109C206.99 28.3828 207.365 28.4688 207.812 28.4688ZM216.344 21.0469V22.1562H211.773V21.0469H216.344ZM213.32 18.9922H214.766V27.4062C214.766 27.6927 214.81 27.9089 214.898 28.0547C214.987 28.2005 215.102 28.2969 215.242 28.3438C215.383 28.3906 215.534 28.4141 215.695 28.4141C215.815 28.4141 215.94 28.4036 216.07 28.3828C216.206 28.3568 216.307 28.3359 216.375 28.3203L216.383 29.5C216.268 29.5365 216.117 29.5703 215.93 29.6016C215.747 29.638 215.526 29.6562 215.266 29.6562C214.911 29.6562 214.586 29.5859 214.289 29.4453C213.992 29.3047 213.755 29.0703 213.578 28.7422C213.406 28.4089 213.32 27.9609 213.32 27.3984V18.9922Z" fill="#E2E8F0"/>
<path d="M253.252 22.5C253.084 23.1534 252.999 23.8254 253 24.5C253 25.19 253.088 25.86 253.252 26.5H256.1C255.965 25.1701 255.965 23.8299 256.1 22.5H253.252ZM254.07 20.5H256.416C256.682 19.283 257.066 18.193 257.537 17.286C256.085 17.9854 254.877 19.1052 254.07 20.5ZM268.748 22.5H265.9C266.035 23.8299 266.035 25.1701 265.9 26.5H268.748C269.085 25.1879 269.085 23.8121 268.748 22.5ZM267.93 20.5C267.123 19.1052 265.915 17.9854 264.463 17.286C264.935 18.193 265.318 19.283 265.584 20.5H267.93ZM258.112 22.5C258.037 23.164 258 23.8318 258 24.5C258 25.185 258.038 25.855 258.112 26.5H263.888C264.039 25.1709 264.039 23.8291 263.888 22.5H258.112ZM258.47 20.5H263.53C263.348 19.7483 263.085 19.0184 262.747 18.323C262.119 17.068 261.447 16.5 261 16.5C260.552 16.5 259.881 17.068 259.253 18.323C258.938 18.955 258.673 19.69 258.47 20.5ZM254.07 28.5C254.877 29.8948 256.085 31.0146 257.537 31.714C257.065 30.807 256.682 29.717 256.416 28.5H254.07ZM267.93 28.5H265.584C265.318 29.717 264.934 30.807 264.463 31.714C265.915 31.0146 267.123 29.8948 267.93 28.5ZM258.47 28.5C258.673 29.31 258.938 30.045 259.253 30.677C259.881 31.932 260.553 32.5 261 32.5C261.448 32.5 262.119 31.932 262.747 30.677C263.062 30.045 263.327 29.31 263.53 28.5H258.47ZM261 34.5C255.477 34.5 251 30.023 251 24.5C251 18.977 255.477 14.5 261 14.5C266.523 14.5 271 18.977 271 24.5C271 30.023 266.523 34.5 261 34.5Z" fill="#E2E8F0"/>
<path d="M289.547 28.2734V29.5H283.523V28.2734H289.547ZM283.828 18.125V29.5H282.32V18.125H283.828ZM288.75 23.0156V24.2422H283.523V23.0156H288.75ZM289.469 18.125V19.3594H283.523V18.125H289.469ZM300.164 18.125V29.5H298.648L292.922 20.7266V29.5H291.414V18.125H292.922L298.672 26.9219V18.125H300.164Z" fill="#E2E8F0"/>
<path d="M352.5 17.3042C351.443 16.7891 350.255 16.5 349 16.5C344.582 16.5 341 20.0817 341 24.5C341 28.9183 344.582 32.5 349 32.5C350.255 32.5 351.443 32.2109 352.5 31.6958" stroke="#E5E7EB" stroke-width="2" stroke-linecap="round" stroke-linejoin="round"/>
<path d="M339 22.5H350" stroke="#E5E7EB" stroke-width="2" stroke-linecap="round" stroke-linejoin="round"/>
<path d="M339 26.5H350" stroke="#E5E7EB" stroke-width="2" stroke-linecap="round" stroke-linejoin="round"/>
<path d="M374.547 28.2734V29.5H368.523V28.2734H374.547ZM368.828 18.125V29.5H367.32V18.125H368.828ZM373.75 23.0156V24.2422H368.523V23.0156H373.75ZM374.469 18.125V19.3594H368.523V18.125H374.469ZM382.922 18.125H384.422V25.8203C384.422 26.6745 384.232 27.3854 383.852 27.9531C383.471 28.5208 382.966 28.9479 382.336 29.2344C381.711 29.5156 381.031 29.6562 380.297 29.6562C379.526 29.6562 378.828 29.5156 378.203 29.2344C377.583 28.9479 377.091 28.5208 376.727 27.9531C376.367 27.3854 376.188 26.6745 376.188 25.8203V18.125H377.68V25.8203C377.68 26.4141 377.789 26.9036 378.008 27.2891C378.227 27.6745 378.531 27.9609 378.922 28.1484C379.318 28.3359 379.776 28.4297 380.297 28.4297C380.823 28.4297 381.281 28.3359 381.672 28.1484C382.068 27.9609 382.375 27.6745 382.594 27.2891C382.812 26.9036 382.922 26.4141 382.922 25.8203V18.125ZM386.789 18.125H390.555C391.409 18.125 392.13 18.2552 392.719 18.5156C393.312 18.776 393.763 19.1615 394.07 19.6719C394.383 20.1771 394.539 20.7995 394.539 21.5391C394.539 22.0599 394.432 22.5365 394.219 22.9688C394.01 23.3958 393.708 23.7604 393.312 24.0625C392.922 24.3594 392.453 24.5807 391.906 24.7266L391.484 24.8906H387.945L387.93 23.6641H390.602C391.143 23.6641 391.594 23.5703 391.953 23.3828C392.312 23.1901 392.583 22.9323 392.766 22.6094C392.948 22.2865 393.039 21.9297 393.039 21.5391C393.039 21.1016 392.953 20.7188 392.781 20.3906C392.609 20.0625 392.339 19.8099 391.969 19.6328C391.604 19.4505 391.133 19.3594 390.555 19.3594H388.297V29.5H386.789V18.125ZM393.438 29.5L390.672 24.3438L392.242 24.3359L395.047 29.4062V29.5H393.438Z" fill="#E2E8F0"/>
<rect x="429" y="13.5" width="22" height="22" rx="11" stroke="#E2E8F0" stroke-width="2"/>
<path d="M439.91 27.516L439.586 30.603C439.572 30.7336 439.533 30.8602 439.47 30.9756C439.407 31.091 439.322 31.1929 439.22 31.2755C439.118 31.3581 439.001 31.4197 438.875 31.457C438.749 31.4942 438.617 31.5063 438.486 31.4925C438.356 31.4787 438.229 31.4393 438.114 31.3766C437.998 31.3139 437.896 31.2291 437.814 31.127C437.731 31.0249 437.67 30.9075 437.632 30.7816C437.595 30.6556 437.583 30.5236 437.597 30.393L438.32 23.51H435.01C434.744 23.51 434.489 23.4045 434.302 23.2167C434.114 23.0289 434.008 22.7741 434.008 22.5085C434.008 22.2429 434.114 21.9882 434.302 21.8003C434.489 21.6125 434.744 21.507 435.01 21.507H445.01C445.275 21.507 445.53 21.6125 445.718 21.8003C445.906 21.9882 446.011 22.2429 446.011 22.5085C446.011 22.7741 445.906 23.0289 445.718 23.2167C445.53 23.4045 445.275 23.51 445.01 23.51H441.7L442.423 30.395C442.441 30.5279 442.433 30.6632 442.398 30.7927C442.363 30.9223 442.302 31.0435 442.219 31.1491C442.136 31.2548 442.033 31.3427 441.916 31.4076C441.798 31.4726 441.669 31.5133 441.536 31.5273C441.402 31.5414 441.267 31.5284 441.139 31.4892C441.011 31.4501 440.892 31.3855 440.789 31.2994C440.686 31.2132 440.601 31.1073 440.54 30.9878C440.479 30.8684 440.442 30.7378 440.433 30.604L440.11 27.516H439.91ZM440.01 21.506C438.905 21.506 438.01 20.609 438.01 19.503C438.01 18.397 438.905 17.5 440.01 17.5C441.115 17.5 442.01 18.397 442.01 19.503C442.01 20.0338 441.8 20.543 441.424 20.9186C441.049 21.2942 440.541 21.5055 440.01 21.506Z" fill="#E2E8F0"/>
</svg>
