<svg width="1095" height="79" viewBox="0 0 1095 79" fill="none" xmlns="http://www.w3.org/2000/svg">
<path d="M1 77.9999C1 -34.0001 548 48.9999 548 -0.00012207" stroke="#CBD5E1" stroke-dasharray="6 6"/>
<path d="M274 77.9999C274 13.9999 548 48.9999 548 -0.00012207" stroke="#CBD5E1" stroke-dasharray="6 6"/>
<path d="M410 77.9999C410 16.9999 548 48.9999 548 -0.00012207" stroke="#CBD5E1" stroke-dasharray="6 6"/>
<path d="M1094 77.9999C1094 -34.0001 547 48.9999 547 -0.00012207" stroke="#CBD5E1" stroke-dasharray="6 6"/>
<path d="M959 77.9999C962 -4.00012 547 48.9999 547 -0.00012207" stroke="#CBD5E1" stroke-dasharray="6 6"/>
<path d="M821 77.9999C821 13.9999 547 48.9999 547 -0.00012207" stroke="#CBD5E1" stroke-dasharray="6 6"/>
<path d="M548 2.99988L548 77.9999" stroke="#CBD5E1" stroke-dasharray="6 6"/>
<path d="M685 77.9999C685 16.9999 547 48.9999 547 -0.00012207" stroke="#CBD5E1" stroke-dasharray="6 6"/>
<path d="M136 77.9999C133 -4.00012 548 48.9999 548 -0.00012207" stroke="#FB923C" stroke-dasharray="6 6"/>
</svg>
