<svg width="174" height="36" viewBox="0 0 174 36" fill="none" xmlns="http://www.w3.org/2000/svg">
<path d="M21.0001 12.0312L18.5001 12.0312C18.3031 12.0312 18.108 12.07 17.926 12.1454C17.7441 12.2208 17.5787 12.3312 17.4393 12.4705C17.3001 12.6099 17.1896 12.7753 17.1142 12.9572C17.0388 13.1392 17 13.3343 17 13.5312L17 19.0313C16.5 21.0308 16.4065 21.6247 15 23.0313C13.5935 24.4378 12.4892 25.5312 10.5 25.5313C9.51511 25.5313 8.90995 25.4082 8 25.0312C7.09004 24.6543 6.19645 23.7277 5.5 23.0313C4.80356 22.3348 4.87691 22.4412 4.5 21.5312C4.12309 20.6213 4.00003 20.0162 4.00004 19.0312L4.00004 13.5317C4.0001 13.3347 3.96134 13.1395 3.88599 12.9575C3.81063 12.7755 3.70015 12.61 3.56086 12.4707C3.42155 12.3314 3.25617 12.2209 3.07415 12.1454C2.89214 12.07 2.69705 12.0312 2.50002 12.0312L-7.43095e-07 12.0312L-4.15255e-07 18.5313C-3.55061e-07 19.9102 0.271592 21.2756 0.799269 22.5495C1.32695 23.8234 2.10038 24.9809 3.07539 25.9559C4.05042 26.9309 5.20793 27.7044 6.48186 28.232C7.75578 28.7597 9.12116 29.0313 10.5 29.0312C13.2848 29.0312 15.9555 27.925 17.9247 25.9559C19.8938 23.9868 21.0001 21.3161 21.0001 18.5313L21.0001 12.0312Z" fill="#EA580C"/>
<circle cx="4.5" cy="11.4688" r="4.5" fill="white"/>
<path d="M33.0312 11.5938V14.7812H23.1875V11.5938H33.0312ZM25.625 7.42188H30.125V23.4062C30.125 23.8958 30.1875 24.2708 30.3125 24.5312C30.4479 24.7917 30.6458 24.974 30.9062 25.0781C31.1667 25.1719 31.4948 25.2188 31.8906 25.2188C32.1719 25.2188 32.4219 25.2083 32.6406 25.1875C32.8698 25.1562 33.0625 25.125 33.2188 25.0938L33.2344 28.4062C32.849 28.5312 32.4323 28.6302 31.9844 28.7031C31.5365 28.776 31.0417 28.8125 30.5 28.8125C29.5104 28.8125 28.6458 28.651 27.9062 28.3281C27.1771 27.9948 26.6146 27.4635 26.2188 26.7344C25.8229 26.0052 25.625 25.0469 25.625 23.8594V7.42188ZM43.375 28.8125C42.0625 28.8125 40.8854 28.6042 39.8438 28.1875C38.8021 27.7604 37.9167 27.1719 37.1875 26.4219C36.4688 25.6719 35.9167 24.8021 35.5312 23.8125C35.1458 22.8125 34.9531 21.75 34.9531 20.625V20C34.9531 18.7188 35.1354 17.5469 35.5 16.4844C35.8646 15.4219 36.3854 14.5 37.0625 13.7188C37.75 12.9375 38.5833 12.3385 39.5625 11.9219C40.5417 11.4948 41.6458 11.2812 42.875 11.2812C44.0729 11.2812 45.1354 11.4792 46.0625 11.875C46.9896 12.2708 47.7656 12.8333 48.3906 13.5625C49.026 14.2917 49.5052 15.1667 49.8281 16.1875C50.151 17.1979 50.3125 18.3229 50.3125 19.5625V21.4375H36.875V18.4375H45.8906V18.0938C45.8906 17.4688 45.776 16.9115 45.5469 16.4219C45.3281 15.9219 44.9948 15.526 44.5469 15.2344C44.099 14.9427 43.526 14.7969 42.8281 14.7969C42.2344 14.7969 41.724 14.9271 41.2969 15.1875C40.8698 15.4479 40.5208 15.8125 40.25 16.2812C39.9896 16.75 39.7917 17.3021 39.6562 17.9375C39.5312 18.5625 39.4688 19.25 39.4688 20V20.625C39.4688 21.3021 39.5625 21.9271 39.75 22.5C39.9479 23.0729 40.224 23.5677 40.5781 23.9844C40.9427 24.401 41.3802 24.724 41.8906 24.9531C42.4115 25.1823 43 25.2969 43.6562 25.2969C44.4688 25.2969 45.224 25.1406 45.9219 24.8281C46.6302 24.5052 47.2396 24.0208 47.75 23.375L49.9375 25.75C49.5833 26.2604 49.099 26.75 48.4844 27.2188C47.8802 27.6875 47.151 28.0729 46.2969 28.375C45.4427 28.6667 44.4688 28.8125 43.375 28.8125ZM62 24.6875V17.1562C62 16.6146 61.9115 16.151 61.7344 15.7656C61.5573 15.3698 61.2812 15.0625 60.9062 14.8438C60.5417 14.625 60.0677 14.5156 59.4844 14.5156C58.9844 14.5156 58.5521 14.6042 58.1875 14.7812C57.8229 14.9479 57.5417 15.1927 57.3438 15.5156C57.1458 15.8281 57.0469 16.1979 57.0469 16.625H52.5469C52.5469 15.9062 52.7135 15.224 53.0469 14.5781C53.3802 13.9323 53.8646 13.3646 54.5 12.875C55.1354 12.375 55.8906 11.9844 56.7656 11.7031C57.651 11.4219 58.6406 11.2812 59.7344 11.2812C61.0469 11.2812 62.2135 11.5 63.2344 11.9375C64.2552 12.375 65.0573 13.0312 65.6406 13.9062C66.2344 14.7812 66.5312 15.875 66.5312 17.1875V24.4219C66.5312 25.349 66.5885 26.1094 66.7031 26.7031C66.8177 27.2865 66.9844 27.7969 67.2031 28.2344V28.5H62.6562C62.4375 28.0417 62.2708 27.4688 62.1562 26.7812C62.0521 26.0833 62 25.3854 62 24.6875ZM62.5938 18.2031L62.625 20.75H60.1094C59.5156 20.75 59 20.8177 58.5625 20.9531C58.125 21.0885 57.7656 21.2812 57.4844 21.5312C57.2031 21.7708 56.9948 22.0521 56.8594 22.375C56.7344 22.6979 56.6719 23.0521 56.6719 23.4375C56.6719 23.8229 56.7604 24.1719 56.9375 24.4844C57.1146 24.7865 57.3698 25.026 57.7031 25.2031C58.0365 25.3698 58.4271 25.4531 58.875 25.4531C59.5521 25.4531 60.1406 25.3177 60.6406 25.0469C61.1406 24.776 61.526 24.4427 61.7969 24.0469C62.0781 23.651 62.224 23.276 62.2344 22.9219L63.4219 24.8281C63.2552 25.2552 63.026 25.6979 62.7344 26.1562C62.4531 26.6146 62.0938 27.0469 61.6562 27.4531C61.2188 27.849 60.6927 28.1771 60.0781 28.4375C59.4635 28.6875 58.7344 28.8125 57.8906 28.8125C56.8177 28.8125 55.8438 28.599 54.9688 28.1719C54.1042 27.7344 53.4167 27.1354 52.9062 26.375C52.4062 25.6042 52.1562 24.7292 52.1562 23.75C52.1562 22.8646 52.3229 22.0781 52.6562 21.3906C52.9896 20.7031 53.4792 20.125 54.125 19.6562C54.7812 19.1771 55.599 18.8177 56.5781 18.5781C57.5573 18.3281 58.6927 18.2031 59.9844 18.2031H62.5938ZM76.9844 25.2969C77.5365 25.2969 78.026 25.1927 78.4531 24.9844C78.8802 24.7656 79.2135 24.4635 79.4531 24.0781C79.7031 23.6823 79.8333 23.2188 79.8438 22.6875H84.0781C84.0677 23.875 83.75 24.9323 83.125 25.8594C82.5 26.776 81.6615 27.5 80.6094 28.0312C79.5573 28.5521 78.3802 28.8125 77.0781 28.8125C75.7656 28.8125 74.6198 28.5938 73.6406 28.1562C72.6719 27.7188 71.8646 27.1146 71.2188 26.3438C70.5729 25.5625 70.0885 24.6562 69.7656 23.625C69.4427 22.5833 69.2812 21.4688 69.2812 20.2812V19.8281C69.2812 18.6302 69.4427 17.5156 69.7656 16.4844C70.0885 15.4427 70.5729 14.5365 71.2188 13.7656C71.8646 12.9844 72.6719 12.375 73.6406 11.9375C74.6094 11.5 75.7448 11.2812 77.0469 11.2812C78.4323 11.2812 79.6458 11.5469 80.6875 12.0781C81.7396 12.6094 82.5625 13.3698 83.1562 14.3594C83.7604 15.3385 84.0677 16.5 84.0781 17.8438H79.8438C79.8333 17.2812 79.7135 16.7708 79.4844 16.3125C79.2656 15.8542 78.9427 15.4896 78.5156 15.2188C78.099 14.9375 77.5833 14.7969 76.9688 14.7969C76.3125 14.7969 75.776 14.9375 75.3594 15.2188C74.9427 15.4896 74.6198 15.8646 74.3906 16.3438C74.1615 16.8125 74 17.349 73.9062 17.9531C73.8229 18.5469 73.7812 19.1719 73.7812 19.8281V20.2812C73.7812 20.9375 73.8229 21.5677 73.9062 22.1719C73.9896 22.776 74.1458 23.3125 74.375 23.7812C74.6146 24.25 74.9427 24.6198 75.3594 24.8906C75.776 25.1615 76.3177 25.2969 76.9844 25.2969ZM91.0781 4.5V28.5H86.5781V4.5H91.0781ZM90.4375 19.4531H89.2031C89.2135 18.276 89.3698 17.1927 89.6719 16.2031C89.974 15.2031 90.4062 14.3385 90.9688 13.6094C91.5312 12.8698 92.2031 12.2969 92.9844 11.8906C93.776 11.4844 94.651 11.2812 95.6094 11.2812C96.4427 11.2812 97.1979 11.401 97.875 11.6406C98.5625 11.8698 99.151 12.2448 99.6406 12.7656C100.141 13.276 100.526 13.9479 100.797 14.7812C101.068 15.6146 101.203 16.625 101.203 17.8125V28.5H96.6719V17.7812C96.6719 17.0312 96.5625 16.4427 96.3438 16.0156C96.1354 15.5781 95.8281 15.2708 95.4219 15.0938C95.026 14.9062 94.5365 14.8125 93.9531 14.8125C93.3073 14.8125 92.7552 14.9323 92.2969 15.1719C91.849 15.4115 91.4896 15.7448 91.2188 16.1719C90.9479 16.5885 90.75 17.0781 90.625 17.6406C90.5 18.2031 90.4375 18.8073 90.4375 19.4531Z" fill="white"/>
</svg>
