<svg width="103" height="35" viewBox="0 0 103 35" fill="none" xmlns="http://www.w3.org/2000/svg">
<path d="M21.0001 11.5312L18.5001 11.5312C18.3031 11.5312 18.108 11.57 17.926 11.6454C17.7441 11.7208 17.5787 11.8312 17.4393 11.9705C17.3001 12.1099 17.1896 12.2753 17.1142 12.4572C17.0388 12.6392 17 12.8343 17 13.0312L17 18.5313C16.5 20.5308 16.4065 21.1247 15 22.5313C13.5935 23.9378 12.4892 25.0312 10.5 25.0313C9.51511 25.0313 8.90995 24.9082 8 24.5312C7.09004 24.1543 6.19645 23.2277 5.5 22.5313C4.80356 21.8348 4.87691 21.9412 4.5 21.0312C4.12309 20.1213 4.00003 19.5162 4.00004 18.5312L4.00004 13.0317C4.0001 12.8347 3.96134 12.6395 3.88599 12.4575C3.81063 12.2755 3.70015 12.11 3.56086 11.9707C3.42155 11.8314 3.25617 11.7209 3.07415 11.6454C2.89214 11.57 2.69705 11.5312 2.50002 11.5312L-7.43095e-07 11.5312L-4.15255e-07 18.0313C-3.55061e-07 19.4102 0.271592 20.7756 0.799269 22.0495C1.32695 23.3234 2.10038 24.4809 3.07539 25.4559C4.05042 26.4309 5.20793 27.2044 6.48186 27.732C7.75578 28.2597 9.12116 28.5313 10.5 28.5312C13.2848 28.5312 15.9555 27.425 17.9247 25.4559C19.8938 23.4868 21.0001 20.8161 21.0001 18.0313L21.0001 11.5312Z" fill="#EA580C"/>
<circle cx="4.5" cy="10.9688" r="4.5" fill="#0F172A"/>
<path d="M33.0312 11.0938V14.2812H23.1875V11.0938H33.0312ZM25.625 6.92188H30.125V22.9062C30.125 23.3958 30.1875 23.7708 30.3125 24.0312C30.4479 24.2917 30.6458 24.474 30.9062 24.5781C31.1667 24.6719 31.4948 24.7188 31.8906 24.7188C32.1719 24.7188 32.4219 24.7083 32.6406 24.6875C32.8698 24.6562 33.0625 24.625 33.2188 24.5938L33.2344 27.9062C32.849 28.0312 32.4323 28.1302 31.9844 28.2031C31.5365 28.276 31.0417 28.3125 30.5 28.3125C29.5104 28.3125 28.6458 28.151 27.9062 27.8281C27.1771 27.4948 26.6146 26.9635 26.2188 26.2344C25.8229 25.5052 25.625 24.5469 25.625 23.3594V6.92188ZM43.375 28.3125C42.0625 28.3125 40.8854 28.1042 39.8438 27.6875C38.8021 27.2604 37.9167 26.6719 37.1875 25.9219C36.4688 25.1719 35.9167 24.3021 35.5312 23.3125C35.1458 22.3125 34.9531 21.25 34.9531 20.125V19.5C34.9531 18.2188 35.1354 17.0469 35.5 15.9844C35.8646 14.9219 36.3854 14 37.0625 13.2188C37.75 12.4375 38.5833 11.8385 39.5625 11.4219C40.5417 10.9948 41.6458 10.7812 42.875 10.7812C44.0729 10.7812 45.1354 10.9792 46.0625 11.375C46.9896 11.7708 47.7656 12.3333 48.3906 13.0625C49.026 13.7917 49.5052 14.6667 49.8281 15.6875C50.151 16.6979 50.3125 17.8229 50.3125 19.0625V20.9375H36.875V17.9375H45.8906V17.5938C45.8906 16.9688 45.776 16.4115 45.5469 15.9219C45.3281 15.4219 44.9948 15.026 44.5469 14.7344C44.099 14.4427 43.526 14.2969 42.8281 14.2969C42.2344 14.2969 41.724 14.4271 41.2969 14.6875C40.8698 14.9479 40.5208 15.3125 40.25 15.7812C39.9896 16.25 39.7917 16.8021 39.6562 17.4375C39.5312 18.0625 39.4688 18.75 39.4688 19.5V20.125C39.4688 20.8021 39.5625 21.4271 39.75 22C39.9479 22.5729 40.224 23.0677 40.5781 23.4844C40.9427 23.901 41.3802 24.224 41.8906 24.4531C42.4115 24.6823 43 24.7969 43.6562 24.7969C44.4688 24.7969 45.224 24.6406 45.9219 24.3281C46.6302 24.0052 47.2396 23.5208 47.75 22.875L49.9375 25.25C49.5833 25.7604 49.099 26.25 48.4844 26.7188C47.8802 27.1875 47.151 27.5729 46.2969 27.875C45.4427 28.1667 44.4688 28.3125 43.375 28.3125ZM62 24.1875V16.6562C62 16.1146 61.9115 15.651 61.7344 15.2656C61.5573 14.8698 61.2812 14.5625 60.9062 14.3438C60.5417 14.125 60.0677 14.0156 59.4844 14.0156C58.9844 14.0156 58.5521 14.1042 58.1875 14.2812C57.8229 14.4479 57.5417 14.6927 57.3438 15.0156C57.1458 15.3281 57.0469 15.6979 57.0469 16.125H52.5469C52.5469 15.4062 52.7135 14.724 53.0469 14.0781C53.3802 13.4323 53.8646 12.8646 54.5 12.375C55.1354 11.875 55.8906 11.4844 56.7656 11.2031C57.651 10.9219 58.6406 10.7812 59.7344 10.7812C61.0469 10.7812 62.2135 11 63.2344 11.4375C64.2552 11.875 65.0573 12.5312 65.6406 13.4062C66.2344 14.2812 66.5312 15.375 66.5312 16.6875V23.9219C66.5312 24.849 66.5885 25.6094 66.7031 26.2031C66.8177 26.7865 66.9844 27.2969 67.2031 27.7344V28H62.6562C62.4375 27.5417 62.2708 26.9688 62.1562 26.2812C62.0521 25.5833 62 24.8854 62 24.1875ZM62.5938 17.7031L62.625 20.25H60.1094C59.5156 20.25 59 20.3177 58.5625 20.4531C58.125 20.5885 57.7656 20.7812 57.4844 21.0312C57.2031 21.2708 56.9948 21.5521 56.8594 21.875C56.7344 22.1979 56.6719 22.5521 56.6719 22.9375C56.6719 23.3229 56.7604 23.6719 56.9375 23.9844C57.1146 24.2865 57.3698 24.526 57.7031 24.7031C58.0365 24.8698 58.4271 24.9531 58.875 24.9531C59.5521 24.9531 60.1406 24.8177 60.6406 24.5469C61.1406 24.276 61.526 23.9427 61.7969 23.5469C62.0781 23.151 62.224 22.776 62.2344 22.4219L63.4219 24.3281C63.2552 24.7552 63.026 25.1979 62.7344 25.6562C62.4531 26.1146 62.0938 26.5469 61.6562 26.9531C61.2188 27.349 60.6927 27.6771 60.0781 27.9375C59.4635 28.1875 58.7344 28.3125 57.8906 28.3125C56.8177 28.3125 55.8438 28.099 54.9688 27.6719C54.1042 27.2344 53.4167 26.6354 52.9062 25.875C52.4062 25.1042 52.1562 24.2292 52.1562 23.25C52.1562 22.3646 52.3229 21.5781 52.6562 20.8906C52.9896 20.2031 53.4792 19.625 54.125 19.1562C54.7812 18.6771 55.599 18.3177 56.5781 18.0781C57.5573 17.8281 58.6927 17.7031 59.9844 17.7031H62.5938ZM76.9844 24.7969C77.5365 24.7969 78.026 24.6927 78.4531 24.4844C78.8802 24.2656 79.2135 23.9635 79.4531 23.5781C79.7031 23.1823 79.8333 22.7188 79.8438 22.1875H84.0781C84.0677 23.375 83.75 24.4323 83.125 25.3594C82.5 26.276 81.6615 27 80.6094 27.5312C79.5573 28.0521 78.3802 28.3125 77.0781 28.3125C75.7656 28.3125 74.6198 28.0938 73.6406 27.6562C72.6719 27.2188 71.8646 26.6146 71.2188 25.8438C70.5729 25.0625 70.0885 24.1562 69.7656 23.125C69.4427 22.0833 69.2812 20.9688 69.2812 19.7812V19.3281C69.2812 18.1302 69.4427 17.0156 69.7656 15.9844C70.0885 14.9427 70.5729 14.0365 71.2188 13.2656C71.8646 12.4844 72.6719 11.875 73.6406 11.4375C74.6094 11 75.7448 10.7812 77.0469 10.7812C78.4323 10.7812 79.6458 11.0469 80.6875 11.5781C81.7396 12.1094 82.5625 12.8698 83.1562 13.8594C83.7604 14.8385 84.0677 16 84.0781 17.3438H79.8438C79.8333 16.7812 79.7135 16.2708 79.4844 15.8125C79.2656 15.3542 78.9427 14.9896 78.5156 14.7188C78.099 14.4375 77.5833 14.2969 76.9688 14.2969C76.3125 14.2969 75.776 14.4375 75.3594 14.7188C74.9427 14.9896 74.6198 15.3646 74.3906 15.8438C74.1615 16.3125 74 16.849 73.9062 17.4531C73.8229 18.0469 73.7812 18.6719 73.7812 19.3281V19.7812C73.7812 20.4375 73.8229 21.0677 73.9062 21.6719C73.9896 22.276 74.1458 22.8125 74.375 23.2812C74.6146 23.75 74.9427 24.1198 75.3594 24.3906C75.776 24.6615 76.3177 24.7969 76.9844 24.7969ZM91.0781 4V28H86.5781V4H91.0781ZM90.4375 18.9531H89.2031C89.2135 17.776 89.3698 16.6927 89.6719 15.7031C89.974 14.7031 90.4062 13.8385 90.9688 13.1094C91.5312 12.3698 92.2031 11.7969 92.9844 11.3906C93.776 10.9844 94.651 10.7812 95.6094 10.7812C96.4427 10.7812 97.1979 10.901 97.875 11.1406C98.5625 11.3698 99.151 11.7448 99.6406 12.2656C100.141 12.776 100.526 13.4479 100.797 14.2812C101.068 15.1146 101.203 16.125 101.203 17.3125V28H96.6719V17.2812C96.6719 16.5312 96.5625 15.9427 96.3438 15.5156C96.1354 15.0781 95.8281 14.7708 95.4219 14.5938C95.026 14.4062 94.5365 14.3125 93.9531 14.3125C93.3073 14.3125 92.7552 14.4323 92.2969 14.6719C91.849 14.9115 91.4896 15.2448 91.2188 15.6719C90.9479 16.0885 90.75 16.5781 90.625 17.1406C90.5 17.7031 90.4375 18.3073 90.4375 18.9531Z" fill="#0F172A"/>
</svg>
