<svg width="515" height="48" viewBox="0 0 515 48" fill="none" xmlns="http://www.w3.org/2000/svg">
<path d="M13.4766 24.7578H10.5156V23.2031H13.4766C13.9922 23.2031 14.4089 23.1198 14.7266 22.9531C15.0443 22.7865 15.276 22.5573 15.4219 22.2656C15.5729 21.9688 15.6484 21.6302 15.6484 21.25C15.6484 20.8906 15.5729 20.5547 15.4219 20.2422C15.276 19.9245 15.0443 19.6693 14.7266 19.4766C14.4089 19.2839 13.9922 19.1875 13.4766 19.1875H11.1172V29H9.15625V17.625H13.4766C14.3568 17.625 15.1042 17.7812 15.7188 18.0938C16.3385 18.401 16.8099 18.8281 17.1328 19.375C17.4557 19.9167 17.6172 20.5365 17.6172 21.2344C17.6172 21.9688 17.4557 22.599 17.1328 23.125C16.8099 23.651 16.3385 24.0547 15.7188 24.3359C15.1042 24.6172 14.3568 24.7578 13.4766 24.7578ZM21.5781 22.1562V29H19.6953V20.5469H21.4922L21.5781 22.1562ZM24.1641 20.4922L24.1484 22.2422C24.0339 22.2214 23.9089 22.2057 23.7734 22.1953C23.6432 22.1849 23.513 22.1797 23.3828 22.1797C23.0599 22.1797 22.776 22.2266 22.5312 22.3203C22.2865 22.4089 22.0807 22.5391 21.9141 22.7109C21.7526 22.8776 21.6276 23.0807 21.5391 23.3203C21.4505 23.5599 21.3984 23.8281 21.3828 24.125L20.9531 24.1562C20.9531 23.625 21.0052 23.1328 21.1094 22.6797C21.2135 22.2266 21.3698 21.8281 21.5781 21.4844C21.7917 21.1406 22.0573 20.8724 22.375 20.6797C22.6979 20.487 23.0703 20.3906 23.4922 20.3906C23.6068 20.3906 23.7292 20.401 23.8594 20.4219C23.9948 20.4427 24.0964 20.4661 24.1641 20.4922ZM25.2812 24.8672V24.6875C25.2812 24.0781 25.3698 23.513 25.5469 22.9922C25.724 22.4661 25.9792 22.0104 26.3125 21.625C26.651 21.2344 27.0625 20.9323 27.5469 20.7188C28.0365 20.5 28.5885 20.3906 29.2031 20.3906C29.8229 20.3906 30.375 20.5 30.8594 20.7188C31.349 20.9323 31.763 21.2344 32.1016 21.625C32.4401 22.0104 32.6979 22.4661 32.875 22.9922C33.0521 23.513 33.1406 24.0781 33.1406 24.6875V24.8672C33.1406 25.4766 33.0521 26.0417 32.875 26.5625C32.6979 27.0833 32.4401 27.5391 32.1016 27.9297C31.763 28.3151 31.3516 28.6172 30.8672 28.8359C30.3828 29.0495 29.8333 29.1562 29.2188 29.1562C28.599 29.1562 28.0443 29.0495 27.5547 28.8359C27.0703 28.6172 26.6589 28.3151 26.3203 27.9297C25.9818 27.5391 25.724 27.0833 25.5469 26.5625C25.3698 26.0417 25.2812 25.4766 25.2812 24.8672ZM27.1641 24.6875V24.8672C27.1641 25.2474 27.2031 25.6068 27.2812 25.9453C27.3594 26.2839 27.4818 26.5807 27.6484 26.8359C27.8151 27.0911 28.0286 27.2917 28.2891 27.4375C28.5495 27.5833 28.8594 27.6562 29.2188 27.6562C29.5677 27.6562 29.8698 27.5833 30.125 27.4375C30.3854 27.2917 30.599 27.0911 30.7656 26.8359C30.9323 26.5807 31.0547 26.2839 31.1328 25.9453C31.2161 25.6068 31.2578 25.2474 31.2578 24.8672V24.6875C31.2578 24.3125 31.2161 23.9583 31.1328 23.625C31.0547 23.2865 30.9297 22.987 30.7578 22.7266C30.5911 22.4661 30.3776 22.263 30.1172 22.1172C29.862 21.9661 29.5573 21.8906 29.2031 21.8906C28.849 21.8906 28.5417 21.9661 28.2812 22.1172C28.026 22.263 27.8151 22.4661 27.6484 22.7266C27.4818 22.987 27.3594 23.2865 27.2812 23.625C27.2031 23.9583 27.1641 24.3125 27.1641 24.6875ZM40.375 27.25V17H42.2656V29H40.5547L40.375 27.25ZM34.875 24.8672V24.7031C34.875 24.0625 34.9505 23.4792 35.1016 22.9531C35.2526 22.4219 35.4714 21.9661 35.7578 21.5859C36.0443 21.2005 36.3932 20.9062 36.8047 20.7031C37.2161 20.4948 37.6797 20.3906 38.1953 20.3906C38.7057 20.3906 39.1536 20.4896 39.5391 20.6875C39.9245 20.8854 40.2526 21.1693 40.5234 21.5391C40.7943 21.9036 41.0104 22.3411 41.1719 22.8516C41.3333 23.3568 41.4479 23.9193 41.5156 24.5391V25.0625C41.4479 25.6667 41.3333 26.2188 41.1719 26.7188C41.0104 27.2188 40.7943 27.651 40.5234 28.0156C40.2526 28.3802 39.9219 28.6615 39.5312 28.8594C39.1458 29.0573 38.6953 29.1562 38.1797 29.1562C37.6693 29.1562 37.2083 29.0495 36.7969 28.8359C36.3906 28.6224 36.0443 28.3229 35.7578 27.9375C35.4714 27.5521 35.2526 27.099 35.1016 26.5781C34.9505 26.0521 34.875 25.4818 34.875 24.8672ZM36.7578 24.7031V24.8672C36.7578 25.2526 36.7917 25.612 36.8594 25.9453C36.9323 26.2786 37.0443 26.5729 37.1953 26.8281C37.3464 27.0781 37.5417 27.276 37.7812 27.4219C38.026 27.5625 38.3177 27.6328 38.6562 27.6328C39.0833 27.6328 39.4349 27.5391 39.7109 27.3516C39.987 27.1641 40.2031 26.9115 40.3594 26.5938C40.5208 26.2708 40.6302 25.9115 40.6875 25.5156V24.1016C40.6562 23.7943 40.5911 23.5078 40.4922 23.2422C40.3984 22.9766 40.2708 22.7448 40.1094 22.5469C39.9479 22.3438 39.7474 22.1875 39.5078 22.0781C39.2734 21.9635 38.9948 21.9062 38.6719 21.9062C38.3281 21.9062 38.0365 21.9792 37.7969 22.125C37.5573 22.2708 37.3594 22.4714 37.2031 22.7266C37.0521 22.9818 36.9401 23.2786 36.8672 23.6172C36.7943 23.9557 36.7578 24.3177 36.7578 24.7031ZM49.8203 27.0078V20.5469H51.7109V29H49.9297L49.8203 27.0078ZM50.0859 25.25L50.7188 25.2344C50.7188 25.8021 50.6562 26.3255 50.5312 26.8047C50.4062 27.2786 50.2135 27.6927 49.9531 28.0469C49.6927 28.3958 49.3594 28.6693 48.9531 28.8672C48.5469 29.0599 48.0599 29.1562 47.4922 29.1562C47.0807 29.1562 46.7031 29.0964 46.3594 28.9766C46.0156 28.8568 45.7188 28.6719 45.4688 28.4219C45.224 28.1719 45.0339 27.8464 44.8984 27.4453C44.763 27.0443 44.6953 26.5651 44.6953 26.0078V20.5469H46.5781V26.0234C46.5781 26.3307 46.6146 26.5885 46.6875 26.7969C46.7604 27 46.8594 27.1641 46.9844 27.2891C47.1094 27.4141 47.2552 27.5026 47.4219 27.5547C47.5885 27.6068 47.7656 27.6328 47.9531 27.6328C48.4896 27.6328 48.9115 27.5286 49.2188 27.3203C49.5312 27.1068 49.7526 26.8203 49.8828 26.4609C50.0182 26.1016 50.0859 25.6979 50.0859 25.25ZM57.5938 27.6562C57.901 27.6562 58.1771 27.5964 58.4219 27.4766C58.6719 27.3516 58.8724 27.1797 59.0234 26.9609C59.1797 26.7422 59.2656 26.4896 59.2812 26.2031H61.0547C61.0443 26.75 60.8828 27.2474 60.5703 27.6953C60.2578 28.1432 59.8438 28.5 59.3281 28.7656C58.8125 29.026 58.2422 29.1562 57.6172 29.1562C56.9714 29.1562 56.4089 29.0469 55.9297 28.8281C55.4505 28.6042 55.0521 28.2969 54.7344 27.9062C54.4167 27.5156 54.1771 27.0651 54.0156 26.5547C53.8594 26.0443 53.7812 25.4974 53.7812 24.9141V24.6406C53.7812 24.0573 53.8594 23.5104 54.0156 23C54.1771 22.4844 54.4167 22.0312 54.7344 21.6406C55.0521 21.25 55.4505 20.9453 55.9297 20.7266C56.4089 20.5026 56.9688 20.3906 57.6094 20.3906C58.2865 20.3906 58.8802 20.526 59.3906 20.7969C59.901 21.0625 60.3021 21.4349 60.5938 21.9141C60.8906 22.388 61.0443 22.9401 61.0547 23.5703H59.2812C59.2656 23.2578 59.1875 22.9766 59.0469 22.7266C58.9115 22.4714 58.7188 22.2682 58.4688 22.1172C58.224 21.9661 57.9297 21.8906 57.5859 21.8906C57.2057 21.8906 56.8906 21.9688 56.6406 22.125C56.3906 22.276 56.1953 22.4844 56.0547 22.75C55.9141 23.0104 55.8125 23.3047 55.75 23.6328C55.6927 23.9557 55.6641 24.2917 55.6641 24.6406V24.9141C55.6641 25.263 55.6927 25.6016 55.75 25.9297C55.8073 26.2578 55.9062 26.5521 56.0469 26.8125C56.1927 27.0677 56.3906 27.2734 56.6406 27.4297C56.8906 27.5807 57.2083 27.6562 57.5938 27.6562ZM66.875 20.5469V21.9219H62.1094V20.5469H66.875ZM63.4844 18.4766H65.3672V26.6641C65.3672 26.9245 65.4036 27.125 65.4766 27.2656C65.5547 27.401 65.6615 27.4922 65.7969 27.5391C65.9323 27.5859 66.0911 27.6094 66.2734 27.6094C66.4036 27.6094 66.5286 27.6016 66.6484 27.5859C66.7682 27.5703 66.8646 27.5547 66.9375 27.5391L66.9453 28.9766C66.7891 29.0234 66.6068 29.0651 66.3984 29.1016C66.1953 29.138 65.9609 29.1562 65.6953 29.1562C65.263 29.1562 64.8802 29.0807 64.5469 28.9297C64.2135 28.7734 63.9531 28.5208 63.7656 28.1719C63.5781 27.8229 63.4844 27.3594 63.4844 26.7812V18.4766ZM73.5703 26.7109C73.5703 26.5234 73.5234 26.3542 73.4297 26.2031C73.3359 26.0469 73.1562 25.9062 72.8906 25.7812C72.6302 25.6562 72.2448 25.5417 71.7344 25.4375C71.2865 25.3385 70.875 25.2214 70.5 25.0859C70.1302 24.9453 69.8125 24.776 69.5469 24.5781C69.2812 24.3802 69.0755 24.1458 68.9297 23.875C68.7839 23.6042 68.7109 23.2917 68.7109 22.9375C68.7109 22.5938 68.7865 22.2682 68.9375 21.9609C69.0885 21.6536 69.3047 21.3828 69.5859 21.1484C69.8672 20.9141 70.2083 20.7292 70.6094 20.5938C71.0156 20.4583 71.4688 20.3906 71.9688 20.3906C72.6771 20.3906 73.2839 20.5104 73.7891 20.75C74.2995 20.9844 74.6901 21.3047 74.9609 21.7109C75.2318 22.112 75.3672 22.5651 75.3672 23.0703H73.4844C73.4844 22.8464 73.4271 22.638 73.3125 22.4453C73.2031 22.2474 73.0365 22.0885 72.8125 21.9688C72.5885 21.8438 72.3073 21.7812 71.9688 21.7812C71.6458 21.7812 71.3776 21.8333 71.1641 21.9375C70.9557 22.0365 70.7995 22.1667 70.6953 22.3281C70.5964 22.4896 70.5469 22.6667 70.5469 22.8594C70.5469 23 70.5729 23.1276 70.625 23.2422C70.6823 23.3516 70.776 23.4531 70.9062 23.5469C71.0365 23.6354 71.2135 23.7188 71.4375 23.7969C71.6667 23.875 71.9531 23.9505 72.2969 24.0234C72.9427 24.1589 73.4974 24.3333 73.9609 24.5469C74.4297 24.7552 74.7891 25.026 75.0391 25.3594C75.2891 25.6875 75.4141 26.1042 75.4141 26.6094C75.4141 26.9844 75.3333 27.3281 75.1719 27.6406C75.0156 27.9479 74.7865 28.2161 74.4844 28.4453C74.1823 28.6693 73.8203 28.8438 73.3984 28.9688C72.9818 29.0938 72.513 29.1562 71.9922 29.1562C71.2266 29.1562 70.5781 29.0208 70.0469 28.75C69.5156 28.474 69.112 28.1224 68.8359 27.6953C68.5651 27.263 68.4297 26.8151 68.4297 26.3516H70.25C70.2708 26.7005 70.3672 26.9792 70.5391 27.1875C70.7161 27.3906 70.9349 27.5391 71.1953 27.6328C71.4609 27.7214 71.7344 27.7656 72.0156 27.7656C72.3542 27.7656 72.638 27.7214 72.8672 27.6328C73.0964 27.5391 73.2708 27.4141 73.3906 27.2578C73.5104 27.0964 73.5703 26.9141 73.5703 26.7109Z" fill="#0F172A"/>
<path d="M148.141 26.0703C148.141 25.8359 148.104 25.6276 148.031 25.4453C147.964 25.263 147.841 25.0964 147.664 24.9453C147.487 24.7943 147.237 24.6484 146.914 24.5078C146.596 24.362 146.19 24.2135 145.695 24.0625C145.154 23.8958 144.654 23.7109 144.195 23.5078C143.742 23.2995 143.346 23.0599 143.008 22.7891C142.669 22.513 142.406 22.1979 142.219 21.8438C142.031 21.4844 141.938 21.0703 141.938 20.6016C141.938 20.138 142.034 19.7161 142.227 19.3359C142.424 18.9557 142.703 18.6276 143.062 18.3516C143.427 18.0703 143.857 17.8542 144.352 17.7031C144.846 17.5469 145.393 17.4688 145.992 17.4688C146.836 17.4688 147.562 17.625 148.172 17.9375C148.786 18.25 149.258 18.6693 149.586 19.1953C149.919 19.7214 150.086 20.3021 150.086 20.9375H148.141C148.141 20.5625 148.06 20.2318 147.898 19.9453C147.742 19.6536 147.503 19.4245 147.18 19.2578C146.862 19.0911 146.458 19.0078 145.969 19.0078C145.505 19.0078 145.12 19.0781 144.812 19.2188C144.505 19.3594 144.276 19.5495 144.125 19.7891C143.974 20.0286 143.898 20.2995 143.898 20.6016C143.898 20.8151 143.948 21.0104 144.047 21.1875C144.146 21.3594 144.297 21.5208 144.5 21.6719C144.703 21.8177 144.958 21.9557 145.266 22.0859C145.573 22.2161 145.935 22.3411 146.352 22.4609C146.982 22.6484 147.531 22.8568 148 23.0859C148.469 23.3099 148.859 23.5651 149.172 23.8516C149.484 24.138 149.719 24.4635 149.875 24.8281C150.031 25.1875 150.109 25.5964 150.109 26.0547C150.109 26.5339 150.013 26.9661 149.82 27.3516C149.628 27.7318 149.352 28.0573 148.992 28.3281C148.638 28.5938 148.211 28.7995 147.711 28.9453C147.216 29.0859 146.664 29.1562 146.055 29.1562C145.508 29.1562 144.969 29.0833 144.438 28.9375C143.911 28.7917 143.432 28.5703 143 28.2734C142.568 27.9714 142.224 27.5964 141.969 27.1484C141.714 26.6953 141.586 26.1667 141.586 25.5625H143.547C143.547 25.9323 143.609 26.2474 143.734 26.5078C143.865 26.7682 144.044 26.9818 144.273 27.1484C144.503 27.3099 144.768 27.4297 145.07 27.5078C145.378 27.5859 145.706 27.625 146.055 27.625C146.513 27.625 146.896 27.5599 147.203 27.4297C147.516 27.2995 147.75 27.1172 147.906 26.8828C148.062 26.6484 148.141 26.3776 148.141 26.0703ZM151.797 24.8672V24.6875C151.797 24.0781 151.885 23.513 152.062 22.9922C152.24 22.4661 152.495 22.0104 152.828 21.625C153.167 21.2344 153.578 20.9323 154.062 20.7188C154.552 20.5 155.104 20.3906 155.719 20.3906C156.339 20.3906 156.891 20.5 157.375 20.7188C157.865 20.9323 158.279 21.2344 158.617 21.625C158.956 22.0104 159.214 22.4661 159.391 22.9922C159.568 23.513 159.656 24.0781 159.656 24.6875V24.8672C159.656 25.4766 159.568 26.0417 159.391 26.5625C159.214 27.0833 158.956 27.5391 158.617 27.9297C158.279 28.3151 157.867 28.6172 157.383 28.8359C156.898 29.0495 156.349 29.1562 155.734 29.1562C155.115 29.1562 154.56 29.0495 154.07 28.8359C153.586 28.6172 153.174 28.3151 152.836 27.9297C152.497 27.5391 152.24 27.0833 152.062 26.5625C151.885 26.0417 151.797 25.4766 151.797 24.8672ZM153.68 24.6875V24.8672C153.68 25.2474 153.719 25.6068 153.797 25.9453C153.875 26.2839 153.997 26.5807 154.164 26.8359C154.331 27.0911 154.544 27.2917 154.805 27.4375C155.065 27.5833 155.375 27.6562 155.734 27.6562C156.083 27.6562 156.385 27.5833 156.641 27.4375C156.901 27.2917 157.115 27.0911 157.281 26.8359C157.448 26.5807 157.57 26.2839 157.648 25.9453C157.732 25.6068 157.773 25.2474 157.773 24.8672V24.6875C157.773 24.3125 157.732 23.9583 157.648 23.625C157.57 23.2865 157.445 22.987 157.273 22.7266C157.107 22.4661 156.893 22.263 156.633 22.1172C156.378 21.9661 156.073 21.8906 155.719 21.8906C155.365 21.8906 155.057 21.9661 154.797 22.1172C154.542 22.263 154.331 22.4661 154.164 22.7266C153.997 22.987 153.875 23.2865 153.797 23.625C153.719 23.9583 153.68 24.3125 153.68 24.6875ZM163.75 17V29H161.859V17H163.75ZM171.398 27.0078V20.5469H173.289V29H171.508L171.398 27.0078ZM171.664 25.25L172.297 25.2344C172.297 25.8021 172.234 26.3255 172.109 26.8047C171.984 27.2786 171.792 27.6927 171.531 28.0469C171.271 28.3958 170.938 28.6693 170.531 28.8672C170.125 29.0599 169.638 29.1562 169.07 29.1562C168.659 29.1562 168.281 29.0964 167.938 28.9766C167.594 28.8568 167.297 28.6719 167.047 28.4219C166.802 28.1719 166.612 27.8464 166.477 27.4453C166.341 27.0443 166.273 26.5651 166.273 26.0078V20.5469H168.156V26.0234C168.156 26.3307 168.193 26.5885 168.266 26.7969C168.339 27 168.438 27.1641 168.562 27.2891C168.688 27.4141 168.833 27.5026 169 27.5547C169.167 27.6068 169.344 27.6328 169.531 27.6328C170.068 27.6328 170.49 27.5286 170.797 27.3203C171.109 27.1068 171.331 26.8203 171.461 26.4609C171.596 26.1016 171.664 25.6979 171.664 25.25ZM179.594 20.5469V21.9219H174.828V20.5469H179.594ZM176.203 18.4766H178.086V26.6641C178.086 26.9245 178.122 27.125 178.195 27.2656C178.273 27.401 178.38 27.4922 178.516 27.5391C178.651 27.5859 178.81 27.6094 178.992 27.6094C179.122 27.6094 179.247 27.6016 179.367 27.5859C179.487 27.5703 179.583 27.5547 179.656 27.5391L179.664 28.9766C179.508 29.0234 179.326 29.0651 179.117 29.1016C178.914 29.138 178.68 29.1562 178.414 29.1562C177.982 29.1562 177.599 29.0807 177.266 28.9297C176.932 28.7734 176.672 28.5208 176.484 28.1719C176.297 27.8229 176.203 27.3594 176.203 26.7812V18.4766ZM183.562 20.5469V29H181.672V20.5469H183.562ZM181.547 18.3281C181.547 18.0417 181.641 17.8047 181.828 17.6172C182.021 17.4245 182.286 17.3281 182.625 17.3281C182.958 17.3281 183.221 17.4245 183.414 17.6172C183.607 17.8047 183.703 18.0417 183.703 18.3281C183.703 18.6094 183.607 18.8438 183.414 19.0312C183.221 19.2188 182.958 19.3125 182.625 19.3125C182.286 19.3125 182.021 19.2188 181.828 19.0312C181.641 18.8438 181.547 18.6094 181.547 18.3281ZM185.766 24.8672V24.6875C185.766 24.0781 185.854 23.513 186.031 22.9922C186.208 22.4661 186.464 22.0104 186.797 21.625C187.135 21.2344 187.547 20.9323 188.031 20.7188C188.521 20.5 189.073 20.3906 189.688 20.3906C190.307 20.3906 190.859 20.5 191.344 20.7188C191.833 20.9323 192.247 21.2344 192.586 21.625C192.924 22.0104 193.182 22.4661 193.359 22.9922C193.536 23.513 193.625 24.0781 193.625 24.6875V24.8672C193.625 25.4766 193.536 26.0417 193.359 26.5625C193.182 27.0833 192.924 27.5391 192.586 27.9297C192.247 28.3151 191.836 28.6172 191.352 28.8359C190.867 29.0495 190.318 29.1562 189.703 29.1562C189.083 29.1562 188.529 29.0495 188.039 28.8359C187.555 28.6172 187.143 28.3151 186.805 27.9297C186.466 27.5391 186.208 27.0833 186.031 26.5625C185.854 26.0417 185.766 25.4766 185.766 24.8672ZM187.648 24.6875V24.8672C187.648 25.2474 187.688 25.6068 187.766 25.9453C187.844 26.2839 187.966 26.5807 188.133 26.8359C188.299 27.0911 188.513 27.2917 188.773 27.4375C189.034 27.5833 189.344 27.6562 189.703 27.6562C190.052 27.6562 190.354 27.5833 190.609 27.4375C190.87 27.2917 191.083 27.0911 191.25 26.8359C191.417 26.5807 191.539 26.2839 191.617 25.9453C191.701 25.6068 191.742 25.2474 191.742 24.8672V24.6875C191.742 24.3125 191.701 23.9583 191.617 23.625C191.539 23.2865 191.414 22.987 191.242 22.7266C191.076 22.4661 190.862 22.263 190.602 22.1172C190.346 21.9661 190.042 21.8906 189.688 21.8906C189.333 21.8906 189.026 21.9661 188.766 22.1172C188.51 22.263 188.299 22.4661 188.133 22.7266C187.966 22.987 187.844 23.2865 187.766 23.625C187.688 23.9583 187.648 24.3125 187.648 24.6875ZM197.57 22.3516V29H195.688V20.5469H197.461L197.57 22.3516ZM197.234 24.4609L196.625 24.4531C196.63 23.8542 196.714 23.3047 196.875 22.8047C197.042 22.3047 197.271 21.875 197.562 21.5156C197.859 21.1562 198.214 20.8802 198.625 20.6875C199.036 20.4896 199.495 20.3906 200 20.3906C200.406 20.3906 200.773 20.4479 201.102 20.5625C201.435 20.6719 201.719 20.8516 201.953 21.1016C202.193 21.3516 202.375 21.6771 202.5 22.0781C202.625 22.474 202.688 22.9609 202.688 23.5391V29H200.797V23.5312C200.797 23.125 200.737 22.8047 200.617 22.5703C200.503 22.3307 200.333 22.1615 200.109 22.0625C199.891 21.9583 199.617 21.9062 199.289 21.9062C198.966 21.9062 198.677 21.974 198.422 22.1094C198.167 22.2448 197.951 22.4297 197.773 22.6641C197.602 22.8984 197.469 23.1693 197.375 23.4766C197.281 23.7839 197.234 24.112 197.234 24.4609ZM209.852 26.7109C209.852 26.5234 209.805 26.3542 209.711 26.2031C209.617 26.0469 209.438 25.9062 209.172 25.7812C208.911 25.6562 208.526 25.5417 208.016 25.4375C207.568 25.3385 207.156 25.2214 206.781 25.0859C206.411 24.9453 206.094 24.776 205.828 24.5781C205.562 24.3802 205.357 24.1458 205.211 23.875C205.065 23.6042 204.992 23.2917 204.992 22.9375C204.992 22.5938 205.068 22.2682 205.219 21.9609C205.37 21.6536 205.586 21.3828 205.867 21.1484C206.148 20.9141 206.49 20.7292 206.891 20.5938C207.297 20.4583 207.75 20.3906 208.25 20.3906C208.958 20.3906 209.565 20.5104 210.07 20.75C210.581 20.9844 210.971 21.3047 211.242 21.7109C211.513 22.112 211.648 22.5651 211.648 23.0703H209.766C209.766 22.8464 209.708 22.638 209.594 22.4453C209.484 22.2474 209.318 22.0885 209.094 21.9688C208.87 21.8438 208.589 21.7812 208.25 21.7812C207.927 21.7812 207.659 21.8333 207.445 21.9375C207.237 22.0365 207.081 22.1667 206.977 22.3281C206.878 22.4896 206.828 22.6667 206.828 22.8594C206.828 23 206.854 23.1276 206.906 23.2422C206.964 23.3516 207.057 23.4531 207.188 23.5469C207.318 23.6354 207.495 23.7188 207.719 23.7969C207.948 23.875 208.234 23.9505 208.578 24.0234C209.224 24.1589 209.779 24.3333 210.242 24.5469C210.711 24.7552 211.07 25.026 211.32 25.3594C211.57 25.6875 211.695 26.1042 211.695 26.6094C211.695 26.9844 211.615 27.3281 211.453 27.6406C211.297 27.9479 211.068 28.2161 210.766 28.4453C210.464 28.6693 210.102 28.8438 209.68 28.9688C209.263 29.0938 208.794 29.1562 208.273 29.1562C207.508 29.1562 206.859 29.0208 206.328 28.75C205.797 28.474 205.393 28.1224 205.117 27.6953C204.846 27.263 204.711 26.8151 204.711 26.3516H206.531C206.552 26.7005 206.648 26.9792 206.82 27.1875C206.997 27.3906 207.216 27.5391 207.477 27.6328C207.742 27.7214 208.016 27.7656 208.297 27.7656C208.635 27.7656 208.919 27.7214 209.148 27.6328C209.378 27.5391 209.552 27.4141 209.672 27.2578C209.792 27.0964 209.852 26.9141 209.852 26.7109Z" fill="#0F172A"/>
<path d="M282.477 24.7578H279.516V23.2031H282.477C282.992 23.2031 283.409 23.1198 283.727 22.9531C284.044 22.7865 284.276 22.5573 284.422 22.2656C284.573 21.9688 284.648 21.6302 284.648 21.25C284.648 20.8906 284.573 20.5547 284.422 20.2422C284.276 19.9245 284.044 19.6693 283.727 19.4766C283.409 19.2839 282.992 19.1875 282.477 19.1875H280.117V29H278.156V17.625H282.477C283.357 17.625 284.104 17.7812 284.719 18.0938C285.339 18.401 285.81 18.8281 286.133 19.375C286.456 19.9167 286.617 20.5365 286.617 21.2344C286.617 21.9688 286.456 22.599 286.133 23.125C285.81 23.651 285.339 24.0547 284.719 24.3359C284.104 24.6172 283.357 24.7578 282.477 24.7578ZM290.578 22.1562V29H288.695V20.5469H290.492L290.578 22.1562ZM293.164 20.4922L293.148 22.2422C293.034 22.2214 292.909 22.2057 292.773 22.1953C292.643 22.1849 292.513 22.1797 292.383 22.1797C292.06 22.1797 291.776 22.2266 291.531 22.3203C291.286 22.4089 291.081 22.5391 290.914 22.7109C290.753 22.8776 290.628 23.0807 290.539 23.3203C290.451 23.5599 290.398 23.8281 290.383 24.125L289.953 24.1562C289.953 23.625 290.005 23.1328 290.109 22.6797C290.214 22.2266 290.37 21.8281 290.578 21.4844C290.792 21.1406 291.057 20.8724 291.375 20.6797C291.698 20.487 292.07 20.3906 292.492 20.3906C292.607 20.3906 292.729 20.401 292.859 20.4219C292.995 20.4427 293.096 20.4661 293.164 20.4922ZM296.859 20.5469V29H294.969V20.5469H296.859ZM294.844 18.3281C294.844 18.0417 294.938 17.8047 295.125 17.6172C295.318 17.4245 295.583 17.3281 295.922 17.3281C296.255 17.3281 296.518 17.4245 296.711 17.6172C296.904 17.8047 297 18.0417 297 18.3281C297 18.6094 296.904 18.8438 296.711 19.0312C296.518 19.2188 296.255 19.3125 295.922 19.3125C295.583 19.3125 295.318 19.2188 295.125 19.0312C294.938 18.8438 294.844 18.6094 294.844 18.3281ZM302.875 27.6562C303.182 27.6562 303.458 27.5964 303.703 27.4766C303.953 27.3516 304.154 27.1797 304.305 26.9609C304.461 26.7422 304.547 26.4896 304.562 26.2031H306.336C306.326 26.75 306.164 27.2474 305.852 27.6953C305.539 28.1432 305.125 28.5 304.609 28.7656C304.094 29.026 303.523 29.1562 302.898 29.1562C302.253 29.1562 301.69 29.0469 301.211 28.8281C300.732 28.6042 300.333 28.2969 300.016 27.9062C299.698 27.5156 299.458 27.0651 299.297 26.5547C299.141 26.0443 299.062 25.4974 299.062 24.9141V24.6406C299.062 24.0573 299.141 23.5104 299.297 23C299.458 22.4844 299.698 22.0312 300.016 21.6406C300.333 21.25 300.732 20.9453 301.211 20.7266C301.69 20.5026 302.25 20.3906 302.891 20.3906C303.568 20.3906 304.161 20.526 304.672 20.7969C305.182 21.0625 305.583 21.4349 305.875 21.9141C306.172 22.388 306.326 22.9401 306.336 23.5703H304.562C304.547 23.2578 304.469 22.9766 304.328 22.7266C304.193 22.4714 304 22.2682 303.75 22.1172C303.505 21.9661 303.211 21.8906 302.867 21.8906C302.487 21.8906 302.172 21.9688 301.922 22.125C301.672 22.276 301.477 22.4844 301.336 22.75C301.195 23.0104 301.094 23.3047 301.031 23.6328C300.974 23.9557 300.945 24.2917 300.945 24.6406V24.9141C300.945 25.263 300.974 25.6016 301.031 25.9297C301.089 26.2578 301.188 26.5521 301.328 26.8125C301.474 27.0677 301.672 27.2734 301.922 27.4297C302.172 27.5807 302.49 27.6562 302.875 27.6562ZM310.297 20.5469V29H308.406V20.5469H310.297ZM308.281 18.3281C308.281 18.0417 308.375 17.8047 308.562 17.6172C308.755 17.4245 309.021 17.3281 309.359 17.3281C309.693 17.3281 309.956 17.4245 310.148 17.6172C310.341 17.8047 310.438 18.0417 310.438 18.3281C310.438 18.6094 310.341 18.8438 310.148 19.0312C309.956 19.2188 309.693 19.3125 309.359 19.3125C309.021 19.3125 308.755 19.2188 308.562 19.0312C308.375 18.8438 308.281 18.6094 308.281 18.3281ZM314.727 22.3516V29H312.844V20.5469H314.617L314.727 22.3516ZM314.391 24.4609L313.781 24.4531C313.786 23.8542 313.87 23.3047 314.031 22.8047C314.198 22.3047 314.427 21.875 314.719 21.5156C315.016 21.1562 315.37 20.8802 315.781 20.6875C316.193 20.4896 316.651 20.3906 317.156 20.3906C317.562 20.3906 317.93 20.4479 318.258 20.5625C318.591 20.6719 318.875 20.8516 319.109 21.1016C319.349 21.3516 319.531 21.6771 319.656 22.0781C319.781 22.474 319.844 22.9609 319.844 23.5391V29H317.953V23.5312C317.953 23.125 317.893 22.8047 317.773 22.5703C317.659 22.3307 317.49 22.1615 317.266 22.0625C317.047 21.9583 316.773 21.9062 316.445 21.9062C316.122 21.9062 315.833 21.974 315.578 22.1094C315.323 22.2448 315.107 22.4297 314.93 22.6641C314.758 22.8984 314.625 23.1693 314.531 23.4766C314.438 23.7839 314.391 24.112 314.391 24.4609ZM327.68 20.5469H329.391V28.7656C329.391 29.526 329.229 30.1719 328.906 30.7031C328.583 31.2344 328.133 31.638 327.555 31.9141C326.977 32.1953 326.307 32.3359 325.547 32.3359C325.224 32.3359 324.865 32.2891 324.469 32.1953C324.078 32.1016 323.698 31.9505 323.328 31.7422C322.964 31.5391 322.659 31.2708 322.414 30.9375L323.297 29.8281C323.599 30.1875 323.932 30.4505 324.297 30.6172C324.661 30.7839 325.044 30.8672 325.445 30.8672C325.878 30.8672 326.245 30.7865 326.547 30.625C326.854 30.4688 327.091 30.237 327.258 29.9297C327.424 29.6224 327.508 29.2474 327.508 28.8047V22.4609L327.68 20.5469ZM321.938 24.8672V24.7031C321.938 24.0625 322.016 23.4792 322.172 22.9531C322.328 22.4219 322.552 21.9661 322.844 21.5859C323.135 21.2005 323.49 20.9062 323.906 20.7031C324.323 20.4948 324.794 20.3906 325.32 20.3906C325.867 20.3906 326.333 20.4896 326.719 20.6875C327.109 20.8854 327.435 21.1693 327.695 21.5391C327.956 21.9036 328.159 22.3411 328.305 22.8516C328.456 23.3568 328.568 23.9193 328.641 24.5391V25.0625C328.573 25.6667 328.458 26.2188 328.297 26.7188C328.135 27.2188 327.922 27.651 327.656 28.0156C327.391 28.3802 327.062 28.6615 326.672 28.8594C326.286 29.0573 325.831 29.1562 325.305 29.1562C324.789 29.1562 324.323 29.0495 323.906 28.8359C323.495 28.6224 323.141 28.3229 322.844 27.9375C322.552 27.5521 322.328 27.099 322.172 26.5781C322.016 26.0521 321.938 25.4818 321.938 24.8672ZM323.82 24.7031V24.8672C323.82 25.2526 323.857 25.612 323.93 25.9453C324.008 26.2786 324.125 26.5729 324.281 26.8281C324.443 27.0781 324.646 27.276 324.891 27.4219C325.141 27.5625 325.435 27.6328 325.773 27.6328C326.216 27.6328 326.578 27.5391 326.859 27.3516C327.146 27.1641 327.365 26.9115 327.516 26.5938C327.672 26.2708 327.781 25.9115 327.844 25.5156V24.1016C327.812 23.7943 327.747 23.5078 327.648 23.2422C327.555 22.9766 327.427 22.7448 327.266 22.5469C327.104 22.3438 326.901 22.1875 326.656 22.0781C326.411 21.9635 326.122 21.9062 325.789 21.9062C325.451 21.9062 325.156 21.9792 324.906 22.125C324.656 22.2708 324.451 22.4714 324.289 22.7266C324.133 22.9818 324.016 23.2786 323.938 23.6172C323.859 23.9557 323.82 24.3177 323.82 24.7031Z" fill="#0F172A"/>
<path d="M396.156 17.625H400.18C401.044 17.625 401.781 17.7552 402.391 18.0156C403 18.276 403.466 18.6615 403.789 19.1719C404.117 19.6771 404.281 20.3021 404.281 21.0469C404.281 21.6146 404.177 22.1146 403.969 22.5469C403.76 22.9792 403.466 23.3438 403.086 23.6406C402.706 23.9323 402.253 24.1589 401.727 24.3203L401.133 24.6094H397.516L397.5 23.0547H400.211C400.68 23.0547 401.07 22.9714 401.383 22.8047C401.695 22.638 401.93 22.4115 402.086 22.125C402.247 21.8333 402.328 21.5052 402.328 21.1406C402.328 20.7448 402.25 20.401 402.094 20.1094C401.943 19.8125 401.708 19.5859 401.391 19.4297C401.073 19.2682 400.669 19.1875 400.18 19.1875H398.117V29H396.156V17.625ZM402.648 29L399.977 23.8906L402.031 23.8828L404.742 28.8984V29H402.648ZM410.273 29.1562C409.648 29.1562 409.083 29.0547 408.578 28.8516C408.078 28.6432 407.651 28.3542 407.297 27.9844C406.948 27.6146 406.68 27.1797 406.492 26.6797C406.305 26.1797 406.211 25.6406 406.211 25.0625V24.75C406.211 24.0885 406.307 23.4896 406.5 22.9531C406.693 22.4167 406.961 21.9583 407.305 21.5781C407.648 21.1927 408.055 20.8984 408.523 20.6953C408.992 20.4922 409.5 20.3906 410.047 20.3906C410.651 20.3906 411.18 20.4922 411.633 20.6953C412.086 20.8984 412.461 21.1849 412.758 21.5547C413.06 21.9193 413.284 22.3542 413.43 22.8594C413.581 23.3646 413.656 23.9219 413.656 24.5312V25.3359H407.125V23.9844H411.797V23.8359C411.786 23.4974 411.719 23.1797 411.594 22.8828C411.474 22.5859 411.289 22.3464 411.039 22.1641C410.789 21.9818 410.456 21.8906 410.039 21.8906C409.727 21.8906 409.448 21.9583 409.203 22.0938C408.964 22.224 408.763 22.4141 408.602 22.6641C408.44 22.9141 408.315 23.2161 408.227 23.5703C408.143 23.9193 408.102 24.3125 408.102 24.75V25.0625C408.102 25.4323 408.151 25.776 408.25 26.0938C408.354 26.4062 408.505 26.6797 408.703 26.9141C408.901 27.1484 409.141 27.3333 409.422 27.4688C409.703 27.599 410.023 27.6641 410.383 27.6641C410.836 27.6641 411.24 27.5729 411.594 27.3906C411.948 27.2083 412.255 26.9505 412.516 26.6172L413.508 27.5781C413.326 27.8438 413.089 28.099 412.797 28.3438C412.505 28.5833 412.148 28.7786 411.727 28.9297C411.31 29.0807 410.826 29.1562 410.273 29.1562ZM420.367 26.7109C420.367 26.5234 420.32 26.3542 420.227 26.2031C420.133 26.0469 419.953 25.9062 419.688 25.7812C419.427 25.6562 419.042 25.5417 418.531 25.4375C418.083 25.3385 417.672 25.2214 417.297 25.0859C416.927 24.9453 416.609 24.776 416.344 24.5781C416.078 24.3802 415.872 24.1458 415.727 23.875C415.581 23.6042 415.508 23.2917 415.508 22.9375C415.508 22.5938 415.583 22.2682 415.734 21.9609C415.885 21.6536 416.102 21.3828 416.383 21.1484C416.664 20.9141 417.005 20.7292 417.406 20.5938C417.812 20.4583 418.266 20.3906 418.766 20.3906C419.474 20.3906 420.081 20.5104 420.586 20.75C421.096 20.9844 421.487 21.3047 421.758 21.7109C422.029 22.112 422.164 22.5651 422.164 23.0703H420.281C420.281 22.8464 420.224 22.638 420.109 22.4453C420 22.2474 419.833 22.0885 419.609 21.9688C419.385 21.8438 419.104 21.7812 418.766 21.7812C418.443 21.7812 418.174 21.8333 417.961 21.9375C417.753 22.0365 417.596 22.1667 417.492 22.3281C417.393 22.4896 417.344 22.6667 417.344 22.8594C417.344 23 417.37 23.1276 417.422 23.2422C417.479 23.3516 417.573 23.4531 417.703 23.5469C417.833 23.6354 418.01 23.7188 418.234 23.7969C418.464 23.875 418.75 23.9505 419.094 24.0234C419.74 24.1589 420.294 24.3333 420.758 24.5469C421.227 24.7552 421.586 25.026 421.836 25.3594C422.086 25.6875 422.211 26.1042 422.211 26.6094C422.211 26.9844 422.13 27.3281 421.969 27.6406C421.812 27.9479 421.583 28.2161 421.281 28.4453C420.979 28.6693 420.617 28.8438 420.195 28.9688C419.779 29.0938 419.31 29.1562 418.789 29.1562C418.023 29.1562 417.375 29.0208 416.844 28.75C416.312 28.474 415.909 28.1224 415.633 27.6953C415.362 27.263 415.227 26.8151 415.227 26.3516H417.047C417.068 26.7005 417.164 26.9792 417.336 27.1875C417.513 27.3906 417.732 27.5391 417.992 27.6328C418.258 27.7214 418.531 27.7656 418.812 27.7656C419.151 27.7656 419.435 27.7214 419.664 27.6328C419.893 27.5391 420.068 27.4141 420.188 27.2578C420.307 27.0964 420.367 26.9141 420.367 26.7109ZM424 24.8672V24.6875C424 24.0781 424.089 23.513 424.266 22.9922C424.443 22.4661 424.698 22.0104 425.031 21.625C425.37 21.2344 425.781 20.9323 426.266 20.7188C426.755 20.5 427.307 20.3906 427.922 20.3906C428.542 20.3906 429.094 20.5 429.578 20.7188C430.068 20.9323 430.482 21.2344 430.82 21.625C431.159 22.0104 431.417 22.4661 431.594 22.9922C431.771 23.513 431.859 24.0781 431.859 24.6875V24.8672C431.859 25.4766 431.771 26.0417 431.594 26.5625C431.417 27.0833 431.159 27.5391 430.82 27.9297C430.482 28.3151 430.07 28.6172 429.586 28.8359C429.102 29.0495 428.552 29.1562 427.938 29.1562C427.318 29.1562 426.763 29.0495 426.273 28.8359C425.789 28.6172 425.378 28.3151 425.039 27.9297C424.701 27.5391 424.443 27.0833 424.266 26.5625C424.089 26.0417 424 25.4766 424 24.8672ZM425.883 24.6875V24.8672C425.883 25.2474 425.922 25.6068 426 25.9453C426.078 26.2839 426.201 26.5807 426.367 26.8359C426.534 27.0911 426.747 27.2917 427.008 27.4375C427.268 27.5833 427.578 27.6562 427.938 27.6562C428.286 27.6562 428.589 27.5833 428.844 27.4375C429.104 27.2917 429.318 27.0911 429.484 26.8359C429.651 26.5807 429.773 26.2839 429.852 25.9453C429.935 25.6068 429.977 25.2474 429.977 24.8672V24.6875C429.977 24.3125 429.935 23.9583 429.852 23.625C429.773 23.2865 429.648 22.987 429.477 22.7266C429.31 22.4661 429.096 22.263 428.836 22.1172C428.581 21.9661 428.276 21.8906 427.922 21.8906C427.568 21.8906 427.26 21.9661 427 22.1172C426.745 22.263 426.534 22.4661 426.367 22.7266C426.201 22.987 426.078 23.2865 426 23.625C425.922 23.9583 425.883 24.3125 425.883 24.6875ZM439.023 27.0078V20.5469H440.914V29H439.133L439.023 27.0078ZM439.289 25.25L439.922 25.2344C439.922 25.8021 439.859 26.3255 439.734 26.8047C439.609 27.2786 439.417 27.6927 439.156 28.0469C438.896 28.3958 438.562 28.6693 438.156 28.8672C437.75 29.0599 437.263 29.1562 436.695 29.1562C436.284 29.1562 435.906 29.0964 435.562 28.9766C435.219 28.8568 434.922 28.6719 434.672 28.4219C434.427 28.1719 434.237 27.8464 434.102 27.4453C433.966 27.0443 433.898 26.5651 433.898 26.0078V20.5469H435.781V26.0234C435.781 26.3307 435.818 26.5885 435.891 26.7969C435.964 27 436.062 27.1641 436.188 27.2891C436.312 27.4141 436.458 27.5026 436.625 27.5547C436.792 27.6068 436.969 27.6328 437.156 27.6328C437.693 27.6328 438.115 27.5286 438.422 27.3203C438.734 27.1068 438.956 26.8203 439.086 26.4609C439.221 26.1016 439.289 25.6979 439.289 25.25ZM445.234 22.1562V29H443.352V20.5469H445.148L445.234 22.1562ZM447.82 20.4922L447.805 22.2422C447.69 22.2214 447.565 22.2057 447.43 22.1953C447.299 22.1849 447.169 22.1797 447.039 22.1797C446.716 22.1797 446.432 22.2266 446.188 22.3203C445.943 22.4089 445.737 22.5391 445.57 22.7109C445.409 22.8776 445.284 23.0807 445.195 23.3203C445.107 23.5599 445.055 23.8281 445.039 24.125L444.609 24.1562C444.609 23.625 444.661 23.1328 444.766 22.6797C444.87 22.2266 445.026 21.8281 445.234 21.4844C445.448 21.1406 445.714 20.8724 446.031 20.6797C446.354 20.487 446.727 20.3906 447.148 20.3906C447.263 20.3906 447.385 20.401 447.516 20.4219C447.651 20.4427 447.753 20.4661 447.82 20.4922ZM452.797 27.6562C453.104 27.6562 453.38 27.5964 453.625 27.4766C453.875 27.3516 454.076 27.1797 454.227 26.9609C454.383 26.7422 454.469 26.4896 454.484 26.2031H456.258C456.247 26.75 456.086 27.2474 455.773 27.6953C455.461 28.1432 455.047 28.5 454.531 28.7656C454.016 29.026 453.445 29.1562 452.82 29.1562C452.174 29.1562 451.612 29.0469 451.133 28.8281C450.654 28.6042 450.255 28.2969 449.938 27.9062C449.62 27.5156 449.38 27.0651 449.219 26.5547C449.062 26.0443 448.984 25.4974 448.984 24.9141V24.6406C448.984 24.0573 449.062 23.5104 449.219 23C449.38 22.4844 449.62 22.0312 449.938 21.6406C450.255 21.25 450.654 20.9453 451.133 20.7266C451.612 20.5026 452.172 20.3906 452.812 20.3906C453.49 20.3906 454.083 20.526 454.594 20.7969C455.104 21.0625 455.505 21.4349 455.797 21.9141C456.094 22.388 456.247 22.9401 456.258 23.5703H454.484C454.469 23.2578 454.391 22.9766 454.25 22.7266C454.115 22.4714 453.922 22.2682 453.672 22.1172C453.427 21.9661 453.133 21.8906 452.789 21.8906C452.409 21.8906 452.094 21.9688 451.844 22.125C451.594 22.276 451.398 22.4844 451.258 22.75C451.117 23.0104 451.016 23.3047 450.953 23.6328C450.896 23.9557 450.867 24.2917 450.867 24.6406V24.9141C450.867 25.263 450.896 25.6016 450.953 25.9297C451.01 26.2578 451.109 26.5521 451.25 26.8125C451.396 27.0677 451.594 27.2734 451.844 27.4297C452.094 27.5807 452.411 27.6562 452.797 27.6562ZM461.93 29.1562C461.305 29.1562 460.74 29.0547 460.234 28.8516C459.734 28.6432 459.307 28.3542 458.953 27.9844C458.604 27.6146 458.336 27.1797 458.148 26.6797C457.961 26.1797 457.867 25.6406 457.867 25.0625V24.75C457.867 24.0885 457.964 23.4896 458.156 22.9531C458.349 22.4167 458.617 21.9583 458.961 21.5781C459.305 21.1927 459.711 20.8984 460.18 20.6953C460.648 20.4922 461.156 20.3906 461.703 20.3906C462.307 20.3906 462.836 20.4922 463.289 20.6953C463.742 20.8984 464.117 21.1849 464.414 21.5547C464.716 21.9193 464.94 22.3542 465.086 22.8594C465.237 23.3646 465.312 23.9219 465.312 24.5312V25.3359H458.781V23.9844H463.453V23.8359C463.443 23.4974 463.375 23.1797 463.25 22.8828C463.13 22.5859 462.945 22.3464 462.695 22.1641C462.445 21.9818 462.112 21.8906 461.695 21.8906C461.383 21.8906 461.104 21.9583 460.859 22.0938C460.62 22.224 460.419 22.4141 460.258 22.6641C460.096 22.9141 459.971 23.2161 459.883 23.5703C459.799 23.9193 459.758 24.3125 459.758 24.75V25.0625C459.758 25.4323 459.807 25.776 459.906 26.0938C460.01 26.4062 460.161 26.6797 460.359 26.9141C460.557 27.1484 460.797 27.3333 461.078 27.4688C461.359 27.599 461.68 27.6641 462.039 27.6641C462.492 27.6641 462.896 27.5729 463.25 27.3906C463.604 27.2083 463.911 26.9505 464.172 26.6172L465.164 27.5781C464.982 27.8438 464.745 28.099 464.453 28.3438C464.161 28.5833 463.805 28.7786 463.383 28.9297C462.966 29.0807 462.482 29.1562 461.93 29.1562ZM472.023 26.7109C472.023 26.5234 471.977 26.3542 471.883 26.2031C471.789 26.0469 471.609 25.9062 471.344 25.7812C471.083 25.6562 470.698 25.5417 470.188 25.4375C469.74 25.3385 469.328 25.2214 468.953 25.0859C468.583 24.9453 468.266 24.776 468 24.5781C467.734 24.3802 467.529 24.1458 467.383 23.875C467.237 23.6042 467.164 23.2917 467.164 22.9375C467.164 22.5938 467.24 22.2682 467.391 21.9609C467.542 21.6536 467.758 21.3828 468.039 21.1484C468.32 20.9141 468.661 20.7292 469.062 20.5938C469.469 20.4583 469.922 20.3906 470.422 20.3906C471.13 20.3906 471.737 20.5104 472.242 20.75C472.753 20.9844 473.143 21.3047 473.414 21.7109C473.685 22.112 473.82 22.5651 473.82 23.0703H471.938C471.938 22.8464 471.88 22.638 471.766 22.4453C471.656 22.2474 471.49 22.0885 471.266 21.9688C471.042 21.8438 470.76 21.7812 470.422 21.7812C470.099 21.7812 469.831 21.8333 469.617 21.9375C469.409 22.0365 469.253 22.1667 469.148 22.3281C469.049 22.4896 469 22.6667 469 22.8594C469 23 469.026 23.1276 469.078 23.2422C469.135 23.3516 469.229 23.4531 469.359 23.5469C469.49 23.6354 469.667 23.7188 469.891 23.7969C470.12 23.875 470.406 23.9505 470.75 24.0234C471.396 24.1589 471.951 24.3333 472.414 24.5469C472.883 24.7552 473.242 25.026 473.492 25.3594C473.742 25.6875 473.867 26.1042 473.867 26.6094C473.867 26.9844 473.786 27.3281 473.625 27.6406C473.469 27.9479 473.24 28.2161 472.938 28.4453C472.635 28.6693 472.273 28.8438 471.852 28.9688C471.435 29.0938 470.966 29.1562 470.445 29.1562C469.68 29.1562 469.031 29.0208 468.5 28.75C467.969 28.474 467.565 28.1224 467.289 27.6953C467.018 27.263 466.883 26.8151 466.883 26.3516H468.703C468.724 26.7005 468.82 26.9792 468.992 27.1875C469.169 27.3906 469.388 27.5391 469.648 27.6328C469.914 27.7214 470.188 27.7656 470.469 27.7656C470.807 27.7656 471.091 27.7214 471.32 27.6328C471.549 27.5391 471.724 27.4141 471.844 27.2578C471.964 27.0964 472.023 26.9141 472.023 26.7109Z" fill="#0F172A"/>
<path d="M495.071 25.3139L500.021 20.3639C500.113 20.2684 500.223 20.1922 500.345 20.1398C500.467 20.0874 500.599 20.0598 500.731 20.0586C500.864 20.0575 500.996 20.0828 501.119 20.1331C501.242 20.1833 501.353 20.2576 501.447 20.3515C501.541 20.4454 501.615 20.557 501.666 20.6799C501.716 20.8028 501.741 20.9345 501.74 21.0673C501.739 21.2001 501.711 21.3313 501.659 21.4533C501.607 21.5753 501.53 21.6856 501.435 21.7779L495.778 27.4349C495.59 27.6224 495.336 27.7277 495.071 27.7277C494.806 27.7277 494.551 27.6224 494.364 27.4349L488.707 21.7779C488.611 21.6856 488.535 21.5753 488.483 21.4533C488.43 21.3313 488.403 21.2001 488.402 21.0673C488.4 20.9345 488.426 20.8028 488.476 20.6799C488.526 20.557 488.601 20.4454 488.695 20.3515C488.788 20.2576 488.9 20.1833 489.023 20.1331C489.146 20.0828 489.278 20.0575 489.41 20.0586C489.543 20.0598 489.674 20.0874 489.796 20.1398C489.918 20.1922 490.029 20.2684 490.121 20.3639L495.071 25.3139Z" fill="#0F172A"/>
</svg>
