<svg width="371" height="869" viewBox="0 0 371 869" fill="none" xmlns="http://www.w3.org/2000/svg">
<path fill-rule="evenodd" clip-rule="evenodd" d="M523.017 341.717C523.028 402.39 502.01 505.293 473.25 550.556C429.455 619.481 361.151 650.967 275.597 662.221C115.068 683.337 0.0165815 579.614 0.0165848 503.88C0.0165879 433.142 23.9182 389.522 91.8491 341.717C159.78 293.911 207.25 259.77 238.468 202.615C269.224 146.309 309.341 121 351.237 121C396.55 121 440.914 138.526 473.25 179.634C506.239 221.573 523.005 281.059 523.017 341.717Z" fill="#E2E8F0"/>
<path fill-rule="evenodd" clip-rule="evenodd" d="M159.983 536.491C139.902 571.259 116.078 636.135 115.092 670.152C113.591 721.953 136.4 759.18 174.295 789.658C245.398 846.845 335.685 819.715 360.743 776.312C384.148 735.773 386.954 704.062 369.726 657.586C352.499 611.111 340.703 578.212 344.428 536.69C348.097 495.783 336.956 470.012 316.576 458.245C294.533 445.519 267.153 443.103 237.821 457.58C207.897 472.349 180.058 501.732 159.983 536.491Z" fill="#FACC15"/>
<path d="M166.323 248.076L161.736 250.488L162.612 245.38L158.899 241.762L164.029 241.016L166.323 236.368L168.618 241.016L173.747 241.762L170.035 245.38L170.912 250.488L166.323 248.076Z" fill="#94A3B8"/>
<path d="M188.618 10.7317L185.014 12.6265L185.702 8.61262L182.785 5.77009L186.815 5.18441L188.618 1.53198L190.421 5.18441L194.451 5.77009L191.534 8.61262L192.223 12.6265L188.618 10.7317Z" fill="#94A3B8"/>
<g clip-path="url(#clip0_3_1806)">
<path d="M296.019 409.516C294.638 409.516 293.519 408.397 293.519 407.016C293.519 405.635 294.638 404.516 296.019 404.516C297.399 404.516 298.519 405.635 298.519 407.016C298.519 408.397 297.399 409.516 296.019 409.516Z" fill="#94A3B8"/>
</g>
<path d="M223.654 362.271C221.308 362.271 219.407 360.37 219.407 358.025C219.407 355.679 221.308 353.778 223.654 353.778C225.999 353.778 227.9 355.679 227.9 358.025C227.9 360.37 225.999 362.271 223.654 362.271Z" fill="#94A3B8"/>
<g clip-path="url(#clip1_3_1806)">
<path d="M191 195.516C189.619 195.516 188.5 194.397 188.5 193.016C188.5 191.636 189.619 190.516 191 190.516C192.381 190.516 193.5 191.636 193.5 193.016C193.5 194.397 192.381 195.516 191 195.516Z" fill="#94A3B8"/>
</g>
<path d="M238.007 261.884C234.782 261.884 232.168 259.27 232.168 256.045C232.168 252.82 234.782 250.206 238.007 250.206C241.232 250.206 243.846 252.82 243.846 256.045C243.846 259.27 241.232 261.884 238.007 261.884Z" fill="#94A3B8"/>
<g clip-path="url(#clip2_3_1806)">
<path d="M200.996 131.086C199.823 131.086 198.873 130.135 198.873 128.963C198.873 127.79 199.823 126.839 200.996 126.839C202.169 126.839 203.12 127.79 203.12 128.963C203.12 130.135 202.169 131.086 200.996 131.086Z" fill="#94A3B8"/>
</g>
<g clip-path="url(#clip3_3_1806)">
<path d="M243.478 172.199C241.425 172.199 239.762 170.535 239.762 168.483C239.762 166.431 241.425 164.767 243.478 164.767C245.53 164.767 247.193 166.431 247.193 168.483C247.193 170.535 245.53 172.199 243.478 172.199Z" fill="#94A3B8"/>
</g>
<g clip-path="url(#clip4_3_1806)">
<path d="M105.171 241.445C103.412 241.445 101.986 240.02 101.986 238.26C101.986 236.501 103.412 235.075 105.171 235.075C106.93 235.075 108.356 236.501 108.356 238.26C108.356 240.02 106.93 241.445 105.171 241.445Z" fill="#94A3B8"/>
</g>
<path d="M260.67 111.077V107.096C260.67 106.885 260.586 106.682 260.437 106.533C260.287 106.384 260.085 106.3 259.874 106.3C259.662 106.3 259.46 106.384 259.311 106.533C259.161 106.682 259.077 106.885 259.077 107.096V111.077H255.096C254.885 111.077 254.682 111.161 254.533 111.311C254.384 111.46 254.3 111.662 254.3 111.874C254.3 112.085 254.384 112.287 254.533 112.437C254.682 112.586 254.885 112.67 255.096 112.67H259.077V116.651C259.077 116.862 259.161 117.065 259.311 117.214C259.46 117.364 259.662 117.447 259.874 117.447C260.085 117.447 260.287 117.364 260.437 117.214C260.586 117.065 260.67 116.862 260.67 116.651V112.67H264.651C264.862 112.67 265.065 112.586 265.214 112.437C265.364 112.287 265.447 112.085 265.447 111.874C265.447 111.662 265.364 111.46 265.214 111.311C265.065 111.161 264.862 111.077 264.651 111.077H260.67Z" fill="#94A3B8"/>
<path d="M224.248 57.0754V54.952C224.248 54.8394 224.203 54.7314 224.124 54.6517C224.044 54.5721 223.936 54.5273 223.824 54.5273C223.711 54.5273 223.603 54.5721 223.523 54.6517C223.444 54.7314 223.399 54.8394 223.399 54.952V57.0754H221.276C221.163 57.0754 221.055 57.1201 220.975 57.1997C220.896 57.2794 220.851 57.3874 220.851 57.5C220.851 57.6127 220.896 57.7207 220.975 57.8003C221.055 57.88 221.163 57.9247 221.276 57.9247H223.399V60.0481C223.399 60.1607 223.444 60.2687 223.523 60.3483C223.603 60.428 223.711 60.4727 223.824 60.4727C223.936 60.4727 224.044 60.428 224.124 60.3483C224.203 60.2687 224.248 60.1607 224.248 60.0481V57.9247H226.372C226.484 57.9247 226.592 57.88 226.672 57.8003C226.751 57.7207 226.796 57.6127 226.796 57.5C226.796 57.3874 226.751 57.2794 226.672 57.1997C226.592 57.1201 226.484 57.0754 226.372 57.0754H224.248Z" fill="#94A3B8"/>
<g clip-path="url(#clip5_3_1806)">
<path d="M302.841 92.0275C301.081 92.0275 299.656 90.6016 299.656 88.8425C299.656 87.0834 301.081 85.6575 302.841 85.6575C304.6 85.6575 306.026 87.0834 306.026 88.8425C306.026 90.6016 304.6 92.0275 302.841 92.0275Z" fill="#94A3B8"/>
</g>
<path d="M245.709 498.841V496.718C245.709 496.605 245.664 496.497 245.585 496.417C245.505 496.338 245.397 496.293 245.284 496.293C245.172 496.293 245.064 496.338 244.984 496.417C244.905 496.497 244.86 496.605 244.86 496.718V498.841H242.736C242.624 498.841 242.516 498.886 242.436 498.965C242.357 499.045 242.312 499.153 242.312 499.266C242.312 499.378 242.357 499.486 242.436 499.566C242.516 499.646 242.624 499.69 242.736 499.69H244.86V501.814C244.86 501.926 244.905 502.034 244.984 502.114C245.064 502.194 245.172 502.238 245.284 502.238C245.397 502.238 245.505 502.194 245.585 502.114C245.664 502.034 245.709 501.926 245.709 501.814V499.69H247.832C247.945 499.69 248.053 499.646 248.133 499.566C248.212 499.486 248.257 499.378 248.257 499.266C248.257 499.153 248.212 499.045 248.133 498.965C248.053 498.886 247.945 498.841 247.832 498.841H245.709Z" fill="#94A3B8"/>
<path d="M332.552 187.158L333.491 186.22C333.516 186.195 333.536 186.166 333.55 186.134C333.564 186.101 333.571 186.066 333.572 186.031C333.572 185.996 333.565 185.961 333.552 185.928C333.539 185.896 333.519 185.866 333.494 185.841C333.469 185.816 333.439 185.797 333.407 185.783C333.374 185.77 333.339 185.763 333.304 185.763C333.269 185.764 333.234 185.771 333.201 185.785C333.169 185.799 333.14 185.819 333.115 185.844L332.177 186.783L331.239 185.844C331.214 185.819 331.185 185.799 331.152 185.785C331.12 185.771 331.085 185.764 331.05 185.763C331.015 185.763 330.98 185.77 330.947 185.783C330.915 185.797 330.885 185.816 330.86 185.841C330.835 185.866 330.815 185.896 330.802 185.928C330.789 185.961 330.782 185.996 330.782 186.031C330.783 186.066 330.79 186.101 330.804 186.134C330.818 186.166 330.838 186.195 330.863 186.22L331.802 187.158L330.863 188.097C330.838 188.121 330.818 188.15 330.804 188.183C330.79 188.215 330.783 188.25 330.782 188.285C330.782 188.32 330.789 188.355 330.802 188.388C330.815 188.421 330.835 188.45 330.86 188.475C330.885 188.5 330.915 188.52 330.947 188.533C330.98 188.546 331.015 188.553 331.05 188.553C331.085 188.553 331.12 188.545 331.152 188.531C331.185 188.517 331.214 188.497 331.239 188.472L332.177 187.534L333.115 188.472C333.14 188.497 333.169 188.517 333.201 188.531C333.234 188.545 333.269 188.553 333.304 188.553C333.339 188.553 333.374 188.546 333.407 188.533C333.439 188.52 333.469 188.5 333.494 188.475C333.519 188.45 333.539 188.421 333.552 188.388C333.565 188.355 333.572 188.32 333.572 188.285C333.571 188.25 333.564 188.215 333.55 188.183C333.536 188.15 333.516 188.121 333.491 188.097L332.552 187.158V187.158Z" fill="#94A3B8"/>
<path d="M275.601 42.4756L278.416 39.66C278.492 39.5866 278.553 39.4987 278.595 39.4015C278.636 39.3044 278.658 39.1999 278.659 39.0942C278.66 38.9885 278.64 38.8836 278.6 38.7858C278.56 38.6879 278.501 38.599 278.426 38.5242C278.351 38.4495 278.262 38.3903 278.165 38.3503C278.067 38.3103 277.962 38.2901 277.856 38.291C277.75 38.292 277.646 38.3139 277.549 38.3557C277.452 38.3974 277.364 38.4581 277.29 38.5341L274.475 41.3489L271.66 38.5341C271.587 38.4581 271.499 38.3974 271.402 38.3557C271.304 38.3139 271.2 38.292 271.094 38.291C270.988 38.2901 270.884 38.3103 270.786 38.3503C270.688 38.3903 270.599 38.4495 270.524 38.5242C270.449 38.599 270.39 38.6879 270.35 38.7858C270.31 38.8836 270.29 38.9885 270.291 39.0942C270.292 39.1999 270.314 39.3044 270.356 39.4015C270.397 39.4987 270.458 39.5866 270.534 39.66L273.349 42.4748L270.534 45.2903C270.458 45.3638 270.397 45.4517 270.356 45.5488C270.314 45.646 270.292 45.7504 270.291 45.8562C270.29 45.9619 270.31 46.0667 270.35 46.1646C270.39 46.2625 270.449 46.3514 270.524 46.4261C270.599 46.5009 270.688 46.56 270.786 46.6C270.884 46.6401 270.988 46.6602 271.094 46.6593C271.2 46.6584 271.304 46.6364 271.402 46.5947C271.499 46.553 271.587 46.4923 271.66 46.4163L274.475 43.6015L277.29 46.4163C277.364 46.4923 277.452 46.553 277.549 46.5947C277.646 46.6364 277.75 46.6584 277.856 46.6593C277.962 46.6602 278.067 46.6401 278.165 46.6C278.262 46.56 278.351 46.5009 278.426 46.4261C278.501 46.3514 278.56 46.2625 278.6 46.1646C278.64 46.0667 278.66 45.9619 278.659 45.8562C278.658 45.7504 278.636 45.646 278.595 45.5488C278.553 45.4517 278.492 45.3638 278.416 45.2903L275.601 42.4748V42.4756Z" fill="#94A3B8"/>
<path d="M289.52 318.12V314.935C289.52 314.766 289.453 314.604 289.334 314.485C289.214 314.365 289.052 314.298 288.883 314.298C288.714 314.298 288.552 314.365 288.433 314.485C288.313 314.604 288.246 314.766 288.246 314.935V318.12H285.061C284.892 318.12 284.73 318.187 284.611 318.307C284.491 318.426 284.424 318.588 284.424 318.757C284.424 318.926 284.491 319.088 284.611 319.208C284.73 319.327 284.892 319.394 285.061 319.394H288.246V322.579C288.246 322.748 288.313 322.91 288.433 323.03C288.552 323.149 288.714 323.216 288.883 323.216C289.052 323.216 289.214 323.149 289.334 323.03C289.453 322.91 289.52 322.748 289.52 322.579V319.394H292.705C292.874 319.394 293.036 319.327 293.156 319.208C293.275 319.088 293.342 318.926 293.342 318.757C293.342 318.588 293.275 318.426 293.156 318.307C293.036 318.187 292.874 318.12 292.705 318.12H289.52Z" fill="#94A3B8"/>
<path d="M7.12976 266.051V263.397C7.12976 263.257 7.07383 263.121 6.97428 263.022C6.87473 262.922 6.73971 262.866 6.59892 262.866C6.45814 262.866 6.32311 262.922 6.22356 263.022C6.12401 263.121 6.06808 263.257 6.06808 263.397V266.051H3.41389C3.27311 266.051 3.13809 266.107 3.03854 266.207C2.93898 266.307 2.88306 266.442 2.88306 266.582C2.88306 266.723 2.93898 266.858 3.03854 266.958C3.13809 267.057 3.27311 267.113 3.41389 267.113H6.06808V269.767C6.06808 269.908 6.12401 270.043 6.22356 270.143C6.32311 270.242 6.45814 270.298 6.59892 270.298C6.73971 270.298 6.87473 270.242 6.97428 270.143C7.07383 270.043 7.12976 269.908 7.12976 269.767V267.113H9.78395C9.92474 267.113 10.0598 267.057 10.1593 266.958C10.2589 266.858 10.3148 266.723 10.3148 266.582C10.3148 266.442 10.2589 266.307 10.1593 266.207C10.0598 266.107 9.92474 266.051 9.78395 266.051H7.12976Z" fill="#94A3B8"/>
<path d="M291.673 214.053L293.174 212.552C293.214 212.512 293.247 212.466 293.269 212.414C293.291 212.362 293.303 212.306 293.303 212.25C293.304 212.194 293.293 212.138 293.272 212.085C293.25 212.033 293.219 211.986 293.179 211.946C293.139 211.906 293.092 211.875 293.04 211.853C292.987 211.832 292.931 211.821 292.875 211.822C292.819 211.822 292.763 211.834 292.711 211.856C292.659 211.878 292.612 211.911 292.573 211.951L291.072 213.452L289.57 211.951C289.531 211.911 289.484 211.878 289.433 211.856C289.381 211.834 289.325 211.822 289.269 211.822C289.212 211.821 289.156 211.832 289.104 211.853C289.052 211.875 289.005 211.906 288.965 211.946C288.925 211.986 288.893 212.033 288.872 212.085C288.851 212.138 288.84 212.194 288.84 212.25C288.841 212.306 288.853 212.362 288.875 212.414C288.897 212.466 288.929 212.512 288.97 212.552L290.471 214.053L288.97 215.555C288.929 215.594 288.897 215.641 288.875 215.692C288.853 215.744 288.841 215.8 288.84 215.856C288.84 215.913 288.851 215.969 288.872 216.021C288.893 216.073 288.925 216.12 288.965 216.16C289.005 216.2 289.052 216.232 289.104 216.253C289.156 216.274 289.212 216.285 289.269 216.285C289.325 216.284 289.381 216.272 289.433 216.25C289.484 216.228 289.531 216.196 289.57 216.155L291.072 214.654L292.573 216.155C292.612 216.196 292.659 216.228 292.711 216.25C292.763 216.272 292.819 216.284 292.875 216.285C292.931 216.285 292.987 216.274 293.04 216.253C293.092 216.232 293.139 216.2 293.179 216.16C293.219 216.12 293.25 216.073 293.272 216.021C293.293 215.969 293.304 215.913 293.303 215.856C293.303 215.8 293.291 215.744 293.269 215.692C293.247 215.641 293.214 215.594 293.174 215.555L291.673 214.053V214.053Z" fill="#94A3B8"/>
<defs>
<clipPath id="clip0_3_1806">
<rect width="6" height="6" fill="white" transform="translate(293.019 404)"/>
</clipPath>
<clipPath id="clip1_3_1806">
<rect width="6" height="6" fill="white" transform="translate(188 190)"/>
</clipPath>
<clipPath id="clip2_3_1806">
<rect width="5.09605" height="5.09605" fill="white" transform="translate(198.448 126.401)"/>
</clipPath>
<clipPath id="clip3_3_1806">
<rect width="8.91808" height="8.91808" fill="white" transform="translate(239.019 164)"/>
</clipPath>
<clipPath id="clip4_3_1806">
<rect width="7.64407" height="7.64407" fill="white" transform="translate(101.349 234.418)"/>
</clipPath>
<clipPath id="clip5_3_1806">
<rect width="7.64407" height="7.64407" fill="white" transform="translate(299.019 84.9998)"/>
</clipPath>
</defs>
</svg>
