<svg width="562" height="653" viewBox="0 0 562 653" fill="none" xmlns="http://www.w3.org/2000/svg">
<path fill-rule="evenodd" clip-rule="evenodd" d="M179.312 479.199C233.321 437.981 125.714 399.785 168.429 355.452C288.142 231.205 124.898 224.153 195.637 156.134C306.093 49.927 561.283 325.753 561.283 374.602C561.283 420.229 544.051 448.364 495.078 479.199C446.105 510.034 411.883 532.056 389.376 568.921C367.204 605.239 330.766 652.216 239.169 652.216C206.502 652.216 75.0174 637.705 62.3213 594.173C52.2365 559.595 144.849 505.5 179.312 479.199Z" fill="#FACC15"/>
<path d="M128.023 149.278L131.624 147.385L130.936 151.395L133.851 154.235L129.825 154.82L128.023 158.469L126.223 154.82L122.196 154.235L125.11 151.395L124.422 147.385L128.023 149.278Z" fill="#FB923C"/>
<g clip-path="url(#clip0_3_1829)">
<path d="M133.524 384.576L136.353 383.088L135.812 386.239L138.102 388.47L134.939 388.93L133.524 391.797L132.109 388.93L128.945 388.47L131.235 386.239L130.694 383.088L133.524 384.576Z" fill="#FB923C"/>
</g>
<g clip-path="url(#clip1_3_1829)">
<path d="M104.489 206.564C106.1 206.564 107.406 207.87 107.406 209.481C107.406 211.092 106.1 212.398 104.489 212.398C102.878 212.398 101.573 211.092 101.573 209.481C101.573 207.87 102.878 206.564 104.489 206.564Z" fill="#FB923C"/>
</g>
<g clip-path="url(#clip2_3_1829)">
<path d="M105.972 93.6445C107.813 93.6445 109.305 95.1368 109.305 96.9778C109.305 98.8188 107.813 100.311 105.972 100.311C104.131 100.311 102.638 98.8188 102.638 96.9778C102.638 95.1368 104.131 93.6445 105.972 93.6445Z" fill="#FB923C"/>
</g>
<g clip-path="url(#clip3_3_1829)">
<path d="M41.0235 73.8055C43.3248 73.8055 45.1902 75.6709 45.1902 77.9721C45.1902 80.2734 43.3248 82.1388 41.0235 82.1388C38.7223 82.1388 36.8569 80.2734 36.8569 77.9721C36.8569 75.6709 38.7223 73.8055 41.0235 73.8055Z" fill="#FB923C"/>
</g>
<g clip-path="url(#clip4_3_1829)">
<path d="M73.9757 167.806C76.2769 167.806 78.1423 169.671 78.1423 171.972C78.1423 174.274 76.2769 176.139 73.9757 176.139C71.6744 176.139 69.809 174.274 69.809 171.972C69.809 169.671 71.6744 167.806 73.9757 167.806Z" fill="#FB923C"/>
</g>
<g clip-path="url(#clip5_3_1829)">
<path d="M123.523 514.886C126.055 514.886 128.107 516.938 128.107 519.47C128.107 522.001 126.055 524.053 123.523 524.053C120.992 524.053 118.94 522.001 118.94 519.47C118.94 516.938 120.992 514.886 123.523 514.886Z" fill="#FB923C"/>
</g>
<g clip-path="url(#clip6_3_1829)">
<path d="M123.024 289.322C123.944 289.322 124.69 290.068 124.69 290.988C124.69 291.909 123.944 292.655 123.024 292.655C122.103 292.655 121.357 291.909 121.357 290.988C121.357 290.068 122.103 289.322 123.024 289.322Z" fill="#FB923C"/>
</g>
<g clip-path="url(#clip7_3_1829)">
<path d="M3.4991 252.564C5.10998 252.564 6.41577 253.87 6.41577 255.481C6.41577 257.092 5.10998 258.398 3.4991 258.398C1.88823 258.398 0.582438 257.092 0.582438 255.481C0.582438 253.87 1.88823 252.564 3.4991 252.564Z" fill="#FB923C"/>
</g>
<g clip-path="url(#clip8_3_1829)">
<path d="M8.97754 485.483C10.3583 485.483 11.4775 486.603 11.4775 487.983C11.4775 489.364 10.3583 490.483 8.97754 490.483C7.59679 490.483 6.47754 489.364 6.47754 487.983C6.47754 486.603 7.59679 485.483 8.97754 485.483Z" fill="#FB923C"/>
</g>
<path d="M88.6484 419.874V422.999C88.6484 423.165 88.7143 423.324 88.8315 423.441C88.9487 423.558 89.1077 423.624 89.2734 423.624C89.4392 423.624 89.5982 423.558 89.7154 423.441C89.8326 423.324 89.8984 423.165 89.8984 422.999V419.874H93.0234C93.1892 419.874 93.3482 419.808 93.4654 419.691C93.5826 419.574 93.6484 419.415 93.6484 419.249C93.6484 419.084 93.5826 418.925 93.4654 418.807C93.3482 418.69 93.1892 418.624 93.0234 418.624H89.8984V415.499C89.8984 415.334 89.8326 415.175 89.7154 415.057C89.5982 414.94 89.4392 414.874 89.2734 414.874C89.1077 414.874 88.9487 414.94 88.8315 415.057C88.7143 415.175 88.6484 415.334 88.6484 415.499V418.624H85.5234C85.3577 418.624 85.1987 418.69 85.0815 418.807C84.9643 418.925 84.8984 419.084 84.8984 419.249C84.8984 419.415 84.9643 419.574 85.0815 419.691C85.1987 419.808 85.3577 419.874 85.5234 419.874H88.6484Z" fill="#FB923C"/>
<path d="M105.557 348.199V349.866C105.557 349.954 105.592 350.039 105.654 350.102C105.717 350.164 105.802 350.199 105.89 350.199C105.978 350.199 106.063 350.164 106.126 350.102C106.188 350.039 106.223 349.954 106.223 349.866V348.199H107.89C107.978 348.199 108.063 348.164 108.126 348.102C108.188 348.039 108.223 347.954 108.223 347.866C108.223 347.777 108.188 347.693 108.126 347.63C108.063 347.568 107.978 347.533 107.89 347.533H106.223V345.866C106.223 345.777 106.188 345.693 106.126 345.63C106.063 345.568 105.978 345.533 105.89 345.533C105.802 345.533 105.717 345.568 105.654 345.63C105.592 345.693 105.557 345.777 105.557 345.866V347.533H103.89C103.802 347.533 103.717 347.568 103.654 347.63C103.592 347.693 103.557 347.777 103.557 347.866C103.557 347.954 103.592 348.039 103.654 348.102C103.717 348.164 103.802 348.199 103.89 348.199H105.557Z" fill="#FB923C"/>
<g clip-path="url(#clip9_3_1829)">
<path d="M49.0234 312.483C50.4042 312.483 51.5234 313.602 51.5234 314.983C51.5234 316.364 50.4042 317.483 49.0234 317.483C47.6427 317.483 46.5234 316.364 46.5234 314.983C46.5234 313.602 47.6427 312.483 49.0234 312.483Z" fill="#FB923C"/>
</g>
<path d="M89.3235 41.2993V43.7993C89.3235 43.9319 89.3762 44.0591 89.4699 44.1529C89.5637 44.2466 89.6909 44.2993 89.8235 44.2993C89.9561 44.2993 90.0833 44.2466 90.177 44.1529C90.2708 44.0591 90.3235 43.9319 90.3235 43.7993V41.2993H92.8235C92.9561 41.2993 93.0833 41.2466 93.177 41.1529C93.2708 41.0591 93.3235 40.9319 93.3235 40.7993C93.3235 40.6667 93.2708 40.5395 93.177 40.4458C93.0833 40.352 92.9561 40.2993 92.8235 40.2993H90.3235V37.7993C90.3235 37.6667 90.2708 37.5395 90.177 37.4458C90.0833 37.352 89.9561 37.2993 89.8235 37.2993C89.6909 37.2993 89.5637 37.352 89.4699 37.4458C89.3762 37.5395 89.3235 37.6667 89.3235 37.7993V40.2993H86.8235C86.6909 40.2993 86.5637 40.352 86.4699 40.4458C86.3762 40.5395 86.3235 40.6667 86.3235 40.7993C86.3235 40.9319 86.3762 41.0591 86.4699 41.1529C86.5637 41.2466 86.6909 41.2993 86.8235 41.2993H89.3235Z" fill="#FB923C"/>
<path d="M3.24973 164.52L2.51327 165.257C2.49337 165.276 2.4775 165.299 2.46658 165.324C2.45566 165.35 2.44991 165.377 2.44967 165.405C2.44943 165.433 2.4547 165.46 2.46518 165.486C2.47565 165.511 2.49112 165.534 2.51068 165.554C2.53025 165.574 2.55351 165.589 2.57911 165.599C2.60471 165.61 2.63215 165.615 2.65981 165.615C2.68747 165.615 2.71481 165.609 2.74023 165.598C2.76564 165.587 2.78863 165.571 2.80785 165.551L3.54452 164.815L4.28098 165.551C4.30019 165.571 4.32318 165.587 4.3486 165.598C4.37402 165.609 4.40135 165.615 4.42902 165.615C4.45668 165.615 4.48411 165.61 4.50972 165.599C4.53532 165.589 4.55858 165.574 4.57814 165.554C4.5977 165.534 4.61317 165.511 4.62365 165.486C4.63412 165.46 4.63939 165.433 4.63915 165.405C4.63891 165.377 4.63316 165.35 4.62225 165.324C4.61133 165.299 4.59546 165.276 4.57556 165.257L3.8391 164.52L4.57556 163.784C4.59546 163.764 4.61133 163.741 4.62225 163.716C4.63316 163.691 4.63891 163.663 4.63915 163.636C4.63939 163.608 4.63412 163.581 4.62365 163.555C4.61317 163.529 4.5977 163.506 4.57814 163.487C4.55858 163.467 4.53532 163.451 4.50972 163.441C4.48411 163.431 4.45668 163.425 4.42902 163.426C4.40135 163.426 4.37402 163.431 4.3486 163.442C4.32318 163.453 4.30019 163.469 4.28098 163.489L3.54452 164.226L2.80785 163.489C2.78863 163.469 2.76564 163.453 2.74023 163.442C2.71481 163.431 2.68747 163.426 2.65981 163.426C2.63215 163.425 2.60471 163.431 2.57911 163.441C2.55351 163.451 2.53025 163.467 2.51068 163.487C2.49112 163.506 2.47565 163.529 2.46518 163.555C2.4547 163.581 2.44943 163.608 2.44967 163.636C2.44991 163.663 2.45566 163.691 2.46658 163.716C2.4775 163.741 2.49337 163.764 2.51327 163.784L3.24973 164.52V164.52Z" fill="#FB923C"/>
<path d="M101.702 574.562L99.4929 576.772C99.4332 576.829 99.3856 576.898 99.3529 576.975C99.3201 577.051 99.3029 577.133 99.3021 577.216C99.3014 577.299 99.3172 577.381 99.3487 577.458C99.3801 577.535 99.4265 577.605 99.4852 577.663C99.5439 577.722 99.6136 577.768 99.6905 577.8C99.7673 577.831 99.8496 577.847 99.9326 577.846C100.016 577.846 100.098 577.828 100.174 577.796C100.25 577.763 100.319 577.715 100.377 577.656L102.587 575.446L104.796 577.656C104.854 577.715 104.923 577.763 104.999 577.796C105.075 577.828 105.157 577.846 105.24 577.846C105.323 577.847 105.405 577.831 105.482 577.8C105.559 577.768 105.629 577.722 105.688 577.663C105.746 577.605 105.793 577.535 105.824 577.458C105.855 577.381 105.871 577.299 105.871 577.216C105.87 577.133 105.853 577.051 105.82 576.975C105.787 576.898 105.739 576.829 105.68 576.772L103.47 574.562L105.68 572.352C105.739 572.295 105.787 572.226 105.82 572.15C105.853 572.073 105.87 571.991 105.871 571.908C105.871 571.825 105.855 571.743 105.824 571.666C105.793 571.589 105.746 571.52 105.688 571.461C105.629 571.402 105.559 571.356 105.482 571.324C105.405 571.293 105.323 571.277 105.24 571.278C105.157 571.279 105.075 571.296 104.999 571.329C104.923 571.361 104.854 571.409 104.796 571.469L102.587 573.678L100.377 571.469C100.319 571.409 100.25 571.361 100.174 571.329C100.098 571.296 100.016 571.279 99.9326 571.278C99.8496 571.277 99.7673 571.293 99.6905 571.324C99.6136 571.356 99.5439 571.402 99.4852 571.461C99.4265 571.52 99.3801 571.589 99.3487 571.666C99.3172 571.743 99.3014 571.825 99.3021 571.908C99.3029 571.991 99.3201 572.073 99.3529 572.15C99.3856 572.226 99.4332 572.295 99.4929 572.352L101.702 574.562V574.562Z" fill="#FB923C"/>
<path d="M9.28735 6.29993V8.79993C9.28735 8.93253 9.34003 9.05971 9.4338 9.15348C9.52757 9.24725 9.65475 9.29993 9.78735 9.29993C9.91996 9.29993 10.0471 9.24725 10.1409 9.15348C10.2347 9.05971 10.2874 8.93253 10.2874 8.79993V6.29993H12.7874C12.92 6.29993 13.0471 6.24725 13.1409 6.15348C13.2347 6.05971 13.2874 5.93253 13.2874 5.79993C13.2874 5.66732 13.2347 5.54014 13.1409 5.44637C13.0471 5.35261 12.92 5.29993 12.7874 5.29993H10.2874V2.79993C10.2874 2.66732 10.2347 2.54014 10.1409 2.44637C10.0471 2.3526 9.91996 2.29993 9.78735 2.29993C9.65475 2.29993 9.52757 2.3526 9.4338 2.44637C9.34003 2.54014 9.28735 2.66732 9.28735 2.79993V5.29993H6.78735C6.65475 5.29993 6.52757 5.35261 6.4338 5.44637C6.34003 5.54014 6.28735 5.66732 6.28735 5.79993C6.28735 5.93253 6.34003 6.05971 6.4338 6.15348C6.52757 6.24725 6.65475 6.29993 6.78735 6.29993H9.28735Z" fill="#FB923C"/>
<path d="M76.4401 520.249V522.333C76.4401 522.443 76.484 522.549 76.5621 522.627C76.6403 522.705 76.7463 522.749 76.8568 522.749C76.9673 522.749 77.0733 522.705 77.1514 522.627C77.2295 522.549 77.2734 522.443 77.2734 522.333V520.249H79.3568C79.4673 520.249 79.5733 520.205 79.6514 520.127C79.7295 520.049 79.7734 519.943 79.7734 519.833C79.7734 519.722 79.7295 519.616 79.6514 519.538C79.5733 519.46 79.4673 519.416 79.3568 519.416H77.2734V517.333C77.2734 517.222 77.2295 517.116 77.1514 517.038C77.0733 516.96 76.9673 516.916 76.8568 516.916C76.7463 516.916 76.6403 516.96 76.5621 517.038C76.484 517.116 76.4401 517.222 76.4401 517.333V519.416H74.3568C74.2463 519.416 74.1403 519.46 74.0621 519.538C73.984 519.616 73.9401 519.722 73.9401 519.833C73.9401 519.943 73.984 520.049 74.0621 520.127C74.1403 520.205 74.2463 520.249 74.3568 520.249H76.4401Z" fill="#FB923C"/>
<path d="M26.5855 191.033L25.4072 192.211C25.3753 192.242 25.3499 192.279 25.3325 192.32C25.315 192.36 25.3058 192.404 25.3054 192.448C25.305 192.492 25.3135 192.536 25.3302 192.577C25.347 192.618 25.3717 192.655 25.403 192.687C25.4343 192.718 25.4715 192.743 25.5125 192.76C25.5535 192.776 25.5974 192.785 25.6416 192.784C25.6859 192.784 25.7296 192.775 25.7703 192.757C25.811 192.74 25.8477 192.714 25.8785 192.683L27.0572 191.504L28.2355 192.683C28.2662 192.714 28.303 192.74 28.3437 192.757C28.3844 192.775 28.4281 192.784 28.4724 192.784C28.5166 192.785 28.5605 192.776 28.6015 192.76C28.6424 192.743 28.6797 192.718 28.711 192.687C28.7423 192.655 28.767 192.618 28.7838 192.577C28.8005 192.536 28.809 192.492 28.8086 192.448C28.8082 192.404 28.799 192.36 28.7815 192.32C28.7641 192.279 28.7387 192.242 28.7068 192.211L27.5285 191.033L28.7068 189.854C28.7387 189.824 28.7641 189.787 28.7815 189.746C28.799 189.705 28.8082 189.662 28.8086 189.617C28.809 189.573 28.8005 189.529 28.7838 189.488C28.767 189.447 28.7423 189.41 28.711 189.379C28.6797 189.348 28.6424 189.323 28.6015 189.306C28.5605 189.289 28.5166 189.281 28.4724 189.281C28.4281 189.282 28.3844 189.291 28.3437 189.308C28.303 189.326 28.2662 189.351 28.2355 189.383L27.0572 190.561L25.8785 189.383C25.8477 189.351 25.811 189.326 25.7703 189.308C25.7296 189.291 25.6859 189.282 25.6416 189.281C25.5974 189.281 25.5535 189.289 25.5125 189.306C25.4715 189.323 25.4343 189.348 25.403 189.379C25.3717 189.41 25.347 189.447 25.3302 189.488C25.3135 189.529 25.305 189.573 25.3054 189.617C25.3058 189.662 25.315 189.705 25.3325 189.746C25.3499 189.787 25.3753 189.824 25.4072 189.854L26.5855 191.033V191.033Z" fill="#FB923C"/>
<defs>
<clipPath id="clip0_3_1829">
<rect width="11" height="11" fill="white" transform="matrix(-1 0 0 -1 139.023 392.999)"/>
</clipPath>
<clipPath id="clip1_3_1829">
<rect width="7" height="7" fill="white" transform="matrix(-1 0 0 -1 107.989 213)"/>
</clipPath>
<clipPath id="clip2_3_1829">
<rect width="8" height="8" fill="white" transform="matrix(-1 0 0 -1 109.972 101)"/>
</clipPath>
<clipPath id="clip3_3_1829">
<rect width="10" height="10" fill="white" transform="matrix(-1 0 0 -1 46.0234 82.9993)"/>
</clipPath>
<clipPath id="clip4_3_1829">
<rect width="10" height="10" fill="white" transform="matrix(-1 0 0 -1 78.9756 177)"/>
</clipPath>
<clipPath id="clip5_3_1829">
<rect width="11" height="11" fill="white" transform="matrix(-1 0 0 -1 129.023 524.999)"/>
</clipPath>
<clipPath id="clip6_3_1829">
<rect width="4" height="4" fill="white" transform="matrix(-1 0 0 -1 125.023 292.999)"/>
</clipPath>
<clipPath id="clip7_3_1829">
<rect width="7" height="7" fill="white" transform="matrix(-1 0 0 -1 6.99902 259)"/>
</clipPath>
<clipPath id="clip8_3_1829">
<rect width="6" height="6" fill="white" transform="matrix(-1 0 0 -1 11.9775 491)"/>
</clipPath>
<clipPath id="clip9_3_1829">
<rect width="6" height="6" fill="white" transform="matrix(-1 0 0 -1 52.0234 317.999)"/>
</clipPath>
</defs>
</svg>
