<svg width="374" height="214" viewBox="0 0 374 214" fill="none" xmlns="http://www.w3.org/2000/svg">
<path d="M187.333 46.5C186.985 46.5 186.643 46.409 186.341 46.2362L168.833 36.23C168.681 36.1422 168.509 36.0959 168.333 36.096C168.157 36.0961 167.985 36.1424 167.833 36.2304C167.681 36.3183 167.555 36.4447 167.467 36.597C167.379 36.7492 167.333 36.9218 167.333 37.0975V46.5C167.333 46.8569 167.428 47.2075 167.609 47.5152C167.79 47.8229 168.05 48.0766 168.362 48.25L186.362 58.25C186.659 58.415 186.994 58.5017 187.333 58.5017C187.673 58.5017 188.008 58.415 188.305 58.25L206.305 48.25C206.617 48.0766 206.877 47.8229 207.058 47.5152C207.239 47.2075 207.334 46.8569 207.333 46.5V37.0975C207.334 36.9218 207.288 36.7492 207.2 36.597C207.112 36.4447 206.986 36.3183 206.834 36.2304C206.682 36.1424 206.51 36.0961 206.334 36.096C206.158 36.0959 205.986 36.1422 205.833 36.23L188.326 46.2362C188.024 46.409 187.682 46.5 187.333 46.5Z" fill="#FACC15"/>
<path d="M217.324 24.3125C217.324 24.3125 217.324 24.3025 217.324 24.2988C217.291 23.9817 217.184 23.677 217.01 23.41C216.836 23.143 216.601 22.9214 216.324 22.7638L188.324 6.76376C188.021 6.591 187.679 6.50012 187.331 6.50012C186.983 6.50012 186.641 6.591 186.339 6.76376L158.339 22.7638C158.033 22.9387 157.778 23.1915 157.601 23.4964C157.424 23.8013 157.331 24.1475 157.331 24.5C157.331 24.8525 157.424 25.1988 157.601 25.5037C157.778 25.8086 158.033 26.0613 158.339 26.2363L186.339 42.2363C186.641 42.409 186.983 42.4999 187.331 42.4999C187.679 42.4999 188.021 42.409 188.324 42.2363L212.959 28.16C212.997 28.138 213.04 28.1265 213.084 28.1265C213.128 28.1266 213.171 28.1382 213.209 28.1603C213.247 28.1823 213.279 28.214 213.3 28.2522C213.322 28.2903 213.334 28.3335 213.334 28.3775V46.4438C213.334 47.52 214.161 48.4438 215.237 48.4975C215.508 48.5105 215.778 48.4685 216.032 48.374C216.285 48.2795 216.517 48.1345 216.713 47.9477C216.909 47.761 217.065 47.5364 217.172 47.2875C217.279 47.0387 217.334 46.7707 217.334 46.5V24.5C217.333 24.4374 217.33 24.3748 217.324 24.3125Z" fill="#FB923C"/>
<path d="M143.037 93.2773V144.5H132.033V105.793L120.15 109.414V100.906L141.947 93.2773H143.037ZM194.33 93.3125V99.2188L174.853 144.5H163.251L182.728 101.855H157.767V93.3125H194.33ZM207.056 93.3125H216.548L228.853 129.91L241.122 93.3125H250.615L232.685 144.5H224.986L207.056 93.3125ZM201.572 93.3125H211.24L213.033 131.246V144.5H201.572V93.3125ZM246.431 93.3125H256.134V144.5H244.638V131.246L246.431 93.3125Z" fill="#FACC15"/>
<path d="M109.31 184.5V202.5H107.142V184.5H109.31ZM108.794 195.68L107.892 195.645C107.9 194.777 108.029 193.977 108.279 193.242C108.529 192.5 108.88 191.855 109.333 191.309C109.787 190.762 110.326 190.34 110.951 190.043C111.583 189.738 112.283 189.586 113.048 189.586C113.673 189.586 114.236 189.672 114.736 189.844C115.236 190.008 115.662 190.273 116.013 190.641C116.372 191.008 116.646 191.484 116.833 192.07C117.021 192.648 117.115 193.355 117.115 194.191V202.5H114.935V194.168C114.935 193.504 114.837 192.973 114.642 192.574C114.447 192.168 114.162 191.875 113.787 191.695C113.412 191.508 112.951 191.414 112.404 191.414C111.865 191.414 111.372 191.527 110.927 191.754C110.49 191.98 110.111 192.293 109.79 192.691C109.478 193.09 109.232 193.547 109.052 194.062C108.88 194.57 108.794 195.109 108.794 195.68ZM127.837 200.332V193.805C127.837 193.305 127.736 192.871 127.533 192.504C127.337 192.129 127.04 191.84 126.642 191.637C126.244 191.434 125.751 191.332 125.165 191.332C124.619 191.332 124.138 191.426 123.724 191.613C123.318 191.801 122.997 192.047 122.763 192.352C122.537 192.656 122.423 192.984 122.423 193.336H120.255C120.255 192.883 120.372 192.434 120.607 191.988C120.841 191.543 121.177 191.141 121.615 190.781C122.06 190.414 122.591 190.125 123.208 189.914C123.833 189.695 124.529 189.586 125.294 189.586C126.216 189.586 127.029 189.742 127.732 190.055C128.443 190.367 128.997 190.84 129.396 191.473C129.802 192.098 130.005 192.883 130.005 193.828V199.734C130.005 200.156 130.04 200.605 130.111 201.082C130.189 201.559 130.302 201.969 130.451 202.312V202.5H128.189C128.08 202.25 127.994 201.918 127.931 201.504C127.869 201.082 127.837 200.691 127.837 200.332ZM128.212 194.812L128.236 196.336H126.044C125.427 196.336 124.876 196.387 124.392 196.488C123.908 196.582 123.501 196.727 123.173 196.922C122.845 197.117 122.595 197.363 122.423 197.66C122.251 197.949 122.165 198.289 122.165 198.68C122.165 199.078 122.255 199.441 122.435 199.77C122.615 200.098 122.884 200.359 123.244 200.555C123.611 200.742 124.06 200.836 124.591 200.836C125.255 200.836 125.841 200.695 126.349 200.414C126.857 200.133 127.259 199.789 127.556 199.383C127.861 198.977 128.025 198.582 128.048 198.199L128.974 199.242C128.919 199.57 128.771 199.934 128.529 200.332C128.287 200.73 127.962 201.113 127.556 201.48C127.158 201.84 126.681 202.141 126.126 202.383C125.58 202.617 124.962 202.734 124.275 202.734C123.415 202.734 122.662 202.566 122.013 202.23C121.372 201.895 120.872 201.445 120.513 200.883C120.162 200.312 119.986 199.676 119.986 198.973C119.986 198.293 120.119 197.695 120.384 197.18C120.65 196.656 121.033 196.223 121.533 195.879C122.033 195.527 122.634 195.262 123.337 195.082C124.04 194.902 124.826 194.812 125.693 194.812H128.212ZM135.583 192.258V207.375H133.404V189.82H135.396L135.583 192.258ZM144.126 196.055V196.301C144.126 197.223 144.017 198.078 143.798 198.867C143.58 199.648 143.259 200.328 142.837 200.906C142.423 201.484 141.912 201.934 141.302 202.254C140.693 202.574 139.994 202.734 139.205 202.734C138.4 202.734 137.689 202.602 137.072 202.336C136.455 202.07 135.931 201.684 135.501 201.176C135.072 200.668 134.728 200.059 134.47 199.348C134.22 198.637 134.048 197.836 133.955 196.945V195.633C134.048 194.695 134.224 193.855 134.482 193.113C134.74 192.371 135.08 191.738 135.501 191.215C135.931 190.684 136.451 190.281 137.06 190.008C137.669 189.727 138.372 189.586 139.169 189.586C139.966 189.586 140.673 189.742 141.29 190.055C141.908 190.359 142.427 190.797 142.849 191.367C143.271 191.938 143.587 192.621 143.798 193.418C144.017 194.207 144.126 195.086 144.126 196.055ZM141.947 196.301V196.055C141.947 195.422 141.88 194.828 141.747 194.273C141.615 193.711 141.408 193.219 141.126 192.797C140.853 192.367 140.501 192.031 140.072 191.789C139.642 191.539 139.13 191.414 138.537 191.414C137.99 191.414 137.513 191.508 137.107 191.695C136.708 191.883 136.369 192.137 136.087 192.457C135.806 192.77 135.576 193.129 135.396 193.535C135.224 193.934 135.095 194.348 135.009 194.777V197.812C135.165 198.359 135.384 198.875 135.665 199.359C135.947 199.836 136.322 200.223 136.79 200.52C137.259 200.809 137.849 200.953 138.56 200.953C139.146 200.953 139.65 200.832 140.072 200.59C140.501 200.34 140.853 200 141.126 199.57C141.408 199.141 141.615 198.648 141.747 198.094C141.88 197.531 141.947 196.934 141.947 196.301ZM149.06 192.258V207.375H146.88V189.82H148.872L149.06 192.258ZM157.603 196.055V196.301C157.603 197.223 157.494 198.078 157.275 198.867C157.056 199.648 156.736 200.328 156.314 200.906C155.9 201.484 155.388 201.934 154.779 202.254C154.169 202.574 153.47 202.734 152.681 202.734C151.876 202.734 151.165 202.602 150.548 202.336C149.931 202.07 149.408 201.684 148.978 201.176C148.548 200.668 148.205 200.059 147.947 199.348C147.697 198.637 147.525 197.836 147.431 196.945V195.633C147.525 194.695 147.701 193.855 147.958 193.113C148.216 192.371 148.556 191.738 148.978 191.215C149.408 190.684 149.927 190.281 150.537 190.008C151.146 189.727 151.849 189.586 152.646 189.586C153.443 189.586 154.15 189.742 154.767 190.055C155.384 190.359 155.904 190.797 156.326 191.367C156.747 191.938 157.064 192.621 157.275 193.418C157.494 194.207 157.603 195.086 157.603 196.055ZM155.423 196.301V196.055C155.423 195.422 155.357 194.828 155.224 194.273C155.091 193.711 154.884 193.219 154.603 192.797C154.33 192.367 153.978 192.031 153.548 191.789C153.119 191.539 152.607 191.414 152.013 191.414C151.466 191.414 150.99 191.508 150.583 191.695C150.185 191.883 149.845 192.137 149.564 192.457C149.283 192.77 149.052 193.129 148.872 193.535C148.701 193.934 148.572 194.348 148.486 194.777V197.812C148.642 198.359 148.861 198.875 149.142 199.359C149.423 199.836 149.798 200.223 150.267 200.52C150.736 200.809 151.326 200.953 152.037 200.953C152.622 200.953 153.126 200.832 153.548 200.59C153.978 200.34 154.33 200 154.603 199.57C154.884 199.141 155.091 198.648 155.224 198.094C155.357 197.531 155.423 196.934 155.423 196.301ZM163.79 201.188L167.318 189.82H169.638L164.552 204.457C164.435 204.77 164.279 205.105 164.083 205.465C163.896 205.832 163.654 206.18 163.357 206.508C163.06 206.836 162.701 207.102 162.279 207.305C161.865 207.516 161.369 207.621 160.79 207.621C160.619 207.621 160.4 207.598 160.134 207.551C159.869 207.504 159.681 207.465 159.572 207.434L159.56 205.676C159.622 205.684 159.72 205.691 159.853 205.699C159.994 205.715 160.091 205.723 160.146 205.723C160.638 205.723 161.056 205.656 161.4 205.523C161.744 205.398 162.033 205.184 162.267 204.879C162.509 204.582 162.716 204.172 162.888 203.648L163.79 201.188ZM161.201 189.82L164.494 199.664L165.056 201.949L163.497 202.746L158.833 189.82H161.201ZM184.931 199.137C184.931 198.824 184.861 198.535 184.72 198.27C184.587 197.996 184.31 197.75 183.888 197.531C183.474 197.305 182.849 197.109 182.013 196.945C181.31 196.797 180.673 196.621 180.103 196.418C179.54 196.215 179.06 195.969 178.662 195.68C178.271 195.391 177.97 195.051 177.759 194.66C177.548 194.27 177.443 193.812 177.443 193.289C177.443 192.789 177.552 192.316 177.771 191.871C177.997 191.426 178.314 191.031 178.72 190.688C179.134 190.344 179.63 190.074 180.208 189.879C180.787 189.684 181.431 189.586 182.142 189.586C183.158 189.586 184.025 189.766 184.744 190.125C185.462 190.484 186.013 190.965 186.396 191.566C186.779 192.16 186.97 192.82 186.97 193.547H184.802C184.802 193.195 184.697 192.855 184.486 192.527C184.283 192.191 183.982 191.914 183.583 191.695C183.193 191.477 182.712 191.367 182.142 191.367C181.54 191.367 181.052 191.461 180.677 191.648C180.31 191.828 180.04 192.059 179.869 192.34C179.705 192.621 179.622 192.918 179.622 193.23C179.622 193.465 179.662 193.676 179.74 193.863C179.826 194.043 179.974 194.211 180.185 194.367C180.396 194.516 180.693 194.656 181.076 194.789C181.458 194.922 181.947 195.055 182.54 195.188C183.58 195.422 184.435 195.703 185.107 196.031C185.779 196.359 186.279 196.762 186.607 197.238C186.935 197.715 187.099 198.293 187.099 198.973C187.099 199.527 186.982 200.035 186.747 200.496C186.521 200.957 186.189 201.355 185.751 201.691C185.322 202.02 184.806 202.277 184.205 202.465C183.611 202.645 182.943 202.734 182.201 202.734C181.083 202.734 180.138 202.535 179.365 202.137C178.591 201.738 178.005 201.223 177.607 200.59C177.208 199.957 177.009 199.289 177.009 198.586H179.189C179.22 199.18 179.392 199.652 179.705 200.004C180.017 200.348 180.4 200.594 180.853 200.742C181.306 200.883 181.755 200.953 182.201 200.953C182.794 200.953 183.29 200.875 183.689 200.719C184.095 200.562 184.404 200.348 184.615 200.074C184.826 199.801 184.931 199.488 184.931 199.137ZM195.255 189.82V191.484H188.4V189.82H195.255ZM190.72 186.738H192.888V199.359C192.888 199.789 192.955 200.113 193.087 200.332C193.22 200.551 193.392 200.695 193.603 200.766C193.814 200.836 194.04 200.871 194.283 200.871C194.462 200.871 194.65 200.855 194.845 200.824C195.048 200.785 195.201 200.754 195.302 200.73L195.314 202.5C195.142 202.555 194.915 202.605 194.634 202.652C194.361 202.707 194.029 202.734 193.638 202.734C193.107 202.734 192.619 202.629 192.173 202.418C191.728 202.207 191.372 201.855 191.107 201.363C190.849 200.863 190.72 200.191 190.72 199.348V186.738ZM205.556 199.57V189.82H207.736V202.5H205.662L205.556 199.57ZM205.966 196.898L206.869 196.875C206.869 197.719 206.779 198.5 206.599 199.219C206.427 199.93 206.146 200.547 205.755 201.07C205.365 201.594 204.853 202.004 204.22 202.301C203.587 202.59 202.818 202.734 201.912 202.734C201.294 202.734 200.728 202.645 200.212 202.465C199.705 202.285 199.267 202.008 198.9 201.633C198.533 201.258 198.247 200.77 198.044 200.168C197.849 199.566 197.751 198.844 197.751 198V189.82H199.919V198.023C199.919 198.594 199.982 199.066 200.107 199.441C200.24 199.809 200.415 200.102 200.634 200.32C200.861 200.531 201.111 200.68 201.384 200.766C201.665 200.852 201.955 200.895 202.251 200.895C203.173 200.895 203.904 200.719 204.443 200.367C204.982 200.008 205.369 199.527 205.603 198.926C205.845 198.316 205.966 197.641 205.966 196.898ZM219.033 200.039V184.5H221.212V202.5H219.22L219.033 200.039ZM210.501 196.301V196.055C210.501 195.086 210.619 194.207 210.853 193.418C211.095 192.621 211.435 191.938 211.872 191.367C212.318 190.797 212.845 190.359 213.455 190.055C214.072 189.742 214.759 189.586 215.517 189.586C216.314 189.586 217.009 189.727 217.603 190.008C218.205 190.281 218.712 190.684 219.126 191.215C219.548 191.738 219.88 192.371 220.122 193.113C220.365 193.855 220.533 194.695 220.626 195.633V196.711C220.54 197.641 220.372 198.477 220.122 199.219C219.88 199.961 219.548 200.594 219.126 201.117C218.712 201.641 218.205 202.043 217.603 202.324C217.001 202.598 216.298 202.734 215.494 202.734C214.751 202.734 214.072 202.574 213.455 202.254C212.845 201.934 212.318 201.484 211.872 200.906C211.435 200.328 211.095 199.648 210.853 198.867C210.619 198.078 210.501 197.223 210.501 196.301ZM212.681 196.055V196.301C212.681 196.934 212.744 197.527 212.869 198.082C213.001 198.637 213.205 199.125 213.478 199.547C213.751 199.969 214.099 200.301 214.521 200.543C214.943 200.777 215.447 200.895 216.033 200.895C216.751 200.895 217.341 200.742 217.802 200.438C218.271 200.133 218.646 199.73 218.927 199.23C219.208 198.73 219.427 198.188 219.583 197.602V194.777C219.49 194.348 219.353 193.934 219.173 193.535C219.001 193.129 218.775 192.77 218.494 192.457C218.22 192.137 217.88 191.883 217.474 191.695C217.076 191.508 216.603 191.414 216.056 191.414C215.462 191.414 214.951 191.539 214.521 191.789C214.099 192.031 213.751 192.367 213.478 192.797C213.205 193.219 213.001 193.711 212.869 194.273C212.744 194.828 212.681 195.422 212.681 196.055ZM229.849 202.734C228.966 202.734 228.165 202.586 227.447 202.289C226.736 201.984 226.122 201.559 225.607 201.012C225.099 200.465 224.708 199.816 224.435 199.066C224.162 198.316 224.025 197.496 224.025 196.605V196.113C224.025 195.082 224.177 194.164 224.482 193.359C224.787 192.547 225.201 191.859 225.724 191.297C226.247 190.734 226.841 190.309 227.505 190.02C228.169 189.73 228.857 189.586 229.568 189.586C230.474 189.586 231.255 189.742 231.912 190.055C232.576 190.367 233.119 190.805 233.54 191.367C233.962 191.922 234.275 192.578 234.478 193.336C234.681 194.086 234.783 194.906 234.783 195.797V196.77H225.314V195H232.615V194.836C232.583 194.273 232.466 193.727 232.263 193.195C232.068 192.664 231.755 192.227 231.326 191.883C230.896 191.539 230.31 191.367 229.568 191.367C229.076 191.367 228.622 191.473 228.208 191.684C227.794 191.887 227.439 192.191 227.142 192.598C226.845 193.004 226.615 193.5 226.451 194.086C226.287 194.672 226.205 195.348 226.205 196.113V196.605C226.205 197.207 226.287 197.773 226.451 198.305C226.622 198.828 226.869 199.289 227.189 199.688C227.517 200.086 227.912 200.398 228.372 200.625C228.841 200.852 229.372 200.965 229.966 200.965C230.732 200.965 231.38 200.809 231.912 200.496C232.443 200.184 232.908 199.766 233.306 199.242L234.619 200.285C234.345 200.699 233.997 201.094 233.576 201.469C233.154 201.844 232.634 202.148 232.017 202.383C231.408 202.617 230.685 202.734 229.849 202.734ZM239.482 192.527V202.5H237.314V189.82H239.365L239.482 192.527ZM238.966 195.68L238.064 195.645C238.072 194.777 238.201 193.977 238.451 193.242C238.701 192.5 239.052 191.855 239.505 191.309C239.958 190.762 240.497 190.34 241.122 190.043C241.755 189.738 242.455 189.586 243.22 189.586C243.845 189.586 244.408 189.672 244.908 189.844C245.408 190.008 245.833 190.273 246.185 190.641C246.544 191.008 246.818 191.484 247.005 192.07C247.193 192.648 247.287 193.355 247.287 194.191V202.5H245.107V194.168C245.107 193.504 245.009 192.973 244.814 192.574C244.619 192.168 244.333 191.875 243.958 191.695C243.583 191.508 243.122 191.414 242.576 191.414C242.037 191.414 241.544 191.527 241.099 191.754C240.662 191.98 240.283 192.293 239.962 192.691C239.65 193.09 239.404 193.547 239.224 194.062C239.052 194.57 238.966 195.109 238.966 195.68ZM255.888 189.82V191.484H249.033V189.82H255.888ZM251.353 186.738H253.521V199.359C253.521 199.789 253.587 200.113 253.72 200.332C253.853 200.551 254.025 200.695 254.236 200.766C254.447 200.836 254.673 200.871 254.915 200.871C255.095 200.871 255.283 200.855 255.478 200.824C255.681 200.785 255.833 200.754 255.935 200.73L255.947 202.5C255.775 202.555 255.548 202.605 255.267 202.652C254.994 202.707 254.662 202.734 254.271 202.734C253.74 202.734 253.251 202.629 252.806 202.418C252.361 202.207 252.005 201.855 251.74 201.363C251.482 200.863 251.353 200.191 251.353 199.348V186.738ZM265.814 199.137C265.814 198.824 265.744 198.535 265.603 198.27C265.47 197.996 265.193 197.75 264.771 197.531C264.357 197.305 263.732 197.109 262.896 196.945C262.193 196.797 261.556 196.621 260.986 196.418C260.423 196.215 259.943 195.969 259.544 195.68C259.154 195.391 258.853 195.051 258.642 194.66C258.431 194.27 258.326 193.812 258.326 193.289C258.326 192.789 258.435 192.316 258.654 191.871C258.88 191.426 259.197 191.031 259.603 190.688C260.017 190.344 260.513 190.074 261.091 189.879C261.669 189.684 262.314 189.586 263.025 189.586C264.04 189.586 264.908 189.766 265.626 190.125C266.345 190.484 266.896 190.965 267.279 191.566C267.662 192.16 267.853 192.82 267.853 193.547H265.685C265.685 193.195 265.58 192.855 265.369 192.527C265.165 192.191 264.865 191.914 264.466 191.695C264.076 191.477 263.595 191.367 263.025 191.367C262.423 191.367 261.935 191.461 261.56 191.648C261.193 191.828 260.923 192.059 260.751 192.34C260.587 192.621 260.505 192.918 260.505 193.23C260.505 193.465 260.544 193.676 260.622 193.863C260.708 194.043 260.857 194.211 261.068 194.367C261.279 194.516 261.576 194.656 261.958 194.789C262.341 194.922 262.83 195.055 263.423 195.188C264.462 195.422 265.318 195.703 265.99 196.031C266.662 196.359 267.162 196.762 267.49 197.238C267.818 197.715 267.982 198.293 267.982 198.973C267.982 199.527 267.865 200.035 267.63 200.496C267.404 200.957 267.072 201.355 266.634 201.691C266.205 202.02 265.689 202.277 265.087 202.465C264.494 202.645 263.826 202.734 263.083 202.734C261.966 202.734 261.021 202.535 260.247 202.137C259.474 201.738 258.888 201.223 258.49 200.59C258.091 199.957 257.892 199.289 257.892 198.586H260.072C260.103 199.18 260.275 199.652 260.587 200.004C260.9 200.348 261.283 200.594 261.736 200.742C262.189 200.883 262.638 200.953 263.083 200.953C263.677 200.953 264.173 200.875 264.572 200.719C264.978 200.562 265.287 200.348 265.497 200.074C265.708 199.801 265.814 199.488 265.814 199.137Z" fill="#FACC15"/>
</svg>
