<svg width="374" height="214" viewBox="0 0 374 214" fill="none" xmlns="http://www.w3.org/2000/svg">
<path d="M170.215 4.50002C170.132 4.49926 170.05 4.51914 169.977 4.55789C169.904 4.59663 169.841 4.65302 169.795 4.72196C169.749 4.7909 169.721 4.87024 169.713 4.95282C169.705 5.03541 169.718 5.11864 169.75 5.19502L170.038 5.87377L175.125 17.7363C175.16 17.817 175.215 17.8871 175.285 17.9397C175.355 17.9923 175.438 18.0254 175.525 18.0358C175.613 18.0462 175.701 18.0335 175.782 17.9989C175.862 17.9643 175.932 17.9091 175.985 17.8388L185.375 5.30002C185.431 5.22574 185.465 5.1374 185.473 5.04492C185.481 4.95244 185.464 4.85947 185.422 4.77641C185.381 4.69336 185.317 4.62351 185.238 4.5747C185.159 4.52588 185.068 4.50002 184.975 4.50002H170.215Z" fill="#FACC15"/>
<path d="M207.491 7.75747L202.331 19.8037C202.299 19.8798 202.286 19.9627 202.293 20.045C202.301 20.1274 202.328 20.2066 202.374 20.2756C202.419 20.3446 202.481 20.4012 202.554 20.4403C202.627 20.4795 202.708 20.5 202.791 20.5H215.416C215.505 20.5 215.593 20.4762 215.67 20.4311C215.747 20.3859 215.81 20.321 215.853 20.2431C215.897 20.1652 215.918 20.0771 215.916 19.988C215.914 19.8989 215.888 19.812 215.841 19.7362L208.375 7.69122C208.327 7.61367 208.258 7.55082 208.177 7.50948C208.095 7.46814 208.004 7.44989 207.913 7.45672C207.822 7.46355 207.734 7.49519 207.66 7.54821C207.586 7.60123 207.527 7.6736 207.491 7.75747Z" fill="#FACC15"/>
<path d="M165.625 7.69622L158.161 19.7362C158.114 19.812 158.088 19.8989 158.086 19.988C158.084 20.0771 158.106 20.1652 158.149 20.2431C158.192 20.321 158.256 20.3859 158.333 20.431C158.409 20.4762 158.497 20.5 158.586 20.5H171.211C171.294 20.4999 171.375 20.4792 171.448 20.4399C171.521 20.4006 171.583 20.3439 171.628 20.2747C171.674 20.2056 171.701 20.1263 171.709 20.0438C171.716 19.9614 171.703 19.8785 171.67 19.8025L166.5 7.76247C166.463 7.68068 166.405 7.61036 166.331 7.55888C166.258 7.50739 166.172 7.47665 166.082 7.46987C165.993 7.4631 165.903 7.48054 165.822 7.52036C165.742 7.56019 165.674 7.62093 165.625 7.69622Z" fill="#FACC15"/>
<path d="M204.159 4.50001H188.477C188.432 4.49971 188.388 4.51209 188.349 4.53572C188.311 4.55936 188.279 4.59333 188.259 4.63377C188.239 4.67422 188.23 4.71953 188.234 4.76459C188.239 4.80965 188.255 4.85266 188.282 4.88876L198.272 18.1963C198.298 18.2304 198.332 18.2573 198.371 18.2741C198.41 18.2909 198.453 18.2971 198.496 18.292C198.538 18.287 198.578 18.2708 198.612 18.2452C198.647 18.2196 198.673 18.1855 198.69 18.1463L203.95 5.87501L204.375 4.83251C204.39 4.79672 204.396 4.75784 204.393 4.71919C204.389 4.68055 204.377 4.64328 204.356 4.6106C204.335 4.57791 204.306 4.55078 204.273 4.53151C204.239 4.51225 204.201 4.50144 204.162 4.50001H204.159Z" fill="#FACC15"/>
<path d="M184.875 56.5L173.696 24.8138C173.663 24.7217 173.603 24.6422 173.523 24.586C173.443 24.5298 173.348 24.4998 173.25 24.5H158.212C158.125 24.4998 158.04 24.524 157.966 24.5699C157.892 24.6159 157.832 24.6817 157.794 24.7598C157.755 24.838 157.74 24.9254 157.748 25.0121C157.757 25.0987 157.79 25.1812 157.844 25.25L184.844 60.2263C184.935 60.3446 185.065 60.4268 185.212 60.4581C185.358 60.4895 185.511 60.468 185.642 60.3975C185.775 60.3277 185.878 60.2126 185.933 60.073C185.988 59.9335 185.991 59.779 185.941 59.6375L184.875 56.5Z" fill="#FACC15"/>
<path d="M215.788 24.5H200.75C200.653 24.5 200.558 24.5302 200.479 24.5864C200.4 24.6426 200.34 24.722 200.308 24.8138L188.033 59.5837C187.981 59.7297 187.983 59.8893 188.039 60.0338C188.094 60.1784 188.199 60.2984 188.335 60.3725C188.471 60.4461 188.629 60.4691 188.78 60.4373C188.931 60.4055 189.066 60.3209 189.161 60.1987L216.156 25.25C216.21 25.1812 216.243 25.0987 216.251 25.0121C216.26 24.9254 216.245 24.838 216.206 24.7598C216.168 24.6817 216.108 24.6159 216.034 24.5699C215.96 24.524 215.875 24.4998 215.788 24.5Z" fill="#FACC15"/>
<path d="M187.4 10.3663L194.4 19.7C194.456 19.7743 194.49 19.8626 194.498 19.9551C194.506 20.0476 194.489 20.1406 194.447 20.2236C194.406 20.3067 194.342 20.3765 194.263 20.4253C194.184 20.4742 194.093 20.5 194 20.5H180C179.907 20.5 179.816 20.4742 179.737 20.4253C179.658 20.3765 179.594 20.3067 179.553 20.2236C179.511 20.1406 179.494 20.0476 179.502 19.9551C179.51 19.8626 179.544 19.7743 179.6 19.7L186.6 10.3663C186.646 10.3042 186.707 10.2538 186.776 10.219C186.846 10.1843 186.922 10.1663 187 10.1663C187.078 10.1663 187.154 10.1843 187.223 10.219C187.293 10.2538 187.353 10.3042 187.4 10.3663ZM186.525 49.155L178.062 25.1663C178.036 25.0909 178.028 25.0102 178.039 24.9311C178.05 24.8519 178.08 24.7765 178.126 24.7113C178.172 24.646 178.233 24.5928 178.304 24.556C178.375 24.5193 178.454 24.5001 178.534 24.5H195.466C195.546 24.5001 195.625 24.5193 195.696 24.556C195.767 24.5928 195.828 24.646 195.874 24.7113C195.92 24.7765 195.95 24.8519 195.961 24.9311C195.972 25.0102 195.964 25.0909 195.937 25.1663L187.471 49.155C187.437 49.2524 187.373 49.3367 187.288 49.3963C187.204 49.4559 187.103 49.4879 187 49.4879C186.897 49.4879 186.796 49.4559 186.711 49.3963C186.627 49.3367 186.563 49.2524 186.529 49.155H186.525Z" fill="#FB923C"/>
<path d="M163.48 93.2773V144.5H152.476V105.793L140.594 109.414V100.906L162.391 93.2773H163.48ZM185.945 93.3125H195.437L207.742 129.91L220.012 93.3125H229.504L211.574 144.5H203.875L185.945 93.3125ZM180.461 93.3125H190.129L191.922 131.246V144.5H180.461V93.3125ZM225.32 93.3125H235.023V144.5H223.527V131.246L225.32 93.3125Z" fill="#FACC15"/>
<path d="M108.273 200.543L111.742 189.82H113.957L109.398 202.5H107.945L108.273 200.543ZM105.379 189.82L108.953 200.602L109.199 202.5H107.746L103.152 189.82H105.379ZM123.332 200.332V193.805C123.332 193.305 123.23 192.871 123.027 192.504C122.832 192.129 122.535 191.84 122.137 191.637C121.738 191.434 121.246 191.332 120.66 191.332C120.113 191.332 119.633 191.426 119.219 191.613C118.812 191.801 118.492 192.047 118.258 192.352C118.031 192.656 117.918 192.984 117.918 193.336H115.75C115.75 192.883 115.867 192.434 116.101 191.988C116.336 191.543 116.672 191.141 117.109 190.781C117.555 190.414 118.086 190.125 118.703 189.914C119.328 189.695 120.023 189.586 120.789 189.586C121.711 189.586 122.523 189.742 123.226 190.055C123.937 190.367 124.492 190.84 124.891 191.473C125.297 192.098 125.5 192.883 125.5 193.828V199.734C125.5 200.156 125.535 200.605 125.605 201.082C125.684 201.559 125.797 201.969 125.945 202.312V202.5H123.684C123.574 202.25 123.488 201.918 123.426 201.504C123.363 201.082 123.332 200.691 123.332 200.332ZM123.707 194.812L123.73 196.336H121.539C120.922 196.336 120.371 196.387 119.887 196.488C119.402 196.582 118.996 196.727 118.668 196.922C118.34 197.117 118.09 197.363 117.918 197.66C117.746 197.949 117.66 198.289 117.66 198.68C117.66 199.078 117.75 199.441 117.93 199.77C118.109 200.098 118.379 200.359 118.738 200.555C119.105 200.742 119.555 200.836 120.086 200.836C120.75 200.836 121.336 200.695 121.844 200.414C122.351 200.133 122.754 199.789 123.051 199.383C123.355 198.977 123.519 198.582 123.543 198.199L124.469 199.242C124.414 199.57 124.266 199.934 124.023 200.332C123.781 200.73 123.457 201.113 123.051 201.48C122.652 201.84 122.176 202.141 121.621 202.383C121.074 202.617 120.457 202.734 119.769 202.734C118.91 202.734 118.156 202.566 117.508 202.23C116.867 201.895 116.367 201.445 116.008 200.883C115.656 200.312 115.48 199.676 115.48 198.973C115.48 198.293 115.613 197.695 115.879 197.18C116.144 196.656 116.527 196.223 117.027 195.879C117.527 195.527 118.129 195.262 118.832 195.082C119.535 194.902 120.32 194.812 121.187 194.812H123.707ZM131.266 184.5V202.5H129.086V184.5H131.266ZM142.504 199.57V189.82H144.684V202.5H142.609L142.504 199.57ZM142.914 196.898L143.816 196.875C143.816 197.719 143.726 198.5 143.547 199.219C143.375 199.93 143.094 200.547 142.703 201.07C142.312 201.594 141.801 202.004 141.168 202.301C140.535 202.59 139.766 202.734 138.859 202.734C138.242 202.734 137.676 202.645 137.16 202.465C136.652 202.285 136.215 202.008 135.848 201.633C135.48 201.258 135.195 200.77 134.992 200.168C134.797 199.566 134.699 198.844 134.699 198V189.82H136.867V198.023C136.867 198.594 136.93 199.066 137.055 199.441C137.187 199.809 137.363 200.102 137.582 200.32C137.809 200.531 138.059 200.68 138.332 200.766C138.613 200.852 138.902 200.895 139.199 200.895C140.121 200.895 140.851 200.719 141.391 200.367C141.93 200.008 142.316 199.527 142.551 198.926C142.793 198.316 142.914 197.641 142.914 196.898ZM153.25 202.734C152.367 202.734 151.566 202.586 150.848 202.289C150.137 201.984 149.523 201.559 149.008 201.012C148.5 200.465 148.109 199.816 147.836 199.066C147.562 198.316 147.426 197.496 147.426 196.605V196.113C147.426 195.082 147.578 194.164 147.883 193.359C148.187 192.547 148.601 191.859 149.125 191.297C149.648 190.734 150.242 190.309 150.906 190.02C151.57 189.73 152.258 189.586 152.969 189.586C153.875 189.586 154.656 189.742 155.312 190.055C155.976 190.367 156.519 190.805 156.941 191.367C157.363 191.922 157.676 192.578 157.879 193.336C158.082 194.086 158.184 194.906 158.184 195.797V196.77H148.715V195H156.016V194.836C155.984 194.273 155.867 193.727 155.664 193.195C155.469 192.664 155.156 192.227 154.726 191.883C154.297 191.539 153.711 191.367 152.969 191.367C152.476 191.367 152.023 191.473 151.609 191.684C151.195 191.887 150.84 192.191 150.543 192.598C150.246 193.004 150.016 193.5 149.851 194.086C149.687 194.672 149.605 195.348 149.605 196.113V196.605C149.605 197.207 149.687 197.773 149.851 198.305C150.023 198.828 150.269 199.289 150.59 199.688C150.918 200.086 151.312 200.398 151.773 200.625C152.242 200.852 152.773 200.965 153.367 200.965C154.133 200.965 154.781 200.809 155.312 200.496C155.844 200.184 156.309 199.766 156.707 199.242L158.019 200.285C157.746 200.699 157.398 201.094 156.976 201.469C156.555 201.844 156.035 202.148 155.418 202.383C154.809 202.617 154.086 202.734 153.25 202.734ZM168.707 200.039V184.5H170.887V202.5H168.894L168.707 200.039ZM160.176 196.301V196.055C160.176 195.086 160.293 194.207 160.527 193.418C160.769 192.621 161.109 191.938 161.547 191.367C161.992 190.797 162.519 190.359 163.129 190.055C163.746 189.742 164.434 189.586 165.191 189.586C165.988 189.586 166.684 189.727 167.277 190.008C167.879 190.281 168.387 190.684 168.801 191.215C169.223 191.738 169.555 192.371 169.797 193.113C170.039 193.855 170.207 194.695 170.301 195.633V196.711C170.215 197.641 170.047 198.477 169.797 199.219C169.555 199.961 169.223 200.594 168.801 201.117C168.387 201.641 167.879 202.043 167.277 202.324C166.676 202.598 165.973 202.734 165.168 202.734C164.426 202.734 163.746 202.574 163.129 202.254C162.519 201.934 161.992 201.484 161.547 200.906C161.109 200.328 160.769 199.648 160.527 198.867C160.293 198.078 160.176 197.223 160.176 196.301ZM162.355 196.055V196.301C162.355 196.934 162.418 197.527 162.543 198.082C162.676 198.637 162.879 199.125 163.152 199.547C163.426 199.969 163.773 200.301 164.195 200.543C164.617 200.777 165.121 200.895 165.707 200.895C166.426 200.895 167.016 200.742 167.476 200.438C167.945 200.133 168.32 199.73 168.601 199.23C168.883 198.73 169.101 198.188 169.258 197.602V194.777C169.164 194.348 169.027 193.934 168.848 193.535C168.676 193.129 168.449 192.77 168.168 192.457C167.894 192.137 167.555 191.883 167.148 191.695C166.75 191.508 166.277 191.414 165.73 191.414C165.137 191.414 164.625 191.539 164.195 191.789C163.773 192.031 163.426 192.367 163.152 192.797C162.879 193.219 162.676 193.711 162.543 194.273C162.418 194.828 162.355 195.422 162.355 196.055ZM185.523 189.82V191.484H178.668V189.82H185.523ZM180.988 186.738H183.156V199.359C183.156 199.789 183.223 200.113 183.355 200.332C183.488 200.551 183.66 200.695 183.871 200.766C184.082 200.836 184.309 200.871 184.551 200.871C184.73 200.871 184.918 200.855 185.113 200.824C185.316 200.785 185.469 200.754 185.57 200.73L185.582 202.5C185.41 202.555 185.184 202.605 184.902 202.652C184.629 202.707 184.297 202.734 183.906 202.734C183.375 202.734 182.887 202.629 182.441 202.418C181.996 202.207 181.641 201.855 181.375 201.363C181.117 200.863 180.988 200.191 180.988 199.348V186.738ZM193.328 202.734C192.445 202.734 191.644 202.586 190.926 202.289C190.215 201.984 189.601 201.559 189.086 201.012C188.578 200.465 188.187 199.816 187.914 199.066C187.641 198.316 187.504 197.496 187.504 196.605V196.113C187.504 195.082 187.656 194.164 187.961 193.359C188.266 192.547 188.68 191.859 189.203 191.297C189.726 190.734 190.32 190.309 190.984 190.02C191.648 189.73 192.336 189.586 193.047 189.586C193.953 189.586 194.734 189.742 195.391 190.055C196.055 190.367 196.598 190.805 197.019 191.367C197.441 191.922 197.754 192.578 197.957 193.336C198.16 194.086 198.262 194.906 198.262 195.797V196.77H188.793V195H196.094V194.836C196.062 194.273 195.945 193.727 195.742 193.195C195.547 192.664 195.234 192.227 194.805 191.883C194.375 191.539 193.789 191.367 193.047 191.367C192.555 191.367 192.101 191.473 191.687 191.684C191.273 191.887 190.918 192.191 190.621 192.598C190.324 193.004 190.094 193.5 189.93 194.086C189.766 194.672 189.684 195.348 189.684 196.113V196.605C189.684 197.207 189.766 197.773 189.93 198.305C190.101 198.828 190.348 199.289 190.668 199.688C190.996 200.086 191.391 200.398 191.851 200.625C192.32 200.852 192.851 200.965 193.445 200.965C194.211 200.965 194.859 200.809 195.391 200.496C195.922 200.184 196.387 199.766 196.785 199.242L198.098 200.285C197.824 200.699 197.476 201.094 197.055 201.469C196.633 201.844 196.113 202.148 195.496 202.383C194.887 202.617 194.164 202.734 193.328 202.734ZM208.269 200.332V193.805C208.269 193.305 208.168 192.871 207.965 192.504C207.769 192.129 207.473 191.84 207.074 191.637C206.676 191.434 206.184 191.332 205.598 191.332C205.051 191.332 204.57 191.426 204.156 191.613C203.75 191.801 203.43 192.047 203.195 192.352C202.969 192.656 202.855 192.984 202.855 193.336H200.687C200.687 192.883 200.805 192.434 201.039 191.988C201.273 191.543 201.609 191.141 202.047 190.781C202.492 190.414 203.023 190.125 203.641 189.914C204.266 189.695 204.961 189.586 205.726 189.586C206.648 189.586 207.461 189.742 208.164 190.055C208.875 190.367 209.43 190.84 209.828 191.473C210.234 192.098 210.437 192.883 210.437 193.828V199.734C210.437 200.156 210.473 200.605 210.543 201.082C210.621 201.559 210.734 201.969 210.883 202.312V202.5H208.621C208.512 202.25 208.426 201.918 208.363 201.504C208.301 201.082 208.269 200.691 208.269 200.332ZM208.644 194.812L208.668 196.336H206.476C205.859 196.336 205.309 196.387 204.824 196.488C204.34 196.582 203.934 196.727 203.605 196.922C203.277 197.117 203.027 197.363 202.855 197.66C202.684 197.949 202.598 198.289 202.598 198.68C202.598 199.078 202.687 199.441 202.867 199.77C203.047 200.098 203.316 200.359 203.676 200.555C204.043 200.742 204.492 200.836 205.023 200.836C205.687 200.836 206.273 200.695 206.781 200.414C207.289 200.133 207.691 199.789 207.988 199.383C208.293 198.977 208.457 198.582 208.48 198.199L209.406 199.242C209.351 199.57 209.203 199.934 208.961 200.332C208.719 200.73 208.394 201.113 207.988 201.48C207.59 201.84 207.113 202.141 206.559 202.383C206.012 202.617 205.394 202.734 204.707 202.734C203.848 202.734 203.094 202.566 202.445 202.23C201.805 201.895 201.305 201.445 200.945 200.883C200.594 200.312 200.418 199.676 200.418 198.973C200.418 198.293 200.551 197.695 200.816 197.18C201.082 196.656 201.465 196.223 201.965 195.879C202.465 195.527 203.066 195.262 203.769 195.082C204.473 194.902 205.258 194.812 206.125 194.812H208.644ZM218.922 200.953C219.437 200.953 219.914 200.848 220.351 200.637C220.789 200.426 221.148 200.137 221.43 199.77C221.711 199.395 221.871 198.969 221.91 198.492H223.973C223.934 199.242 223.68 199.941 223.211 200.59C222.75 201.23 222.144 201.75 221.394 202.148C220.644 202.539 219.82 202.734 218.922 202.734C217.969 202.734 217.137 202.566 216.426 202.23C215.723 201.895 215.137 201.434 214.668 200.848C214.207 200.262 213.859 199.59 213.625 198.832C213.398 198.066 213.285 197.258 213.285 196.406V195.914C213.285 195.062 213.398 194.258 213.625 193.5C213.859 192.734 214.207 192.059 214.668 191.473C215.137 190.887 215.723 190.426 216.426 190.09C217.137 189.754 217.969 189.586 218.922 189.586C219.914 189.586 220.781 189.789 221.523 190.195C222.266 190.594 222.848 191.141 223.269 191.836C223.699 192.523 223.934 193.305 223.973 194.18H221.91C221.871 193.656 221.723 193.184 221.465 192.762C221.215 192.34 220.871 192.004 220.434 191.754C220.004 191.496 219.5 191.367 218.922 191.367C218.258 191.367 217.699 191.5 217.246 191.766C216.801 192.023 216.445 192.375 216.18 192.82C215.922 193.258 215.734 193.746 215.617 194.285C215.508 194.816 215.453 195.359 215.453 195.914V196.406C215.453 196.961 215.508 197.508 215.617 198.047C215.726 198.586 215.91 199.074 216.168 199.512C216.434 199.949 216.789 200.301 217.234 200.566C217.687 200.824 218.25 200.953 218.922 200.953ZM228.578 184.5V202.5H226.41V184.5H228.578ZM228.062 195.68L227.16 195.645C227.168 194.777 227.297 193.977 227.547 193.242C227.797 192.5 228.148 191.855 228.601 191.309C229.055 190.762 229.594 190.34 230.219 190.043C230.851 189.738 231.551 189.586 232.316 189.586C232.941 189.586 233.504 189.672 234.004 189.844C234.504 190.008 234.93 190.273 235.281 190.641C235.641 191.008 235.914 191.484 236.101 192.07C236.289 192.648 236.383 193.355 236.383 194.191V202.5H234.203V194.168C234.203 193.504 234.105 192.973 233.91 192.574C233.715 192.168 233.43 191.875 233.055 191.695C232.68 191.508 232.219 191.414 231.672 191.414C231.133 191.414 230.641 191.527 230.195 191.754C229.758 191.98 229.379 192.293 229.059 192.691C228.746 193.09 228.5 193.547 228.32 194.062C228.148 194.57 228.062 195.109 228.062 195.68ZM244.891 202.734C244.008 202.734 243.207 202.586 242.488 202.289C241.777 201.984 241.164 201.559 240.648 201.012C240.141 200.465 239.75 199.816 239.476 199.066C239.203 198.316 239.066 197.496 239.066 196.605V196.113C239.066 195.082 239.219 194.164 239.523 193.359C239.828 192.547 240.242 191.859 240.766 191.297C241.289 190.734 241.883 190.309 242.547 190.02C243.211 189.73 243.898 189.586 244.609 189.586C245.516 189.586 246.297 189.742 246.953 190.055C247.617 190.367 248.16 190.805 248.582 191.367C249.004 191.922 249.316 192.578 249.519 193.336C249.723 194.086 249.824 194.906 249.824 195.797V196.77H240.355V195H247.656V194.836C247.625 194.273 247.508 193.727 247.305 193.195C247.109 192.664 246.797 192.227 246.367 191.883C245.937 191.539 245.351 191.367 244.609 191.367C244.117 191.367 243.664 191.473 243.25 191.684C242.836 191.887 242.48 192.191 242.184 192.598C241.887 193.004 241.656 193.5 241.492 194.086C241.328 194.672 241.246 195.348 241.246 196.113V196.605C241.246 197.207 241.328 197.773 241.492 198.305C241.664 198.828 241.91 199.289 242.23 199.688C242.559 200.086 242.953 200.398 243.414 200.625C243.883 200.852 244.414 200.965 245.008 200.965C245.773 200.965 246.422 200.809 246.953 200.496C247.484 200.184 247.949 199.766 248.348 199.242L249.66 200.285C249.387 200.699 249.039 201.094 248.617 201.469C248.195 201.844 247.676 202.148 247.059 202.383C246.449 202.617 245.726 202.734 244.891 202.734ZM254.523 191.812V202.5H252.355V189.82H254.465L254.523 191.812ZM258.484 189.75L258.473 191.766C258.293 191.727 258.121 191.703 257.957 191.695C257.801 191.68 257.621 191.672 257.418 191.672C256.918 191.672 256.476 191.75 256.094 191.906C255.711 192.062 255.387 192.281 255.121 192.562C254.855 192.844 254.644 193.18 254.488 193.57C254.34 193.953 254.242 194.375 254.195 194.836L253.586 195.188C253.586 194.422 253.66 193.703 253.809 193.031C253.965 192.359 254.203 191.766 254.523 191.25C254.844 190.727 255.25 190.32 255.742 190.031C256.242 189.734 256.836 189.586 257.523 189.586C257.68 189.586 257.859 189.605 258.062 189.645C258.266 189.676 258.406 189.711 258.484 189.75ZM267.871 199.137C267.871 198.824 267.801 198.535 267.66 198.27C267.527 197.996 267.25 197.75 266.828 197.531C266.414 197.305 265.789 197.109 264.953 196.945C264.25 196.797 263.613 196.621 263.043 196.418C262.48 196.215 262 195.969 261.602 195.68C261.211 195.391 260.91 195.051 260.699 194.66C260.488 194.27 260.383 193.812 260.383 193.289C260.383 192.789 260.492 192.316 260.711 191.871C260.937 191.426 261.254 191.031 261.66 190.688C262.074 190.344 262.57 190.074 263.148 189.879C263.727 189.684 264.371 189.586 265.082 189.586C266.098 189.586 266.965 189.766 267.684 190.125C268.402 190.484 268.953 190.965 269.336 191.566C269.719 192.16 269.91 192.82 269.91 193.547H267.742C267.742 193.195 267.637 192.855 267.426 192.527C267.223 192.191 266.922 191.914 266.523 191.695C266.133 191.477 265.652 191.367 265.082 191.367C264.48 191.367 263.992 191.461 263.617 191.648C263.25 191.828 262.98 192.059 262.809 192.34C262.644 192.621 262.562 192.918 262.562 193.23C262.562 193.465 262.602 193.676 262.68 193.863C262.766 194.043 262.914 194.211 263.125 194.367C263.336 194.516 263.633 194.656 264.016 194.789C264.398 194.922 264.887 195.055 265.48 195.188C266.519 195.422 267.375 195.703 268.047 196.031C268.719 196.359 269.219 196.762 269.547 197.238C269.875 197.715 270.039 198.293 270.039 198.973C270.039 199.527 269.922 200.035 269.687 200.496C269.461 200.957 269.129 201.355 268.691 201.691C268.262 202.02 267.746 202.277 267.144 202.465C266.551 202.645 265.883 202.734 265.141 202.734C264.023 202.734 263.078 202.535 262.305 202.137C261.531 201.738 260.945 201.223 260.547 200.59C260.148 199.957 259.949 199.289 259.949 198.586H262.129C262.16 199.18 262.332 199.652 262.644 200.004C262.957 200.348 263.34 200.594 263.793 200.742C264.246 200.883 264.695 200.953 265.141 200.953C265.734 200.953 266.23 200.875 266.629 200.719C267.035 200.562 267.344 200.348 267.555 200.074C267.766 199.801 267.871 199.488 267.871 199.137Z" fill="#FACC15"/>
</svg>
