<svg width="30" height="33" viewBox="0 0 30 33" fill="none" xmlns="http://www.w3.org/2000/svg">
<path d="M14.6359 22.0523C13.7586 22.0562 12.8929 21.8437 12.1098 21.4322C11.3267 21.0206 10.6485 20.4219 10.1309 19.685L6.52319 21.8406C6.66048 22.0052 6.823 22.1451 7.00423 22.2544L13.4241 26.1037C13.7993 26.3031 14.2146 26.407 14.6359 26.407C15.0572 26.407 15.4725 26.3031 15.8477 26.1037L22.2675 22.2544C22.4487 22.1451 22.6113 22.0052 22.7485 21.8406L19.1501 19.6465C18.6356 20.3918 17.9577 20.9988 17.1726 21.4172C16.3876 21.8356 15.5179 22.0533 14.6359 22.0523Z" fill="#64748B"/>
<path d="M8.98639 16.2431C8.98968 14.8745 9.5216 13.5551 10.4805 12.537C11.4394 11.5189 12.758 10.8735 14.1842 10.7243V6.57593C13.9678 6.61883 13.7597 6.69329 13.567 6.79668L6.87448 10.4759C6.51072 10.708 6.20825 11.0173 5.99079 11.3796C5.77328 11.7418 5.64667 12.1471 5.62085 12.5638V19.9223C5.62382 20.1346 5.65952 20.3454 5.7269 20.5478L9.48789 18.4782C9.15901 17.7747 8.9882 17.0133 8.98639 16.2431Z" fill="#64748B"/>
<path d="M22.4621 10.4733L16.1218 6.79655C15.9394 6.6932 15.7421 6.61879 15.5371 6.57593V10.7123C16.3985 10.8105 17.2249 11.1108 17.9498 11.5891C18.6747 12.0673 19.2779 12.7101 19.7107 13.4658C20.1436 14.2214 20.394 15.0688 20.4419 15.9397C20.4897 16.8105 20.3337 17.6805 19.9863 18.4796L23.5493 20.5478C23.6131 20.3455 23.647 20.1349 23.6498 19.9227V12.5691C23.6267 12.1511 23.5074 11.7442 23.3013 11.3805C23.0951 11.0168 22.8079 10.7062 22.4621 10.4733Z" fill="#64748B"/>
<path d="M27.0796 6.7883L16.6129 0.73498C15.999 0.426653 15.3217 0.266113 14.6349 0.266113C13.9482 0.266113 13.2709 0.426653 12.6571 0.73498L2.19027 6.7883C1.61576 7.1631 1.13743 7.66794 0.793811 8.26201C0.450239 8.85608 0.251073 9.52272 0.212402 10.2081V22.3147C0.250352 23.0015 0.449158 23.6697 0.79273 24.2654C1.1363 24.8612 1.61504 25.3676 2.19027 25.7439L12.6571 31.7974C13.2709 32.1057 13.9482 32.2661 14.6349 32.2661C15.3217 32.2661 15.999 32.1057 16.6129 31.7974L27.0796 25.7439C27.6548 25.3676 28.1336 24.8612 28.4771 24.2654C28.8207 23.6697 29.0195 23.0015 29.0575 22.3147V10.2081C29.0188 9.52272 28.8196 8.85608 28.4761 8.26201C28.1324 7.66794 27.6541 7.1631 27.0796 6.7883ZM25.7357 20.9221C25.705 21.4498 25.5512 21.9628 25.2866 22.4201C25.022 22.8775 24.654 23.2664 24.2121 23.5557L16.1491 28.2164C15.6781 28.4545 15.1578 28.5786 14.6302 28.5786C14.1026 28.5786 13.5823 28.4545 13.1113 28.2164L5.05779 23.5557C4.61587 23.2664 4.24787 22.8775 3.98331 22.4201C3.7187 21.9628 3.56487 21.4498 3.53414 20.9221V11.6101C3.56487 11.0825 3.7187 10.5694 3.98331 10.1121C4.24787 9.65473 4.61587 9.26582 5.05779 8.97656L13.1018 4.31582C13.5728 4.07772 14.0931 3.95364 14.6207 3.95364C15.1484 3.95364 15.6687 4.07772 16.1397 4.31582L24.2026 8.97656C24.6462 9.26478 25.0161 9.65325 25.2824 10.1107C25.5487 10.568 25.704 11.0817 25.7357 11.6101V20.9221Z" fill="#64748B"/>
<path d="M10.5798 16.266C10.5798 17.0237 10.8177 17.7644 11.2634 18.3944C11.7091 19.0244 12.3427 19.5154 13.0839 19.8054C13.8251 20.0954 14.6407 20.1712 15.4276 20.0234C16.2144 19.8756 16.9372 19.5108 17.5044 18.975C18.0717 18.4392 18.4581 17.7566 18.6146 17.0134C18.7711 16.2703 18.6908 15.5 18.3837 14.8C18.0767 14.1 17.5569 13.5016 16.8898 13.0807C16.2227 12.6597 15.4384 12.4351 14.6362 12.4351C13.5604 12.4351 12.5286 12.8387 11.7679 13.5571C11.0072 14.2756 10.5798 15.25 10.5798 16.266Z" fill="#64748B"/>
</svg>
