<svg width="28" height="33" viewBox="0 0 28 33" fill="none" xmlns="http://www.w3.org/2000/svg">
<path d="M13.9785 3.3776L19.296 6.44823L21.9921 4.89589L13.9785 0.266113L0.593018 8.00057L3.27556 9.5529L13.9785 3.3776Z" fill="#64748B"/>
<path d="M24.6768 6.44824L13.9807 12.6235L8.66323 9.55292L5.97388 11.1053L13.9807 15.7282L27.373 8.00058L24.6768 6.44824Z" fill="#64748B"/>
<path d="M2.74624 16.838L0.0568848 15.2856V24.5316L13.4424 32.266V29.1614L2.74624 22.9792V16.838Z" fill="#64748B"/>
<path d="M0.0568848 12.1808L10.753 18.3562V24.4974L13.4424 26.0566V16.8038L0.0568848 9.07617V12.1808Z" fill="#64748B"/>
<path d="M22.5326 15.2856V12.1809L14.519 16.8039V32.266L17.2084 30.7136V18.3562L22.5326 15.2856Z" fill="#64748B"/>
<path d="M25.2147 10.6285V22.9791L19.8972 26.0566V29.1612L27.9108 24.5315V9.07617L25.2147 10.6285Z" fill="#64748B"/>
</svg>
