<svg width="35" height="33" viewBox="0 0 35 33" fill="none" xmlns="http://www.w3.org/2000/svg">
<path d="M11.3003 13.2584L6.1089 10.2402L0.910645 13.2584V19.2809L6.1089 22.2922L11.3003 19.2809V13.2584ZM10.1824 18.6332L6.1089 20.9898L2.03534 18.6332V13.9061L6.1089 11.5426L10.1824 13.9061V18.6332Z" fill="#64748B"/>
<path d="M22.5207 13.2515L17.5304 10.2402L12.5466 13.2515V19.274L17.5304 22.2922L22.5207 19.274V13.2515Z" fill="#64748B"/>
<path d="M28.96 10.2402L23.7686 13.2584V19.2809L28.96 22.2922L34.1582 19.2809V13.2584L28.96 10.2402ZM33.0336 18.6332L28.96 20.9898L24.8864 18.6332V13.9061L28.96 11.5426L33.0336 13.9061V18.6332Z" fill="#64748B"/>
<path d="M6.72974 23.2323V29.2548L11.9348 32.2661L17.1194 29.2548V23.2323L11.9348 20.2141L6.72974 23.2323ZM15.9824 28.6277L11.9348 30.9637L7.82555 28.6277V23.88L11.9348 21.5165L15.9962 23.88L15.9824 28.6277Z" fill="#64748B"/>
<path d="M17.9495 23.2323V29.2548L23.1408 32.2661L28.3391 29.2548V23.2323L23.1408 20.2141L17.9495 23.2323ZM27.2144 28.6277L23.1408 30.9844L19.0742 28.6277V23.88L23.1408 21.5165L27.2144 23.88V28.6277Z" fill="#64748B"/>
<path d="M17.1194 9.30678V3.2636L11.9417 0.266113L6.72974 3.2636V9.28613L11.9417 12.3181L17.1194 9.30678ZM7.827 3.95268L11.9417 1.56847L15.9947 3.95268V8.67975L11.9417 11.0157L7.827 8.65905V3.95268Z" fill="#64748B"/>
<path d="M28.3391 9.32748V3.28426L23.1408 0.266113L17.9495 3.28426V9.30678L23.1408 12.3181L28.3391 9.32748ZM19.0742 3.97334L23.1408 1.60982L27.2144 3.97334V8.7004L23.1408 11.0571L19.0742 8.7004V3.97334Z" fill="#64748B"/>
</svg>
