<svg width="33" height="33" viewBox="0 0 33 33" fill="none" xmlns="http://www.w3.org/2000/svg">
<path d="M5.02512 6.33325L0.0576172 11.3008L5.02512 16.2683L9.99262 11.3008L5.02512 6.33325Z" fill="#64748B"/>
<path d="M10.001 11.2987L5.03167 6.32935C6.34857 7.64672 7.08838 9.43321 7.08838 11.2959C7.08838 13.1587 6.34857 14.9452 5.03167 16.2626L0.0622559 21.2264L5.03167 26.1958L10.001 21.2264L14.9704 16.2626L10.001 11.2987Z" fill="#CBD5E1"/>
<path d="M27.0849 26.2065L32.0523 21.239L27.0849 16.2715L22.1174 21.239L27.0849 26.2065Z" fill="#64748B"/>
<path d="M22.1181 21.2375L27.0875 26.2013C25.7706 24.884 25.0308 23.0975 25.0308 21.2347C25.0308 19.372 25.7706 17.5855 27.0875 16.2681L32.057 11.2987L27.0875 6.32935L22.1181 11.2987L17.1543 16.2681L22.1181 21.2375Z" fill="#CBD5E1"/>
<path d="M6.12427 27.2986L11.0918 32.2661L16.0593 27.2986L11.0918 22.3311L6.12427 27.2986Z" fill="#64748B"/>
<path d="M11.0922 22.3237L6.1228 27.2931C7.44018 25.9762 9.22663 25.2364 11.0894 25.2364C12.9521 25.2364 14.7386 25.9762 16.056 27.2931L21.0198 32.2626L25.9892 27.2931L21.0198 22.3237L16.056 17.3599L11.0922 22.3237Z" fill="#CBD5E1"/>
<path d="M25.9983 5.23365L21.0307 0.266113L16.0632 5.23361L21.0307 10.2012L25.9983 5.23365Z" fill="#64748B"/>
<path d="M21.0309 10.2066L25.9948 5.23724C24.6774 6.55414 22.8909 7.29394 21.0282 7.29394C19.1654 7.29394 17.379 6.55414 16.0616 5.23724L11.0922 0.267822L6.1228 5.23724L11.0922 10.2066L16.0616 15.176L21.0309 10.2066Z" fill="#CBD5E1"/>
</svg>
