<svg width="26" height="33" viewBox="0 0 26 33" fill="none" xmlns="http://www.w3.org/2000/svg">
<path d="M15.7631 9.30384C16.7145 9.30471 17.6551 9.51131 18.5234 9.91004C19.3917 10.3088 20.1683 10.8908 20.8026 11.6181L22.7883 9.78214C21.5173 8.33249 19.8497 7.30942 18.0032 6.84648C16.1568 6.3835 14.2172 6.50214 12.4374 7.18689C10.6576 7.87165 9.12043 9.0907 8.02642 10.685C6.93236 12.2793 6.33231 14.1748 6.30448 16.1241C6.27665 18.0735 6.82239 19.9862 7.87044 21.6126C8.91854 23.2391 10.4203 24.5038 12.1797 25.2417C13.9391 25.9795 15.8746 26.1563 17.7335 25.749C19.5924 25.3417 21.2884 24.3691 22.6003 22.9583L20.6597 21.0682C19.8866 21.8974 18.9253 22.5171 17.8617 22.8721C16.7981 23.227 15.6652 23.3062 14.5645 23.1023C13.4638 22.8985 12.4295 22.4182 11.554 21.7042C10.6785 20.9902 9.98918 20.0649 9.54763 19.0109C9.10603 17.9569 8.92596 16.8071 9.02351 15.6643C9.12111 14.5214 9.49323 13.4212 10.1067 12.462C10.7201 11.5027 11.5558 10.7143 12.5389 10.1673C13.5221 9.62015 14.6221 9.33147 15.7406 9.32697L15.7631 9.30384Z" fill="#64748B"/>
<path d="M6.78787 7.00992L4.8288 5.1145C3.29837 6.57642 2.08397 8.31411 1.25527 10.2279C0.426618 12.1416 0 14.1936 0 16.266C0 18.3384 0.426618 20.3905 1.25527 22.3042C2.08397 24.2179 3.29837 25.9556 4.8288 27.4175L6.78787 25.5221C5.5119 24.3118 4.49886 22.8704 3.80741 21.2815C3.11602 19.6927 2.76 17.9879 2.76 16.266C2.76 14.5441 3.11602 12.8393 3.80741 11.2505C4.49886 9.6616 5.5119 8.22025 6.78787 7.00992Z" fill="#64748B"/>
<path d="M25.2124 3.40566C22.5412 1.36198 19.3135 0.261955 16.0002 0.266125V3.01807C18.7341 3.01546 21.3979 3.9195 23.6064 5.59945L25.2124 3.40566Z" fill="#64748B"/>
<path d="M16.0002 29.5513V32.2662C19.0995 32.2697 22.1325 31.3661 24.7275 29.6661L23.2031 27.4177C21.0587 28.8136 18.5565 29.5548 16.0002 29.5513Z" fill="#64748B"/>
<path d="M15.9999 26.1983C13.9004 26.1969 11.852 25.569 10.132 24.3996C8.41204 23.2302 7.10353 21.5757 6.38353 19.6602L3.87866 20.79C4.82193 23.1689 6.48496 25.2144 8.64869 26.6571C10.8124 28.0999 13.3753 28.8721 15.9999 28.8723V26.1983Z" fill="#64748B"/>
<path d="M6.06846 15.7814C6.23108 13.2308 7.34788 10.8383 9.19219 9.08919C11.0365 7.34015 13.4702 6.36551 15.9996 6.36304V3.66016C12.7605 3.66006 9.64533 4.91834 7.29881 7.17458C4.95229 9.43087 3.55404 12.5124 3.39355 15.7814H6.06846Z" fill="#64748B"/>
</svg>
