<svg width="24" height="25" viewBox="0 0 24 25" fill="none" xmlns="http://www.w3.org/2000/svg">
<path d="M4.252 10.5C4.08416 11.1534 3.99949 11.8254 4 12.5C4 13.19 4.088 13.86 4.252 14.5H7.1C6.96518 13.1701 6.96518 11.8299 7.1 10.5H4.252ZM5.07 8.5H7.416C7.682 7.283 8.066 6.193 8.537 5.286C7.08518 5.98542 5.87722 7.10523 5.07 8.5ZM19.748 10.5H16.9C17.0348 11.8299 17.0348 13.1701 16.9 14.5H19.748C20.0847 13.1879 20.0847 11.8121 19.748 10.5ZM18.93 8.5C18.1228 7.10523 16.9148 5.98542 15.463 5.286C15.935 6.193 16.318 7.283 16.584 8.5H18.93ZM9.112 10.5C9.03708 11.164 8.99968 11.8318 9 12.5C9 13.185 9.038 13.855 9.112 14.5H14.888C15.0386 13.1709 15.0386 11.8291 14.888 10.5H9.112ZM9.47 8.5H14.53C14.348 7.7483 14.0855 7.01841 13.747 6.323C13.119 5.068 12.447 4.5 12 4.5C11.552 4.5 10.881 5.068 10.253 6.323C9.938 6.955 9.673 7.69 9.47 8.5ZM5.07 16.5C5.87722 17.8948 7.08518 19.0146 8.537 19.714C8.065 18.807 7.682 17.717 7.416 16.5H5.07ZM18.93 16.5H16.584C16.318 17.717 15.934 18.807 15.463 19.714C16.9148 19.0146 18.1228 17.8948 18.93 16.5ZM9.47 16.5C9.673 17.31 9.938 18.045 10.253 18.677C10.881 19.932 11.553 20.5 12 20.5C12.448 20.5 13.119 19.932 13.747 18.677C14.062 18.045 14.327 17.31 14.53 16.5H9.47ZM12 22.5C6.477 22.5 2 18.023 2 12.5C2 6.977 6.477 2.5 12 2.5C17.523 2.5 22 6.977 22 12.5C22 18.023 17.523 22.5 12 22.5Z" fill="#E2E8F0"/>
</svg>
